<?xml version="1.0" encoding="UTF-8"?> <svg xmlns="http://www.w3.org/2000/svg" width="14" height="14" viewBox="0 0 14 14" fill="none"> <path d="M10.5 1.4H13.3C13.4857 1.4 13.6637 1.47375 13.795 1.60503C13.9263 1.7363 14 1.91435 14 2.1V13.3C14 13.4857 13.9263 13.6637 13.795 13.795C13.6637 13.9263 13.4857 14 13.3 14H0.7C0.514348 14 0.336301 13.9263 0.205025 13.795C0.0737498 13.6637 0 13.4857 0 13.3V2.1C0 1.91435 0.0737498 1.7363 0.205025 1.60503C0.336301 1.47375 0.514348 1.4 0.7 1.4H3.5V0H4.9V1.4H9.1V0H10.5V1.4ZM9.1 2.8H4.9V4.2H3.5V2.8H1.4V5.6H12.6V2.8H10.5V4.2H9.1V2.8ZM12.6 7H1.4V12.6H12.6V7Z" fill="#F3DC9F"></path> <path d="M10.5 1.4H13.3C13.4857 1.4 13.6637 1.47375 13.795 1.60503C13.9263 1.7363 14 1.91435 14 2.1V13.3C14 13.4857 13.9263 13.6637 13.795 13.795C13.6637 13.9263 13.4857 14 13.3 14H0.7C0.514348 14 0.336301 13.9263 0.205025 13.795C0.0737498 13.6637 0 13.4857 0 13.3V2.1C0 1.91435 0.0737498 1.7363 0.205025 1.60503C0.336301 1.47375 0.514348 1.4 0.7 1.4H3.5V0H4.9V1.4H9.1V0H10.5V1.4ZM9.1 2.8H4.9V4.2H3.5V2.8H1.4V5.6H12.6V2.8H10.5V4.2H9.1V2.8ZM12.6 7H1.4V12.6H12.6V7Z" fill="url(#paint0_linear_145_163)"></path> <defs> <linearGradient id="paint0_linear_145_163" x1="11.9769" y1="-3.54118" x2="-0.583808" y2="-0.76357" gradientUnits="userSpaceOnUse"> <stop stop-color="#FFE8CA"></stop> <stop offset="0.260417" stop-color="#FFE0E3"></stop> <stop offset="0.442708" stop-color="#FFC9ED"></stop> <stop offset="0.697917" stop-color="#C8BDFB"></stop> <stop offset="0.947917" stop-color="#A7C7FF"></stop> </linearGradient> </defs> </svg> 