<?xml version="1.0" encoding="UTF-8"?> <svg xmlns="http://www.w3.org/2000/svg" width="39" height="39" viewBox="0 0 39 39" fill="none"> <circle cx="19.4768" cy="19.4768" r="19.4768" fill="#EDF2F4"></circle> <path d="M14.4209 19.8695C14.3985 21.9418 14.7493 22.9989 15.3347 23.5843C15.9233 24.1729 16.9959 24.5326 19.0949 24.5326C21.1936 24.5326 22.253 24.173 22.8355 23.5867C23.4196 22.9987 23.7688 21.9377 23.7688 19.8587C23.7688 17.7797 23.4196 16.7187 22.8355 16.1308C22.253 15.5444 21.1936 15.1848 19.0949 15.1848C16.9966 15.1848 15.9505 15.5443 15.3739 16.1284C14.7911 16.7189 14.4435 17.7838 14.4209 19.8695Z" stroke="#8D99AE" stroke-width="2" stroke-linecap="round" stroke-linejoin="round"></path> <path d="M20.0949 10.6386C20.0949 10.0863 19.6472 9.63858 19.0949 9.63858C18.5426 9.63858 18.0949 10.0863 18.0949 10.6386H20.0949ZM18.0949 12.0571C18.0949 12.6093 18.5426 13.0571 19.0949 13.0571C19.6472 13.0571 20.0949 12.6093 20.0949 12.0571H18.0949ZM18.0949 10.6386V12.0571H20.0949V10.6386H18.0949Z" fill="#8D99AE"></path> <path d="M20.0949 27.6603C20.0949 27.1081 19.6472 26.6603 19.0949 26.6603C18.5426 26.6603 18.0949 27.1081 18.0949 27.6603H20.0949ZM18.0949 29.0788C18.0949 29.6311 18.5426 30.0788 19.0949 30.0788C19.6472 30.0788 20.0949 29.6311 20.0949 29.0788H18.0949ZM18.0949 27.6603V29.0788H20.0949V27.6603H18.0949Z" fill="#8D99AE"></path> <path d="M28.315 20.8587C28.8673 20.8587 29.315 20.411 29.315 19.8587C29.315 19.3064 28.8673 18.8587 28.315 18.8587L28.315 20.8587ZM26.8965 18.8587C26.3442 18.8587 25.8965 19.3064 25.8965 19.8587C25.8965 20.411 26.3442 20.8587 26.8965 20.8587L26.8965 18.8587ZM28.315 18.8587L26.8965 18.8587L26.8965 20.8587L28.315 20.8587L28.315 18.8587Z" fill="#8D99AE"></path> <path d="M11.2932 20.8587C11.8455 20.8587 12.2932 20.411 12.2932 19.8587C12.2932 19.3064 11.8455 18.8587 11.2932 18.8587L11.2932 20.8587ZM9.87476 18.8587C9.32248 18.8587 8.87476 19.3064 8.87476 19.8587C8.87476 20.411 9.32248 20.8587 9.87476 20.8587L9.87476 18.8587ZM11.2932 18.8587L9.87476 18.8587L9.87476 20.8587L11.2932 20.8587L11.2932 18.8587Z" fill="#8D99AE"></path> <path d="M12.7096 12.0592C12.3191 11.6687 11.6859 11.6687 11.2954 12.0592C10.9048 12.4497 10.9048 13.0829 11.2954 13.4734L12.7096 12.0592ZM12.2984 14.4764C12.6889 14.8669 13.3221 14.8669 13.7126 14.4764C14.1031 14.0859 14.1031 13.4527 13.7126 13.0622L12.2984 14.4764ZM11.2954 13.4734L12.2984 14.4764L13.7126 13.0622L12.7096 12.0592L11.2954 13.4734Z" fill="#8D99AE"></path> <path d="M12.7096 27.9519C12.3191 28.3424 11.6859 28.3424 11.2954 27.9519C10.9048 27.5614 10.9048 26.9282 11.2954 26.5377L12.7096 27.9519ZM12.2984 25.5347C12.6889 25.1441 13.3221 25.1441 13.7126 25.5347C14.1031 25.9252 14.1031 26.5583 13.7126 26.9489L12.2984 25.5347ZM11.2954 26.5377L12.2984 25.5347L13.7126 26.9489L12.7096 27.9519L11.2954 26.5377Z" fill="#8D99AE"></path> <path d="M25.7739 12.0592C26.1644 11.6687 26.7975 11.6687 27.1881 12.0592C27.5786 12.4497 27.5786 13.0829 27.1881 13.4734L25.7739 12.0592ZM26.185 14.4764C25.7945 14.8669 25.1614 14.8669 24.7708 14.4764C24.3803 14.0859 24.3803 13.4527 24.7708 13.0622L26.185 14.4764ZM27.1881 13.4734L26.185 14.4764L24.7708 13.0622L25.7739 12.0592L27.1881 13.4734Z" fill="#8D99AE"></path> <path d="M25.7739 27.9519C26.1644 28.3424 26.7975 28.3424 27.1881 27.9519C27.5786 27.5614 27.5786 26.9282 27.1881 26.5377L25.7739 27.9519ZM26.185 25.5347C25.7945 25.1441 25.1614 25.1441 24.7708 25.5347C24.3803 25.9252 24.3803 26.5583 24.7708 26.9489L26.185 25.5347ZM27.1881 26.5377L26.185 25.5347L24.7708 26.9489L25.7739 27.9519L27.1881 26.5377Z" fill="#8D99AE"></path> </svg> 