<?xml version="1.0" encoding="UTF-8"?> <svg xmlns="http://www.w3.org/2000/svg" width="90" height="48" viewBox="0 0 90 48" fill="none"> <path d="M24.2642 19V4.45455H30.0881C31.1581 4.45455 32.0507 4.61316 32.7656 4.9304C33.4806 5.24763 34.018 5.68797 34.3778 6.25142C34.7377 6.81013 34.9176 7.45407 34.9176 8.18324C34.9176 8.75142 34.804 9.25095 34.5767 9.68182C34.3494 10.108 34.0369 10.4583 33.6392 10.733C33.2462 11.0028 32.7964 11.1946 32.2898 11.3082V11.4503C32.8438 11.474 33.3622 11.6302 33.8452 11.919C34.3329 12.2079 34.7282 12.6127 35.0312 13.1335C35.3343 13.6496 35.4858 14.2652 35.4858 14.9801C35.4858 15.7519 35.294 16.4408 34.9105 17.0469C34.5317 17.6482 33.9706 18.1241 33.2273 18.4744C32.4839 18.8248 31.5677 19 30.4787 19H24.2642ZM27.3395 16.4858H29.8466C30.7036 16.4858 31.3286 16.3224 31.7216 15.9957C32.1146 15.6643 32.3111 15.224 32.3111 14.6747C32.3111 14.2723 32.214 13.9171 32.0199 13.6094C31.8258 13.3016 31.5488 13.0601 31.1889 12.8849C30.8338 12.7098 30.41 12.6222 29.9176 12.6222H27.3395V16.4858ZM27.3395 10.5412H29.6193C30.0407 10.5412 30.4148 10.4678 30.7415 10.321C31.0729 10.1695 31.3333 9.95644 31.5227 9.68182C31.7169 9.4072 31.8139 9.07812 31.8139 8.6946C31.8139 8.16903 31.6269 7.74527 31.2528 7.4233C30.8835 7.10133 30.358 6.94034 29.6761 6.94034H27.3395V10.5412ZM42.4016 19.2131C41.2795 19.2131 40.3136 18.9858 39.5039 18.5312C38.699 18.072 38.0787 17.4233 37.6431 16.5852C37.2075 15.7424 36.9897 14.7457 36.9897 13.5952C36.9897 12.473 37.2075 11.4882 37.6431 10.6406C38.0787 9.79309 38.6919 9.13258 39.4826 8.65909C40.2781 8.18561 41.2108 7.94886 42.2809 7.94886C43.0006 7.94886 43.6706 8.06487 44.2908 8.29688C44.9158 8.52415 45.4603 8.86742 45.9244 9.3267C46.3931 9.78598 46.7577 10.3636 47.0181 11.0597C47.2785 11.7509 47.4087 12.5606 47.4087 13.4886V14.3196H38.1971V12.4446H44.5607C44.5607 12.009 44.466 11.6231 44.2766 11.2869C44.0872 10.9508 43.8245 10.688 43.4883 10.4986C43.1568 10.3045 42.771 10.2074 42.3306 10.2074C41.8713 10.2074 41.4641 10.3139 41.109 10.527C40.7586 10.7353 40.484 11.017 40.2852 11.3722C40.0863 11.7225 39.9845 12.1132 39.9798 12.544V14.3267C39.9798 14.8665 40.0792 15.3329 40.2781 15.7259C40.4817 16.1188 40.7681 16.4219 41.1374 16.6349C41.5067 16.848 41.9447 16.9545 42.4513 16.9545C42.7875 16.9545 43.0953 16.9072 43.3746 16.8125C43.654 16.7178 43.8931 16.5758 44.092 16.3864C44.2908 16.197 44.4424 15.965 44.5465 15.6903L47.3448 15.875C47.2028 16.5473 46.9116 17.1345 46.4712 17.6364C46.0356 18.1335 45.4722 18.5218 44.7809 18.8011C44.0943 19.0758 43.3013 19.2131 42.4016 19.2131ZM58.4599 11.2017L55.69 11.3722C55.6426 11.1354 55.5408 10.9223 55.3846 10.733C55.2283 10.5388 55.0224 10.3849 54.7667 10.2713C54.5157 10.1529 54.2151 10.0938 53.8647 10.0938C53.396 10.0938 53.0006 10.1932 52.6786 10.392C52.3567 10.5862 52.1957 10.8466 52.1957 11.1733C52.1957 11.4337 52.2998 11.6539 52.5082 11.8338C52.7165 12.0137 53.074 12.1581 53.5806 12.267L55.555 12.6648C56.6156 12.8826 57.4064 13.233 57.9272 13.7159C58.448 14.1989 58.7085 14.8333 58.7085 15.6193C58.7085 16.3343 58.4978 16.9616 58.0763 17.5014C57.6597 18.0412 57.0868 18.4626 56.3576 18.7656C55.6332 19.0639 54.7975 19.2131 53.8505 19.2131C52.4064 19.2131 51.2558 18.9124 50.3988 18.3111C49.5465 17.705 49.047 16.8812 48.9002 15.8395L51.8761 15.6832C51.966 16.1236 52.1838 16.4598 52.5295 16.6918C52.8751 16.919 53.3178 17.0327 53.8576 17.0327C54.3879 17.0327 54.814 16.9309 55.136 16.7273C55.4627 16.5189 55.6284 16.2514 55.6332 15.9247C55.6284 15.6501 55.5124 15.4252 55.2852 15.25C55.0579 15.0701 54.7075 14.9328 54.234 14.8381L52.3448 14.4616C51.2795 14.2486 50.4864 13.8793 49.9656 13.3537C49.4495 12.8281 49.1914 12.1581 49.1914 11.3438C49.1914 10.643 49.3808 10.0393 49.7596 9.53267C50.1431 9.02604 50.6805 8.63542 51.3718 8.3608C52.0678 8.08617 52.8822 7.94886 53.815 7.94886C55.1928 7.94886 56.2771 8.24006 57.0678 8.82244C57.8633 9.40483 58.3273 10.1979 58.4599 11.2017ZM66.4162 8.09091V10.3636H59.8466V8.09091H66.4162ZM61.3381 5.47727H64.3636V15.6477C64.3636 15.9271 64.4063 16.1449 64.4915 16.3011C64.5767 16.4527 64.6951 16.5592 64.8466 16.6207C65.0028 16.6823 65.1828 16.7131 65.3864 16.7131C65.5284 16.7131 65.6705 16.7012 65.8125 16.6776C65.9545 16.6491 66.0634 16.6278 66.1392 16.6136L66.6151 18.8651C66.4635 18.9124 66.2505 18.9669 65.9759 19.0284C65.7012 19.0947 65.3674 19.1349 64.9744 19.1491C64.2453 19.1776 63.6061 19.0805 63.0568 18.858C62.5123 18.6354 62.0885 18.2898 61.7855 17.821C61.4825 17.3523 61.3333 16.7604 61.3381 16.0455V5.47727Z" fill="white"></path> <path d="M24.2642 19V4.45455H30.0881C31.1581 4.45455 32.0507 4.61316 32.7656 4.9304C33.4806 5.24763 34.018 5.68797 34.3778 6.25142C34.7377 6.81013 34.9176 7.45407 34.9176 8.18324C34.9176 8.75142 34.804 9.25095 34.5767 9.68182C34.3494 10.108 34.0369 10.4583 33.6392 10.733C33.2462 11.0028 32.7964 11.1946 32.2898 11.3082V11.4503C32.8438 11.474 33.3622 11.6302 33.8452 11.919C34.3329 12.2079 34.7282 12.6127 35.0312 13.1335C35.3343 13.6496 35.4858 14.2652 35.4858 14.9801C35.4858 15.7519 35.294 16.4408 34.9105 17.0469C34.5317 17.6482 33.9706 18.1241 33.2273 18.4744C32.4839 18.8248 31.5677 19 30.4787 19H24.2642ZM27.3395 16.4858H29.8466C30.7036 16.4858 31.3286 16.3224 31.7216 15.9957C32.1146 15.6643 32.3111 15.224 32.3111 14.6747C32.3111 14.2723 32.214 13.9171 32.0199 13.6094C31.8258 13.3016 31.5488 13.0601 31.1889 12.8849C30.8338 12.7098 30.41 12.6222 29.9176 12.6222H27.3395V16.4858ZM27.3395 10.5412H29.6193C30.0407 10.5412 30.4148 10.4678 30.7415 10.321C31.0729 10.1695 31.3333 9.95644 31.5227 9.68182C31.7169 9.4072 31.8139 9.07812 31.8139 8.6946C31.8139 8.16903 31.6269 7.74527 31.2528 7.4233C30.8835 7.10133 30.358 6.94034 29.6761 6.94034H27.3395V10.5412ZM42.4016 19.2131C41.2795 19.2131 40.3136 18.9858 39.5039 18.5312C38.699 18.072 38.0787 17.4233 37.6431 16.5852C37.2075 15.7424 36.9897 14.7457 36.9897 13.5952C36.9897 12.473 37.2075 11.4882 37.6431 10.6406C38.0787 9.79309 38.6919 9.13258 39.4826 8.65909C40.2781 8.18561 41.2108 7.94886 42.2809 7.94886C43.0006 7.94886 43.6706 8.06487 44.2908 8.29688C44.9158 8.52415 45.4603 8.86742 45.9244 9.3267C46.3931 9.78598 46.7577 10.3636 47.0181 11.0597C47.2785 11.7509 47.4087 12.5606 47.4087 13.4886V14.3196H38.1971V12.4446H44.5607C44.5607 12.009 44.466 11.6231 44.2766 11.2869C44.0872 10.9508 43.8245 10.688 43.4883 10.4986C43.1568 10.3045 42.771 10.2074 42.3306 10.2074C41.8713 10.2074 41.4641 10.3139 41.109 10.527C40.7586 10.7353 40.484 11.017 40.2852 11.3722C40.0863 11.7225 39.9845 12.1132 39.9798 12.544V14.3267C39.9798 14.8665 40.0792 15.3329 40.2781 15.7259C40.4817 16.1188 40.7681 16.4219 41.1374 16.6349C41.5067 16.848 41.9447 16.9545 42.4513 16.9545C42.7875 16.9545 43.0953 16.9072 43.3746 16.8125C43.654 16.7178 43.8931 16.5758 44.092 16.3864C44.2908 16.197 44.4424 15.965 44.5465 15.6903L47.3448 15.875C47.2028 16.5473 46.9116 17.1345 46.4712 17.6364C46.0356 18.1335 45.4722 18.5218 44.7809 18.8011C44.0943 19.0758 43.3013 19.2131 42.4016 19.2131ZM58.4599 11.2017L55.69 11.3722C55.6426 11.1354 55.5408 10.9223 55.3846 10.733C55.2283 10.5388 55.0224 10.3849 54.7667 10.2713C54.5157 10.1529 54.2151 10.0938 53.8647 10.0938C53.396 10.0938 53.0006 10.1932 52.6786 10.392C52.3567 10.5862 52.1957 10.8466 52.1957 11.1733C52.1957 11.4337 52.2998 11.6539 52.5082 11.8338C52.7165 12.0137 53.074 12.1581 53.5806 12.267L55.555 12.6648C56.6156 12.8826 57.4064 13.233 57.9272 13.7159C58.448 14.1989 58.7085 14.8333 58.7085 15.6193C58.7085 16.3343 58.4978 16.9616 58.0763 17.5014C57.6597 18.0412 57.0868 18.4626 56.3576 18.7656C55.6332 19.0639 54.7975 19.2131 53.8505 19.2131C52.4064 19.2131 51.2558 18.9124 50.3988 18.3111C49.5465 17.705 49.047 16.8812 48.9002 15.8395L51.8761 15.6832C51.966 16.1236 52.1838 16.4598 52.5295 16.6918C52.8751 16.919 53.3178 17.0327 53.8576 17.0327C54.3879 17.0327 54.814 16.9309 55.136 16.7273C55.4627 16.5189 55.6284 16.2514 55.6332 15.9247C55.6284 15.6501 55.5124 15.4252 55.2852 15.25C55.0579 15.0701 54.7075 14.9328 54.234 14.8381L52.3448 14.4616C51.2795 14.2486 50.4864 13.8793 49.9656 13.3537C49.4495 12.8281 49.1914 12.1581 49.1914 11.3438C49.1914 10.643 49.3808 10.0393 49.7596 9.53267C50.1431 9.02604 50.6805 8.63542 51.3718 8.3608C52.0678 8.08617 52.8822 7.94886 53.815 7.94886C55.1928 7.94886 56.2771 8.24006 57.0678 8.82244C57.8633 9.40483 58.3273 10.1979 58.4599 11.2017ZM66.4162 8.09091V10.3636H59.8466V8.09091H66.4162ZM61.3381 5.47727H64.3636V15.6477C64.3636 15.9271 64.4063 16.1449 64.4915 16.3011C64.5767 16.4527 64.6951 16.5592 64.8466 16.6207C65.0028 16.6823 65.1828 16.7131 65.3864 16.7131C65.5284 16.7131 65.6705 16.7012 65.8125 16.6776C65.9545 16.6491 66.0634 16.6278 66.1392 16.6136L66.6151 18.8651C66.4635 18.9124 66.2505 18.9669 65.9759 19.0284C65.7012 19.0947 65.3674 19.1349 64.9744 19.1491C64.2453 19.1776 63.6061 19.0805 63.0568 18.858C62.5123 18.6354 62.0885 18.2898 61.7855 17.821C61.4825 17.3523 61.3333 16.7604 61.3381 16.0455V5.47727Z" fill="url(#paint0_linear_197_628)"></path> <path d="M9.15483 32.6378C9.09801 32.0649 8.85417 31.6198 8.4233 31.3026C7.99242 30.9853 7.40767 30.8267 6.66903 30.8267C6.16714 30.8267 5.74337 30.8977 5.39773 31.0398C5.05208 31.1771 4.78693 31.3688 4.60227 31.6151C4.42235 31.8613 4.33239 32.1406 4.33239 32.4531C4.32292 32.7135 4.37737 32.9408 4.49574 33.1349C4.61884 33.3291 4.78693 33.4972 5 33.6392C5.21307 33.7765 5.45928 33.8973 5.73864 34.0014C6.01799 34.1009 6.31629 34.1861 6.63352 34.2571L7.94034 34.5696C8.57481 34.7116 9.1572 34.901 9.6875 35.1378C10.2178 35.3745 10.6771 35.6657 11.0653 36.0114C11.4536 36.357 11.7543 36.7642 11.9673 37.233C12.1851 37.7017 12.2964 38.2391 12.3011 38.8452C12.2964 39.7353 12.0691 40.5071 11.6193 41.1605C11.1742 41.8092 10.5303 42.3134 9.6875 42.6733C8.84943 43.0284 7.83854 43.206 6.65483 43.206C5.48059 43.206 4.45786 43.026 3.58665 42.6662C2.72017 42.3063 2.04309 41.7737 1.5554 41.0682C1.07244 40.358 0.819129 39.4796 0.795455 38.4332H3.77131C3.80445 38.9209 3.94413 39.3281 4.19034 39.6548C4.44129 39.9768 4.77509 40.2206 5.19176 40.3864C5.61316 40.5473 6.08902 40.6278 6.61932 40.6278C7.14015 40.6278 7.59233 40.5521 7.97585 40.4006C8.36411 40.2491 8.66477 40.0384 8.87784 39.7685C9.09091 39.4986 9.19744 39.1884 9.19744 38.8381C9.19744 38.5114 9.10038 38.2367 8.90625 38.0142C8.71686 37.7917 8.4375 37.6023 8.06818 37.446C7.7036 37.2898 7.25616 37.1477 6.72585 37.0199L5.14205 36.6222C3.91572 36.3239 2.94744 35.8575 2.23722 35.223C1.52699 34.5885 1.17424 33.7339 1.17898 32.6591C1.17424 31.7784 1.40862 31.009 1.8821 30.3509C2.36032 29.6927 3.0161 29.179 3.84943 28.8097C4.68277 28.4403 5.62973 28.2557 6.69034 28.2557C7.76989 28.2557 8.71212 28.4403 9.51705 28.8097C10.3267 29.179 10.9564 29.6927 11.4062 30.3509C11.8561 31.009 12.0881 31.7713 12.1023 32.6378H9.15483ZM20.1154 32.0909V34.3636H13.5458V32.0909H20.1154ZM15.0373 29.4773H18.0629V39.6477C18.0629 39.9271 18.1055 40.1449 18.1907 40.3011C18.2759 40.4527 18.3943 40.5592 18.5458 40.6207C18.7021 40.6823 18.882 40.7131 19.0856 40.7131C19.2276 40.7131 19.3697 40.7012 19.5117 40.6776C19.6538 40.6491 19.7627 40.6278 19.8384 40.6136L20.3143 42.8651C20.1628 42.9124 19.9497 42.9669 19.6751 43.0284C19.4004 43.0947 19.0666 43.1349 18.6737 43.1491C17.9445 43.1776 17.3053 43.0805 16.756 42.858C16.2115 42.6354 15.7878 42.2898 15.4847 41.821C15.1817 41.3523 15.0326 40.7604 15.0373 40.0455V29.4773ZM29.082 38.3551V32.0909H32.1076V43H29.2028V41.0185H29.0891C28.8429 41.6577 28.4334 42.1714 27.8604 42.5597C27.2923 42.9479 26.5986 43.142 25.7795 43.142C25.0503 43.142 24.4087 42.9763 23.8548 42.6449C23.3008 42.3134 22.8675 41.8423 22.555 41.2315C22.2473 40.6207 22.091 39.8892 22.0863 39.0369V32.0909H25.1119V38.4972C25.1166 39.1411 25.2894 39.6501 25.6303 40.0241C25.9712 40.3982 26.4281 40.5852 27.0011 40.5852C27.3656 40.5852 27.7066 40.5024 28.0238 40.3366C28.341 40.1662 28.5967 39.9152 28.7908 39.5838C28.9897 39.2524 29.0868 38.8428 29.082 38.3551ZM38.5476 43.1776C37.719 43.1776 36.9685 42.9645 36.2962 42.5384C35.6286 42.1075 35.0982 41.4754 34.7053 40.642C34.317 39.804 34.1229 38.7765 34.1229 37.5597C34.1229 36.3097 34.3241 35.2704 34.7266 34.4418C35.129 33.6084 35.6641 32.9858 36.3317 32.5739C37.004 32.1572 37.7403 31.9489 38.5405 31.9489C39.1513 31.9489 39.6603 32.053 40.0675 32.2614C40.4794 32.465 40.8108 32.7206 41.0618 33.0284C41.3175 33.3314 41.5116 33.6297 41.6442 33.9233H41.7365V28.4545H44.755V43H41.772V41.2528H41.6442C41.5021 41.5559 41.3009 41.8565 41.0405 42.1548C40.7848 42.4484 40.451 42.6922 40.0391 42.8864C39.6319 43.0805 39.1347 43.1776 38.5476 43.1776ZM39.5064 40.7699C39.9941 40.7699 40.406 40.6373 40.7422 40.3722C41.0831 40.1023 41.3435 39.7259 41.5234 39.2429C41.7081 38.7599 41.8004 38.1941 41.8004 37.5455C41.8004 36.8968 41.7105 36.3333 41.5305 35.8551C41.3506 35.3769 41.0902 35.0076 40.7493 34.7472C40.4084 34.4867 39.9941 34.3565 39.5064 34.3565C39.0092 34.3565 38.5902 34.4915 38.2493 34.7614C37.9084 35.0312 37.6503 35.4053 37.4751 35.8835C37.3 36.3617 37.2124 36.9157 37.2124 37.5455C37.2124 38.1799 37.3 38.741 37.4751 39.2287C37.6551 39.7116 37.9131 40.0904 38.2493 40.3651C38.5902 40.6349 39.0092 40.7699 39.5064 40.7699ZM52.2141 43.2131C51.092 43.2131 50.1261 42.9858 49.3164 42.5312C48.5115 42.072 47.8912 41.4233 47.4556 40.5852C47.02 39.7424 46.8022 38.7457 46.8022 37.5952C46.8022 36.473 47.02 35.4882 47.4556 34.6406C47.8912 33.7931 48.5044 33.1326 49.2951 32.6591C50.0906 32.1856 51.0233 31.9489 52.0934 31.9489C52.8131 31.9489 53.4831 32.0649 54.1033 32.2969C54.7283 32.5241 55.2728 32.8674 55.7369 33.3267C56.2056 33.786 56.5702 34.3636 56.8306 35.0597C57.091 35.7509 57.2212 36.5606 57.2212 37.4886V38.3196H48.0096V36.4446H54.3732C54.3732 36.009 54.2785 35.6231 54.0891 35.2869C53.8997 34.9508 53.637 34.688 53.3008 34.4986C52.9693 34.3045 52.5835 34.2074 52.1431 34.2074C51.6838 34.2074 51.2766 34.3139 50.9215 34.527C50.5711 34.7353 50.2965 35.017 50.0977 35.3722C49.8988 35.7225 49.797 36.1132 49.7923 36.544V38.3267C49.7923 38.8665 49.8917 39.3329 50.0906 39.7259C50.2942 40.1188 50.5806 40.4219 50.9499 40.6349C51.3192 40.848 51.7572 40.9545 52.2638 40.9545C52.6 40.9545 52.9078 40.9072 53.1871 40.8125C53.4665 40.7178 53.7056 40.5758 53.9045 40.3864C54.1033 40.197 54.2549 39.965 54.359 39.6903L57.1573 39.875C57.0153 40.5473 56.7241 41.1345 56.2837 41.6364C55.8481 42.1335 55.2847 42.5218 54.5934 42.8011C53.9068 43.0758 53.1138 43.2131 52.2141 43.2131ZM62.2212 36.6932V43H59.1957V32.0909H62.0792V34.0156H62.207C62.4485 33.3812 62.8533 32.8793 63.4215 32.5099C63.9897 32.1359 64.6786 31.9489 65.4883 31.9489C66.2459 31.9489 66.9064 32.1146 67.4698 32.446C68.0333 32.7775 68.4712 33.2509 68.7837 33.8665C69.0962 34.4773 69.2525 35.2064 69.2525 36.054V43H66.2269V36.5938C66.2317 35.9261 66.0612 35.4053 65.7156 35.0312C65.3699 34.6525 64.8941 34.4631 64.288 34.4631C63.8808 34.4631 63.521 34.5507 63.2085 34.7259C62.9007 34.901 62.6592 35.1567 62.484 35.4929C62.3136 35.8243 62.226 36.2244 62.2212 36.6932ZM77.4396 32.0909V34.3636H70.87V32.0909H77.4396ZM72.3615 29.4773H75.3871V39.6477C75.3871 39.9271 75.4297 40.1449 75.5149 40.3011C75.6001 40.4527 75.7185 40.5592 75.87 40.6207C76.0263 40.6823 76.2062 40.7131 76.4098 40.7131C76.5518 40.7131 76.6939 40.7012 76.8359 40.6776C76.978 40.6491 77.0869 40.6278 77.1626 40.6136L77.6385 42.8651C77.487 42.9124 77.2739 42.9669 76.9993 43.0284C76.7247 43.0947 76.3909 43.1349 75.9979 43.1491C75.2687 43.1776 74.6295 43.0805 74.0803 42.858C73.5357 42.6354 73.112 42.2898 72.8089 41.821C72.5059 41.3523 72.3568 40.7604 72.3615 40.0455V29.4773ZM88.3505 35.2017L85.5806 35.3722C85.5333 35.1354 85.4315 34.9223 85.2752 34.733C85.119 34.5388 84.913 34.3849 84.6573 34.2713C84.4064 34.1529 84.1057 34.0938 83.7553 34.0938C83.2866 34.0938 82.8912 34.1932 82.5692 34.392C82.2473 34.5862 82.0863 34.8466 82.0863 35.1733C82.0863 35.4337 82.1905 35.6539 82.3988 35.8338C82.6071 36.0137 82.9646 36.1581 83.4712 36.267L85.4457 36.6648C86.5063 36.8826 87.297 37.233 87.8178 37.7159C88.3387 38.1989 88.5991 38.8333 88.5991 39.6193C88.5991 40.3343 88.3884 40.9616 87.967 41.5014C87.5503 42.0412 86.9774 42.4626 86.2482 42.7656C85.5238 43.0639 84.6881 43.2131 83.7411 43.2131C82.297 43.2131 81.1464 42.9124 80.2894 42.3111C79.4371 41.705 78.9376 40.8812 78.7908 39.8395L81.7667 39.6832C81.8567 40.1236 82.0745 40.4598 82.4201 40.6918C82.7657 40.919 83.2085 41.0327 83.7482 41.0327C84.2785 41.0327 84.7047 40.9309 85.0266 40.7273C85.3533 40.5189 85.5191 40.2514 85.5238 39.9247C85.5191 39.6501 85.4031 39.4252 85.1758 39.25C84.9485 39.0701 84.5981 38.9328 84.1246 38.8381L82.2354 38.4616C81.1701 38.2486 80.377 37.8793 79.8562 37.3537C79.3401 36.8281 79.082 36.1581 79.082 35.3438C79.082 34.643 79.2714 34.0393 79.6502 33.5327C80.0337 33.026 80.5711 32.6354 81.2624 32.3608C81.9585 32.0862 82.7728 31.9489 83.7056 31.9489C85.0835 31.9489 86.1677 32.2401 86.9585 32.8224C87.7539 33.4048 88.2179 34.1979 88.3505 35.2017Z" fill="white"></path> <defs> <linearGradient id="paint0_linear_197_628" x1="61.4971" y1="-6.07059" x2="25.3615" y2="8.91225" gradientUnits="userSpaceOnUse"> <stop stop-color="#FFE8CA"></stop> <stop offset="0.260417" stop-color="#FFE0E3"></stop> <stop offset="0.442708" stop-color="#FFC9ED"></stop> <stop offset="0.697917" stop-color="#C8BDFB"></stop> <stop offset="0.947917" stop-color="#A7C7FF"></stop> </linearGradient> </defs> </svg> 