<?xml version="1.0" encoding="UTF-8"?> <svg xmlns="http://www.w3.org/2000/svg" width="173" height="19" viewBox="0 0 173 19" fill="none"> <path d="M1.87 0.539999C1.99 0.539999 2.09 0.546666 2.17 0.559999C2.25 0.566666 2.32 0.586666 2.38 0.619999C2.44667 0.646666 2.51 0.69 2.57 0.749999C2.63 0.803333 2.69667 0.876666 2.77 0.969999L10.36 10.64C10.3333 10.4067 10.3133 10.18 10.3 9.96C10.2933 9.73333 10.29 9.52333 10.29 9.33V0.539999H12.66V15H11.27C11.0567 15 10.88 14.9667 10.74 14.9C10.6 14.8333 10.4633 14.7133 10.33 14.54L2.77 4.91C2.79 5.12333 2.80333 5.33667 2.81 5.55C2.82333 5.75667 2.83 5.94667 2.83 6.12V15H0.46V0.539999H1.87ZM23.4772 15H22.3672C22.1339 15 21.9505 14.9667 21.8172 14.9C21.6839 14.8267 21.5839 14.6833 21.5172 14.47L21.2972 13.74C21.0372 13.9733 20.7805 14.18 20.5272 14.36C20.2805 14.5333 20.0239 14.68 19.7572 14.8C19.4905 14.92 19.2072 15.01 18.9072 15.07C18.6072 15.13 18.2739 15.16 17.9072 15.16C17.4739 15.16 17.0739 15.1033 16.7072 14.99C16.3405 14.87 16.0239 14.6933 15.7572 14.46C15.4972 14.2267 15.2939 13.9367 15.1472 13.59C15.0005 13.2433 14.9272 12.84 14.9272 12.38C14.9272 11.9933 15.0272 11.6133 15.2272 11.24C15.4339 10.86 15.7739 10.52 16.2472 10.22C16.7205 9.91333 17.3505 9.66 18.1372 9.46C18.9239 9.26 19.9005 9.14667 21.0672 9.12V8.52C21.0672 7.83333 20.9205 7.32667 20.6272 7C20.3405 6.66667 19.9205 6.5 19.3672 6.5C18.9672 6.5 18.6339 6.54667 18.3672 6.64C18.1005 6.73333 17.8672 6.84 17.6672 6.96C17.4739 7.07333 17.2939 7.17667 17.1272 7.27C16.9605 7.36333 16.7772 7.41 16.5772 7.41C16.4105 7.41 16.2672 7.36667 16.1472 7.28C16.0272 7.19333 15.9305 7.08667 15.8572 6.96L15.4072 6.17C16.5872 5.09 18.0105 4.55 19.6772 4.55C20.2772 4.55 20.8105 4.65 21.2772 4.85C21.7505 5.04333 22.1505 5.31667 22.4772 5.67C22.8039 6.01667 23.0505 6.43333 23.2172 6.92C23.3905 7.40667 23.4772 7.94 23.4772 8.52V15ZM18.6772 13.46C18.9305 13.46 19.1639 13.4367 19.3772 13.39C19.5905 13.3433 19.7905 13.2733 19.9772 13.18C20.1705 13.0867 20.3539 12.9733 20.5272 12.84C20.7072 12.7 20.8872 12.5367 21.0672 12.35V10.62C20.3472 10.6533 19.7439 10.7167 19.2572 10.81C18.7772 10.8967 18.3905 11.01 18.0972 11.15C17.8039 11.29 17.5939 11.4533 17.4672 11.64C17.3472 11.8267 17.2872 12.03 17.2872 12.25C17.2872 12.6833 17.4139 12.9933 17.6672 13.18C17.9272 13.3667 18.2639 13.46 18.6772 13.46ZM31.9959 6.74C31.9293 6.84667 31.8593 6.92333 31.7859 6.97C31.7126 7.01 31.6193 7.03 31.5059 7.03C31.3859 7.03 31.2559 6.99667 31.1159 6.93C30.9826 6.86333 30.8259 6.79 30.6459 6.71C30.4659 6.62333 30.2593 6.54667 30.0259 6.48C29.7993 6.41333 29.5293 6.38 29.2159 6.38C28.7293 6.38 28.3459 6.48333 28.0659 6.69C27.7859 6.89667 27.6459 7.16667 27.6459 7.5C27.6459 7.72 27.7159 7.90667 27.8559 8.06C28.0026 8.20667 28.1926 8.33667 28.4259 8.45C28.6659 8.56333 28.9359 8.66667 29.2359 8.76C29.5359 8.84667 29.8426 8.94333 30.1559 9.05C30.4693 9.15667 30.7759 9.28 31.0759 9.42C31.3759 9.55333 31.6426 9.72667 31.8759 9.94C32.1159 10.1467 32.3059 10.3967 32.4459 10.69C32.5926 10.9833 32.6659 11.3367 32.6659 11.75C32.6659 12.2433 32.5759 12.7 32.3959 13.12C32.2159 13.5333 31.9526 13.8933 31.6059 14.2C31.2593 14.5 30.8293 14.7367 30.3159 14.91C29.8093 15.0767 29.2259 15.16 28.5659 15.16C28.2126 15.16 27.8659 15.1267 27.5259 15.06C27.1926 15 26.8693 14.9133 26.5559 14.8C26.2493 14.6867 25.9626 14.5533 25.6959 14.4C25.4359 14.2467 25.2059 14.08 25.0059 13.9L25.5759 12.96C25.6493 12.8467 25.7359 12.76 25.8359 12.7C25.9359 12.64 26.0626 12.61 26.2159 12.61C26.3693 12.61 26.5126 12.6533 26.6459 12.74C26.7859 12.8267 26.9459 12.92 27.1259 13.02C27.3059 13.12 27.5159 13.2133 27.7559 13.3C28.0026 13.3867 28.3126 13.43 28.6859 13.43C28.9793 13.43 29.2293 13.3967 29.4359 13.33C29.6493 13.2567 29.8226 13.1633 29.9559 13.05C30.0959 12.9367 30.1959 12.8067 30.2559 12.66C30.3226 12.5067 30.3559 12.35 30.3559 12.19C30.3559 11.95 30.2826 11.7533 30.1359 11.6C29.9959 11.4467 29.8059 11.3133 29.5659 11.2C29.3326 11.0867 29.0626 10.9867 28.7559 10.9C28.4559 10.8067 28.1459 10.7067 27.8259 10.6C27.5126 10.4933 27.2026 10.37 26.8959 10.23C26.5959 10.0833 26.3259 9.9 26.0859 9.68C25.8526 9.46 25.6626 9.19 25.5159 8.87C25.3759 8.55 25.3059 8.16333 25.3059 7.71C25.3059 7.29 25.3893 6.89 25.5559 6.51C25.7226 6.13 25.9659 5.8 26.2859 5.52C26.6126 5.23333 27.0159 5.00667 27.4959 4.84C27.9826 4.66667 28.5426 4.58 29.1759 4.58C29.8826 4.58 30.5259 4.69667 31.1059 4.93C31.6859 5.16333 32.1693 5.47 32.5559 5.85L31.9959 6.74ZM38.0064 15.16C37.1197 15.16 36.4364 14.91 35.9564 14.41C35.4764 13.9033 35.2364 13.2067 35.2364 12.32V6.59H34.1964C34.0631 6.59 33.9464 6.54667 33.8464 6.46C33.7531 6.37333 33.7064 6.24333 33.7064 6.07V5.09L35.3564 4.82L35.8764 2.02C35.9031 1.88667 35.9631 1.78333 36.0564 1.71C36.1564 1.63667 36.2797 1.6 36.4264 1.6H37.7064V4.83H40.4064V6.59H37.7064V12.15C37.7064 12.47 37.7864 12.72 37.9464 12.9C38.1064 13.08 38.3197 13.17 38.5864 13.17C38.7397 13.17 38.8664 13.1533 38.9664 13.12C39.0731 13.08 39.1631 13.04 39.2364 13C39.3164 12.96 39.3864 12.9233 39.4464 12.89C39.5064 12.85 39.5664 12.83 39.6264 12.83C39.6997 12.83 39.7597 12.85 39.8064 12.89C39.8531 12.9233 39.9031 12.9767 39.9564 13.05L40.6964 14.25C40.3364 14.55 39.9231 14.7767 39.4564 14.93C38.9897 15.0833 38.5064 15.16 38.0064 15.16ZM46.0108 17.82C45.9374 17.9933 45.8408 18.1233 45.7208 18.21C45.6074 18.3033 45.4308 18.35 45.1908 18.35H43.3508L45.2708 14.24L41.1208 4.74H43.2808C43.4808 4.74 43.6341 4.78667 43.7408 4.88C43.8474 4.97333 43.9274 5.08 43.9808 5.2L46.1708 10.52C46.2441 10.6933 46.3074 10.8733 46.3608 11.06C46.4141 11.2467 46.4608 11.4333 46.5008 11.62C46.5541 11.4267 46.6108 11.24 46.6708 11.06C46.7374 10.88 46.8074 10.6967 46.8808 10.51L48.9408 5.2C48.9941 5.06667 49.0808 4.95667 49.2008 4.87C49.3274 4.78333 49.4674 4.74 49.6208 4.74H51.6008L46.0108 17.82ZM61.0748 15H59.9648C59.7315 15 59.5482 14.9667 59.4148 14.9C59.2815 14.8267 59.1815 14.6833 59.1148 14.47L58.8948 13.74C58.6348 13.9733 58.3782 14.18 58.1248 14.36C57.8782 14.5333 57.6215 14.68 57.3548 14.8C57.0882 14.92 56.8048 15.01 56.5048 15.07C56.2048 15.13 55.8715 15.16 55.5048 15.16C55.0715 15.16 54.6715 15.1033 54.3048 14.99C53.9382 14.87 53.6215 14.6933 53.3548 14.46C53.0948 14.2267 52.8915 13.9367 52.7448 13.59C52.5982 13.2433 52.5248 12.84 52.5248 12.38C52.5248 11.9933 52.6248 11.6133 52.8248 11.24C53.0315 10.86 53.3715 10.52 53.8448 10.22C54.3182 9.91333 54.9482 9.66 55.7348 9.46C56.5215 9.26 57.4982 9.14667 58.6648 9.12V8.52C58.6648 7.83333 58.5182 7.32667 58.2248 7C57.9382 6.66667 57.5182 6.5 56.9648 6.5C56.5648 6.5 56.2315 6.54667 55.9648 6.64C55.6982 6.73333 55.4648 6.84 55.2648 6.96C55.0715 7.07333 54.8915 7.17667 54.7248 7.27C54.5582 7.36333 54.3748 7.41 54.1748 7.41C54.0082 7.41 53.8648 7.36667 53.7448 7.28C53.6248 7.19333 53.5282 7.08667 53.4548 6.96L53.0048 6.17C54.1848 5.09 55.6082 4.55 57.2748 4.55C57.8748 4.55 58.4082 4.65 58.8748 4.85C59.3482 5.04333 59.7482 5.31667 60.0748 5.67C60.4015 6.01667 60.6482 6.43333 60.8148 6.92C60.9882 7.40667 61.0748 7.94 61.0748 8.52V15ZM56.2748 13.46C56.5282 13.46 56.7615 13.4367 56.9748 13.39C57.1882 13.3433 57.3882 13.2733 57.5748 13.18C57.7682 13.0867 57.9515 12.9733 58.1248 12.84C58.3048 12.7 58.4848 12.5367 58.6648 12.35V10.62C57.9448 10.6533 57.3415 10.7167 56.8548 10.81C56.3748 10.8967 55.9882 11.01 55.6948 11.15C55.4015 11.29 55.1915 11.4533 55.0648 11.64C54.9448 11.8267 54.8848 12.03 54.8848 12.25C54.8848 12.6833 55.0115 12.9933 55.2648 13.18C55.5248 13.3667 55.8615 13.46 56.2748 13.46ZM70.2908 9.91V15H67.6008V0.539999H72.3108C73.2774 0.539999 74.1141 0.653332 74.8208 0.879999C75.5274 1.10667 76.1108 1.42333 76.5708 1.83C77.0308 2.23667 77.3708 2.72333 77.5908 3.29C77.8108 3.85667 77.9208 4.47667 77.9208 5.15C77.9208 5.85 77.8041 6.49333 77.5708 7.08C77.3374 7.66 76.9874 8.16 76.5208 8.58C76.0541 9 75.4708 9.32667 74.7708 9.56C74.0708 9.79333 73.2508 9.91 72.3108 9.91H70.2908ZM70.2908 7.81H72.3108C72.8041 7.81 73.2341 7.75 73.6008 7.63C73.9674 7.50333 74.2708 7.32667 74.5108 7.1C74.7508 6.86667 74.9308 6.58667 75.0508 6.26C75.1708 5.92667 75.2308 5.55667 75.2308 5.15C75.2308 4.76333 75.1708 4.41333 75.0508 4.1C74.9308 3.78667 74.7508 3.52 74.5108 3.3C74.2708 3.08 73.9674 2.91333 73.6008 2.8C73.2341 2.68 72.8041 2.62 72.3108 2.62H70.2908V7.81ZM83.8178 4.58C84.4645 4.58 85.0578 4.68333 85.5978 4.89C86.1445 5.09667 86.6145 5.4 87.0078 5.8C87.4011 6.19333 87.7078 6.68 87.9278 7.26C88.1478 7.83333 88.2578 8.49 88.2578 9.23C88.2578 9.41667 88.2478 9.57333 88.2278 9.7C88.2145 9.82 88.1845 9.91667 88.1378 9.99C88.0978 10.0567 88.0411 10.1067 87.9678 10.14C87.8945 10.1667 87.8011 10.18 87.6878 10.18H81.3478C81.4211 11.2333 81.7045 12.0067 82.1978 12.5C82.6911 12.9933 83.3445 13.24 84.1578 13.24C84.5578 13.24 84.9011 13.1933 85.1878 13.1C85.4811 13.0067 85.7345 12.9033 85.9478 12.79C86.1678 12.6767 86.3578 12.5733 86.5178 12.48C86.6845 12.3867 86.8445 12.34 86.9978 12.34C87.0978 12.34 87.1845 12.36 87.2578 12.4C87.3311 12.44 87.3945 12.4967 87.4478 12.57L88.1678 13.47C87.8945 13.79 87.5878 14.06 87.2478 14.28C86.9078 14.4933 86.5511 14.6667 86.1778 14.8C85.8111 14.9267 85.4345 15.0167 85.0478 15.07C84.6678 15.1233 84.2978 15.15 83.9378 15.15C83.2245 15.15 82.5611 15.0333 81.9478 14.8C81.3345 14.56 80.8011 14.21 80.3478 13.75C79.8945 13.2833 79.5378 12.71 79.2778 12.03C79.0178 11.3433 78.8878 10.55 78.8878 9.65C78.8878 8.95 79.0011 8.29333 79.2278 7.68C79.4545 7.06 79.7778 6.52333 80.1978 6.07C80.6245 5.61 81.1411 5.24667 81.7478 4.98C82.3611 4.71333 83.0511 4.58 83.8178 4.58ZM83.8678 6.35C83.1478 6.35 82.5845 6.55333 82.1778 6.96C81.7711 7.36667 81.5111 7.94333 81.3978 8.69H86.0378C86.0378 8.37 85.9945 8.07 85.9078 7.79C85.8211 7.50333 85.6878 7.25333 85.5078 7.04C85.3278 6.82667 85.1011 6.66 84.8278 6.54C84.5545 6.41333 84.2345 6.35 83.8678 6.35ZM90.2614 15V4.74H91.7114C91.9647 4.74 92.1414 4.78667 92.2414 4.88C92.3414 4.97333 92.4081 5.13333 92.4414 5.36L92.5914 6.6C92.9581 5.96667 93.3881 5.46667 93.8814 5.1C94.3747 4.73333 94.9281 4.55 95.5414 4.55C96.0481 4.55 96.4681 4.66667 96.8014 4.9L96.4814 6.75C96.4614 6.87 96.4181 6.95667 96.3514 7.01C96.2847 7.05667 96.1947 7.08 96.0814 7.08C95.9814 7.08 95.8447 7.05667 95.6714 7.01C95.4981 6.96333 95.2681 6.94 94.9814 6.94C94.4681 6.94 94.0281 7.08333 93.6614 7.37C93.2947 7.65 92.9847 8.06333 92.7314 8.61V15H90.2614ZM102.665 4.58C103.312 4.58 103.905 4.68333 104.445 4.89C104.992 5.09667 105.462 5.4 105.855 5.8C106.249 6.19333 106.555 6.68 106.775 7.26C106.995 7.83333 107.105 8.49 107.105 9.23C107.105 9.41667 107.095 9.57333 107.075 9.7C107.062 9.82 107.032 9.91667 106.985 9.99C106.945 10.0567 106.889 10.1067 106.815 10.14C106.742 10.1667 106.649 10.18 106.535 10.18H100.195C100.269 11.2333 100.552 12.0067 101.045 12.5C101.539 12.9933 102.192 13.24 103.005 13.24C103.405 13.24 103.749 13.1933 104.035 13.1C104.329 13.0067 104.582 12.9033 104.795 12.79C105.015 12.6767 105.205 12.5733 105.365 12.48C105.532 12.3867 105.692 12.34 105.845 12.34C105.945 12.34 106.032 12.36 106.105 12.4C106.179 12.44 106.242 12.4967 106.295 12.57L107.015 13.47C106.742 13.79 106.435 14.06 106.095 14.28C105.755 14.4933 105.399 14.6667 105.025 14.8C104.659 14.9267 104.282 15.0167 103.895 15.07C103.515 15.1233 103.145 15.15 102.785 15.15C102.072 15.15 101.409 15.0333 100.795 14.8C100.182 14.56 99.6488 14.21 99.1955 13.75C98.7421 13.2833 98.3855 12.71 98.1255 12.03C97.8655 11.3433 97.7355 10.55 97.7355 9.65C97.7355 8.95 97.8488 8.29333 98.0755 7.68C98.3021 7.06 98.6255 6.52333 99.0455 6.07C99.4721 5.61 99.9888 5.24667 100.595 4.98C101.209 4.71333 101.899 4.58 102.665 4.58ZM102.715 6.35C101.995 6.35 101.432 6.55333 101.025 6.96C100.619 7.36667 100.359 7.94333 100.245 8.69H104.885C104.885 8.37 104.842 8.07 104.755 7.79C104.669 7.50333 104.535 7.25333 104.355 7.04C104.175 6.82667 103.949 6.66 103.675 6.54C103.402 6.41333 103.082 6.35 102.715 6.35ZM109.109 18.35V4.74H110.619C110.779 4.74 110.916 4.77667 111.029 4.85C111.142 4.92333 111.216 5.03667 111.249 5.19L111.449 6.14C111.862 5.66667 112.336 5.28333 112.869 4.99C113.409 4.69667 114.039 4.55 114.759 4.55C115.319 4.55 115.829 4.66667 116.289 4.9C116.756 5.13333 117.156 5.47333 117.489 5.92C117.829 6.36 118.089 6.90667 118.269 7.56C118.456 8.20667 118.549 8.95 118.549 9.79C118.549 10.5567 118.446 11.2667 118.239 11.92C118.032 12.5733 117.736 13.14 117.349 13.62C116.969 14.1 116.506 14.4767 115.959 14.75C115.419 15.0167 114.812 15.15 114.139 15.15C113.559 15.15 113.066 15.0633 112.659 14.89C112.259 14.71 111.899 14.4633 111.579 14.15V18.35H109.109ZM113.909 6.5C113.396 6.5 112.956 6.61 112.589 6.83C112.229 7.04333 111.892 7.34667 111.579 7.74V12.34C111.859 12.6867 112.162 12.93 112.489 13.07C112.822 13.2033 113.179 13.27 113.559 13.27C113.932 13.27 114.269 13.2 114.569 13.06C114.876 12.92 115.132 12.7067 115.339 12.42C115.552 12.1333 115.716 11.7733 115.829 11.34C115.942 10.9 115.999 10.3833 115.999 9.79C115.999 9.19 115.949 8.68333 115.849 8.27C115.756 7.85 115.619 7.51 115.439 7.25C115.259 6.99 115.039 6.8 114.779 6.68C114.526 6.56 114.236 6.5 113.909 6.5ZM124.658 4.58C125.304 4.58 125.898 4.68333 126.438 4.89C126.984 5.09667 127.454 5.4 127.848 5.8C128.241 6.19333 128.548 6.68 128.768 7.26C128.988 7.83333 129.098 8.49 129.098 9.23C129.098 9.41667 129.088 9.57333 129.068 9.7C129.054 9.82 129.024 9.91667 128.978 9.99C128.938 10.0567 128.881 10.1067 128.808 10.14C128.734 10.1667 128.641 10.18 128.528 10.18H122.188C122.261 11.2333 122.544 12.0067 123.038 12.5C123.531 12.9933 124.184 13.24 124.998 13.24C125.398 13.24 125.741 13.1933 126.028 13.1C126.321 13.0067 126.574 12.9033 126.788 12.79C127.008 12.6767 127.198 12.5733 127.358 12.48C127.524 12.3867 127.684 12.34 127.838 12.34C127.938 12.34 128.024 12.36 128.098 12.4C128.171 12.44 128.234 12.4967 128.288 12.57L129.008 13.47C128.734 13.79 128.428 14.06 128.088 14.28C127.748 14.4933 127.391 14.6667 127.018 14.8C126.651 14.9267 126.274 15.0167 125.888 15.07C125.508 15.1233 125.138 15.15 124.778 15.15C124.064 15.15 123.401 15.0333 122.788 14.8C122.174 14.56 121.641 14.21 121.188 13.75C120.734 13.2833 120.378 12.71 120.118 12.03C119.858 11.3433 119.728 10.55 119.728 9.65C119.728 8.95 119.841 8.29333 120.068 7.68C120.294 7.06 120.618 6.52333 121.038 6.07C121.464 5.61 121.981 5.24667 122.588 4.98C123.201 4.71333 123.891 4.58 124.658 4.58ZM124.708 6.35C123.988 6.35 123.424 6.55333 123.018 6.96C122.611 7.36667 122.351 7.94333 122.238 8.69H126.878C126.878 8.37 126.834 8.07 126.748 7.79C126.661 7.50333 126.528 7.25333 126.348 7.04C126.168 6.82667 125.941 6.66 125.668 6.54C125.394 6.41333 125.074 6.35 124.708 6.35ZM133.731 0.139999V15H131.261V0.139999H133.731ZM139.031 0.139999V8.65H139.491C139.658 8.65 139.788 8.62667 139.881 8.58C139.974 8.53333 140.074 8.44667 140.181 8.32L142.731 5.17C142.844 5.03667 142.964 4.93333 143.091 4.86C143.218 4.78 143.384 4.74 143.591 4.74H145.851L142.661 8.55C142.548 8.69 142.431 8.82 142.311 8.94C142.191 9.05333 142.061 9.15333 141.921 9.24C142.061 9.34 142.184 9.45667 142.291 9.59C142.398 9.72333 142.504 9.86667 142.611 10.02L146.031 15H143.801C143.608 15 143.444 14.9667 143.311 14.9C143.178 14.8333 143.058 14.72 142.951 14.56L140.341 10.67C140.241 10.5167 140.141 10.4167 140.041 10.37C139.941 10.3233 139.791 10.3 139.591 10.3H139.031V15H136.561V0.139999H139.031ZM150.196 4.74V15H147.726V4.74H150.196ZM150.566 1.75C150.566 1.96333 150.523 2.16333 150.436 2.35C150.349 2.53667 150.233 2.7 150.086 2.84C149.946 2.98 149.779 3.09333 149.586 3.18C149.393 3.26 149.186 3.3 148.966 3.3C148.753 3.3 148.549 3.26 148.356 3.18C148.169 3.09333 148.006 2.98 147.866 2.84C147.726 2.7 147.613 2.53667 147.526 2.35C147.446 2.16333 147.406 1.96333 147.406 1.75C147.406 1.53 147.446 1.32333 147.526 1.13C147.613 0.936666 147.726 0.77 147.866 0.63C148.006 0.489999 148.169 0.379999 148.356 0.3C148.549 0.213333 148.753 0.17 148.966 0.17C149.186 0.17 149.393 0.213333 149.586 0.3C149.779 0.379999 149.946 0.489999 150.086 0.63C150.233 0.77 150.349 0.936666 150.436 1.13C150.523 1.32333 150.566 1.53 150.566 1.75ZM152.996 15V4.74H154.506C154.826 4.74 155.036 4.89 155.136 5.19L155.306 6C155.512 5.78667 155.729 5.59333 155.956 5.42C156.189 5.24667 156.432 5.09667 156.686 4.97C156.946 4.84333 157.222 4.74667 157.516 4.68C157.809 4.61333 158.129 4.58 158.476 4.58C159.036 4.58 159.532 4.67667 159.966 4.87C160.399 5.05667 160.759 5.32333 161.046 5.67C161.339 6.01 161.559 6.42 161.706 6.9C161.859 7.37333 161.936 7.89667 161.936 8.47V15H159.466V8.47C159.466 7.84333 159.319 7.36 159.026 7.02C158.739 6.67333 158.306 6.5 157.726 6.5C157.299 6.5 156.899 6.59667 156.526 6.79C156.152 6.98333 155.799 7.24667 155.466 7.58V15H152.996ZM172.403 15H171.293C171.06 15 170.876 14.9667 170.743 14.9C170.61 14.8267 170.51 14.6833 170.443 14.47L170.223 13.74C169.963 13.9733 169.706 14.18 169.453 14.36C169.206 14.5333 168.95 14.68 168.683 14.8C168.416 14.92 168.133 15.01 167.833 15.07C167.533 15.13 167.2 15.16 166.833 15.16C166.4 15.16 166 15.1033 165.633 14.99C165.266 14.87 164.95 14.6933 164.683 14.46C164.423 14.2267 164.22 13.9367 164.073 13.59C163.926 13.2433 163.853 12.84 163.853 12.38C163.853 11.9933 163.953 11.6133 164.153 11.24C164.36 10.86 164.7 10.52 165.173 10.22C165.646 9.91333 166.276 9.66 167.063 9.46C167.85 9.26 168.826 9.14667 169.993 9.12V8.52C169.993 7.83333 169.846 7.32667 169.553 7C169.266 6.66667 168.846 6.5 168.293 6.5C167.893 6.5 167.56 6.54667 167.293 6.64C167.026 6.73333 166.793 6.84 166.593 6.96C166.4 7.07333 166.22 7.17667 166.053 7.27C165.886 7.36333 165.703 7.41 165.503 7.41C165.336 7.41 165.193 7.36667 165.073 7.28C164.953 7.19333 164.856 7.08667 164.783 6.96L164.333 6.17C165.513 5.09 166.936 4.55 168.603 4.55C169.203 4.55 169.736 4.65 170.203 4.85C170.676 5.04333 171.076 5.31667 171.403 5.67C171.73 6.01667 171.976 6.43333 172.143 6.92C172.316 7.40667 172.403 7.94 172.403 8.52V15ZM167.603 13.46C167.856 13.46 168.09 13.4367 168.303 13.39C168.516 13.3433 168.716 13.2733 168.903 13.18C169.096 13.0867 169.28 12.9733 169.453 12.84C169.633 12.7 169.813 12.5367 169.993 12.35V10.62C169.273 10.6533 168.67 10.7167 168.183 10.81C167.703 10.8967 167.316 11.01 167.023 11.15C166.73 11.29 166.52 11.4533 166.393 11.64C166.273 11.8267 166.213 12.03 166.213 12.25C166.213 12.6833 166.34 12.9933 166.593 13.18C166.853 13.3667 167.19 13.46 167.603 13.46Z" fill="#FFDA92"></path> <path d="M1.87 0.539999C1.99 0.539999 2.09 0.546666 2.17 0.559999C2.25 0.566666 2.32 0.586666 2.38 0.619999C2.44667 0.646666 2.51 0.69 2.57 0.749999C2.63 0.803333 2.69667 0.876666 2.77 0.969999L10.36 10.64C10.3333 10.4067 10.3133 10.18 10.3 9.96C10.2933 9.73333 10.29 9.52333 10.29 9.33V0.539999H12.66V15H11.27C11.0567 15 10.88 14.9667 10.74 14.9C10.6 14.8333 10.4633 14.7133 10.33 14.54L2.77 4.91C2.79 5.12333 2.80333 5.33667 2.81 5.55C2.82333 5.75667 2.83 5.94667 2.83 6.12V15H0.46V0.539999H1.87ZM23.4772 15H22.3672C22.1339 15 21.9505 14.9667 21.8172 14.9C21.6839 14.8267 21.5839 14.6833 21.5172 14.47L21.2972 13.74C21.0372 13.9733 20.7805 14.18 20.5272 14.36C20.2805 14.5333 20.0239 14.68 19.7572 14.8C19.4905 14.92 19.2072 15.01 18.9072 15.07C18.6072 15.13 18.2739 15.16 17.9072 15.16C17.4739 15.16 17.0739 15.1033 16.7072 14.99C16.3405 14.87 16.0239 14.6933 15.7572 14.46C15.4972 14.2267 15.2939 13.9367 15.1472 13.59C15.0005 13.2433 14.9272 12.84 14.9272 12.38C14.9272 11.9933 15.0272 11.6133 15.2272 11.24C15.4339 10.86 15.7739 10.52 16.2472 10.22C16.7205 9.91333 17.3505 9.66 18.1372 9.46C18.9239 9.26 19.9005 9.14667 21.0672 9.12V8.52C21.0672 7.83333 20.9205 7.32667 20.6272 7C20.3405 6.66667 19.9205 6.5 19.3672 6.5C18.9672 6.5 18.6339 6.54667 18.3672 6.64C18.1005 6.73333 17.8672 6.84 17.6672 6.96C17.4739 7.07333 17.2939 7.17667 17.1272 7.27C16.9605 7.36333 16.7772 7.41 16.5772 7.41C16.4105 7.41 16.2672 7.36667 16.1472 7.28C16.0272 7.19333 15.9305 7.08667 15.8572 6.96L15.4072 6.17C16.5872 5.09 18.0105 4.55 19.6772 4.55C20.2772 4.55 20.8105 4.65 21.2772 4.85C21.7505 5.04333 22.1505 5.31667 22.4772 5.67C22.8039 6.01667 23.0505 6.43333 23.2172 6.92C23.3905 7.40667 23.4772 7.94 23.4772 8.52V15ZM18.6772 13.46C18.9305 13.46 19.1639 13.4367 19.3772 13.39C19.5905 13.3433 19.7905 13.2733 19.9772 13.18C20.1705 13.0867 20.3539 12.9733 20.5272 12.84C20.7072 12.7 20.8872 12.5367 21.0672 12.35V10.62C20.3472 10.6533 19.7439 10.7167 19.2572 10.81C18.7772 10.8967 18.3905 11.01 18.0972 11.15C17.8039 11.29 17.5939 11.4533 17.4672 11.64C17.3472 11.8267 17.2872 12.03 17.2872 12.25C17.2872 12.6833 17.4139 12.9933 17.6672 13.18C17.9272 13.3667 18.2639 13.46 18.6772 13.46ZM31.9959 6.74C31.9293 6.84667 31.8593 6.92333 31.7859 6.97C31.7126 7.01 31.6193 7.03 31.5059 7.03C31.3859 7.03 31.2559 6.99667 31.1159 6.93C30.9826 6.86333 30.8259 6.79 30.6459 6.71C30.4659 6.62333 30.2593 6.54667 30.0259 6.48C29.7993 6.41333 29.5293 6.38 29.2159 6.38C28.7293 6.38 28.3459 6.48333 28.0659 6.69C27.7859 6.89667 27.6459 7.16667 27.6459 7.5C27.6459 7.72 27.7159 7.90667 27.8559 8.06C28.0026 8.20667 28.1926 8.33667 28.4259 8.45C28.6659 8.56333 28.9359 8.66667 29.2359 8.76C29.5359 8.84667 29.8426 8.94333 30.1559 9.05C30.4693 9.15667 30.7759 9.28 31.0759 9.42C31.3759 9.55333 31.6426 9.72667 31.8759 9.94C32.1159 10.1467 32.3059 10.3967 32.4459 10.69C32.5926 10.9833 32.6659 11.3367 32.6659 11.75C32.6659 12.2433 32.5759 12.7 32.3959 13.12C32.2159 13.5333 31.9526 13.8933 31.6059 14.2C31.2593 14.5 30.8293 14.7367 30.3159 14.91C29.8093 15.0767 29.2259 15.16 28.5659 15.16C28.2126 15.16 27.8659 15.1267 27.5259 15.06C27.1926 15 26.8693 14.9133 26.5559 14.8C26.2493 14.6867 25.9626 14.5533 25.6959 14.4C25.4359 14.2467 25.2059 14.08 25.0059 13.9L25.5759 12.96C25.6493 12.8467 25.7359 12.76 25.8359 12.7C25.9359 12.64 26.0626 12.61 26.2159 12.61C26.3693 12.61 26.5126 12.6533 26.6459 12.74C26.7859 12.8267 26.9459 12.92 27.1259 13.02C27.3059 13.12 27.5159 13.2133 27.7559 13.3C28.0026 13.3867 28.3126 13.43 28.6859 13.43C28.9793 13.43 29.2293 13.3967 29.4359 13.33C29.6493 13.2567 29.8226 13.1633 29.9559 13.05C30.0959 12.9367 30.1959 12.8067 30.2559 12.66C30.3226 12.5067 30.3559 12.35 30.3559 12.19C30.3559 11.95 30.2826 11.7533 30.1359 11.6C29.9959 11.4467 29.8059 11.3133 29.5659 11.2C29.3326 11.0867 29.0626 10.9867 28.7559 10.9C28.4559 10.8067 28.1459 10.7067 27.8259 10.6C27.5126 10.4933 27.2026 10.37 26.8959 10.23C26.5959 10.0833 26.3259 9.9 26.0859 9.68C25.8526 9.46 25.6626 9.19 25.5159 8.87C25.3759 8.55 25.3059 8.16333 25.3059 7.71C25.3059 7.29 25.3893 6.89 25.5559 6.51C25.7226 6.13 25.9659 5.8 26.2859 5.52C26.6126 5.23333 27.0159 5.00667 27.4959 4.84C27.9826 4.66667 28.5426 4.58 29.1759 4.58C29.8826 4.58 30.5259 4.69667 31.1059 4.93C31.6859 5.16333 32.1693 5.47 32.5559 5.85L31.9959 6.74ZM38.0064 15.16C37.1197 15.16 36.4364 14.91 35.9564 14.41C35.4764 13.9033 35.2364 13.2067 35.2364 12.32V6.59H34.1964C34.0631 6.59 33.9464 6.54667 33.8464 6.46C33.7531 6.37333 33.7064 6.24333 33.7064 6.07V5.09L35.3564 4.82L35.8764 2.02C35.9031 1.88667 35.9631 1.78333 36.0564 1.71C36.1564 1.63667 36.2797 1.6 36.4264 1.6H37.7064V4.83H40.4064V6.59H37.7064V12.15C37.7064 12.47 37.7864 12.72 37.9464 12.9C38.1064 13.08 38.3197 13.17 38.5864 13.17C38.7397 13.17 38.8664 13.1533 38.9664 13.12C39.0731 13.08 39.1631 13.04 39.2364 13C39.3164 12.96 39.3864 12.9233 39.4464 12.89C39.5064 12.85 39.5664 12.83 39.6264 12.83C39.6997 12.83 39.7597 12.85 39.8064 12.89C39.8531 12.9233 39.9031 12.9767 39.9564 13.05L40.6964 14.25C40.3364 14.55 39.9231 14.7767 39.4564 14.93C38.9897 15.0833 38.5064 15.16 38.0064 15.16ZM46.0108 17.82C45.9374 17.9933 45.8408 18.1233 45.7208 18.21C45.6074 18.3033 45.4308 18.35 45.1908 18.35H43.3508L45.2708 14.24L41.1208 4.74H43.2808C43.4808 4.74 43.6341 4.78667 43.7408 4.88C43.8474 4.97333 43.9274 5.08 43.9808 5.2L46.1708 10.52C46.2441 10.6933 46.3074 10.8733 46.3608 11.06C46.4141 11.2467 46.4608 11.4333 46.5008 11.62C46.5541 11.4267 46.6108 11.24 46.6708 11.06C46.7374 10.88 46.8074 10.6967 46.8808 10.51L48.9408 5.2C48.9941 5.06667 49.0808 4.95667 49.2008 4.87C49.3274 4.78333 49.4674 4.74 49.6208 4.74H51.6008L46.0108 17.82ZM61.0748 15H59.9648C59.7315 15 59.5482 14.9667 59.4148 14.9C59.2815 14.8267 59.1815 14.6833 59.1148 14.47L58.8948 13.74C58.6348 13.9733 58.3782 14.18 58.1248 14.36C57.8782 14.5333 57.6215 14.68 57.3548 14.8C57.0882 14.92 56.8048 15.01 56.5048 15.07C56.2048 15.13 55.8715 15.16 55.5048 15.16C55.0715 15.16 54.6715 15.1033 54.3048 14.99C53.9382 14.87 53.6215 14.6933 53.3548 14.46C53.0948 14.2267 52.8915 13.9367 52.7448 13.59C52.5982 13.2433 52.5248 12.84 52.5248 12.38C52.5248 11.9933 52.6248 11.6133 52.8248 11.24C53.0315 10.86 53.3715 10.52 53.8448 10.22C54.3182 9.91333 54.9482 9.66 55.7348 9.46C56.5215 9.26 57.4982 9.14667 58.6648 9.12V8.52C58.6648 7.83333 58.5182 7.32667 58.2248 7C57.9382 6.66667 57.5182 6.5 56.9648 6.5C56.5648 6.5 56.2315 6.54667 55.9648 6.64C55.6982 6.73333 55.4648 6.84 55.2648 6.96C55.0715 7.07333 54.8915 7.17667 54.7248 7.27C54.5582 7.36333 54.3748 7.41 54.1748 7.41C54.0082 7.41 53.8648 7.36667 53.7448 7.28C53.6248 7.19333 53.5282 7.08667 53.4548 6.96L53.0048 6.17C54.1848 5.09 55.6082 4.55 57.2748 4.55C57.8748 4.55 58.4082 4.65 58.8748 4.85C59.3482 5.04333 59.7482 5.31667 60.0748 5.67C60.4015 6.01667 60.6482 6.43333 60.8148 6.92C60.9882 7.40667 61.0748 7.94 61.0748 8.52V15ZM56.2748 13.46C56.5282 13.46 56.7615 13.4367 56.9748 13.39C57.1882 13.3433 57.3882 13.2733 57.5748 13.18C57.7682 13.0867 57.9515 12.9733 58.1248 12.84C58.3048 12.7 58.4848 12.5367 58.6648 12.35V10.62C57.9448 10.6533 57.3415 10.7167 56.8548 10.81C56.3748 10.8967 55.9882 11.01 55.6948 11.15C55.4015 11.29 55.1915 11.4533 55.0648 11.64C54.9448 11.8267 54.8848 12.03 54.8848 12.25C54.8848 12.6833 55.0115 12.9933 55.2648 13.18C55.5248 13.3667 55.8615 13.46 56.2748 13.46ZM70.2908 9.91V15H67.6008V0.539999H72.3108C73.2774 0.539999 74.1141 0.653332 74.8208 0.879999C75.5274 1.10667 76.1108 1.42333 76.5708 1.83C77.0308 2.23667 77.3708 2.72333 77.5908 3.29C77.8108 3.85667 77.9208 4.47667 77.9208 5.15C77.9208 5.85 77.8041 6.49333 77.5708 7.08C77.3374 7.66 76.9874 8.16 76.5208 8.58C76.0541 9 75.4708 9.32667 74.7708 9.56C74.0708 9.79333 73.2508 9.91 72.3108 9.91H70.2908ZM70.2908 7.81H72.3108C72.8041 7.81 73.2341 7.75 73.6008 7.63C73.9674 7.50333 74.2708 7.32667 74.5108 7.1C74.7508 6.86667 74.9308 6.58667 75.0508 6.26C75.1708 5.92667 75.2308 5.55667 75.2308 5.15C75.2308 4.76333 75.1708 4.41333 75.0508 4.1C74.9308 3.78667 74.7508 3.52 74.5108 3.3C74.2708 3.08 73.9674 2.91333 73.6008 2.8C73.2341 2.68 72.8041 2.62 72.3108 2.62H70.2908V7.81ZM83.8178 4.58C84.4645 4.58 85.0578 4.68333 85.5978 4.89C86.1445 5.09667 86.6145 5.4 87.0078 5.8C87.4011 6.19333 87.7078 6.68 87.9278 7.26C88.1478 7.83333 88.2578 8.49 88.2578 9.23C88.2578 9.41667 88.2478 9.57333 88.2278 9.7C88.2145 9.82 88.1845 9.91667 88.1378 9.99C88.0978 10.0567 88.0411 10.1067 87.9678 10.14C87.8945 10.1667 87.8011 10.18 87.6878 10.18H81.3478C81.4211 11.2333 81.7045 12.0067 82.1978 12.5C82.6911 12.9933 83.3445 13.24 84.1578 13.24C84.5578 13.24 84.9011 13.1933 85.1878 13.1C85.4811 13.0067 85.7345 12.9033 85.9478 12.79C86.1678 12.6767 86.3578 12.5733 86.5178 12.48C86.6845 12.3867 86.8445 12.34 86.9978 12.34C87.0978 12.34 87.1845 12.36 87.2578 12.4C87.3311 12.44 87.3945 12.4967 87.4478 12.57L88.1678 13.47C87.8945 13.79 87.5878 14.06 87.2478 14.28C86.9078 14.4933 86.5511 14.6667 86.1778 14.8C85.8111 14.9267 85.4345 15.0167 85.0478 15.07C84.6678 15.1233 84.2978 15.15 83.9378 15.15C83.2245 15.15 82.5611 15.0333 81.9478 14.8C81.3345 14.56 80.8011 14.21 80.3478 13.75C79.8945 13.2833 79.5378 12.71 79.2778 12.03C79.0178 11.3433 78.8878 10.55 78.8878 9.65C78.8878 8.95 79.0011 8.29333 79.2278 7.68C79.4545 7.06 79.7778 6.52333 80.1978 6.07C80.6245 5.61 81.1411 5.24667 81.7478 4.98C82.3611 4.71333 83.0511 4.58 83.8178 4.58ZM83.8678 6.35C83.1478 6.35 82.5845 6.55333 82.1778 6.96C81.7711 7.36667 81.5111 7.94333 81.3978 8.69H86.0378C86.0378 8.37 85.9945 8.07 85.9078 7.79C85.8211 7.50333 85.6878 7.25333 85.5078 7.04C85.3278 6.82667 85.1011 6.66 84.8278 6.54C84.5545 6.41333 84.2345 6.35 83.8678 6.35ZM90.2614 15V4.74H91.7114C91.9647 4.74 92.1414 4.78667 92.2414 4.88C92.3414 4.97333 92.4081 5.13333 92.4414 5.36L92.5914 6.6C92.9581 5.96667 93.3881 5.46667 93.8814 5.1C94.3747 4.73333 94.9281 4.55 95.5414 4.55C96.0481 4.55 96.4681 4.66667 96.8014 4.9L96.4814 6.75C96.4614 6.87 96.4181 6.95667 96.3514 7.01C96.2847 7.05667 96.1947 7.08 96.0814 7.08C95.9814 7.08 95.8447 7.05667 95.6714 7.01C95.4981 6.96333 95.2681 6.94 94.9814 6.94C94.4681 6.94 94.0281 7.08333 93.6614 7.37C93.2947 7.65 92.9847 8.06333 92.7314 8.61V15H90.2614ZM102.665 4.58C103.312 4.58 103.905 4.68333 104.445 4.89C104.992 5.09667 105.462 5.4 105.855 5.8C106.249 6.19333 106.555 6.68 106.775 7.26C106.995 7.83333 107.105 8.49 107.105 9.23C107.105 9.41667 107.095 9.57333 107.075 9.7C107.062 9.82 107.032 9.91667 106.985 9.99C106.945 10.0567 106.889 10.1067 106.815 10.14C106.742 10.1667 106.649 10.18 106.535 10.18H100.195C100.269 11.2333 100.552 12.0067 101.045 12.5C101.539 12.9933 102.192 13.24 103.005 13.24C103.405 13.24 103.749 13.1933 104.035 13.1C104.329 13.0067 104.582 12.9033 104.795 12.79C105.015 12.6767 105.205 12.5733 105.365 12.48C105.532 12.3867 105.692 12.34 105.845 12.34C105.945 12.34 106.032 12.36 106.105 12.4C106.179 12.44 106.242 12.4967 106.295 12.57L107.015 13.47C106.742 13.79 106.435 14.06 106.095 14.28C105.755 14.4933 105.399 14.6667 105.025 14.8C104.659 14.9267 104.282 15.0167 103.895 15.07C103.515 15.1233 103.145 15.15 102.785 15.15C102.072 15.15 101.409 15.0333 100.795 14.8C100.182 14.56 99.6488 14.21 99.1955 13.75C98.7421 13.2833 98.3855 12.71 98.1255 12.03C97.8655 11.3433 97.7355 10.55 97.7355 9.65C97.7355 8.95 97.8488 8.29333 98.0755 7.68C98.3021 7.06 98.6255 6.52333 99.0455 6.07C99.4721 5.61 99.9888 5.24667 100.595 4.98C101.209 4.71333 101.899 4.58 102.665 4.58ZM102.715 6.35C101.995 6.35 101.432 6.55333 101.025 6.96C100.619 7.36667 100.359 7.94333 100.245 8.69H104.885C104.885 8.37 104.842 8.07 104.755 7.79C104.669 7.50333 104.535 7.25333 104.355 7.04C104.175 6.82667 103.949 6.66 103.675 6.54C103.402 6.41333 103.082 6.35 102.715 6.35ZM109.109 18.35V4.74H110.619C110.779 4.74 110.916 4.77667 111.029 4.85C111.142 4.92333 111.216 5.03667 111.249 5.19L111.449 6.14C111.862 5.66667 112.336 5.28333 112.869 4.99C113.409 4.69667 114.039 4.55 114.759 4.55C115.319 4.55 115.829 4.66667 116.289 4.9C116.756 5.13333 117.156 5.47333 117.489 5.92C117.829 6.36 118.089 6.90667 118.269 7.56C118.456 8.20667 118.549 8.95 118.549 9.79C118.549 10.5567 118.446 11.2667 118.239 11.92C118.032 12.5733 117.736 13.14 117.349 13.62C116.969 14.1 116.506 14.4767 115.959 14.75C115.419 15.0167 114.812 15.15 114.139 15.15C113.559 15.15 113.066 15.0633 112.659 14.89C112.259 14.71 111.899 14.4633 111.579 14.15V18.35H109.109ZM113.909 6.5C113.396 6.5 112.956 6.61 112.589 6.83C112.229 7.04333 111.892 7.34667 111.579 7.74V12.34C111.859 12.6867 112.162 12.93 112.489 13.07C112.822 13.2033 113.179 13.27 113.559 13.27C113.932 13.27 114.269 13.2 114.569 13.06C114.876 12.92 115.132 12.7067 115.339 12.42C115.552 12.1333 115.716 11.7733 115.829 11.34C115.942 10.9 115.999 10.3833 115.999 9.79C115.999 9.19 115.949 8.68333 115.849 8.27C115.756 7.85 115.619 7.51 115.439 7.25C115.259 6.99 115.039 6.8 114.779 6.68C114.526 6.56 114.236 6.5 113.909 6.5ZM124.658 4.58C125.304 4.58 125.898 4.68333 126.438 4.89C126.984 5.09667 127.454 5.4 127.848 5.8C128.241 6.19333 128.548 6.68 128.768 7.26C128.988 7.83333 129.098 8.49 129.098 9.23C129.098 9.41667 129.088 9.57333 129.068 9.7C129.054 9.82 129.024 9.91667 128.978 9.99C128.938 10.0567 128.881 10.1067 128.808 10.14C128.734 10.1667 128.641 10.18 128.528 10.18H122.188C122.261 11.2333 122.544 12.0067 123.038 12.5C123.531 12.9933 124.184 13.24 124.998 13.24C125.398 13.24 125.741 13.1933 126.028 13.1C126.321 13.0067 126.574 12.9033 126.788 12.79C127.008 12.6767 127.198 12.5733 127.358 12.48C127.524 12.3867 127.684 12.34 127.838 12.34C127.938 12.34 128.024 12.36 128.098 12.4C128.171 12.44 128.234 12.4967 128.288 12.57L129.008 13.47C128.734 13.79 128.428 14.06 128.088 14.28C127.748 14.4933 127.391 14.6667 127.018 14.8C126.651 14.9267 126.274 15.0167 125.888 15.07C125.508 15.1233 125.138 15.15 124.778 15.15C124.064 15.15 123.401 15.0333 122.788 14.8C122.174 14.56 121.641 14.21 121.188 13.75C120.734 13.2833 120.378 12.71 120.118 12.03C119.858 11.3433 119.728 10.55 119.728 9.65C119.728 8.95 119.841 8.29333 120.068 7.68C120.294 7.06 120.618 6.52333 121.038 6.07C121.464 5.61 121.981 5.24667 122.588 4.98C123.201 4.71333 123.891 4.58 124.658 4.58ZM124.708 6.35C123.988 6.35 123.424 6.55333 123.018 6.96C122.611 7.36667 122.351 7.94333 122.238 8.69H126.878C126.878 8.37 126.834 8.07 126.748 7.79C126.661 7.50333 126.528 7.25333 126.348 7.04C126.168 6.82667 125.941 6.66 125.668 6.54C125.394 6.41333 125.074 6.35 124.708 6.35ZM133.731 0.139999V15H131.261V0.139999H133.731ZM139.031 0.139999V8.65H139.491C139.658 8.65 139.788 8.62667 139.881 8.58C139.974 8.53333 140.074 8.44667 140.181 8.32L142.731 5.17C142.844 5.03667 142.964 4.93333 143.091 4.86C143.218 4.78 143.384 4.74 143.591 4.74H145.851L142.661 8.55C142.548 8.69 142.431 8.82 142.311 8.94C142.191 9.05333 142.061 9.15333 141.921 9.24C142.061 9.34 142.184 9.45667 142.291 9.59C142.398 9.72333 142.504 9.86667 142.611 10.02L146.031 15H143.801C143.608 15 143.444 14.9667 143.311 14.9C143.178 14.8333 143.058 14.72 142.951 14.56L140.341 10.67C140.241 10.5167 140.141 10.4167 140.041 10.37C139.941 10.3233 139.791 10.3 139.591 10.3H139.031V15H136.561V0.139999H139.031ZM150.196 4.74V15H147.726V4.74H150.196ZM150.566 1.75C150.566 1.96333 150.523 2.16333 150.436 2.35C150.349 2.53667 150.233 2.7 150.086 2.84C149.946 2.98 149.779 3.09333 149.586 3.18C149.393 3.26 149.186 3.3 148.966 3.3C148.753 3.3 148.549 3.26 148.356 3.18C148.169 3.09333 148.006 2.98 147.866 2.84C147.726 2.7 147.613 2.53667 147.526 2.35C147.446 2.16333 147.406 1.96333 147.406 1.75C147.406 1.53 147.446 1.32333 147.526 1.13C147.613 0.936666 147.726 0.77 147.866 0.63C148.006 0.489999 148.169 0.379999 148.356 0.3C148.549 0.213333 148.753 0.17 148.966 0.17C149.186 0.17 149.393 0.213333 149.586 0.3C149.779 0.379999 149.946 0.489999 150.086 0.63C150.233 0.77 150.349 0.936666 150.436 1.13C150.523 1.32333 150.566 1.53 150.566 1.75ZM152.996 15V4.74H154.506C154.826 4.74 155.036 4.89 155.136 5.19L155.306 6C155.512 5.78667 155.729 5.59333 155.956 5.42C156.189 5.24667 156.432 5.09667 156.686 4.97C156.946 4.84333 157.222 4.74667 157.516 4.68C157.809 4.61333 158.129 4.58 158.476 4.58C159.036 4.58 159.532 4.67667 159.966 4.87C160.399 5.05667 160.759 5.32333 161.046 5.67C161.339 6.01 161.559 6.42 161.706 6.9C161.859 7.37333 161.936 7.89667 161.936 8.47V15H159.466V8.47C159.466 7.84333 159.319 7.36 159.026 7.02C158.739 6.67333 158.306 6.5 157.726 6.5C157.299 6.5 156.899 6.59667 156.526 6.79C156.152 6.98333 155.799 7.24667 155.466 7.58V15H152.996ZM172.403 15H171.293C171.06 15 170.876 14.9667 170.743 14.9C170.61 14.8267 170.51 14.6833 170.443 14.47L170.223 13.74C169.963 13.9733 169.706 14.18 169.453 14.36C169.206 14.5333 168.95 14.68 168.683 14.8C168.416 14.92 168.133 15.01 167.833 15.07C167.533 15.13 167.2 15.16 166.833 15.16C166.4 15.16 166 15.1033 165.633 14.99C165.266 14.87 164.95 14.6933 164.683 14.46C164.423 14.2267 164.22 13.9367 164.073 13.59C163.926 13.2433 163.853 12.84 163.853 12.38C163.853 11.9933 163.953 11.6133 164.153 11.24C164.36 10.86 164.7 10.52 165.173 10.22C165.646 9.91333 166.276 9.66 167.063 9.46C167.85 9.26 168.826 9.14667 169.993 9.12V8.52C169.993 7.83333 169.846 7.32667 169.553 7C169.266 6.66667 168.846 6.5 168.293 6.5C167.893 6.5 167.56 6.54667 167.293 6.64C167.026 6.73333 166.793 6.84 166.593 6.96C166.4 7.07333 166.22 7.17667 166.053 7.27C165.886 7.36333 165.703 7.41 165.503 7.41C165.336 7.41 165.193 7.36667 165.073 7.28C164.953 7.19333 164.856 7.08667 164.783 6.96L164.333 6.17C165.513 5.09 166.936 4.55 168.603 4.55C169.203 4.55 169.736 4.65 170.203 4.85C170.676 5.04333 171.076 5.31667 171.403 5.67C171.73 6.01667 171.976 6.43333 172.143 6.92C172.316 7.40667 172.403 7.94 172.403 8.52V15ZM167.603 13.46C167.856 13.46 168.09 13.4367 168.303 13.39C168.516 13.3433 168.716 13.2733 168.903 13.18C169.096 13.0867 169.28 12.9733 169.453 12.84C169.633 12.7 169.813 12.5367 169.993 12.35V10.62C169.273 10.6533 168.67 10.7167 168.183 10.81C167.703 10.8967 167.316 11.01 167.023 11.15C166.73 11.29 166.52 11.4533 166.393 11.64C166.273 11.8267 166.213 12.03 166.213 12.25C166.213 12.6833 166.34 12.9933 166.593 13.18C166.853 13.3667 167.19 13.46 167.603 13.46Z" fill="url(#paint0_linear_208_132)"></path> <defs> <linearGradient id="paint0_linear_208_132" x1="148.711" y1="-11.0706" x2="102.964" y2="62.6932" gradientUnits="userSpaceOnUse"> <stop stop-color="#FFE8CA"></stop> <stop offset="0.260417" stop-color="#FFE0E3"></stop> <stop offset="0.442708" stop-color="#FFC9ED"></stop> <stop offset="0.697917" stop-color="#C8BDFB"></stop> <stop offset="0.947917" stop-color="#A7C7FF"></stop> </linearGradient> </defs> </svg> 