<?xml version="1.0" encoding="UTF-8"?> <svg xmlns="http://www.w3.org/2000/svg" width="26" height="26" viewBox="0 0 26 26" fill="none"> <path d="M12.5625 2.4375C6.7385 2.4375 2 7.176 2 13C2 18.824 6.7385 23.5625 12.5625 23.5625C18.3865 23.5625 23.125 18.824 23.125 13C23.125 7.176 18.3865 2.4375 12.5625 2.4375ZM12.5625 21.9375C7.63442 21.9375 3.625 17.9281 3.625 13C3.625 8.07192 7.63442 4.0625 12.5625 4.0625C17.4906 4.0625 21.5 8.07192 21.5 13C21.5 17.9281 17.4906 21.9375 12.5625 21.9375ZM17.7083 13C17.7083 13.4485 17.3443 13.8125 16.8958 13.8125H12.5625C12.114 13.8125 11.75 13.4485 11.75 13V7.58333C11.75 7.13483 12.114 6.77083 12.5625 6.77083C13.011 6.77083 13.375 7.13483 13.375 7.58333V12.1875H16.8958C17.3443 12.1875 17.7083 12.5515 17.7083 13Z" fill="#41416E"></path> </svg> 