<?xml version="1.0" encoding="UTF-8"?> <svg xmlns="http://www.w3.org/2000/svg" width="565" height="170" viewBox="0 0 565 170" fill="none"> <g opacity="0.32"> <path d="M0.285511 3V167.364H66.0952C78.187 167.364 88.2725 165.571 96.3516 161.987C104.431 158.402 110.503 153.426 114.57 147.059C118.636 140.746 120.669 133.469 120.669 125.229C120.669 118.809 119.385 113.164 116.817 108.295C114.249 103.48 110.717 99.5208 106.223 96.4176C101.782 93.3679 96.6993 91.201 90.9744 89.9169V88.3118C97.2344 88.0443 103.093 86.2787 108.55 83.0149C114.061 79.7512 118.529 75.1766 121.953 69.2912C125.377 63.4593 127.089 56.5038 127.089 48.4247C127.089 39.7036 124.923 31.9188 120.589 25.0703C116.308 18.2753 109.968 12.8982 101.568 8.93892C93.1681 4.97964 82.8151 3 70.5092 3H0.285511ZM35.0362 31.4105H63.3665C73.0507 31.4105 80.1132 33.2564 84.554 36.9482C88.9948 40.6934 91.2152 45.6693 91.2152 51.8757C91.2152 56.4235 90.1184 60.4363 87.9247 63.9141C85.7311 67.3918 82.6011 70.1205 78.5348 72.1001C74.522 74.0798 69.7334 75.0696 64.169 75.0696H35.0362V31.4105ZM35.0362 98.5845H60.7983C65.5601 98.5845 69.7869 99.4138 73.4787 101.072C77.224 102.785 80.1667 105.192 82.3068 108.295C84.5005 111.399 85.5973 115.117 85.5973 119.451C85.5973 125.39 83.4839 130.179 79.2571 133.817C75.0838 137.455 69.1449 139.274 61.4403 139.274H35.0362V98.5845ZM149.702 3V167.364H260.454V138.712H184.452V99.5476H254.756V70.8963H184.452V31.6513H260.775V3H149.702ZM377.246 120.093C376.604 126.567 373.849 131.596 368.98 135.181C364.111 138.766 357.504 140.558 349.157 140.558C343.486 140.558 338.697 139.756 334.791 138.151C330.885 136.599 327.889 134.432 325.803 131.65C323.769 128.868 322.753 125.711 322.753 122.18C322.646 119.237 323.261 116.669 324.599 114.475C325.99 112.281 327.889 110.382 330.297 108.777C332.705 107.225 335.487 105.861 338.643 104.684C341.8 103.56 345.171 102.597 348.756 101.795L363.523 98.2635C370.692 96.6584 377.273 94.5182 383.266 91.843C389.258 89.1679 394.448 85.8774 398.835 81.9716C403.223 78.0658 406.62 73.4645 409.028 68.1676C411.489 62.8707 412.746 56.7981 412.8 49.9496C412.746 39.8909 410.178 31.1697 405.095 23.7862C400.066 16.4562 392.789 10.758 383.266 6.69176C373.795 2.67898 362.372 0.672585 348.996 0.672585C335.728 0.672585 324.171 2.70573 314.326 6.77202C304.535 10.8383 296.884 16.8575 291.373 24.8295C285.915 32.8551 283.053 42.7801 282.786 54.6044H316.413C316.787 49.0935 318.366 44.4922 321.148 40.8004C323.983 37.1622 327.755 34.4067 332.464 32.5341C337.226 30.715 342.603 29.8054 348.595 29.8054C354.481 29.8054 359.59 30.6615 363.924 32.3736C368.311 34.0857 371.709 36.4666 374.116 39.5163C376.524 42.5661 377.728 46.0706 377.728 50.0298C377.728 53.7216 376.631 56.8248 374.438 59.3395C372.297 61.8542 369.141 63.9943 364.967 65.7599C360.848 67.5256 355.791 69.1307 349.799 70.5753L331.902 75.0696C318.045 78.4403 307.103 83.7105 299.077 90.88C291.052 98.0495 287.066 107.707 287.119 119.852C287.066 129.804 289.714 138.498 295.065 145.935C300.469 153.372 307.879 159.178 317.295 163.351C326.712 167.524 337.413 169.611 349.398 169.611C361.597 169.611 372.244 167.524 381.339 163.351C390.489 159.178 397.605 153.372 402.688 145.935C407.77 138.498 410.392 129.884 410.553 120.093H377.246ZM429.914 138.712V167.364H564.904V138.712H514.584V3H480.235V138.712H429.914Z" fill="white"></path> <path d="M0.285511 3V167.364H66.0952C78.187 167.364 88.2725 165.571 96.3516 161.987C104.431 158.402 110.503 153.426 114.57 147.059C118.636 140.746 120.669 133.469 120.669 125.229C120.669 118.809 119.385 113.164 116.817 108.295C114.249 103.48 110.717 99.5208 106.223 96.4176C101.782 93.3679 96.6993 91.201 90.9744 89.9169V88.3118C97.2344 88.0443 103.093 86.2787 108.55 83.0149C114.061 79.7512 118.529 75.1766 121.953 69.2912C125.377 63.4593 127.089 56.5038 127.089 48.4247C127.089 39.7036 124.923 31.9188 120.589 25.0703C116.308 18.2753 109.968 12.8982 101.568 8.93892C93.1681 4.97964 82.8151 3 70.5092 3H0.285511ZM35.0362 31.4105H63.3665C73.0507 31.4105 80.1132 33.2564 84.554 36.9482C88.9948 40.6934 91.2152 45.6693 91.2152 51.8757C91.2152 56.4235 90.1184 60.4363 87.9247 63.9141C85.7311 67.3918 82.6011 70.1205 78.5348 72.1001C74.522 74.0798 69.7334 75.0696 64.169 75.0696H35.0362V31.4105ZM35.0362 98.5845H60.7983C65.5601 98.5845 69.7869 99.4138 73.4787 101.072C77.224 102.785 80.1667 105.192 82.3068 108.295C84.5005 111.399 85.5973 115.117 85.5973 119.451C85.5973 125.39 83.4839 130.179 79.2571 133.817C75.0838 137.455 69.1449 139.274 61.4403 139.274H35.0362V98.5845ZM149.702 3V167.364H260.454V138.712H184.452V99.5476H254.756V70.8963H184.452V31.6513H260.775V3H149.702ZM377.246 120.093C376.604 126.567 373.849 131.596 368.98 135.181C364.111 138.766 357.504 140.558 349.157 140.558C343.486 140.558 338.697 139.756 334.791 138.151C330.885 136.599 327.889 134.432 325.803 131.65C323.769 128.868 322.753 125.711 322.753 122.18C322.646 119.237 323.261 116.669 324.599 114.475C325.99 112.281 327.889 110.382 330.297 108.777C332.705 107.225 335.487 105.861 338.643 104.684C341.8 103.56 345.171 102.597 348.756 101.795L363.523 98.2635C370.692 96.6584 377.273 94.5182 383.266 91.843C389.258 89.1679 394.448 85.8774 398.835 81.9716C403.223 78.0658 406.62 73.4645 409.028 68.1676C411.489 62.8707 412.746 56.7981 412.8 49.9496C412.746 39.8909 410.178 31.1697 405.095 23.7862C400.066 16.4562 392.789 10.758 383.266 6.69176C373.795 2.67898 362.372 0.672585 348.996 0.672585C335.728 0.672585 324.171 2.70573 314.326 6.77202C304.535 10.8383 296.884 16.8575 291.373 24.8295C285.915 32.8551 283.053 42.7801 282.786 54.6044H316.413C316.787 49.0935 318.366 44.4922 321.148 40.8004C323.983 37.1622 327.755 34.4067 332.464 32.5341C337.226 30.715 342.603 29.8054 348.595 29.8054C354.481 29.8054 359.59 30.6615 363.924 32.3736C368.311 34.0857 371.709 36.4666 374.116 39.5163C376.524 42.5661 377.728 46.0706 377.728 50.0298C377.728 53.7216 376.631 56.8248 374.438 59.3395C372.297 61.8542 369.141 63.9943 364.967 65.7599C360.848 67.5256 355.791 69.1307 349.799 70.5753L331.902 75.0696C318.045 78.4403 307.103 83.7105 299.077 90.88C291.052 98.0495 287.066 107.707 287.119 119.852C287.066 129.804 289.714 138.498 295.065 145.935C300.469 153.372 307.879 159.178 317.295 163.351C326.712 167.524 337.413 169.611 349.398 169.611C361.597 169.611 372.244 167.524 381.339 163.351C390.489 159.178 397.605 153.372 402.688 145.935C407.77 138.498 410.392 129.884 410.553 120.093H377.246ZM429.914 138.712V167.364H564.904V138.712H514.584V3H480.235V138.712H429.914Z" fill="url(#paint0_linear_194_230)"></path> </g> <defs> <linearGradient id="paint0_linear_194_230" x1="488.173" y1="291.306" x2="37.0221" y2="77.5751" gradientUnits="userSpaceOnUse"> <stop stop-color="#FFE8CA"></stop> <stop offset="0.260417" stop-color="#FFE0E3"></stop> <stop offset="0.442708" stop-color="#FFC9ED"></stop> <stop offset="0.697917" stop-color="#C8BDFB"></stop> <stop offset="0.947917" stop-color="#A7C7FF"></stop> </linearGradient> </defs> </svg> 