<?xml version="1.0" encoding="UTF-8"?> <svg xmlns="http://www.w3.org/2000/svg" width="209" height="23" viewBox="0 0 209 23" fill="none"> <path d="M10.0426 1.63636H13.7017V15.9545C13.6951 17.267 13.4167 18.3973 12.8665 19.3452C12.3163 20.2865 11.5473 21.0123 10.5597 21.5227C9.5786 22.0265 8.43513 22.2784 7.12926 22.2784C5.93608 22.2784 4.86222 22.0663 3.90767 21.642C2.95975 21.2112 2.20739 20.5748 1.65057 19.733C1.09375 18.8911 0.815341 17.8437 0.815341 16.5909H4.48438C4.491 17.1411 4.61032 17.6151 4.84233 18.0128C5.08097 18.4105 5.40909 18.7154 5.8267 18.9276C6.24432 19.1397 6.72491 19.2457 7.26847 19.2457C7.85843 19.2457 8.3589 19.1231 8.76989 18.8778C9.18087 18.6259 9.49242 18.2547 9.70455 17.7642C9.9233 17.2737 10.036 16.6705 10.0426 15.9545V1.63636ZM27.2791 15.5767V6.72727H30.8786V22H27.3885V19.2855H27.2294C26.8847 20.1406 26.3179 20.84 25.5291 21.3835C24.7469 21.9271 23.7824 22.1989 22.6357 22.1989C21.6347 22.1989 20.7498 21.9768 19.9808 21.5327C19.2185 21.0819 18.6219 20.429 18.1911 19.5739C17.7602 18.7121 17.5447 17.6714 17.5447 16.4517V6.72727H21.1442V15.8949C21.1442 16.8627 21.4093 17.6316 21.9396 18.2017C22.4699 18.7718 23.166 19.0568 24.0277 19.0568C24.558 19.0568 25.0717 18.9276 25.5689 18.669C26.0661 18.4105 26.4737 18.026 26.7919 17.5156C27.1167 16.9986 27.2791 16.3523 27.2791 15.5767ZM38.1793 1.63636V22H34.5799V1.63636H38.1793ZM41.8807 22V6.72727H45.4801V22H41.8807ZM43.6903 4.55966C43.1203 4.55966 42.6297 4.37074 42.2188 3.9929C41.8078 3.60843 41.6023 3.14773 41.6023 2.61079C41.6023 2.06723 41.8078 1.60653 42.2188 1.22869C42.6297 0.844223 43.1203 0.651988 43.6903 0.651988C44.267 0.651988 44.7576 0.844223 45.1619 1.22869C45.5729 1.60653 45.7784 2.06723 45.7784 2.61079C45.7784 3.14773 45.5729 3.60843 45.1619 3.9929C44.7576 4.37074 44.267 4.55966 43.6903 4.55966ZM53.5763 22.3082C52.6085 22.3082 51.7369 22.1359 50.9613 21.7912C50.1924 21.4399 49.5825 20.9228 49.1317 20.2401C48.6876 19.5573 48.4656 18.7154 48.4656 17.7145C48.4656 16.8527 48.6246 16.1402 48.9428 15.5767C49.261 15.0133 49.6952 14.5625 50.2454 14.2244C50.7956 13.8864 51.4154 13.6312 52.1048 13.4588C52.8008 13.2798 53.52 13.1506 54.2624 13.071C55.1573 12.9782 55.8832 12.8954 56.44 12.8224C56.9968 12.7429 57.4012 12.6236 57.6531 12.4645C57.9116 12.2988 58.0408 12.0436 58.0408 11.6989V11.6392C58.0408 10.8902 57.8188 10.3101 57.3746 9.89915C56.9305 9.48816 56.2908 9.28267 55.4556 9.28267C54.574 9.28267 53.8746 9.47491 53.3576 9.85938C52.8472 10.2438 52.5025 10.6979 52.3235 11.2216L48.9627 10.7443C49.2279 9.81629 49.6654 9.04072 50.2752 8.41761C50.8851 7.78788 51.6308 7.31723 52.5124 7.00568C53.3941 6.6875 54.3685 6.52841 55.4357 6.52841C56.1715 6.52841 56.904 6.61458 57.6332 6.78693C58.3623 6.95928 59.0285 7.24432 59.6317 7.64204C60.235 8.03314 60.7189 8.56676 61.0835 9.2429C61.4547 9.91903 61.6403 10.7642 61.6403 11.7784V22H58.18V19.902H58.0607C57.842 20.3262 57.5337 20.724 57.136 21.0952C56.7449 21.4598 56.2511 21.7547 55.6545 21.9801C55.0645 22.1989 54.3718 22.3082 53.5763 22.3082ZM54.511 19.6634C55.2335 19.6634 55.86 19.5208 56.3903 19.2358C56.9206 18.9441 57.3282 18.5597 57.6133 18.0824C57.9049 17.6051 58.0508 17.0848 58.0508 16.5213V14.7216C57.9381 14.8144 57.7459 14.9006 57.4741 14.9801C57.2089 15.0597 56.9106 15.1293 56.5792 15.1889C56.2478 15.2486 55.9196 15.3016 55.5948 15.348C55.27 15.3944 54.9883 15.4342 54.7496 15.4673C54.2127 15.5402 53.7321 15.6596 53.3079 15.8253C52.8836 15.991 52.5489 16.223 52.3036 16.5213C52.0584 16.813 51.9357 17.1908 51.9357 17.6548C51.9357 18.3177 52.1777 18.8182 52.6616 19.1562C53.1455 19.4943 53.762 19.6634 54.511 19.6634ZM74.979 22H71.0415L78.2106 1.63636H82.7646L89.9435 22H86.006L80.5671 5.8125H80.408L74.979 22ZM75.1083 14.0156H85.8469V16.9787H75.1083V14.0156ZM96.0661 1.63636V22H92.4666V1.63636H96.0661ZM106.529 22.2983C104.998 22.2983 103.675 21.9801 102.561 21.3438C101.454 20.7008 100.603 19.7926 100.006 18.6193C99.4094 17.4394 99.1112 16.0507 99.1112 14.4531C99.1112 12.8821 99.4094 11.5033 100.006 10.3168C100.609 9.12358 101.451 8.19555 102.532 7.53267C103.612 6.86316 104.882 6.52841 106.34 6.52841C107.281 6.52841 108.169 6.68087 109.005 6.98579C109.846 7.28409 110.589 7.74811 111.232 8.37784C111.882 9.00758 112.392 9.80966 112.763 10.7841C113.134 11.7519 113.32 12.9053 113.32 14.2443V15.348H100.801V12.9219H109.87C109.863 12.2325 109.714 11.6193 109.422 11.0824C109.131 10.5388 108.723 10.1113 108.199 9.79972C107.682 9.48816 107.079 9.33239 106.39 9.33239C105.654 9.33239 105.007 9.51136 104.451 9.86932C103.894 10.2206 103.46 10.6847 103.148 11.2614C102.843 11.8314 102.687 12.4579 102.681 13.1406V15.2585C102.681 16.1468 102.843 16.9091 103.168 17.5455C103.493 18.1752 103.947 18.6591 104.53 18.9972C105.114 19.3286 105.796 19.4943 106.578 19.4943C107.102 19.4943 107.576 19.4214 108 19.2756C108.425 19.1231 108.792 18.901 109.104 18.6094C109.416 18.3177 109.651 17.9564 109.81 17.5256L113.171 17.9034C112.959 18.7917 112.554 19.5672 111.958 20.2301C111.368 20.8864 110.612 21.3968 109.691 21.7614C108.769 22.1193 107.715 22.2983 106.529 22.2983ZM119.646 17.2074L119.636 12.8622H120.213L125.702 6.72727H129.908L123.156 14.2443H122.411L119.646 17.2074ZM116.365 22V1.63636H119.964V22H116.365ZM125.95 22L120.979 15.0497L123.405 12.5142L130.256 22H125.95ZM144.377 10.7642L141.096 11.1222C141.003 10.7907 140.841 10.4792 140.609 10.1875C140.384 9.89583 140.079 9.66051 139.694 9.48153C139.31 9.30256 138.839 9.21307 138.282 9.21307C137.533 9.21307 136.904 9.37547 136.393 9.70028C135.889 10.0251 135.641 10.446 135.647 10.9631C135.641 11.4072 135.803 11.7685 136.135 12.0469C136.473 12.3253 137.029 12.554 137.805 12.733L140.41 13.2898C141.855 13.6013 142.929 14.0952 143.632 14.7713C144.341 15.4474 144.699 16.3324 144.706 17.4261C144.699 18.3873 144.417 19.2358 143.86 19.9716C143.31 20.7008 142.545 21.2708 141.564 21.6818C140.583 22.0928 139.456 22.2983 138.183 22.2983C136.314 22.2983 134.809 21.9072 133.669 21.125C132.529 20.3362 131.849 19.2391 131.63 17.8338L135.14 17.4957C135.299 18.1851 135.637 18.7055 136.154 19.0568C136.672 19.4081 137.344 19.5838 138.173 19.5838C139.028 19.5838 139.714 19.4081 140.231 19.0568C140.755 18.7055 141.017 18.2713 141.017 17.7543C141.017 17.3168 140.848 16.9555 140.51 16.6705C140.178 16.3854 139.661 16.1667 138.958 16.0142L136.353 15.4673C134.888 15.1624 133.805 14.6487 133.102 13.9261C132.399 13.197 132.051 12.2756 132.058 11.1619C132.051 10.2206 132.306 9.4053 132.824 8.71591C133.347 8.01989 134.073 7.48295 135.001 7.10511C135.936 6.72064 137.013 6.52841 138.233 6.52841C140.022 6.52841 141.431 6.90956 142.458 7.67188C143.493 8.43419 144.132 9.46496 144.377 10.7642ZM154.435 22.2983C152.904 22.2983 151.581 21.9801 150.468 21.3438C149.361 20.7008 148.509 19.7926 147.912 18.6193C147.316 17.4394 147.017 16.0507 147.017 14.4531C147.017 12.8821 147.316 11.5033 147.912 10.3168C148.516 9.12358 149.357 8.19555 150.438 7.53267C151.518 6.86316 152.788 6.52841 154.246 6.52841C155.187 6.52841 156.076 6.68087 156.911 6.98579C157.753 7.28409 158.495 7.74811 159.138 8.37784C159.788 9.00758 160.298 9.80966 160.669 10.7841C161.041 11.7519 161.226 12.9053 161.226 14.2443V15.348H148.708V12.9219H157.776C157.769 12.2325 157.62 11.6193 157.328 11.0824C157.037 10.5388 156.629 10.1113 156.105 9.79972C155.588 9.48816 154.985 9.33239 154.296 9.33239C153.56 9.33239 152.914 9.51136 152.357 9.86932C151.8 10.2206 151.366 10.6847 151.054 11.2614C150.749 11.8314 150.594 12.4579 150.587 13.1406V15.2585C150.587 16.1468 150.749 16.9091 151.074 17.5455C151.399 18.1752 151.853 18.6591 152.436 18.9972C153.02 19.3286 153.703 19.4943 154.485 19.4943C155.008 19.4943 155.482 19.4214 155.907 19.2756C156.331 19.1231 156.699 18.901 157.01 18.6094C157.322 18.3177 157.557 17.9564 157.716 17.5256L161.077 17.9034C160.865 18.7917 160.461 19.5672 159.864 20.2301C159.274 20.8864 158.518 21.3968 157.597 21.7614C156.676 22.1193 155.622 22.2983 154.435 22.2983ZM171.033 22.2983C169.501 22.2983 168.179 21.9801 167.065 21.3438C165.958 20.7008 165.107 19.7926 164.51 18.6193C163.913 17.4394 163.615 16.0507 163.615 14.4531C163.615 12.8821 163.913 11.5033 164.51 10.3168C165.113 9.12358 165.955 8.19555 167.036 7.53267C168.116 6.86316 169.385 6.52841 170.844 6.52841C171.785 6.52841 172.673 6.68087 173.509 6.98579C174.35 7.28409 175.093 7.74811 175.736 8.37784C176.385 9.00758 176.896 9.80966 177.267 10.7841C177.638 11.7519 177.824 12.9053 177.824 14.2443V15.348H165.305V12.9219H174.374C174.367 12.2325 174.218 11.6193 173.926 11.0824C173.634 10.5388 173.227 10.1113 172.703 9.79972C172.186 9.48816 171.583 9.33239 170.893 9.33239C170.158 9.33239 169.511 9.51136 168.955 9.86932C168.398 10.2206 167.964 10.6847 167.652 11.2614C167.347 11.8314 167.191 12.4579 167.185 13.1406V15.2585C167.185 16.1468 167.347 16.9091 167.672 17.5455C167.997 18.1752 168.451 18.6591 169.034 18.9972C169.617 19.3286 170.3 19.4943 171.082 19.4943C171.606 19.4943 172.08 19.4214 172.504 19.2756C172.929 19.1231 173.296 18.901 173.608 18.6094C173.92 18.3177 174.155 17.9564 174.314 17.5256L177.675 17.9034C177.463 18.7917 177.058 19.5672 176.462 20.2301C175.872 20.8864 175.116 21.3968 174.195 21.7614C173.273 22.1193 172.219 22.2983 171.033 22.2983ZM194.074 6.72727L188.635 22H184.657L179.218 6.72727H183.056L186.566 18.0724H186.725L190.245 6.72727H194.074ZM200.522 22.3082C199.554 22.3082 198.682 22.1359 197.907 21.7912C197.138 21.4399 196.528 20.9228 196.077 20.2401C195.633 19.5573 195.411 18.7154 195.411 17.7145C195.411 16.8527 195.57 16.1402 195.888 15.5767C196.206 15.0133 196.641 14.5625 197.191 14.2244C197.741 13.8864 198.361 13.6312 199.05 13.4588C199.746 13.2798 200.465 13.1506 201.208 13.071C202.103 12.9782 202.828 12.8954 203.385 12.8224C203.942 12.7429 204.346 12.6236 204.598 12.4645C204.857 12.2988 204.986 12.0436 204.986 11.6989V11.6392C204.986 10.8902 204.764 10.3101 204.32 9.89915C203.876 9.48816 203.236 9.28267 202.401 9.28267C201.519 9.28267 200.82 9.47491 200.303 9.85938C199.792 10.2438 199.448 10.6979 199.269 11.2216L195.908 10.7443C196.173 9.81629 196.611 9.04072 197.221 8.41761C197.83 7.78788 198.576 7.31723 199.458 7.00568C200.339 6.6875 201.314 6.52841 202.381 6.52841C203.117 6.52841 203.849 6.61458 204.578 6.78693C205.308 6.95928 205.974 7.24432 206.577 7.64204C207.18 8.03314 207.664 8.56676 208.029 9.2429C208.4 9.91903 208.586 10.7642 208.586 11.7784V22H205.125V19.902H205.006C204.787 20.3262 204.479 20.724 204.081 21.0952C203.69 21.4598 203.196 21.7547 202.6 21.9801C202.01 22.1989 201.317 22.3082 200.522 22.3082ZM201.456 19.6634C202.179 19.6634 202.805 19.5208 203.336 19.2358C203.866 18.9441 204.274 18.5597 204.559 18.0824C204.85 17.6051 204.996 17.0848 204.996 16.5213V14.7216C204.883 14.8144 204.691 14.9006 204.419 14.9801C204.154 15.0597 203.856 15.1293 203.525 15.1889C203.193 15.2486 202.865 15.3016 202.54 15.348C202.215 15.3944 201.934 15.4342 201.695 15.4673C201.158 15.5402 200.677 15.6596 200.253 15.8253C199.829 15.991 199.494 16.223 199.249 16.5213C199.004 16.813 198.881 17.1908 198.881 17.6548C198.881 18.3177 199.123 18.8182 199.607 19.1562C200.091 19.4943 200.707 19.6634 201.456 19.6634Z" fill="url(#paint0_linear_222_120)"></path> <defs> <linearGradient id="paint0_linear_222_120" x1="105.5" y1="-5" x2="96.815" y2="34.2354" gradientUnits="userSpaceOnUse"> <stop stop-color="#FFE8CA"></stop> <stop offset="0.260417" stop-color="#FFE0E3"></stop> <stop offset="0.442708" stop-color="#FFC9ED"></stop> <stop offset="0.697917" stop-color="#C8BDFB"></stop> <stop offset="0.947917" stop-color="#A7C7FF"></stop> </linearGradient> </defs> </svg> 