<?xml version="1.0" encoding="UTF-8"?> <svg xmlns="http://www.w3.org/2000/svg" width="22" height="22" viewBox="0 0 22 22" fill="none"> <path d="M18.3132 6.70574L13.7298 3.01944C12.1477 1.74759 9.85234 1.74759 8.27017 3.01944L3.68684 6.70574C2.65467 7.53561 2.0625 8.77077 2.0625 10.0949V15.5895C2.0625 17.9883 4.01592 19.9406 6.41667 19.9406H8.9375V15.5895C8.9375 14.4542 9.86242 13.5299 11 13.5299C12.1376 13.5299 13.0625 14.4542 13.0625 15.5895V19.9406H15.5833C17.9841 19.9406 19.9375 17.9892 19.9375 15.5895V10.0949C19.9375 8.77077 19.3453 7.53561 18.3132 6.70574ZM18.5625 15.5895C18.5625 17.23 17.226 18.5651 15.5833 18.5651H14.4375V15.5895C14.4375 13.6959 12.8957 12.1544 11 12.1544C9.10433 12.1544 7.5625 13.6959 7.5625 15.5895V18.5651H6.41667C4.774 18.5651 3.4375 17.23 3.4375 15.5895V10.0949C3.4375 9.18983 3.84175 8.34531 4.54758 7.7777L9.13092 4.0914C10.2144 3.22119 11.7856 3.22119 12.8682 4.0914L17.4515 7.7777C18.1573 8.34531 18.5616 9.18983 18.5616 10.0949V15.5895H18.5625Z" fill="#ABAFFF"></path> </svg> 