<?xml version="1.0" encoding="UTF-8"?> <svg xmlns="http://www.w3.org/2000/svg" width="24" height="28" viewBox="0 0 24 28" fill="none"> <path d="M2.25 5.6576C2.25 5.18915 2.586 4.80896 3 4.80896H16C16.414 4.80896 16.75 5.18915 16.75 5.6576C16.75 6.12605 16.414 6.50623 16 6.50623H3C2.586 6.50623 2.25 6.12605 2.25 5.6576ZM21 12.7296H3C2.586 12.7296 2.25 13.1098 2.25 13.5782C2.25 14.0467 2.586 14.4269 3 14.4269H21C21.414 14.4269 21.75 14.0467 21.75 13.5782C21.75 13.1098 21.414 12.7296 21 12.7296ZM12 20.6502H3C2.586 20.6502 2.25 21.0304 2.25 21.4988C2.25 21.9673 2.586 22.3475 3 22.3475H12C12.414 22.3475 12.75 21.9673 12.75 21.4988C12.75 21.0304 12.414 20.6502 12 20.6502Z" fill="#41416E"></path> </svg> 