<?xml version="1.0" encoding="UTF-8"?> <svg xmlns="http://www.w3.org/2000/svg" width="26" height="26" viewBox="0 0 26 26" fill="none"> <path d="M21.3461 5.52121C19.9952 3.88212 18.1178 2.9797 16.0573 2.9797C14.818 2.9797 13.6198 3.28084 12.5603 3.85501C11.5019 3.28084 10.3037 2.9797 9.0633 2.9797C7.0028 2.9797 5.12432 3.88212 3.77448 5.52121C2.30548 7.30437 1.69664 9.73971 2.14406 12.0353C3.20031 17.4476 8.7123 21.2285 11.0339 22.6022C11.5051 22.8806 12.0327 23.0203 12.5603 23.0203C13.0879 23.0203 13.6166 22.8817 14.0878 22.6022C16.4083 21.2274 21.9214 17.4476 22.9776 12.0353C23.424 9.73971 22.8151 7.30437 21.3461 5.52121ZM21.3819 11.7244C20.4524 16.49 15.3921 19.9415 13.259 21.2036C12.829 21.4592 12.2916 21.4581 11.8616 21.2036C9.72848 19.9415 4.66821 16.49 3.73871 11.7244C3.38229 9.90005 3.86546 7.96735 5.02788 6.55468C6.06463 5.29693 7.4968 4.6047 9.0633 4.6047C10.1661 4.6047 11.2235 4.90803 12.1226 5.48219C12.3891 5.65228 12.7315 5.65228 12.998 5.48219C13.8971 4.90803 14.9545 4.6047 16.0573 4.6047C17.6227 4.6047 19.056 5.29693 20.0927 6.55468C21.2551 7.96735 21.7372 9.89897 21.3819 11.7244Z" fill="#41416E"></path> </svg> 