<?xml version="1.0" encoding="UTF-8"?> <svg xmlns="http://www.w3.org/2000/svg" width="36" height="36" viewBox="0 0 36 36" fill="none"> <rect width="36.0001" height="36.0001" rx="18" fill="#363636"></rect> <path fill-rule="evenodd" clip-rule="evenodd" d="M27.6174 13.069C27.7576 12.5913 27.6174 12.2402 26.9504 12.2402H24.7449C24.1841 12.2402 23.9257 12.5435 23.7855 12.878C23.7855 12.878 22.6638 15.6728 21.0749 17.4881C20.5609 18.0137 20.3272 18.1808 20.0468 18.1808C19.9066 18.1808 19.7037 18.0137 19.7037 17.536V13.069C19.7037 12.4957 19.541 12.2402 19.0736 12.2402H15.6077C15.2574 12.2402 15.0466 12.5063 15.0466 12.7585C15.0466 13.3021 15.8409 13.4274 15.9228 14.9561V18.2765C15.9228 19.0045 15.7943 19.1365 15.5138 19.1365C14.7662 19.1365 12.9476 16.329 11.8687 13.1168C11.6573 12.4924 11.4453 12.2402 10.8816 12.2402H8.6761C8.04595 12.2402 7.91992 12.5435 7.91992 12.878C7.91992 13.4752 8.66775 16.4373 11.4015 20.3547C13.224 23.03 15.7917 24.4803 18.1283 24.4803C19.5304 24.4803 19.7037 24.1582 19.7037 23.6033V21.5813C19.7037 20.9371 19.8365 20.8086 20.2804 20.8086C20.6077 20.8086 21.1683 20.9758 22.477 22.2656C23.9723 23.7945 24.2187 24.4803 25.06 24.4803H27.2655C27.8956 24.4803 28.2107 24.1582 28.0289 23.5225C27.8301 22.8889 27.1161 21.9699 26.1687 20.8802C25.6547 20.2591 24.8835 19.5902 24.6501 19.2559C24.3229 18.8259 24.4163 18.6347 24.6501 18.2525C24.6501 18.2525 27.337 14.3829 27.6174 13.069Z" fill="url(#paint0_linear_145_148)"></path> <defs> <linearGradient id="paint0_linear_145_148" x1="25.1667" y1="9.14423" x2="8.41676" y2="15.2449" gradientUnits="userSpaceOnUse"> <stop stop-color="#FFE8CA"></stop> <stop offset="0.260417" stop-color="#FFE0E3"></stop> <stop offset="0.442708" stop-color="#FFC9ED"></stop> <stop offset="0.697917" stop-color="#C8BDFB"></stop> <stop offset="0.947917" stop-color="#A7C7FF"></stop> </linearGradient> </defs> </svg> 