<?xml version="1.0" encoding="UTF-8"?> <svg xmlns="http://www.w3.org/2000/svg" width="112" height="13" viewBox="0 0 112 13" fill="none"> <path d="M7.03906 9.04688C7.03906 8.82812 7.00521 8.63281 6.9375 8.46094C6.875 8.28385 6.75781 8.125 6.58594 7.98438C6.41927 7.83854 6.18229 7.69792 5.875 7.5625C5.57292 7.42188 5.18229 7.27604 4.70312 7.125C4.17188 6.95833 3.67708 6.77083 3.21875 6.5625C2.76042 6.35417 2.35677 6.11198 2.00781 5.83594C1.66406 5.5599 1.39583 5.24219 1.20312 4.88281C1.01042 4.51823 0.914062 4.09635 0.914062 3.61719C0.914062 3.14844 1.01302 2.72135 1.21094 2.33594C1.41406 1.95052 1.70052 1.61979 2.07031 1.34375C2.4401 1.0625 2.875 0.846354 3.375 0.695312C3.88021 0.544271 4.4375 0.46875 5.04688 0.46875C5.89062 0.46875 6.61979 0.622396 7.23438 0.929688C7.85417 1.23698 8.33333 1.65365 8.67188 2.17969C9.01042 2.70573 9.17969 3.29688 9.17969 3.95312H7.03906C7.03906 3.59896 6.96354 3.28646 6.8125 3.01562C6.66667 2.74479 6.44271 2.53125 6.14062 2.375C5.84375 2.21875 5.46875 2.14062 5.01562 2.14062C4.57812 2.14062 4.21354 2.20573 3.92188 2.33594C3.63542 2.46615 3.41927 2.64323 3.27344 2.86719C3.13281 3.09115 3.0625 3.34115 3.0625 3.61719C3.0625 3.82552 3.11198 4.01302 3.21094 4.17969C3.3099 4.34115 3.45833 4.49479 3.65625 4.64062C3.85417 4.78125 4.09896 4.91406 4.39062 5.03906C4.6875 5.15885 5.03125 5.27865 5.42188 5.39844C6.04688 5.58594 6.59375 5.79427 7.0625 6.02344C7.53646 6.2526 7.92969 6.51302 8.24219 6.80469C8.5599 7.09635 8.79688 7.42448 8.95312 7.78906C9.11458 8.15365 9.19531 8.56771 9.19531 9.03125C9.19531 9.52083 9.09896 9.95833 8.90625 10.3438C8.71354 10.7292 8.4375 11.0573 8.07812 11.3281C7.71875 11.599 7.28646 11.8047 6.78125 11.9453C6.28125 12.0859 5.72135 12.1562 5.10156 12.1562C4.54948 12.1562 4.0026 12.0833 3.46094 11.9375C2.92448 11.7865 2.4375 11.5625 2 11.2656C1.5625 10.9635 1.21354 10.5833 0.953125 10.125C0.692708 9.66146 0.5625 9.11979 0.5625 8.5H2.71875C2.71875 8.85938 2.77604 9.16667 2.89062 9.42188C3.01042 9.67188 3.17708 9.8776 3.39062 10.0391C3.60938 10.1953 3.86458 10.3099 4.15625 10.3828C4.44792 10.4557 4.76302 10.4922 5.10156 10.4922C5.53906 10.4922 5.89844 10.4323 6.17969 10.3125C6.46615 10.1875 6.67969 10.0156 6.82031 9.79688C6.96615 9.57812 7.03906 9.32812 7.03906 9.04688ZM14.6953 3.54688V5.03125H9.85156V3.54688H14.6953ZM11.1484 1.46875H13.2188V9.5625C13.2188 9.8125 13.2526 10.0052 13.3203 10.1406C13.388 10.276 13.4896 10.3672 13.625 10.4141C13.7604 10.4609 13.9219 10.4844 14.1094 10.4844C14.2448 10.4844 14.3698 10.4766 14.4844 10.4609C14.599 10.4453 14.6953 10.4297 14.7734 10.4141L14.7812 11.9609C14.6094 12.0182 14.4141 12.0651 14.1953 12.1016C13.9818 12.138 13.7396 12.1562 13.4688 12.1562C13.0052 12.1562 12.599 12.0781 12.25 11.9219C11.901 11.7604 11.6302 11.5026 11.4375 11.1484C11.2448 10.7891 11.1484 10.3151 11.1484 9.72656V1.46875ZM21.1016 9.99219V3.54688H23.1797V12H21.2266L21.1016 9.99219ZM21.3672 8.24219L22.0078 8.22656C22.0078 8.79427 21.9453 9.31771 21.8203 9.79688C21.6953 10.276 21.5 10.6927 21.2344 11.0469C20.974 11.3958 20.6432 11.6693 20.2422 11.8672C19.8411 12.0599 19.3672 12.1562 18.8203 12.1562C18.4036 12.1562 18.0234 12.099 17.6797 11.9844C17.3359 11.8646 17.0391 11.6797 16.7891 11.4297C16.5443 11.1745 16.3542 10.849 16.2188 10.4531C16.0833 10.0521 16.0156 9.57031 16.0156 9.00781V3.54688H18.0781V9.02344C18.0781 9.30469 18.1094 9.53906 18.1719 9.72656C18.2396 9.91406 18.3307 10.0677 18.4453 10.1875C18.5651 10.3021 18.7031 10.3854 18.8594 10.4375C19.0208 10.4844 19.1927 10.5078 19.375 10.5078C19.875 10.5078 20.2682 10.4089 20.5547 10.2109C20.8464 10.0078 21.0547 9.73698 21.1797 9.39844C21.3047 9.05469 21.3672 8.66927 21.3672 8.24219ZM30.0781 10.2031V0H32.1562V12H30.2812L30.0781 10.2031ZM24.6484 7.875V7.71094C24.6484 7.0651 24.7214 6.47917 24.8672 5.95312C25.0182 5.42188 25.237 4.96615 25.5234 4.58594C25.8099 4.20573 26.1562 3.91146 26.5625 3.70312C26.974 3.49479 27.4401 3.39062 27.9609 3.39062C28.4661 3.39062 28.9062 3.49219 29.2812 3.69531C29.6615 3.89844 29.9844 4.1875 30.25 4.5625C30.5208 4.9375 30.737 5.38281 30.8984 5.89844C31.0599 6.40885 31.1771 6.97135 31.25 7.58594V8.03125C31.1771 8.63021 31.0599 9.17969 30.8984 9.67969C30.737 10.1797 30.5208 10.6172 30.25 10.9922C29.9844 11.362 29.6615 11.6484 29.2812 11.8516C28.901 12.0547 28.4557 12.1562 27.9453 12.1562C27.4297 12.1562 26.9661 12.0495 26.5547 11.8359C26.1484 11.6224 25.8021 11.3229 25.5156 10.9375C25.2344 10.5521 25.0182 10.099 24.8672 9.57812C24.7214 9.05729 24.6484 8.48958 24.6484 7.875ZM26.7188 7.71094V7.875C26.7188 8.23958 26.75 8.58073 26.8125 8.89844C26.875 9.21615 26.9766 9.4974 27.1172 9.74219C27.2578 9.98177 27.4375 10.1693 27.6562 10.3047C27.8802 10.4401 28.151 10.5078 28.4688 10.5078C28.875 10.5078 29.2083 10.4193 29.4688 10.2422C29.7344 10.0599 29.9401 9.8125 30.0859 9.5C30.2318 9.18229 30.3255 8.82552 30.3672 8.42969V7.20312C30.3464 6.89062 30.2917 6.60156 30.2031 6.33594C30.1198 6.07031 30 5.84115 29.8438 5.64844C29.6927 5.45573 29.5052 5.30469 29.2812 5.19531C29.0573 5.08594 28.7917 5.03125 28.4844 5.03125C28.1667 5.03125 27.8958 5.10156 27.6719 5.24219C27.4479 5.3776 27.2656 5.56771 27.125 5.8125C26.9844 6.05729 26.8802 6.34115 26.8125 6.66406C26.75 6.98698 26.7188 7.33594 26.7188 7.71094ZM37.8203 12.1562C37.1797 12.1562 36.6042 12.0521 36.0938 11.8438C35.5833 11.6354 35.1484 11.3464 34.7891 10.9766C34.4349 10.6016 34.1615 10.1667 33.9688 9.67188C33.7812 9.17188 33.6875 8.63542 33.6875 8.0625V7.75C33.6875 7.09896 33.7812 6.50781 33.9688 5.97656C34.1562 5.4401 34.4219 4.97917 34.7656 4.59375C35.1094 4.20833 35.5208 3.91146 36 3.70312C36.4792 3.49479 37.0078 3.39062 37.5859 3.39062C38.1849 3.39062 38.7135 3.49219 39.1719 3.69531C39.6302 3.89323 40.013 4.17448 40.3203 4.53906C40.6276 4.90365 40.8594 5.34115 41.0156 5.85156C41.1719 6.35677 41.25 6.91667 41.25 7.53125V8.39844H34.625V6.97656H39.2188V6.82031C39.2083 6.49219 39.1458 6.19271 39.0312 5.92188C38.9167 5.64583 38.7396 5.42708 38.5 5.26562C38.2604 5.09896 37.9505 5.01562 37.5703 5.01562C37.263 5.01562 36.9948 5.08333 36.7656 5.21875C36.5417 5.34896 36.3542 5.53646 36.2031 5.78125C36.0573 6.02083 35.9479 6.30729 35.875 6.64062C35.8021 6.97396 35.7656 7.34375 35.7656 7.75V8.0625C35.7656 8.41667 35.8125 8.74479 35.9062 9.04688C36.0052 9.34896 36.1484 9.61198 36.3359 9.83594C36.5286 10.0547 36.7578 10.2266 37.0234 10.3516C37.2943 10.4714 37.6016 10.5312 37.9453 10.5312C38.3776 10.5312 38.7682 10.4479 39.1172 10.2812C39.4714 10.1094 39.7786 9.85677 40.0391 9.52344L41.0781 10.6016C40.901 10.862 40.6615 11.112 40.3594 11.3516C40.0625 11.5911 39.7031 11.7865 39.2812 11.9375C38.8594 12.0833 38.3724 12.1562 37.8203 12.1562ZM44.6562 5.35156V12H42.5938V3.54688H44.5312L44.6562 5.35156ZM44.3281 7.46875H43.7188C43.724 6.85417 43.8073 6.29688 43.9688 5.79688C44.1302 5.29688 44.3568 4.86719 44.6484 4.50781C44.9453 4.14844 45.2969 3.8724 45.7031 3.67969C46.1094 3.48698 46.5625 3.39062 47.0625 3.39062C47.4688 3.39062 47.8359 3.44792 48.1641 3.5625C48.4922 3.67708 48.7734 3.85938 49.0078 4.10938C49.2474 4.35938 49.4297 4.6875 49.5547 5.09375C49.6849 5.49479 49.75 5.98958 49.75 6.57812V12H47.6719V6.5625C47.6719 6.17708 47.6146 5.8724 47.5 5.64844C47.3906 5.42448 47.2292 5.26562 47.0156 5.17188C46.8073 5.07812 46.5495 5.03125 46.2422 5.03125C45.9245 5.03125 45.6458 5.09635 45.4062 5.22656C45.1719 5.35156 44.974 5.52604 44.8125 5.75C44.6562 5.97396 44.5365 6.23177 44.4531 6.52344C44.3698 6.8151 44.3281 7.13021 44.3281 7.46875ZM55.5703 3.54688V5.03125H50.7266V3.54688H55.5703ZM52.0234 1.46875H54.0938V9.5625C54.0938 9.8125 54.1276 10.0052 54.1953 10.1406C54.263 10.276 54.3646 10.3672 54.5 10.4141C54.6354 10.4609 54.7969 10.4844 54.9844 10.4844C55.1198 10.4844 55.2448 10.4766 55.3594 10.4609C55.474 10.4453 55.5703 10.4297 55.6484 10.4141L55.6562 11.9609C55.4844 12.0182 55.2891 12.0651 55.0703 12.1016C54.8568 12.138 54.6146 12.1562 54.3438 12.1562C53.8802 12.1562 53.474 12.0781 53.125 11.9219C52.776 11.7604 52.5052 11.5026 52.3125 11.1484C52.1198 10.7891 52.0234 10.3151 52.0234 9.72656V1.46875ZM65.5859 10.2031V6.30469C65.5859 6.01823 65.5365 5.77083 65.4375 5.5625C65.3385 5.35417 65.1875 5.19271 64.9844 5.07812C64.7812 4.96354 64.5234 4.90625 64.2109 4.90625C63.9349 4.90625 63.6927 4.95312 63.4844 5.04688C63.2812 5.14062 63.125 5.27344 63.0156 5.44531C62.9062 5.61198 62.8516 5.80469 62.8516 6.02344H60.7812C60.7812 5.67448 60.8646 5.34375 61.0312 5.03125C61.1979 4.71354 61.4349 4.43229 61.7422 4.1875C62.0547 3.9375 62.4271 3.74219 62.8594 3.60156C63.2969 3.46094 63.7865 3.39062 64.3281 3.39062C64.9688 3.39062 65.5391 3.5 66.0391 3.71875C66.5443 3.93229 66.9401 4.25521 67.2266 4.6875C67.5182 5.11979 67.6641 5.66406 67.6641 6.32031V10.0078C67.6641 10.4297 67.6901 10.7917 67.7422 11.0938C67.7995 11.3906 67.8828 11.6484 67.9922 11.8672V12H65.8906C65.7917 11.7865 65.7161 11.5156 65.6641 11.1875C65.612 10.8542 65.5859 10.526 65.5859 10.2031ZM65.875 6.85156L65.8906 8.07812H64.5859C64.263 8.07812 63.9792 8.11198 63.7344 8.17969C63.4896 8.24219 63.2891 8.33594 63.1328 8.46094C62.9766 8.58073 62.8594 8.72656 62.7812 8.89844C62.7031 9.0651 62.6641 9.25521 62.6641 9.46875C62.6641 9.67708 62.7109 9.86458 62.8047 10.0312C62.9036 10.1979 63.0443 10.3307 63.2266 10.4297C63.4141 10.5234 63.6328 10.5703 63.8828 10.5703C64.2474 10.5703 64.5651 10.4974 64.8359 10.3516C65.1068 10.2005 65.3177 10.0182 65.4688 9.80469C65.6198 9.59115 65.7005 9.38802 65.7109 9.19531L66.3047 10.0859C66.2318 10.2995 66.1224 10.526 65.9766 10.7656C65.8307 11.0052 65.6432 11.2292 65.4141 11.4375C65.1849 11.6458 64.9089 11.8177 64.5859 11.9531C64.263 12.0885 63.888 12.1562 63.4609 12.1562C62.9141 12.1562 62.4245 12.0469 61.9922 11.8281C61.5599 11.6094 61.2188 11.3099 60.9688 10.9297C60.7188 10.5495 60.5938 10.1172 60.5938 9.63281C60.5938 9.1849 60.6771 8.78906 60.8438 8.44531C61.0104 8.10156 61.2578 7.8125 61.5859 7.57812C61.9141 7.33854 62.3203 7.15885 62.8047 7.03906C63.2943 6.91406 63.8542 6.85156 64.4844 6.85156H65.875ZM71.875 9.96875L73.7266 3.54688H75.0391L74.6484 5.76562L72.7812 12H71.6484L71.875 9.96875ZM70.8516 3.54688L72.2422 9.98438L72.3672 12H71.0625L68.8438 3.54688H70.8516ZM76.7578 9.89062L78.1172 3.54688H80.1172L77.9141 12H76.6094L76.7578 9.89062ZM75.2422 3.54688L77.0781 9.90625L77.3203 12H76.1875L74.3047 5.76562L73.9219 3.54688H75.2422ZM85.9922 10.2031V6.30469C85.9922 6.01823 85.9427 5.77083 85.8438 5.5625C85.7448 5.35417 85.5938 5.19271 85.3906 5.07812C85.1875 4.96354 84.9297 4.90625 84.6172 4.90625C84.3411 4.90625 84.099 4.95312 83.8906 5.04688C83.6875 5.14062 83.5312 5.27344 83.4219 5.44531C83.3125 5.61198 83.2578 5.80469 83.2578 6.02344H81.1875C81.1875 5.67448 81.2708 5.34375 81.4375 5.03125C81.6042 4.71354 81.8411 4.43229 82.1484 4.1875C82.4609 3.9375 82.8333 3.74219 83.2656 3.60156C83.7031 3.46094 84.1927 3.39062 84.7344 3.39062C85.375 3.39062 85.9453 3.5 86.4453 3.71875C86.9505 3.93229 87.3464 4.25521 87.6328 4.6875C87.9245 5.11979 88.0703 5.66406 88.0703 6.32031V10.0078C88.0703 10.4297 88.0964 10.7917 88.1484 11.0938C88.2057 11.3906 88.2891 11.6484 88.3984 11.8672V12H86.2969C86.1979 11.7865 86.1224 11.5156 86.0703 11.1875C86.0182 10.8542 85.9922 10.526 85.9922 10.2031ZM86.2812 6.85156L86.2969 8.07812H84.9922C84.6693 8.07812 84.3854 8.11198 84.1406 8.17969C83.8958 8.24219 83.6953 8.33594 83.5391 8.46094C83.3828 8.58073 83.2656 8.72656 83.1875 8.89844C83.1094 9.0651 83.0703 9.25521 83.0703 9.46875C83.0703 9.67708 83.1172 9.86458 83.2109 10.0312C83.3099 10.1979 83.4505 10.3307 83.6328 10.4297C83.8203 10.5234 84.0391 10.5703 84.2891 10.5703C84.6536 10.5703 84.9714 10.4974 85.2422 10.3516C85.513 10.2005 85.724 10.0182 85.875 9.80469C86.026 9.59115 86.1068 9.38802 86.1172 9.19531L86.7109 10.0859C86.638 10.2995 86.5286 10.526 86.3828 10.7656C86.237 11.0052 86.0495 11.2292 85.8203 11.4375C85.5911 11.6458 85.3151 11.8177 84.9922 11.9531C84.6693 12.0885 84.2943 12.1562 83.8672 12.1562C83.3203 12.1562 82.8307 12.0469 82.3984 11.8281C81.9661 11.6094 81.625 11.3099 81.375 10.9297C81.125 10.5495 81 10.1172 81 9.63281C81 9.1849 81.0833 8.78906 81.25 8.44531C81.4167 8.10156 81.6641 7.8125 81.9922 7.57812C82.3203 7.33854 82.7266 7.15885 83.2109 7.03906C83.7005 6.91406 84.2604 6.85156 84.8906 6.85156H86.2812ZM91.9922 5.27344V12H89.9297V3.54688H91.8828L91.9922 5.27344ZM94.5625 3.49219L94.5312 5.41406C94.4167 5.39323 94.2865 5.3776 94.1406 5.36719C94 5.35677 93.8672 5.35156 93.7422 5.35156C93.4245 5.35156 93.1458 5.39583 92.9062 5.48438C92.6667 5.56771 92.4661 5.6901 92.3047 5.85156C92.1484 6.01302 92.0286 6.21094 91.9453 6.44531C91.862 6.67448 91.8151 6.9349 91.8047 7.22656L91.3594 7.17188C91.3594 6.63542 91.4141 6.13802 91.5234 5.67969C91.6328 5.22135 91.7917 4.82031 92 4.47656C92.2083 4.13281 92.4688 3.86719 92.7812 3.67969C93.099 3.48698 93.4635 3.39062 93.875 3.39062C93.9896 3.39062 94.112 3.40104 94.2422 3.42188C94.3776 3.4375 94.4844 3.46094 94.5625 3.49219ZM100.609 10.2031V0H102.688V12H100.812L100.609 10.2031ZM95.1797 7.875V7.71094C95.1797 7.0651 95.2526 6.47917 95.3984 5.95312C95.5495 5.42188 95.7682 4.96615 96.0547 4.58594C96.3411 4.20573 96.6875 3.91146 97.0938 3.70312C97.5052 3.49479 97.9714 3.39062 98.4922 3.39062C98.9974 3.39062 99.4375 3.49219 99.8125 3.69531C100.193 3.89844 100.516 4.1875 100.781 4.5625C101.052 4.9375 101.268 5.38281 101.43 5.89844C101.591 6.40885 101.708 6.97135 101.781 7.58594V8.03125C101.708 8.63021 101.591 9.17969 101.43 9.67969C101.268 10.1797 101.052 10.6172 100.781 10.9922C100.516 11.362 100.193 11.6484 99.8125 11.8516C99.4323 12.0547 98.987 12.1562 98.4766 12.1562C97.9609 12.1562 97.4974 12.0495 97.0859 11.8359C96.6797 11.6224 96.3333 11.3229 96.0469 10.9375C95.7656 10.5521 95.5495 10.099 95.3984 9.57812C95.2526 9.05729 95.1797 8.48958 95.1797 7.875ZM97.25 7.71094V7.875C97.25 8.23958 97.2812 8.58073 97.3438 8.89844C97.4062 9.21615 97.5078 9.4974 97.6484 9.74219C97.7891 9.98177 97.9688 10.1693 98.1875 10.3047C98.4115 10.4401 98.6823 10.5078 99 10.5078C99.4062 10.5078 99.7396 10.4193 100 10.2422C100.266 10.0599 100.471 9.8125 100.617 9.5C100.763 9.18229 100.857 8.82552 100.898 8.42969V7.20312C100.878 6.89062 100.823 6.60156 100.734 6.33594C100.651 6.07031 100.531 5.84115 100.375 5.64844C100.224 5.45573 100.036 5.30469 99.8125 5.19531C99.5885 5.08594 99.3229 5.03125 99.0156 5.03125C98.6979 5.03125 98.4271 5.10156 98.2031 5.24219C97.9792 5.3776 97.7969 5.56771 97.6562 5.8125C97.5156 6.05729 97.4115 6.34115 97.3438 6.66406C97.2812 6.98698 97.25 7.33594 97.25 7.71094ZM109.203 9.6875C109.203 9.51042 109.156 9.35156 109.062 9.21094C108.969 9.07031 108.792 8.94271 108.531 8.82812C108.276 8.70833 107.901 8.59635 107.406 8.49219C106.969 8.39844 106.565 8.28125 106.195 8.14062C105.826 8 105.508 7.83073 105.242 7.63281C104.977 7.42969 104.768 7.19271 104.617 6.92188C104.471 6.64583 104.398 6.32812 104.398 5.96875C104.398 5.61979 104.474 5.29167 104.625 4.98438C104.776 4.67188 104.995 4.39844 105.281 4.16406C105.568 3.92448 105.917 3.73698 106.328 3.60156C106.74 3.46094 107.203 3.39062 107.719 3.39062C108.438 3.39062 109.055 3.50781 109.57 3.74219C110.091 3.97656 110.49 4.29948 110.766 4.71094C111.042 5.11719 111.18 5.57552 111.18 6.08594H109.117C109.117 5.86198 109.065 5.65885 108.961 5.47656C108.862 5.29427 108.708 5.14844 108.5 5.03906C108.292 4.92448 108.029 4.86719 107.711 4.86719C107.424 4.86719 107.182 4.91406 106.984 5.00781C106.792 5.10156 106.646 5.22396 106.547 5.375C106.448 5.52604 106.398 5.69271 106.398 5.875C106.398 6.01042 106.424 6.13281 106.477 6.24219C106.534 6.34635 106.625 6.44271 106.75 6.53125C106.875 6.61979 107.044 6.70052 107.258 6.77344C107.477 6.84635 107.745 6.91667 108.062 6.98438C108.693 7.10938 109.242 7.27604 109.711 7.48438C110.185 7.6875 110.555 7.95833 110.82 8.29688C111.086 8.63542 111.219 9.06771 111.219 9.59375C111.219 9.96875 111.138 10.3125 110.977 10.625C110.815 10.9323 110.581 11.2005 110.273 11.4297C109.966 11.6589 109.599 11.8385 109.172 11.9688C108.745 12.0938 108.263 12.1562 107.727 12.1562C106.951 12.1562 106.294 12.0182 105.758 11.7422C105.221 11.4609 104.815 11.1068 104.539 10.6797C104.263 10.2474 104.125 9.79948 104.125 9.33594H106.102C106.117 9.66406 106.206 9.92708 106.367 10.125C106.529 10.3229 106.732 10.4661 106.977 10.5547C107.227 10.638 107.49 10.6797 107.766 10.6797C108.078 10.6797 108.341 10.638 108.555 10.5547C108.768 10.4661 108.93 10.349 109.039 10.2031C109.148 10.0521 109.203 9.88021 109.203 9.6875Z" fill="#FFDA92"></path> <path d="M7.03906 9.04688C7.03906 8.82812 7.00521 8.63281 6.9375 8.46094C6.875 8.28385 6.75781 8.125 6.58594 7.98438C6.41927 7.83854 6.18229 7.69792 5.875 7.5625C5.57292 7.42188 5.18229 7.27604 4.70312 7.125C4.17188 6.95833 3.67708 6.77083 3.21875 6.5625C2.76042 6.35417 2.35677 6.11198 2.00781 5.83594C1.66406 5.5599 1.39583 5.24219 1.20312 4.88281C1.01042 4.51823 0.914062 4.09635 0.914062 3.61719C0.914062 3.14844 1.01302 2.72135 1.21094 2.33594C1.41406 1.95052 1.70052 1.61979 2.07031 1.34375C2.4401 1.0625 2.875 0.846354 3.375 0.695312C3.88021 0.544271 4.4375 0.46875 5.04688 0.46875C5.89062 0.46875 6.61979 0.622396 7.23438 0.929688C7.85417 1.23698 8.33333 1.65365 8.67188 2.17969C9.01042 2.70573 9.17969 3.29688 9.17969 3.95312H7.03906C7.03906 3.59896 6.96354 3.28646 6.8125 3.01562C6.66667 2.74479 6.44271 2.53125 6.14062 2.375C5.84375 2.21875 5.46875 2.14062 5.01562 2.14062C4.57812 2.14062 4.21354 2.20573 3.92188 2.33594C3.63542 2.46615 3.41927 2.64323 3.27344 2.86719C3.13281 3.09115 3.0625 3.34115 3.0625 3.61719C3.0625 3.82552 3.11198 4.01302 3.21094 4.17969C3.3099 4.34115 3.45833 4.49479 3.65625 4.64062C3.85417 4.78125 4.09896 4.91406 4.39062 5.03906C4.6875 5.15885 5.03125 5.27865 5.42188 5.39844C6.04688 5.58594 6.59375 5.79427 7.0625 6.02344C7.53646 6.2526 7.92969 6.51302 8.24219 6.80469C8.5599 7.09635 8.79688 7.42448 8.95312 7.78906C9.11458 8.15365 9.19531 8.56771 9.19531 9.03125C9.19531 9.52083 9.09896 9.95833 8.90625 10.3438C8.71354 10.7292 8.4375 11.0573 8.07812 11.3281C7.71875 11.599 7.28646 11.8047 6.78125 11.9453C6.28125 12.0859 5.72135 12.1562 5.10156 12.1562C4.54948 12.1562 4.0026 12.0833 3.46094 11.9375C2.92448 11.7865 2.4375 11.5625 2 11.2656C1.5625 10.9635 1.21354 10.5833 0.953125 10.125C0.692708 9.66146 0.5625 9.11979 0.5625 8.5H2.71875C2.71875 8.85938 2.77604 9.16667 2.89062 9.42188C3.01042 9.67188 3.17708 9.8776 3.39062 10.0391C3.60938 10.1953 3.86458 10.3099 4.15625 10.3828C4.44792 10.4557 4.76302 10.4922 5.10156 10.4922C5.53906 10.4922 5.89844 10.4323 6.17969 10.3125C6.46615 10.1875 6.67969 10.0156 6.82031 9.79688C6.96615 9.57812 7.03906 9.32812 7.03906 9.04688ZM14.6953 3.54688V5.03125H9.85156V3.54688H14.6953ZM11.1484 1.46875H13.2188V9.5625C13.2188 9.8125 13.2526 10.0052 13.3203 10.1406C13.388 10.276 13.4896 10.3672 13.625 10.4141C13.7604 10.4609 13.9219 10.4844 14.1094 10.4844C14.2448 10.4844 14.3698 10.4766 14.4844 10.4609C14.599 10.4453 14.6953 10.4297 14.7734 10.4141L14.7812 11.9609C14.6094 12.0182 14.4141 12.0651 14.1953 12.1016C13.9818 12.138 13.7396 12.1562 13.4688 12.1562C13.0052 12.1562 12.599 12.0781 12.25 11.9219C11.901 11.7604 11.6302 11.5026 11.4375 11.1484C11.2448 10.7891 11.1484 10.3151 11.1484 9.72656V1.46875ZM21.1016 9.99219V3.54688H23.1797V12H21.2266L21.1016 9.99219ZM21.3672 8.24219L22.0078 8.22656C22.0078 8.79427 21.9453 9.31771 21.8203 9.79688C21.6953 10.276 21.5 10.6927 21.2344 11.0469C20.974 11.3958 20.6432 11.6693 20.2422 11.8672C19.8411 12.0599 19.3672 12.1562 18.8203 12.1562C18.4036 12.1562 18.0234 12.099 17.6797 11.9844C17.3359 11.8646 17.0391 11.6797 16.7891 11.4297C16.5443 11.1745 16.3542 10.849 16.2188 10.4531C16.0833 10.0521 16.0156 9.57031 16.0156 9.00781V3.54688H18.0781V9.02344C18.0781 9.30469 18.1094 9.53906 18.1719 9.72656C18.2396 9.91406 18.3307 10.0677 18.4453 10.1875C18.5651 10.3021 18.7031 10.3854 18.8594 10.4375C19.0208 10.4844 19.1927 10.5078 19.375 10.5078C19.875 10.5078 20.2682 10.4089 20.5547 10.2109C20.8464 10.0078 21.0547 9.73698 21.1797 9.39844C21.3047 9.05469 21.3672 8.66927 21.3672 8.24219ZM30.0781 10.2031V0H32.1562V12H30.2812L30.0781 10.2031ZM24.6484 7.875V7.71094C24.6484 7.0651 24.7214 6.47917 24.8672 5.95312C25.0182 5.42188 25.237 4.96615 25.5234 4.58594C25.8099 4.20573 26.1562 3.91146 26.5625 3.70312C26.974 3.49479 27.4401 3.39062 27.9609 3.39062C28.4661 3.39062 28.9062 3.49219 29.2812 3.69531C29.6615 3.89844 29.9844 4.1875 30.25 4.5625C30.5208 4.9375 30.737 5.38281 30.8984 5.89844C31.0599 6.40885 31.1771 6.97135 31.25 7.58594V8.03125C31.1771 8.63021 31.0599 9.17969 30.8984 9.67969C30.737 10.1797 30.5208 10.6172 30.25 10.9922C29.9844 11.362 29.6615 11.6484 29.2812 11.8516C28.901 12.0547 28.4557 12.1562 27.9453 12.1562C27.4297 12.1562 26.9661 12.0495 26.5547 11.8359C26.1484 11.6224 25.8021 11.3229 25.5156 10.9375C25.2344 10.5521 25.0182 10.099 24.8672 9.57812C24.7214 9.05729 24.6484 8.48958 24.6484 7.875ZM26.7188 7.71094V7.875C26.7188 8.23958 26.75 8.58073 26.8125 8.89844C26.875 9.21615 26.9766 9.4974 27.1172 9.74219C27.2578 9.98177 27.4375 10.1693 27.6562 10.3047C27.8802 10.4401 28.151 10.5078 28.4688 10.5078C28.875 10.5078 29.2083 10.4193 29.4688 10.2422C29.7344 10.0599 29.9401 9.8125 30.0859 9.5C30.2318 9.18229 30.3255 8.82552 30.3672 8.42969V7.20312C30.3464 6.89062 30.2917 6.60156 30.2031 6.33594C30.1198 6.07031 30 5.84115 29.8438 5.64844C29.6927 5.45573 29.5052 5.30469 29.2812 5.19531C29.0573 5.08594 28.7917 5.03125 28.4844 5.03125C28.1667 5.03125 27.8958 5.10156 27.6719 5.24219C27.4479 5.3776 27.2656 5.56771 27.125 5.8125C26.9844 6.05729 26.8802 6.34115 26.8125 6.66406C26.75 6.98698 26.7188 7.33594 26.7188 7.71094ZM37.8203 12.1562C37.1797 12.1562 36.6042 12.0521 36.0938 11.8438C35.5833 11.6354 35.1484 11.3464 34.7891 10.9766C34.4349 10.6016 34.1615 10.1667 33.9688 9.67188C33.7812 9.17188 33.6875 8.63542 33.6875 8.0625V7.75C33.6875 7.09896 33.7812 6.50781 33.9688 5.97656C34.1562 5.4401 34.4219 4.97917 34.7656 4.59375C35.1094 4.20833 35.5208 3.91146 36 3.70312C36.4792 3.49479 37.0078 3.39062 37.5859 3.39062C38.1849 3.39062 38.7135 3.49219 39.1719 3.69531C39.6302 3.89323 40.013 4.17448 40.3203 4.53906C40.6276 4.90365 40.8594 5.34115 41.0156 5.85156C41.1719 6.35677 41.25 6.91667 41.25 7.53125V8.39844H34.625V6.97656H39.2188V6.82031C39.2083 6.49219 39.1458 6.19271 39.0312 5.92188C38.9167 5.64583 38.7396 5.42708 38.5 5.26562C38.2604 5.09896 37.9505 5.01562 37.5703 5.01562C37.263 5.01562 36.9948 5.08333 36.7656 5.21875C36.5417 5.34896 36.3542 5.53646 36.2031 5.78125C36.0573 6.02083 35.9479 6.30729 35.875 6.64062C35.8021 6.97396 35.7656 7.34375 35.7656 7.75V8.0625C35.7656 8.41667 35.8125 8.74479 35.9062 9.04688C36.0052 9.34896 36.1484 9.61198 36.3359 9.83594C36.5286 10.0547 36.7578 10.2266 37.0234 10.3516C37.2943 10.4714 37.6016 10.5312 37.9453 10.5312C38.3776 10.5312 38.7682 10.4479 39.1172 10.2812C39.4714 10.1094 39.7786 9.85677 40.0391 9.52344L41.0781 10.6016C40.901 10.862 40.6615 11.112 40.3594 11.3516C40.0625 11.5911 39.7031 11.7865 39.2812 11.9375C38.8594 12.0833 38.3724 12.1562 37.8203 12.1562ZM44.6562 5.35156V12H42.5938V3.54688H44.5312L44.6562 5.35156ZM44.3281 7.46875H43.7188C43.724 6.85417 43.8073 6.29688 43.9688 5.79688C44.1302 5.29688 44.3568 4.86719 44.6484 4.50781C44.9453 4.14844 45.2969 3.8724 45.7031 3.67969C46.1094 3.48698 46.5625 3.39062 47.0625 3.39062C47.4688 3.39062 47.8359 3.44792 48.1641 3.5625C48.4922 3.67708 48.7734 3.85938 49.0078 4.10938C49.2474 4.35938 49.4297 4.6875 49.5547 5.09375C49.6849 5.49479 49.75 5.98958 49.75 6.57812V12H47.6719V6.5625C47.6719 6.17708 47.6146 5.8724 47.5 5.64844C47.3906 5.42448 47.2292 5.26562 47.0156 5.17188C46.8073 5.07812 46.5495 5.03125 46.2422 5.03125C45.9245 5.03125 45.6458 5.09635 45.4062 5.22656C45.1719 5.35156 44.974 5.52604 44.8125 5.75C44.6562 5.97396 44.5365 6.23177 44.4531 6.52344C44.3698 6.8151 44.3281 7.13021 44.3281 7.46875ZM55.5703 3.54688V5.03125H50.7266V3.54688H55.5703ZM52.0234 1.46875H54.0938V9.5625C54.0938 9.8125 54.1276 10.0052 54.1953 10.1406C54.263 10.276 54.3646 10.3672 54.5 10.4141C54.6354 10.4609 54.7969 10.4844 54.9844 10.4844C55.1198 10.4844 55.2448 10.4766 55.3594 10.4609C55.474 10.4453 55.5703 10.4297 55.6484 10.4141L55.6562 11.9609C55.4844 12.0182 55.2891 12.0651 55.0703 12.1016C54.8568 12.138 54.6146 12.1562 54.3438 12.1562C53.8802 12.1562 53.474 12.0781 53.125 11.9219C52.776 11.7604 52.5052 11.5026 52.3125 11.1484C52.1198 10.7891 52.0234 10.3151 52.0234 9.72656V1.46875ZM65.5859 10.2031V6.30469C65.5859 6.01823 65.5365 5.77083 65.4375 5.5625C65.3385 5.35417 65.1875 5.19271 64.9844 5.07812C64.7812 4.96354 64.5234 4.90625 64.2109 4.90625C63.9349 4.90625 63.6927 4.95312 63.4844 5.04688C63.2812 5.14062 63.125 5.27344 63.0156 5.44531C62.9062 5.61198 62.8516 5.80469 62.8516 6.02344H60.7812C60.7812 5.67448 60.8646 5.34375 61.0312 5.03125C61.1979 4.71354 61.4349 4.43229 61.7422 4.1875C62.0547 3.9375 62.4271 3.74219 62.8594 3.60156C63.2969 3.46094 63.7865 3.39062 64.3281 3.39062C64.9688 3.39062 65.5391 3.5 66.0391 3.71875C66.5443 3.93229 66.9401 4.25521 67.2266 4.6875C67.5182 5.11979 67.6641 5.66406 67.6641 6.32031V10.0078C67.6641 10.4297 67.6901 10.7917 67.7422 11.0938C67.7995 11.3906 67.8828 11.6484 67.9922 11.8672V12H65.8906C65.7917 11.7865 65.7161 11.5156 65.6641 11.1875C65.612 10.8542 65.5859 10.526 65.5859 10.2031ZM65.875 6.85156L65.8906 8.07812H64.5859C64.263 8.07812 63.9792 8.11198 63.7344 8.17969C63.4896 8.24219 63.2891 8.33594 63.1328 8.46094C62.9766 8.58073 62.8594 8.72656 62.7812 8.89844C62.7031 9.0651 62.6641 9.25521 62.6641 9.46875C62.6641 9.67708 62.7109 9.86458 62.8047 10.0312C62.9036 10.1979 63.0443 10.3307 63.2266 10.4297C63.4141 10.5234 63.6328 10.5703 63.8828 10.5703C64.2474 10.5703 64.5651 10.4974 64.8359 10.3516C65.1068 10.2005 65.3177 10.0182 65.4688 9.80469C65.6198 9.59115 65.7005 9.38802 65.7109 9.19531L66.3047 10.0859C66.2318 10.2995 66.1224 10.526 65.9766 10.7656C65.8307 11.0052 65.6432 11.2292 65.4141 11.4375C65.1849 11.6458 64.9089 11.8177 64.5859 11.9531C64.263 12.0885 63.888 12.1562 63.4609 12.1562C62.9141 12.1562 62.4245 12.0469 61.9922 11.8281C61.5599 11.6094 61.2188 11.3099 60.9688 10.9297C60.7188 10.5495 60.5938 10.1172 60.5938 9.63281C60.5938 9.1849 60.6771 8.78906 60.8438 8.44531C61.0104 8.10156 61.2578 7.8125 61.5859 7.57812C61.9141 7.33854 62.3203 7.15885 62.8047 7.03906C63.2943 6.91406 63.8542 6.85156 64.4844 6.85156H65.875ZM71.875 9.96875L73.7266 3.54688H75.0391L74.6484 5.76562L72.7812 12H71.6484L71.875 9.96875ZM70.8516 3.54688L72.2422 9.98438L72.3672 12H71.0625L68.8438 3.54688H70.8516ZM76.7578 9.89062L78.1172 3.54688H80.1172L77.9141 12H76.6094L76.7578 9.89062ZM75.2422 3.54688L77.0781 9.90625L77.3203 12H76.1875L74.3047 5.76562L73.9219 3.54688H75.2422ZM85.9922 10.2031V6.30469C85.9922 6.01823 85.9427 5.77083 85.8438 5.5625C85.7448 5.35417 85.5938 5.19271 85.3906 5.07812C85.1875 4.96354 84.9297 4.90625 84.6172 4.90625C84.3411 4.90625 84.099 4.95312 83.8906 5.04688C83.6875 5.14062 83.5312 5.27344 83.4219 5.44531C83.3125 5.61198 83.2578 5.80469 83.2578 6.02344H81.1875C81.1875 5.67448 81.2708 5.34375 81.4375 5.03125C81.6042 4.71354 81.8411 4.43229 82.1484 4.1875C82.4609 3.9375 82.8333 3.74219 83.2656 3.60156C83.7031 3.46094 84.1927 3.39062 84.7344 3.39062C85.375 3.39062 85.9453 3.5 86.4453 3.71875C86.9505 3.93229 87.3464 4.25521 87.6328 4.6875C87.9245 5.11979 88.0703 5.66406 88.0703 6.32031V10.0078C88.0703 10.4297 88.0964 10.7917 88.1484 11.0938C88.2057 11.3906 88.2891 11.6484 88.3984 11.8672V12H86.2969C86.1979 11.7865 86.1224 11.5156 86.0703 11.1875C86.0182 10.8542 85.9922 10.526 85.9922 10.2031ZM86.2812 6.85156L86.2969 8.07812H84.9922C84.6693 8.07812 84.3854 8.11198 84.1406 8.17969C83.8958 8.24219 83.6953 8.33594 83.5391 8.46094C83.3828 8.58073 83.2656 8.72656 83.1875 8.89844C83.1094 9.0651 83.0703 9.25521 83.0703 9.46875C83.0703 9.67708 83.1172 9.86458 83.2109 10.0312C83.3099 10.1979 83.4505 10.3307 83.6328 10.4297C83.8203 10.5234 84.0391 10.5703 84.2891 10.5703C84.6536 10.5703 84.9714 10.4974 85.2422 10.3516C85.513 10.2005 85.724 10.0182 85.875 9.80469C86.026 9.59115 86.1068 9.38802 86.1172 9.19531L86.7109 10.0859C86.638 10.2995 86.5286 10.526 86.3828 10.7656C86.237 11.0052 86.0495 11.2292 85.8203 11.4375C85.5911 11.6458 85.3151 11.8177 84.9922 11.9531C84.6693 12.0885 84.2943 12.1562 83.8672 12.1562C83.3203 12.1562 82.8307 12.0469 82.3984 11.8281C81.9661 11.6094 81.625 11.3099 81.375 10.9297C81.125 10.5495 81 10.1172 81 9.63281C81 9.1849 81.0833 8.78906 81.25 8.44531C81.4167 8.10156 81.6641 7.8125 81.9922 7.57812C82.3203 7.33854 82.7266 7.15885 83.2109 7.03906C83.7005 6.91406 84.2604 6.85156 84.8906 6.85156H86.2812ZM91.9922 5.27344V12H89.9297V3.54688H91.8828L91.9922 5.27344ZM94.5625 3.49219L94.5312 5.41406C94.4167 5.39323 94.2865 5.3776 94.1406 5.36719C94 5.35677 93.8672 5.35156 93.7422 5.35156C93.4245 5.35156 93.1458 5.39583 92.9062 5.48438C92.6667 5.56771 92.4661 5.6901 92.3047 5.85156C92.1484 6.01302 92.0286 6.21094 91.9453 6.44531C91.862 6.67448 91.8151 6.9349 91.8047 7.22656L91.3594 7.17188C91.3594 6.63542 91.4141 6.13802 91.5234 5.67969C91.6328 5.22135 91.7917 4.82031 92 4.47656C92.2083 4.13281 92.4688 3.86719 92.7812 3.67969C93.099 3.48698 93.4635 3.39062 93.875 3.39062C93.9896 3.39062 94.112 3.40104 94.2422 3.42188C94.3776 3.4375 94.4844 3.46094 94.5625 3.49219ZM100.609 10.2031V0H102.688V12H100.812L100.609 10.2031ZM95.1797 7.875V7.71094C95.1797 7.0651 95.2526 6.47917 95.3984 5.95312C95.5495 5.42188 95.7682 4.96615 96.0547 4.58594C96.3411 4.20573 96.6875 3.91146 97.0938 3.70312C97.5052 3.49479 97.9714 3.39062 98.4922 3.39062C98.9974 3.39062 99.4375 3.49219 99.8125 3.69531C100.193 3.89844 100.516 4.1875 100.781 4.5625C101.052 4.9375 101.268 5.38281 101.43 5.89844C101.591 6.40885 101.708 6.97135 101.781 7.58594V8.03125C101.708 8.63021 101.591 9.17969 101.43 9.67969C101.268 10.1797 101.052 10.6172 100.781 10.9922C100.516 11.362 100.193 11.6484 99.8125 11.8516C99.4323 12.0547 98.987 12.1562 98.4766 12.1562C97.9609 12.1562 97.4974 12.0495 97.0859 11.8359C96.6797 11.6224 96.3333 11.3229 96.0469 10.9375C95.7656 10.5521 95.5495 10.099 95.3984 9.57812C95.2526 9.05729 95.1797 8.48958 95.1797 7.875ZM97.25 7.71094V7.875C97.25 8.23958 97.2812 8.58073 97.3438 8.89844C97.4062 9.21615 97.5078 9.4974 97.6484 9.74219C97.7891 9.98177 97.9688 10.1693 98.1875 10.3047C98.4115 10.4401 98.6823 10.5078 99 10.5078C99.4062 10.5078 99.7396 10.4193 100 10.2422C100.266 10.0599 100.471 9.8125 100.617 9.5C100.763 9.18229 100.857 8.82552 100.898 8.42969V7.20312C100.878 6.89062 100.823 6.60156 100.734 6.33594C100.651 6.07031 100.531 5.84115 100.375 5.64844C100.224 5.45573 100.036 5.30469 99.8125 5.19531C99.5885 5.08594 99.3229 5.03125 99.0156 5.03125C98.6979 5.03125 98.4271 5.10156 98.2031 5.24219C97.9792 5.3776 97.7969 5.56771 97.6562 5.8125C97.5156 6.05729 97.4115 6.34115 97.3438 6.66406C97.2812 6.98698 97.25 7.33594 97.25 7.71094ZM109.203 9.6875C109.203 9.51042 109.156 9.35156 109.062 9.21094C108.969 9.07031 108.792 8.94271 108.531 8.82812C108.276 8.70833 107.901 8.59635 107.406 8.49219C106.969 8.39844 106.565 8.28125 106.195 8.14062C105.826 8 105.508 7.83073 105.242 7.63281C104.977 7.42969 104.768 7.19271 104.617 6.92188C104.471 6.64583 104.398 6.32812 104.398 5.96875C104.398 5.61979 104.474 5.29167 104.625 4.98438C104.776 4.67188 104.995 4.39844 105.281 4.16406C105.568 3.92448 105.917 3.73698 106.328 3.60156C106.74 3.46094 107.203 3.39062 107.719 3.39062C108.438 3.39062 109.055 3.50781 109.57 3.74219C110.091 3.97656 110.49 4.29948 110.766 4.71094C111.042 5.11719 111.18 5.57552 111.18 6.08594H109.117C109.117 5.86198 109.065 5.65885 108.961 5.47656C108.862 5.29427 108.708 5.14844 108.5 5.03906C108.292 4.92448 108.029 4.86719 107.711 4.86719C107.424 4.86719 107.182 4.91406 106.984 5.00781C106.792 5.10156 106.646 5.22396 106.547 5.375C106.448 5.52604 106.398 5.69271 106.398 5.875C106.398 6.01042 106.424 6.13281 106.477 6.24219C106.534 6.34635 106.625 6.44271 106.75 6.53125C106.875 6.61979 107.044 6.70052 107.258 6.77344C107.477 6.84635 107.745 6.91667 108.062 6.98438C108.693 7.10938 109.242 7.27604 109.711 7.48438C110.185 7.6875 110.555 7.95833 110.82 8.29688C111.086 8.63542 111.219 9.06771 111.219 9.59375C111.219 9.96875 111.138 10.3125 110.977 10.625C110.815 10.9323 110.581 11.2005 110.273 11.4297C109.966 11.6589 109.599 11.8385 109.172 11.9688C108.745 12.0938 108.263 12.1562 107.727 12.1562C106.951 12.1562 106.294 12.0182 105.758 11.7422C105.221 11.4609 104.815 11.1068 104.539 10.6797C104.263 10.2474 104.125 9.79948 104.125 9.33594H106.102C106.117 9.66406 106.206 9.92708 106.367 10.125C106.529 10.3229 106.732 10.4661 106.977 10.5547C107.227 10.638 107.49 10.6797 107.766 10.6797C108.078 10.6797 108.341 10.638 108.555 10.5547C108.768 10.4661 108.93 10.349 109.039 10.2031C109.148 10.0521 109.203 9.88021 109.203 9.6875Z" fill="url(#paint0_linear_146_304)"></path> <defs> <linearGradient id="paint0_linear_146_304" x1="95.815" y1="-7.80588" x2="56.7666" y2="43.095" gradientUnits="userSpaceOnUse"> <stop stop-color="#FFE8CA"></stop> <stop offset="0.260417" stop-color="#FFE0E3"></stop> <stop offset="0.442708" stop-color="#FFC9ED"></stop> <stop offset="0.697917" stop-color="#C8BDFB"></stop> <stop offset="0.947917" stop-color="#A7C7FF"></stop> </linearGradient> </defs> </svg> 