<?xml version="1.0" encoding="UTF-8"?> <svg xmlns="http://www.w3.org/2000/svg" width="146" height="22" viewBox="0 0 146 22" fill="none"> <path d="M3.752 18.032C3.752 19.628 2.772 20.216 0.952 20.72V21H10.752V20.72C8.932 20.216 7.952 19.628 7.952 18.032V10.192C9.1 9.576 10.164 9.268 11.2 9.268C13.216 9.268 14.112 9.912 14.112 11.34V18.032C14.112 19.628 13.132 20.216 11.312 20.72V21H21.112V20.72C19.292 20.216 18.312 19.628 18.312 18.032V10.836C18.312 7.924 16.856 6.72 13.356 6.72C11.62 6.72 9.604 7.672 8.008 9.156C8.092 8.036 8.204 7.028 8.316 6.72L7.952 6.468L0.7 9.016V9.268C2.8 9.268 3.752 9.912 3.752 11.34V18.032ZM25.0403 3.472C25.0403 4.9 25.9643 5.852 27.3923 5.852C28.7923 5.852 29.7443 4.9 29.7443 3.472C29.7443 2.072 28.7923 1.12 27.3923 1.12C25.9643 1.12 25.0403 2.072 25.0403 3.472ZM25.5723 18.032C25.5723 19.628 24.5923 20.216 22.7723 20.72V21H32.5723V20.72C30.7523 20.216 29.7723 19.628 29.7723 18.032V10.836C29.7723 9.24 29.9683 7.196 30.1363 6.72L29.7723 6.468L22.5203 9.016V9.268C24.6203 9.268 25.5723 9.912 25.5723 11.34V18.032ZM37.0293 18.032C37.0293 19.628 36.0493 20.216 34.2293 20.72V21H44.0293V20.72C42.2093 20.216 41.2293 19.628 41.2293 18.032V10.192C42.3773 9.576 43.4413 9.268 44.4773 9.268C46.4933 9.268 47.3893 9.912 47.3893 11.34V18.032C47.3893 19.628 46.4093 20.216 44.5893 20.72V21H54.3893V20.72C52.5693 20.216 51.5893 19.628 51.5893 18.032V10.836C51.5893 7.924 50.1333 6.72 46.6333 6.72C44.8973 6.72 42.8813 7.672 41.2853 9.156C41.3693 8.036 41.4813 7.028 41.5933 6.72L41.2293 6.468L33.9773 9.016V9.268C36.0773 9.268 37.0293 9.912 37.0293 11.34V18.032ZM66.7863 12.516L66.9823 12.32C66.9823 7.812 63.5663 6.72 61.3823 6.72C57.0143 6.72 54.1023 9.632 54.1023 14C54.1023 18.368 57.0143 21.28 61.3823 21.28C64.1823 21.28 66.5343 19.18 67.4303 15.568H67.1503C66.3383 17.276 64.9663 18.116 63.4263 18.116C60.3463 18.116 57.4623 14.7 56.5383 11.956L66.7863 12.516ZM56.3423 11.256C56.1463 10.304 56.2863 9.408 57.0143 8.792C57.4903 8.372 58.1343 8.176 58.8343 8.176C60.4303 8.176 62.3343 9.184 63.1183 10.92L56.3423 11.256ZM88.8886 15.568C88.0766 17.276 86.7046 18.116 85.1646 18.116C83.5966 18.116 81.8326 17.22 80.3486 15.456C78.9486 13.804 76.9046 10.36 78.7526 8.792C79.0606 8.54 79.4526 8.428 79.9286 8.428C82.3366 8.428 86.4526 11.48 87.1246 15.12H87.2926L88.4126 8.736C87.1526 7.448 85.3046 6.72 83.1206 6.72C78.7526 6.72 75.8406 9.632 75.8406 14C75.8406 18.368 78.7526 21.28 83.1206 21.28C85.9206 21.28 88.2726 19.18 89.1686 15.568H88.8886ZM92.8379 18.032C92.8379 19.628 91.8579 20.216 90.0379 20.72V21H99.8379V20.72C98.0179 20.216 97.0379 19.628 97.0379 18.032V5.236C97.0379 3.64 97.2339 1.596 97.4019 1.12L97.0379 0.867999L89.7859 3.416V3.668C91.8859 3.668 92.8379 4.312 92.8379 5.74V18.032ZM101.577 10.892C103.201 9.8 104.601 9.268 105.973 9.268C108.297 9.268 110.257 11.2 110.257 13.496V14.084C109.053 13.636 107.793 13.412 106.589 13.412C103.173 13.412 100.177 15.092 100.177 17.948C100.177 20.076 101.857 21.28 104.405 21.28C107.429 21.28 109.333 19.6 110.285 18.06C110.509 20.412 111.601 21.308 112.973 21.308C114.429 21.308 116.193 20.3 117.509 18.984V18.732C115.409 18.732 114.457 18.816 114.457 16.66V12.992C114.457 9.296 111.853 6.72 108.129 6.72C105.917 6.72 103.229 8.26 101.577 10.5V10.892ZM110.257 17.304C109.669 18.172 108.633 19.012 106.897 19.012C105.413 19.012 104.405 18.368 104.405 16.968C104.405 15.204 106.057 14.336 108.045 14.336C108.745 14.336 109.501 14.448 110.257 14.672V17.304ZM124.479 15.876C127.111 17.052 128.371 18.452 128.371 19.544C128.371 19.964 128.035 20.216 127.335 20.216C124.227 20.216 121.763 17.192 120.811 14.504H120.615L118.907 19.264C120.195 20.552 122.715 21.28 125.599 21.28C129.603 21.28 131.619 19.88 131.619 17.08C131.619 14.896 130.387 14.28 126.243 12.012C124.199 10.892 122.155 9.828 122.155 8.736C122.155 8.064 122.547 7.532 123.303 7.532C125.459 7.532 128.287 11.844 129.127 13.524H129.323L130.835 8.904C129.519 7.588 127.503 6.72 124.619 6.72C121.063 6.72 118.907 8.036 118.907 10.472C118.907 12.572 120.475 14.084 124.479 15.876ZM138.588 15.876C141.22 17.052 142.48 18.452 142.48 19.544C142.48 19.964 142.144 20.216 141.444 20.216C138.336 20.216 135.872 17.192 134.92 14.504H134.724L133.016 19.264C134.304 20.552 136.824 21.28 139.708 21.28C143.712 21.28 145.728 19.88 145.728 17.08C145.728 14.896 144.496 14.28 140.352 12.012C138.308 10.892 136.264 9.828 136.264 8.736C136.264 8.064 136.656 7.532 137.412 7.532C139.568 7.532 142.396 11.844 143.236 13.524H143.432L144.944 8.904C143.628 7.588 141.612 6.72 138.728 6.72C135.172 6.72 133.016 8.036 133.016 10.472C133.016 12.572 134.584 14.084 138.588 15.876Z" fill="#1C1C1C"></path> </svg> 