<?xml version="1.0" encoding="UTF-8"?> <svg xmlns="http://www.w3.org/2000/svg" width="137" height="16" viewBox="0 0 137 16" fill="none"> <path d="M7.28 9.86C7.28 10.6733 7.18 11.4067 6.98 12.06C6.78 12.7133 6.48 13.27 6.08 13.73C5.68667 14.19 5.19333 14.5433 4.6 14.79C4.00667 15.0367 3.31667 15.16 2.53 15.16C2.17 15.16 1.81667 15.1367 1.47 15.09C1.12333 15.05 0.76 14.9833 0.38 14.89L0.52 13.29C0.533333 13.1433 0.586667 13.0267 0.68 12.94C0.78 12.8467 0.923333 12.8 1.11 12.8C1.22333 12.8 1.37 12.8233 1.55 12.87C1.73667 12.9167 1.97 12.94 2.25 12.94C2.63 12.94 2.96667 12.8867 3.26 12.78C3.55333 12.6667 3.79667 12.49 3.99 12.25C4.19 12.01 4.34 11.7 4.44 11.32C4.54 10.9333 4.59 10.4667 4.59 9.92V0.539999H7.28V9.86ZM12.3105 4.74V11.26C12.3105 11.8867 12.4538 12.3733 12.7405 12.72C13.0338 13.06 13.4705 13.23 14.0505 13.23C14.4771 13.23 14.8771 13.1367 15.2505 12.95C15.6238 12.7567 15.9771 12.4933 16.3105 12.16V4.74H18.7805V15H17.2705C16.9505 15 16.7405 14.85 16.6405 14.55L16.4705 13.73C16.2571 13.9433 16.0371 14.14 15.8105 14.32C15.5838 14.4933 15.3405 14.6433 15.0805 14.77C14.8271 14.89 14.5505 14.9833 14.2505 15.05C13.9571 15.1233 13.6405 15.16 13.3005 15.16C12.7405 15.16 12.2438 15.0667 11.8105 14.88C11.3838 14.6867 11.0238 14.4167 10.7305 14.07C10.4371 13.7233 10.2138 13.3133 10.0605 12.84C9.9138 12.36 9.84047 11.8333 9.84047 11.26V4.74H12.3105ZM24.0477 0.139999V15H21.5777V0.139999H24.0477ZM29.4773 4.74V15H27.0073V4.74H29.4773ZM29.8473 1.75C29.8473 1.96333 29.804 2.16333 29.7173 2.35C29.6307 2.53667 29.514 2.7 29.3673 2.84C29.2273 2.98 29.0607 3.09333 28.8673 3.18C28.674 3.26 28.4673 3.3 28.2473 3.3C28.034 3.3 27.8307 3.26 27.6373 3.18C27.4507 3.09333 27.2873 2.98 27.1473 2.84C27.0073 2.7 26.894 2.53667 26.8073 2.35C26.7273 2.16333 26.6873 1.96333 26.6873 1.75C26.6873 1.53 26.7273 1.32333 26.8073 1.13C26.894 0.936666 27.0073 0.77 27.1473 0.63C27.2873 0.489999 27.4507 0.379999 27.6373 0.3C27.8307 0.213333 28.034 0.17 28.2473 0.17C28.4673 0.17 28.674 0.213333 28.8673 0.3C29.0607 0.379999 29.2273 0.489999 29.3673 0.63C29.514 0.77 29.6307 0.936666 29.7173 1.13C29.804 1.32333 29.8473 1.53 29.8473 1.75ZM40.317 15H39.207C38.9737 15 38.7904 14.9667 38.657 14.9C38.5237 14.8267 38.4237 14.6833 38.357 14.47L38.137 13.74C37.877 13.9733 37.6204 14.18 37.367 14.36C37.1204 14.5333 36.8637 14.68 36.597 14.8C36.3304 14.92 36.047 15.01 35.747 15.07C35.447 15.13 35.1137 15.16 34.747 15.16C34.3137 15.16 33.9137 15.1033 33.547 14.99C33.1804 14.87 32.8637 14.6933 32.597 14.46C32.337 14.2267 32.1337 13.9367 31.987 13.59C31.8404 13.2433 31.767 12.84 31.767 12.38C31.767 11.9933 31.867 11.6133 32.067 11.24C32.2737 10.86 32.6137 10.52 33.087 10.22C33.5604 9.91333 34.1904 9.66 34.977 9.46C35.7637 9.26 36.7404 9.14667 37.907 9.12V8.52C37.907 7.83333 37.7604 7.32667 37.467 7C37.1804 6.66667 36.7604 6.5 36.207 6.5C35.807 6.5 35.4737 6.54667 35.207 6.64C34.9404 6.73333 34.707 6.84 34.507 6.96C34.3137 7.07333 34.1337 7.17667 33.967 7.27C33.8004 7.36333 33.617 7.41 33.417 7.41C33.2504 7.41 33.107 7.36667 32.987 7.28C32.867 7.19333 32.7704 7.08667 32.697 6.96L32.247 6.17C33.427 5.09 34.8504 4.55 36.517 4.55C37.117 4.55 37.6504 4.65 38.117 4.85C38.5904 5.04333 38.9904 5.31667 39.317 5.67C39.6437 6.01667 39.8904 6.43333 40.057 6.92C40.2304 7.40667 40.317 7.94 40.317 8.52V15ZM35.517 13.46C35.7704 13.46 36.0037 13.4367 36.217 13.39C36.4304 13.3433 36.6304 13.2733 36.817 13.18C37.0104 13.0867 37.1937 12.9733 37.367 12.84C37.547 12.7 37.727 12.5367 37.907 12.35V10.62C37.187 10.6533 36.5837 10.7167 36.097 10.81C35.617 10.8967 35.2304 11.01 34.937 11.15C34.6437 11.29 34.4337 11.4533 34.307 11.64C34.187 11.8267 34.127 12.03 34.127 12.25C34.127 12.6833 34.2537 12.9933 34.507 13.18C34.767 13.3667 35.1037 13.46 35.517 13.46ZM59.463 15H57.383C57.1496 15 56.9563 14.9433 56.803 14.83C56.6563 14.71 56.5496 14.5633 56.483 14.39L55.403 11.44H49.413L48.333 14.39C48.2796 14.5433 48.173 14.6833 48.013 14.81C47.8596 14.9367 47.6696 15 47.443 15H45.353L51.033 0.539999H53.783L59.463 15ZM50.103 9.54H54.713L52.953 4.73C52.873 4.51667 52.783 4.26667 52.683 3.98C52.5896 3.68667 52.4963 3.37 52.403 3.03C52.3096 3.37 52.2163 3.68667 52.123 3.98C52.0363 4.27333 51.9496 4.53 51.863 4.75L50.103 9.54ZM63.4422 0.139999V15H60.9722V0.139999H63.4422ZM70.4819 4.58C71.1285 4.58 71.7219 4.68333 72.2619 4.89C72.8085 5.09667 73.2785 5.4 73.6719 5.8C74.0652 6.19333 74.3719 6.68 74.5919 7.26C74.8119 7.83333 74.9219 8.49 74.9219 9.23C74.9219 9.41667 74.9119 9.57333 74.8919 9.7C74.8785 9.82 74.8485 9.91667 74.8019 9.99C74.7619 10.0567 74.7052 10.1067 74.6319 10.14C74.5585 10.1667 74.4652 10.18 74.3519 10.18H68.0119C68.0852 11.2333 68.3685 12.0067 68.8619 12.5C69.3552 12.9933 70.0085 13.24 70.8219 13.24C71.2219 13.24 71.5652 13.1933 71.8519 13.1C72.1452 13.0067 72.3985 12.9033 72.6119 12.79C72.8319 12.6767 73.0219 12.5733 73.1819 12.48C73.3485 12.3867 73.5085 12.34 73.6619 12.34C73.7619 12.34 73.8485 12.36 73.9219 12.4C73.9952 12.44 74.0585 12.4967 74.1119 12.57L74.8319 13.47C74.5585 13.79 74.2519 14.06 73.9119 14.28C73.5719 14.4933 73.2152 14.6667 72.8419 14.8C72.4752 14.9267 72.0985 15.0167 71.7119 15.07C71.3319 15.1233 70.9619 15.15 70.6019 15.15C69.8885 15.15 69.2252 15.0333 68.6119 14.8C67.9985 14.56 67.4652 14.21 67.0119 13.75C66.5585 13.2833 66.2019 12.71 65.9419 12.03C65.6819 11.3433 65.5519 10.55 65.5519 9.65C65.5519 8.95 65.6652 8.29333 65.8919 7.68C66.1185 7.06 66.4419 6.52333 66.8619 6.07C67.2885 5.61 67.8052 5.24667 68.4119 4.98C69.0252 4.71333 69.7152 4.58 70.4819 4.58ZM70.5319 6.35C69.8119 6.35 69.2485 6.55333 68.8419 6.96C68.4352 7.36667 68.1752 7.94333 68.0619 8.69H72.7019C72.7019 8.37 72.6585 8.07 72.5719 7.79C72.4852 7.50333 72.3519 7.25333 72.1719 7.04C71.9919 6.82667 71.7652 6.66 71.4919 6.54C71.2185 6.41333 70.8985 6.35 70.5319 6.35ZM79.4255 0.139999V8.65H79.8855C80.0521 8.65 80.1821 8.62667 80.2755 8.58C80.3688 8.53333 80.4688 8.44667 80.5755 8.32L83.1255 5.17C83.2388 5.03667 83.3588 4.93333 83.4855 4.86C83.6121 4.78 83.7788 4.74 83.9855 4.74H86.2455L83.0555 8.55C82.9421 8.69 82.8255 8.82 82.7055 8.94C82.5855 9.05333 82.4555 9.15333 82.3155 9.24C82.4555 9.34 82.5788 9.45667 82.6855 9.59C82.7921 9.72333 82.8988 9.86667 83.0055 10.02L86.4255 15H84.1955C84.0021 15 83.8388 14.9667 83.7055 14.9C83.5721 14.8333 83.4521 14.72 83.3455 14.56L80.7355 10.67C80.6355 10.5167 80.5355 10.4167 80.4355 10.37C80.3355 10.3233 80.1855 10.3 79.9855 10.3H79.4255V15H76.9555V0.139999H79.4255ZM94.0506 6.74C93.984 6.84667 93.914 6.92333 93.8406 6.97C93.7673 7.01 93.674 7.03 93.5606 7.03C93.4406 7.03 93.3106 6.99667 93.1706 6.93C93.0373 6.86333 92.8806 6.79 92.7006 6.71C92.5206 6.62333 92.314 6.54667 92.0806 6.48C91.854 6.41333 91.584 6.38 91.2706 6.38C90.784 6.38 90.4006 6.48333 90.1206 6.69C89.8406 6.89667 89.7006 7.16667 89.7006 7.5C89.7006 7.72 89.7706 7.90667 89.9106 8.06C90.0573 8.20667 90.2473 8.33667 90.4806 8.45C90.7206 8.56333 90.9906 8.66667 91.2906 8.76C91.5906 8.84667 91.8973 8.94333 92.2106 9.05C92.524 9.15667 92.8306 9.28 93.1306 9.42C93.4306 9.55333 93.6973 9.72667 93.9306 9.94C94.1706 10.1467 94.3606 10.3967 94.5006 10.69C94.6473 10.9833 94.7206 11.3367 94.7206 11.75C94.7206 12.2433 94.6306 12.7 94.4506 13.12C94.2706 13.5333 94.0073 13.8933 93.6606 14.2C93.314 14.5 92.884 14.7367 92.3706 14.91C91.864 15.0767 91.2806 15.16 90.6206 15.16C90.2673 15.16 89.9206 15.1267 89.5806 15.06C89.2473 15 88.924 14.9133 88.6106 14.8C88.304 14.6867 88.0173 14.5533 87.7506 14.4C87.4906 14.2467 87.2606 14.08 87.0606 13.9L87.6306 12.96C87.704 12.8467 87.7906 12.76 87.8906 12.7C87.9906 12.64 88.1173 12.61 88.2706 12.61C88.424 12.61 88.5673 12.6533 88.7006 12.74C88.8406 12.8267 89.0006 12.92 89.1806 13.02C89.3606 13.12 89.5706 13.2133 89.8106 13.3C90.0573 13.3867 90.3673 13.43 90.7406 13.43C91.034 13.43 91.284 13.3967 91.4906 13.33C91.704 13.2567 91.8773 13.1633 92.0106 13.05C92.1506 12.9367 92.2506 12.8067 92.3106 12.66C92.3773 12.5067 92.4106 12.35 92.4106 12.19C92.4106 11.95 92.3373 11.7533 92.1906 11.6C92.0506 11.4467 91.8606 11.3133 91.6206 11.2C91.3873 11.0867 91.1173 10.9867 90.8106 10.9C90.5106 10.8067 90.2006 10.7067 89.8806 10.6C89.5673 10.4933 89.2573 10.37 88.9506 10.23C88.6506 10.0833 88.3806 9.9 88.1406 9.68C87.9073 9.46 87.7173 9.19 87.5706 8.87C87.4306 8.55 87.3606 8.16333 87.3606 7.71C87.3606 7.29 87.444 6.89 87.6106 6.51C87.7773 6.13 88.0206 5.8 88.3406 5.52C88.6673 5.23333 89.0706 5.00667 89.5506 4.84C90.0373 4.66667 90.5973 4.58 91.2306 4.58C91.9373 4.58 92.5806 4.69667 93.1606 4.93C93.7406 5.16333 94.224 5.47 94.6106 5.85L94.0506 6.74ZM100.931 4.58C101.578 4.58 102.171 4.68333 102.711 4.89C103.258 5.09667 103.728 5.4 104.121 5.8C104.514 6.19333 104.821 6.68 105.041 7.26C105.261 7.83333 105.371 8.49 105.371 9.23C105.371 9.41667 105.361 9.57333 105.341 9.7C105.328 9.82 105.298 9.91667 105.251 9.99C105.211 10.0567 105.154 10.1067 105.081 10.14C105.008 10.1667 104.914 10.18 104.801 10.18H98.4611C98.5344 11.2333 98.8178 12.0067 99.3111 12.5C99.8044 12.9933 100.458 13.24 101.271 13.24C101.671 13.24 102.014 13.1933 102.301 13.1C102.594 13.0067 102.848 12.9033 103.061 12.79C103.281 12.6767 103.471 12.5733 103.631 12.48C103.798 12.3867 103.958 12.34 104.111 12.34C104.211 12.34 104.298 12.36 104.371 12.4C104.444 12.44 104.508 12.4967 104.561 12.57L105.281 13.47C105.008 13.79 104.701 14.06 104.361 14.28C104.021 14.4933 103.664 14.6667 103.291 14.8C102.924 14.9267 102.548 15.0167 102.161 15.07C101.781 15.1233 101.411 15.15 101.051 15.15C100.338 15.15 99.6744 15.0333 99.0611 14.8C98.4478 14.56 97.9144 14.21 97.4611 13.75C97.0078 13.2833 96.6511 12.71 96.3911 12.03C96.1311 11.3433 96.0011 10.55 96.0011 9.65C96.0011 8.95 96.1144 8.29333 96.3411 7.68C96.5678 7.06 96.8911 6.52333 97.3111 6.07C97.7378 5.61 98.2544 5.24667 98.8611 4.98C99.4744 4.71333 100.164 4.58 100.931 4.58ZM100.981 6.35C100.261 6.35 99.6978 6.55333 99.2911 6.96C98.8844 7.36667 98.6244 7.94333 98.5111 8.69H103.151C103.151 8.37 103.108 8.07 103.021 7.79C102.934 7.50333 102.801 7.25333 102.621 7.04C102.441 6.82667 102.214 6.66 101.941 6.54C101.668 6.41333 101.348 6.35 100.981 6.35ZM111.615 4.58C112.261 4.58 112.855 4.68333 113.395 4.89C113.941 5.09667 114.411 5.4 114.805 5.8C115.198 6.19333 115.505 6.68 115.725 7.26C115.945 7.83333 116.055 8.49 116.055 9.23C116.055 9.41667 116.045 9.57333 116.025 9.7C116.011 9.82 115.981 9.91667 115.935 9.99C115.895 10.0567 115.838 10.1067 115.765 10.14C115.691 10.1667 115.598 10.18 115.485 10.18H109.145C109.218 11.2333 109.501 12.0067 109.995 12.5C110.488 12.9933 111.141 13.24 111.955 13.24C112.355 13.24 112.698 13.1933 112.985 13.1C113.278 13.0067 113.531 12.9033 113.745 12.79C113.965 12.6767 114.155 12.5733 114.315 12.48C114.481 12.3867 114.641 12.34 114.795 12.34C114.895 12.34 114.981 12.36 115.055 12.4C115.128 12.44 115.191 12.4967 115.245 12.57L115.965 13.47C115.691 13.79 115.385 14.06 115.045 14.28C114.705 14.4933 114.348 14.6667 113.975 14.8C113.608 14.9267 113.231 15.0167 112.845 15.07C112.465 15.1233 112.095 15.15 111.735 15.15C111.021 15.15 110.358 15.0333 109.745 14.8C109.131 14.56 108.598 14.21 108.145 13.75C107.691 13.2833 107.335 12.71 107.075 12.03C106.815 11.3433 106.685 10.55 106.685 9.65C106.685 8.95 106.798 8.29333 107.025 7.68C107.251 7.06 107.575 6.52333 107.995 6.07C108.421 5.61 108.938 5.24667 109.545 4.98C110.158 4.71333 110.848 4.58 111.615 4.58ZM111.665 6.35C110.945 6.35 110.381 6.55333 109.975 6.96C109.568 7.36667 109.308 7.94333 109.195 8.69H113.835C113.835 8.37 113.791 8.07 113.705 7.79C113.618 7.50333 113.485 7.25333 113.305 7.04C113.125 6.82667 112.898 6.66 112.625 6.54C112.351 6.41333 112.031 6.35 111.665 6.35ZM122.866 15H120.626L116.546 4.74H118.596C118.776 4.74 118.926 4.78333 119.046 4.87C119.173 4.95667 119.26 5.06667 119.306 5.2L121.286 10.68C121.4 11 121.493 11.3133 121.566 11.62C121.646 11.9267 121.716 12.2333 121.776 12.54C121.836 12.2333 121.903 11.9267 121.976 11.62C122.056 11.3133 122.156 11 122.276 10.68L124.306 5.2C124.353 5.06667 124.436 4.95667 124.556 4.87C124.676 4.78333 124.82 4.74 124.986 4.74H126.936L122.866 15ZM136.43 15H135.32C135.087 15 134.904 14.9667 134.77 14.9C134.637 14.8267 134.537 14.6833 134.47 14.47L134.25 13.74C133.99 13.9733 133.734 14.18 133.48 14.36C133.234 14.5333 132.977 14.68 132.71 14.8C132.444 14.92 132.16 15.01 131.86 15.07C131.56 15.13 131.227 15.16 130.86 15.16C130.427 15.16 130.027 15.1033 129.66 14.99C129.294 14.87 128.977 14.6933 128.71 14.46C128.45 14.2267 128.247 13.9367 128.1 13.59C127.954 13.2433 127.88 12.84 127.88 12.38C127.88 11.9933 127.98 11.6133 128.18 11.24C128.387 10.86 128.727 10.52 129.2 10.22C129.674 9.91333 130.304 9.66 131.09 9.46C131.877 9.26 132.854 9.14667 134.02 9.12V8.52C134.02 7.83333 133.874 7.32667 133.58 7C133.294 6.66667 132.874 6.5 132.32 6.5C131.92 6.5 131.587 6.54667 131.32 6.64C131.054 6.73333 130.82 6.84 130.62 6.96C130.427 7.07333 130.247 7.17667 130.08 7.27C129.914 7.36333 129.73 7.41 129.53 7.41C129.364 7.41 129.22 7.36667 129.1 7.28C128.98 7.19333 128.884 7.08667 128.81 6.96L128.36 6.17C129.54 5.09 130.964 4.55 132.63 4.55C133.23 4.55 133.764 4.65 134.23 4.85C134.704 5.04333 135.104 5.31667 135.43 5.67C135.757 6.01667 136.004 6.43333 136.17 6.92C136.344 7.40667 136.43 7.94 136.43 8.52V15ZM131.63 13.46C131.884 13.46 132.117 13.4367 132.33 13.39C132.544 13.3433 132.744 13.2733 132.93 13.18C133.124 13.0867 133.307 12.9733 133.48 12.84C133.66 12.7 133.84 12.5367 134.02 12.35V10.62C133.3 10.6533 132.697 10.7167 132.21 10.81C131.73 10.8967 131.344 11.01 131.05 11.15C130.757 11.29 130.547 11.4533 130.42 11.64C130.3 11.8267 130.24 12.03 130.24 12.25C130.24 12.6833 130.367 12.9933 130.62 13.18C130.88 13.3667 131.217 13.46 131.63 13.46Z" fill="#FFDA92"></path> <path d="M7.28 9.86C7.28 10.6733 7.18 11.4067 6.98 12.06C6.78 12.7133 6.48 13.27 6.08 13.73C5.68667 14.19 5.19333 14.5433 4.6 14.79C4.00667 15.0367 3.31667 15.16 2.53 15.16C2.17 15.16 1.81667 15.1367 1.47 15.09C1.12333 15.05 0.76 14.9833 0.38 14.89L0.52 13.29C0.533333 13.1433 0.586667 13.0267 0.68 12.94C0.78 12.8467 0.923333 12.8 1.11 12.8C1.22333 12.8 1.37 12.8233 1.55 12.87C1.73667 12.9167 1.97 12.94 2.25 12.94C2.63 12.94 2.96667 12.8867 3.26 12.78C3.55333 12.6667 3.79667 12.49 3.99 12.25C4.19 12.01 4.34 11.7 4.44 11.32C4.54 10.9333 4.59 10.4667 4.59 9.92V0.539999H7.28V9.86ZM12.3105 4.74V11.26C12.3105 11.8867 12.4538 12.3733 12.7405 12.72C13.0338 13.06 13.4705 13.23 14.0505 13.23C14.4771 13.23 14.8771 13.1367 15.2505 12.95C15.6238 12.7567 15.9771 12.4933 16.3105 12.16V4.74H18.7805V15H17.2705C16.9505 15 16.7405 14.85 16.6405 14.55L16.4705 13.73C16.2571 13.9433 16.0371 14.14 15.8105 14.32C15.5838 14.4933 15.3405 14.6433 15.0805 14.77C14.8271 14.89 14.5505 14.9833 14.2505 15.05C13.9571 15.1233 13.6405 15.16 13.3005 15.16C12.7405 15.16 12.2438 15.0667 11.8105 14.88C11.3838 14.6867 11.0238 14.4167 10.7305 14.07C10.4371 13.7233 10.2138 13.3133 10.0605 12.84C9.9138 12.36 9.84047 11.8333 9.84047 11.26V4.74H12.3105ZM24.0477 0.139999V15H21.5777V0.139999H24.0477ZM29.4773 4.74V15H27.0073V4.74H29.4773ZM29.8473 1.75C29.8473 1.96333 29.804 2.16333 29.7173 2.35C29.6307 2.53667 29.514 2.7 29.3673 2.84C29.2273 2.98 29.0607 3.09333 28.8673 3.18C28.674 3.26 28.4673 3.3 28.2473 3.3C28.034 3.3 27.8307 3.26 27.6373 3.18C27.4507 3.09333 27.2873 2.98 27.1473 2.84C27.0073 2.7 26.894 2.53667 26.8073 2.35C26.7273 2.16333 26.6873 1.96333 26.6873 1.75C26.6873 1.53 26.7273 1.32333 26.8073 1.13C26.894 0.936666 27.0073 0.77 27.1473 0.63C27.2873 0.489999 27.4507 0.379999 27.6373 0.3C27.8307 0.213333 28.034 0.17 28.2473 0.17C28.4673 0.17 28.674 0.213333 28.8673 0.3C29.0607 0.379999 29.2273 0.489999 29.3673 0.63C29.514 0.77 29.6307 0.936666 29.7173 1.13C29.804 1.32333 29.8473 1.53 29.8473 1.75ZM40.317 15H39.207C38.9737 15 38.7904 14.9667 38.657 14.9C38.5237 14.8267 38.4237 14.6833 38.357 14.47L38.137 13.74C37.877 13.9733 37.6204 14.18 37.367 14.36C37.1204 14.5333 36.8637 14.68 36.597 14.8C36.3304 14.92 36.047 15.01 35.747 15.07C35.447 15.13 35.1137 15.16 34.747 15.16C34.3137 15.16 33.9137 15.1033 33.547 14.99C33.1804 14.87 32.8637 14.6933 32.597 14.46C32.337 14.2267 32.1337 13.9367 31.987 13.59C31.8404 13.2433 31.767 12.84 31.767 12.38C31.767 11.9933 31.867 11.6133 32.067 11.24C32.2737 10.86 32.6137 10.52 33.087 10.22C33.5604 9.91333 34.1904 9.66 34.977 9.46C35.7637 9.26 36.7404 9.14667 37.907 9.12V8.52C37.907 7.83333 37.7604 7.32667 37.467 7C37.1804 6.66667 36.7604 6.5 36.207 6.5C35.807 6.5 35.4737 6.54667 35.207 6.64C34.9404 6.73333 34.707 6.84 34.507 6.96C34.3137 7.07333 34.1337 7.17667 33.967 7.27C33.8004 7.36333 33.617 7.41 33.417 7.41C33.2504 7.41 33.107 7.36667 32.987 7.28C32.867 7.19333 32.7704 7.08667 32.697 6.96L32.247 6.17C33.427 5.09 34.8504 4.55 36.517 4.55C37.117 4.55 37.6504 4.65 38.117 4.85C38.5904 5.04333 38.9904 5.31667 39.317 5.67C39.6437 6.01667 39.8904 6.43333 40.057 6.92C40.2304 7.40667 40.317 7.94 40.317 8.52V15ZM35.517 13.46C35.7704 13.46 36.0037 13.4367 36.217 13.39C36.4304 13.3433 36.6304 13.2733 36.817 13.18C37.0104 13.0867 37.1937 12.9733 37.367 12.84C37.547 12.7 37.727 12.5367 37.907 12.35V10.62C37.187 10.6533 36.5837 10.7167 36.097 10.81C35.617 10.8967 35.2304 11.01 34.937 11.15C34.6437 11.29 34.4337 11.4533 34.307 11.64C34.187 11.8267 34.127 12.03 34.127 12.25C34.127 12.6833 34.2537 12.9933 34.507 13.18C34.767 13.3667 35.1037 13.46 35.517 13.46ZM59.463 15H57.383C57.1496 15 56.9563 14.9433 56.803 14.83C56.6563 14.71 56.5496 14.5633 56.483 14.39L55.403 11.44H49.413L48.333 14.39C48.2796 14.5433 48.173 14.6833 48.013 14.81C47.8596 14.9367 47.6696 15 47.443 15H45.353L51.033 0.539999H53.783L59.463 15ZM50.103 9.54H54.713L52.953 4.73C52.873 4.51667 52.783 4.26667 52.683 3.98C52.5896 3.68667 52.4963 3.37 52.403 3.03C52.3096 3.37 52.2163 3.68667 52.123 3.98C52.0363 4.27333 51.9496 4.53 51.863 4.75L50.103 9.54ZM63.4422 0.139999V15H60.9722V0.139999H63.4422ZM70.4819 4.58C71.1285 4.58 71.7219 4.68333 72.2619 4.89C72.8085 5.09667 73.2785 5.4 73.6719 5.8C74.0652 6.19333 74.3719 6.68 74.5919 7.26C74.8119 7.83333 74.9219 8.49 74.9219 9.23C74.9219 9.41667 74.9119 9.57333 74.8919 9.7C74.8785 9.82 74.8485 9.91667 74.8019 9.99C74.7619 10.0567 74.7052 10.1067 74.6319 10.14C74.5585 10.1667 74.4652 10.18 74.3519 10.18H68.0119C68.0852 11.2333 68.3685 12.0067 68.8619 12.5C69.3552 12.9933 70.0085 13.24 70.8219 13.24C71.2219 13.24 71.5652 13.1933 71.8519 13.1C72.1452 13.0067 72.3985 12.9033 72.6119 12.79C72.8319 12.6767 73.0219 12.5733 73.1819 12.48C73.3485 12.3867 73.5085 12.34 73.6619 12.34C73.7619 12.34 73.8485 12.36 73.9219 12.4C73.9952 12.44 74.0585 12.4967 74.1119 12.57L74.8319 13.47C74.5585 13.79 74.2519 14.06 73.9119 14.28C73.5719 14.4933 73.2152 14.6667 72.8419 14.8C72.4752 14.9267 72.0985 15.0167 71.7119 15.07C71.3319 15.1233 70.9619 15.15 70.6019 15.15C69.8885 15.15 69.2252 15.0333 68.6119 14.8C67.9985 14.56 67.4652 14.21 67.0119 13.75C66.5585 13.2833 66.2019 12.71 65.9419 12.03C65.6819 11.3433 65.5519 10.55 65.5519 9.65C65.5519 8.95 65.6652 8.29333 65.8919 7.68C66.1185 7.06 66.4419 6.52333 66.8619 6.07C67.2885 5.61 67.8052 5.24667 68.4119 4.98C69.0252 4.71333 69.7152 4.58 70.4819 4.58ZM70.5319 6.35C69.8119 6.35 69.2485 6.55333 68.8419 6.96C68.4352 7.36667 68.1752 7.94333 68.0619 8.69H72.7019C72.7019 8.37 72.6585 8.07 72.5719 7.79C72.4852 7.50333 72.3519 7.25333 72.1719 7.04C71.9919 6.82667 71.7652 6.66 71.4919 6.54C71.2185 6.41333 70.8985 6.35 70.5319 6.35ZM79.4255 0.139999V8.65H79.8855C80.0521 8.65 80.1821 8.62667 80.2755 8.58C80.3688 8.53333 80.4688 8.44667 80.5755 8.32L83.1255 5.17C83.2388 5.03667 83.3588 4.93333 83.4855 4.86C83.6121 4.78 83.7788 4.74 83.9855 4.74H86.2455L83.0555 8.55C82.9421 8.69 82.8255 8.82 82.7055 8.94C82.5855 9.05333 82.4555 9.15333 82.3155 9.24C82.4555 9.34 82.5788 9.45667 82.6855 9.59C82.7921 9.72333 82.8988 9.86667 83.0055 10.02L86.4255 15H84.1955C84.0021 15 83.8388 14.9667 83.7055 14.9C83.5721 14.8333 83.4521 14.72 83.3455 14.56L80.7355 10.67C80.6355 10.5167 80.5355 10.4167 80.4355 10.37C80.3355 10.3233 80.1855 10.3 79.9855 10.3H79.4255V15H76.9555V0.139999H79.4255ZM94.0506 6.74C93.984 6.84667 93.914 6.92333 93.8406 6.97C93.7673 7.01 93.674 7.03 93.5606 7.03C93.4406 7.03 93.3106 6.99667 93.1706 6.93C93.0373 6.86333 92.8806 6.79 92.7006 6.71C92.5206 6.62333 92.314 6.54667 92.0806 6.48C91.854 6.41333 91.584 6.38 91.2706 6.38C90.784 6.38 90.4006 6.48333 90.1206 6.69C89.8406 6.89667 89.7006 7.16667 89.7006 7.5C89.7006 7.72 89.7706 7.90667 89.9106 8.06C90.0573 8.20667 90.2473 8.33667 90.4806 8.45C90.7206 8.56333 90.9906 8.66667 91.2906 8.76C91.5906 8.84667 91.8973 8.94333 92.2106 9.05C92.524 9.15667 92.8306 9.28 93.1306 9.42C93.4306 9.55333 93.6973 9.72667 93.9306 9.94C94.1706 10.1467 94.3606 10.3967 94.5006 10.69C94.6473 10.9833 94.7206 11.3367 94.7206 11.75C94.7206 12.2433 94.6306 12.7 94.4506 13.12C94.2706 13.5333 94.0073 13.8933 93.6606 14.2C93.314 14.5 92.884 14.7367 92.3706 14.91C91.864 15.0767 91.2806 15.16 90.6206 15.16C90.2673 15.16 89.9206 15.1267 89.5806 15.06C89.2473 15 88.924 14.9133 88.6106 14.8C88.304 14.6867 88.0173 14.5533 87.7506 14.4C87.4906 14.2467 87.2606 14.08 87.0606 13.9L87.6306 12.96C87.704 12.8467 87.7906 12.76 87.8906 12.7C87.9906 12.64 88.1173 12.61 88.2706 12.61C88.424 12.61 88.5673 12.6533 88.7006 12.74C88.8406 12.8267 89.0006 12.92 89.1806 13.02C89.3606 13.12 89.5706 13.2133 89.8106 13.3C90.0573 13.3867 90.3673 13.43 90.7406 13.43C91.034 13.43 91.284 13.3967 91.4906 13.33C91.704 13.2567 91.8773 13.1633 92.0106 13.05C92.1506 12.9367 92.2506 12.8067 92.3106 12.66C92.3773 12.5067 92.4106 12.35 92.4106 12.19C92.4106 11.95 92.3373 11.7533 92.1906 11.6C92.0506 11.4467 91.8606 11.3133 91.6206 11.2C91.3873 11.0867 91.1173 10.9867 90.8106 10.9C90.5106 10.8067 90.2006 10.7067 89.8806 10.6C89.5673 10.4933 89.2573 10.37 88.9506 10.23C88.6506 10.0833 88.3806 9.9 88.1406 9.68C87.9073 9.46 87.7173 9.19 87.5706 8.87C87.4306 8.55 87.3606 8.16333 87.3606 7.71C87.3606 7.29 87.444 6.89 87.6106 6.51C87.7773 6.13 88.0206 5.8 88.3406 5.52C88.6673 5.23333 89.0706 5.00667 89.5506 4.84C90.0373 4.66667 90.5973 4.58 91.2306 4.58C91.9373 4.58 92.5806 4.69667 93.1606 4.93C93.7406 5.16333 94.224 5.47 94.6106 5.85L94.0506 6.74ZM100.931 4.58C101.578 4.58 102.171 4.68333 102.711 4.89C103.258 5.09667 103.728 5.4 104.121 5.8C104.514 6.19333 104.821 6.68 105.041 7.26C105.261 7.83333 105.371 8.49 105.371 9.23C105.371 9.41667 105.361 9.57333 105.341 9.7C105.328 9.82 105.298 9.91667 105.251 9.99C105.211 10.0567 105.154 10.1067 105.081 10.14C105.008 10.1667 104.914 10.18 104.801 10.18H98.4611C98.5344 11.2333 98.8178 12.0067 99.3111 12.5C99.8044 12.9933 100.458 13.24 101.271 13.24C101.671 13.24 102.014 13.1933 102.301 13.1C102.594 13.0067 102.848 12.9033 103.061 12.79C103.281 12.6767 103.471 12.5733 103.631 12.48C103.798 12.3867 103.958 12.34 104.111 12.34C104.211 12.34 104.298 12.36 104.371 12.4C104.444 12.44 104.508 12.4967 104.561 12.57L105.281 13.47C105.008 13.79 104.701 14.06 104.361 14.28C104.021 14.4933 103.664 14.6667 103.291 14.8C102.924 14.9267 102.548 15.0167 102.161 15.07C101.781 15.1233 101.411 15.15 101.051 15.15C100.338 15.15 99.6744 15.0333 99.0611 14.8C98.4478 14.56 97.9144 14.21 97.4611 13.75C97.0078 13.2833 96.6511 12.71 96.3911 12.03C96.1311 11.3433 96.0011 10.55 96.0011 9.65C96.0011 8.95 96.1144 8.29333 96.3411 7.68C96.5678 7.06 96.8911 6.52333 97.3111 6.07C97.7378 5.61 98.2544 5.24667 98.8611 4.98C99.4744 4.71333 100.164 4.58 100.931 4.58ZM100.981 6.35C100.261 6.35 99.6978 6.55333 99.2911 6.96C98.8844 7.36667 98.6244 7.94333 98.5111 8.69H103.151C103.151 8.37 103.108 8.07 103.021 7.79C102.934 7.50333 102.801 7.25333 102.621 7.04C102.441 6.82667 102.214 6.66 101.941 6.54C101.668 6.41333 101.348 6.35 100.981 6.35ZM111.615 4.58C112.261 4.58 112.855 4.68333 113.395 4.89C113.941 5.09667 114.411 5.4 114.805 5.8C115.198 6.19333 115.505 6.68 115.725 7.26C115.945 7.83333 116.055 8.49 116.055 9.23C116.055 9.41667 116.045 9.57333 116.025 9.7C116.011 9.82 115.981 9.91667 115.935 9.99C115.895 10.0567 115.838 10.1067 115.765 10.14C115.691 10.1667 115.598 10.18 115.485 10.18H109.145C109.218 11.2333 109.501 12.0067 109.995 12.5C110.488 12.9933 111.141 13.24 111.955 13.24C112.355 13.24 112.698 13.1933 112.985 13.1C113.278 13.0067 113.531 12.9033 113.745 12.79C113.965 12.6767 114.155 12.5733 114.315 12.48C114.481 12.3867 114.641 12.34 114.795 12.34C114.895 12.34 114.981 12.36 115.055 12.4C115.128 12.44 115.191 12.4967 115.245 12.57L115.965 13.47C115.691 13.79 115.385 14.06 115.045 14.28C114.705 14.4933 114.348 14.6667 113.975 14.8C113.608 14.9267 113.231 15.0167 112.845 15.07C112.465 15.1233 112.095 15.15 111.735 15.15C111.021 15.15 110.358 15.0333 109.745 14.8C109.131 14.56 108.598 14.21 108.145 13.75C107.691 13.2833 107.335 12.71 107.075 12.03C106.815 11.3433 106.685 10.55 106.685 9.65C106.685 8.95 106.798 8.29333 107.025 7.68C107.251 7.06 107.575 6.52333 107.995 6.07C108.421 5.61 108.938 5.24667 109.545 4.98C110.158 4.71333 110.848 4.58 111.615 4.58ZM111.665 6.35C110.945 6.35 110.381 6.55333 109.975 6.96C109.568 7.36667 109.308 7.94333 109.195 8.69H113.835C113.835 8.37 113.791 8.07 113.705 7.79C113.618 7.50333 113.485 7.25333 113.305 7.04C113.125 6.82667 112.898 6.66 112.625 6.54C112.351 6.41333 112.031 6.35 111.665 6.35ZM122.866 15H120.626L116.546 4.74H118.596C118.776 4.74 118.926 4.78333 119.046 4.87C119.173 4.95667 119.26 5.06667 119.306 5.2L121.286 10.68C121.4 11 121.493 11.3133 121.566 11.62C121.646 11.9267 121.716 12.2333 121.776 12.54C121.836 12.2333 121.903 11.9267 121.976 11.62C122.056 11.3133 122.156 11 122.276 10.68L124.306 5.2C124.353 5.06667 124.436 4.95667 124.556 4.87C124.676 4.78333 124.82 4.74 124.986 4.74H126.936L122.866 15ZM136.43 15H135.32C135.087 15 134.904 14.9667 134.77 14.9C134.637 14.8267 134.537 14.6833 134.47 14.47L134.25 13.74C133.99 13.9733 133.734 14.18 133.48 14.36C133.234 14.5333 132.977 14.68 132.71 14.8C132.444 14.92 132.16 15.01 131.86 15.07C131.56 15.13 131.227 15.16 130.86 15.16C130.427 15.16 130.027 15.1033 129.66 14.99C129.294 14.87 128.977 14.6933 128.71 14.46C128.45 14.2267 128.247 13.9367 128.1 13.59C127.954 13.2433 127.88 12.84 127.88 12.38C127.88 11.9933 127.98 11.6133 128.18 11.24C128.387 10.86 128.727 10.52 129.2 10.22C129.674 9.91333 130.304 9.66 131.09 9.46C131.877 9.26 132.854 9.14667 134.02 9.12V8.52C134.02 7.83333 133.874 7.32667 133.58 7C133.294 6.66667 132.874 6.5 132.32 6.5C131.92 6.5 131.587 6.54667 131.32 6.64C131.054 6.73333 130.82 6.84 130.62 6.96C130.427 7.07333 130.247 7.17667 130.08 7.27C129.914 7.36333 129.73 7.41 129.53 7.41C129.364 7.41 129.22 7.36667 129.1 7.28C128.98 7.19333 128.884 7.08667 128.81 6.96L128.36 6.17C129.54 5.09 130.964 4.55 132.63 4.55C133.23 4.55 133.764 4.65 134.23 4.85C134.704 5.04333 135.104 5.31667 135.43 5.67C135.757 6.01667 136.004 6.43333 136.17 6.92C136.344 7.40667 136.43 7.94 136.43 8.52V15ZM131.63 13.46C131.884 13.46 132.117 13.4367 132.33 13.39C132.544 13.3433 132.744 13.2733 132.93 13.18C133.124 13.0867 133.307 12.9733 133.48 12.84C133.66 12.7 133.84 12.5367 134.02 12.35V10.62C133.3 10.6533 132.697 10.7167 132.21 10.81C131.73 10.8967 131.344 11.01 131.05 11.15C130.757 11.29 130.547 11.4533 130.42 11.64C130.3 11.8267 130.24 12.03 130.24 12.25C130.24 12.6833 130.367 12.9933 130.62 13.18C130.88 13.3667 131.217 13.46 131.63 13.46Z" fill="url(#paint0_linear_154_132)"></path> <defs> <linearGradient id="paint0_linear_154_132" x1="118.058" y1="-11.0706" x2="68.4292" y2="52.0334" gradientUnits="userSpaceOnUse"> <stop stop-color="#FFE8CA"></stop> <stop offset="0.260417" stop-color="#FFE0E3"></stop> <stop offset="0.442708" stop-color="#FFC9ED"></stop> <stop offset="0.697917" stop-color="#C8BDFB"></stop> <stop offset="0.947917" stop-color="#A7C7FF"></stop> </linearGradient> </defs> </svg> 