<?xml version="1.0" encoding="UTF-8"?> <svg xmlns="http://www.w3.org/2000/svg" width="22" height="22" viewBox="0 0 22 22" fill="none"> <path d="M10.999 11.6873C13.6528 11.6873 15.8115 9.52851 15.8115 6.87476C15.8115 4.22101 13.6528 2.06226 10.999 2.06226C8.3453 2.06226 6.18655 4.22101 6.18655 6.87476C6.18655 9.52851 8.3453 11.6873 10.999 11.6873ZM10.999 3.43726C12.8947 3.43726 14.4365 4.97909 14.4365 6.87476C14.4365 8.77042 12.8947 10.3123 10.999 10.3123C9.10338 10.3123 7.56155 8.77042 7.56155 6.87476C7.56155 4.97909 9.10338 3.43726 10.999 3.43726ZM18.1032 16.4695V17.3963C18.1032 18.2534 17.7906 19.0747 17.2223 19.7081C17.0866 19.8603 16.8987 19.9373 16.7099 19.9373C16.5467 19.9373 16.3826 19.8795 16.2515 19.7621C15.9683 19.5091 15.9454 19.0747 16.1984 18.7914C16.5403 18.4092 16.7291 17.9142 16.7291 17.3972V16.4704C16.7291 15.0826 15.8088 13.8817 14.4897 13.5508C14.2578 13.4921 14.0085 13.5243 13.8059 13.6389C12.0633 14.6087 9.93112 14.605 8.19953 13.6416C7.99237 13.5233 7.74306 13.4894 7.51114 13.5499C6.19206 13.8817 5.27078 15.0826 5.27078 16.4704V17.3972C5.27078 17.9151 5.45965 18.4101 5.80156 18.7914C6.05456 19.0747 6.03069 19.5091 5.74836 19.7621C5.46419 20.0161 5.02973 19.9913 4.77764 19.709C4.20931 19.0747 3.89673 18.2533 3.89673 17.3972V16.4704C3.89673 14.4519 5.24511 12.7029 7.17561 12.2171C7.7467 12.0723 8.36728 12.1548 8.87512 12.4445C10.1859 13.1741 11.8103 13.1768 13.1322 12.4417C13.6336 12.1557 14.2542 12.0741 14.8271 12.218C16.7548 12.7011 18.1032 14.4501 18.1032 16.4695Z" fill="#F5F5F5"></path> </svg> 