<?xml version="1.0" encoding="UTF-8"?> <svg xmlns="http://www.w3.org/2000/svg" width="36" height="36" viewBox="0 0 36 36" fill="none"> <rect width="36.0001" height="36.0001" rx="18" fill="#363636"></rect> <path d="M18.0004 13.5629C17.1228 13.5629 16.265 13.8232 15.5353 14.3107C14.8057 14.7982 14.237 15.4912 13.9012 16.3019C13.5654 17.1127 13.4775 18.0048 13.6487 18.8655C13.8199 19.7262 14.2425 20.5168 14.863 21.1373C15.4835 21.7578 16.2741 22.1804 17.1348 22.3516C17.9954 22.5228 18.8876 22.4349 19.6983 22.0991C20.5091 21.7633 21.202 21.1946 21.6896 20.4649C22.1771 19.7353 22.4373 18.8774 22.4373 17.9999C22.437 16.8232 21.9695 15.6948 21.1374 14.8628C20.3054 14.0308 19.177 13.5632 18.0004 13.5629ZM18.0004 20.8802C17.4308 20.8798 16.8741 20.7105 16.4007 20.3938C15.9273 20.077 15.5585 19.627 15.3408 19.1007C15.1231 18.5743 15.0664 17.9953 15.1777 17.4367C15.2891 16.8781 15.5636 16.365 15.9665 15.9624C16.3694 15.5598 16.8827 15.2857 17.4413 15.1747C18 15.0637 18.5791 15.1209 19.1052 15.339C19.6314 15.5571 20.0812 15.9262 20.3976 16.3999C20.714 16.8735 20.8828 17.4303 20.8828 17.9999C20.883 18.3784 20.8085 18.7531 20.6637 19.1028C20.5188 19.4525 20.3065 19.7701 20.0388 20.0377C19.7711 20.3052 19.4532 20.5173 19.1035 20.6619C18.7537 20.8065 18.3788 20.8807 18.0004 20.8802ZM23.65 13.3883C23.65 13.5934 23.5892 13.7939 23.4752 13.9645C23.3613 14.135 23.1993 14.2679 23.0098 14.3464C22.8203 14.4249 22.6118 14.4454 22.4107 14.4054C22.2095 14.3654 22.0247 14.2667 21.8797 14.1216C21.7347 13.9766 21.6359 13.7918 21.5959 13.5907C21.5559 13.3895 21.5764 13.181 21.6549 12.9915C21.7334 12.802 21.8663 12.64 22.0368 12.5261C22.2074 12.4122 22.4079 12.3513 22.613 12.3513C22.888 12.3513 23.1518 12.4606 23.3463 12.6551C23.5407 12.8495 23.65 13.1133 23.65 13.3883ZM26.5885 14.4381C26.5473 13.5185 26.4002 12.8899 26.1875 12.3407C25.9653 11.7669 25.6259 11.2457 25.1907 10.8106C24.7556 10.3755 24.2344 10.036 23.6606 9.81382C23.1103 9.60218 22.4828 9.45404 21.5633 9.41277C20.6437 9.3715 20.3474 9.35986 18.0004 9.35986C15.6533 9.35986 15.3549 9.37045 14.4385 9.41277C13.5222 9.4551 12.8904 9.60007 12.3412 9.81382C11.7674 10.036 11.2462 10.3755 10.8111 10.8106C10.376 11.2457 10.0365 11.7669 9.81431 12.3407C9.60268 12.8899 9.45453 13.5185 9.41326 14.4381C9.37199 15.3576 9.36035 15.6539 9.36035 17.9999C9.36035 20.3459 9.37093 20.6453 9.41326 21.5628C9.45559 22.4802 9.60056 23.1098 9.81431 23.6601C10.0365 24.2339 10.376 24.7551 10.8111 25.1902C11.2462 25.6254 11.7674 25.9649 12.3412 26.187C12.8904 26.3986 13.519 26.5468 14.4385 26.5881C15.3581 26.6293 15.6544 26.6399 18.0004 26.6399C20.3464 26.6399 20.6458 26.6304 21.5633 26.5881C22.4807 26.5457 23.1103 26.4008 23.6606 26.187C24.2344 25.9649 24.7556 25.6254 25.1907 25.1902C25.6259 24.7551 25.9653 24.2339 26.1875 23.6601C26.3991 23.1098 26.5473 22.4823 26.5885 21.5628C26.6298 20.6432 26.6404 20.3469 26.6404 17.9999C26.6404 15.6528 26.6309 15.3597 26.5885 14.4381ZM25.0341 21.4919C24.9949 22.3384 24.8542 22.7913 24.7357 23.0961C24.5923 23.4688 24.3723 23.8074 24.09 24.0899C23.8077 24.3724 23.4692 24.5926 23.0966 24.7362C22.7918 24.8537 22.3347 24.9944 21.4924 25.0325C20.5813 25.0749 20.3083 25.0833 18.0004 25.0833C15.6925 25.0833 15.4205 25.0749 14.5084 25.0325C13.6618 24.9944 13.2089 24.8537 12.9042 24.7362C12.5315 24.5924 12.1931 24.3721 11.9106 24.0897C11.6281 23.8072 11.4079 23.4687 11.264 23.0961C11.1455 22.7913 11.0058 22.3342 10.9667 21.4919C10.9254 20.5808 10.9159 20.3067 10.9159 17.9999C10.9159 15.6931 10.9254 15.42 10.9667 14.5079C11.0058 13.6614 11.1455 13.2085 11.264 12.9037C11.4079 12.531 11.6281 12.1926 11.9106 11.9101C12.1931 11.6276 12.5315 11.4074 12.9042 11.2635C13.2089 11.1461 13.6661 11.0053 14.5084 10.9662C15.4195 10.9249 15.6925 10.9164 18.0004 10.9164C20.3083 10.9164 20.5813 10.9249 21.4924 10.9662C22.3389 11.0053 22.7918 11.1461 23.0966 11.2635C23.4692 11.4072 23.8077 11.6273 24.09 11.9098C24.3723 12.1924 24.5923 12.5309 24.7357 12.9037C24.8542 13.2085 24.9949 13.6656 25.0341 14.5079C25.0753 15.419 25.0838 15.692 25.0838 17.9999C25.0838 20.3078 25.0753 20.5808 25.0341 21.4919Z" fill="url(#paint0_linear_145_145)"></path> <defs> <linearGradient id="paint0_linear_145_145" x1="24.1433" y1="4.98903" x2="8.63976" y2="8.4174" gradientUnits="userSpaceOnUse"> <stop stop-color="#FFE8CA"></stop> <stop offset="0.260417" stop-color="#FFE0E3"></stop> <stop offset="0.442708" stop-color="#FFC9ED"></stop> <stop offset="0.697917" stop-color="#C8BDFB"></stop> <stop offset="0.947917" stop-color="#A7C7FF"></stop> </linearGradient> </defs> </svg> 