<?xml version="1.0" encoding="UTF-8"?> <svg xmlns="http://www.w3.org/2000/svg" width="565" height="170" viewBox="0 0 565 170" fill="none"> <g opacity="0.32"> <path d="M564.714 3V167.364H498.905C486.813 167.364 476.728 165.571 468.648 161.987C460.569 158.402 454.497 153.426 450.43 147.059C446.364 140.746 444.331 133.469 444.331 125.229C444.331 118.809 445.615 113.164 448.183 108.295C450.751 103.48 454.283 99.5208 458.777 96.4176C463.218 93.3679 468.301 91.201 474.026 89.9169V88.3118C467.766 88.0443 461.907 86.2787 456.45 83.0149C450.939 79.7512 446.471 75.1766 443.047 69.2912C439.623 63.4593 437.911 56.5038 437.911 48.4247C437.911 39.7036 440.077 31.9188 444.411 25.0703C448.692 18.2753 455.032 12.8982 463.432 8.93892C471.832 4.97964 482.185 3 494.491 3H564.714ZM529.964 31.4105H501.634C491.949 31.4105 484.887 33.2564 480.446 36.9482C476.005 40.6934 473.785 45.6693 473.785 51.8757C473.785 56.4235 474.882 60.4363 477.075 63.9141C479.269 67.3918 482.399 70.1205 486.465 72.1001C490.478 74.0798 495.267 75.0696 500.831 75.0696H529.964V31.4105ZM529.964 98.5845H504.202C499.44 98.5845 495.213 99.4138 491.521 101.072C487.776 102.785 484.833 105.192 482.693 108.295C480.5 111.399 479.403 115.117 479.403 119.451C479.403 125.39 481.516 130.179 485.743 133.817C489.916 137.455 495.855 139.274 503.56 139.274H529.964V98.5845ZM415.298 3V167.364H304.546V138.712H380.548V99.5476H310.244V70.8963H380.548V31.6513H304.225V3H415.298ZM187.754 120.093C188.396 126.567 191.151 131.596 196.02 135.181C200.889 138.766 207.496 140.558 215.843 140.558C221.514 140.558 226.303 139.756 230.209 138.151C234.115 136.599 237.111 134.432 239.197 131.65C241.231 128.868 242.247 125.711 242.247 122.18C242.354 119.237 241.739 116.669 240.401 114.475C239.01 112.281 237.111 110.382 234.703 108.777C232.295 107.225 229.513 105.861 226.357 104.684C223.2 103.56 219.829 102.597 216.244 101.795L201.477 98.2635C194.308 96.6584 187.727 94.5182 181.734 91.843C175.742 89.1679 170.552 85.8774 166.165 81.9716C161.777 78.0658 158.38 73.4645 155.972 68.1676C153.511 62.8707 152.254 56.7981 152.2 49.9496C152.254 39.8909 154.822 31.1697 159.905 23.7862C164.934 16.4562 172.211 10.758 181.734 6.69176C191.205 2.67898 202.628 0.672585 216.004 0.672585C229.272 0.672585 240.829 2.70573 250.674 6.77202C260.465 10.8383 268.116 16.8575 273.627 24.8295C279.085 32.8551 281.947 42.7801 282.214 54.6044H248.587C248.213 49.0935 246.634 44.4922 243.852 40.8004C241.017 37.1622 237.245 34.4067 232.536 32.5341C227.774 30.715 222.397 29.8054 216.405 29.8054C210.519 29.8054 205.41 30.6615 201.076 32.3736C196.689 34.0857 193.291 36.4666 190.884 39.5163C188.476 42.5661 187.272 46.0706 187.272 50.0298C187.272 53.7216 188.369 56.8248 190.562 59.3395C192.703 61.8542 195.859 63.9943 200.033 65.7599C204.152 67.5256 209.209 69.1307 215.201 70.5753L233.098 75.0696C246.955 78.4403 257.897 83.7105 265.923 90.88C273.948 98.0495 277.934 107.707 277.881 119.852C277.934 129.804 275.286 138.498 269.935 145.935C264.531 153.372 257.121 159.178 247.705 163.351C238.288 167.524 227.587 169.611 215.602 169.611C203.403 169.611 192.756 167.524 183.661 163.351C174.511 159.178 167.395 153.372 162.312 145.935C157.23 138.498 154.608 129.884 154.447 120.093H187.754ZM135.086 138.712V167.364H0.0957031V138.712H50.416V3H84.7654V138.712H135.086Z" fill="white"></path> <path d="M564.714 3V167.364H498.905C486.813 167.364 476.728 165.571 468.648 161.987C460.569 158.402 454.497 153.426 450.43 147.059C446.364 140.746 444.331 133.469 444.331 125.229C444.331 118.809 445.615 113.164 448.183 108.295C450.751 103.48 454.283 99.5208 458.777 96.4176C463.218 93.3679 468.301 91.201 474.026 89.9169V88.3118C467.766 88.0443 461.907 86.2787 456.45 83.0149C450.939 79.7512 446.471 75.1766 443.047 69.2912C439.623 63.4593 437.911 56.5038 437.911 48.4247C437.911 39.7036 440.077 31.9188 444.411 25.0703C448.692 18.2753 455.032 12.8982 463.432 8.93892C471.832 4.97964 482.185 3 494.491 3H564.714ZM529.964 31.4105H501.634C491.949 31.4105 484.887 33.2564 480.446 36.9482C476.005 40.6934 473.785 45.6693 473.785 51.8757C473.785 56.4235 474.882 60.4363 477.075 63.9141C479.269 67.3918 482.399 70.1205 486.465 72.1001C490.478 74.0798 495.267 75.0696 500.831 75.0696H529.964V31.4105ZM529.964 98.5845H504.202C499.44 98.5845 495.213 99.4138 491.521 101.072C487.776 102.785 484.833 105.192 482.693 108.295C480.5 111.399 479.403 115.117 479.403 119.451C479.403 125.39 481.516 130.179 485.743 133.817C489.916 137.455 495.855 139.274 503.56 139.274H529.964V98.5845ZM415.298 3V167.364H304.546V138.712H380.548V99.5476H310.244V70.8963H380.548V31.6513H304.225V3H415.298ZM187.754 120.093C188.396 126.567 191.151 131.596 196.02 135.181C200.889 138.766 207.496 140.558 215.843 140.558C221.514 140.558 226.303 139.756 230.209 138.151C234.115 136.599 237.111 134.432 239.197 131.65C241.231 128.868 242.247 125.711 242.247 122.18C242.354 119.237 241.739 116.669 240.401 114.475C239.01 112.281 237.111 110.382 234.703 108.777C232.295 107.225 229.513 105.861 226.357 104.684C223.2 103.56 219.829 102.597 216.244 101.795L201.477 98.2635C194.308 96.6584 187.727 94.5182 181.734 91.843C175.742 89.1679 170.552 85.8774 166.165 81.9716C161.777 78.0658 158.38 73.4645 155.972 68.1676C153.511 62.8707 152.254 56.7981 152.2 49.9496C152.254 39.8909 154.822 31.1697 159.905 23.7862C164.934 16.4562 172.211 10.758 181.734 6.69176C191.205 2.67898 202.628 0.672585 216.004 0.672585C229.272 0.672585 240.829 2.70573 250.674 6.77202C260.465 10.8383 268.116 16.8575 273.627 24.8295C279.085 32.8551 281.947 42.7801 282.214 54.6044H248.587C248.213 49.0935 246.634 44.4922 243.852 40.8004C241.017 37.1622 237.245 34.4067 232.536 32.5341C227.774 30.715 222.397 29.8054 216.405 29.8054C210.519 29.8054 205.41 30.6615 201.076 32.3736C196.689 34.0857 193.291 36.4666 190.884 39.5163C188.476 42.5661 187.272 46.0706 187.272 50.0298C187.272 53.7216 188.369 56.8248 190.562 59.3395C192.703 61.8542 195.859 63.9943 200.033 65.7599C204.152 67.5256 209.209 69.1307 215.201 70.5753L233.098 75.0696C246.955 78.4403 257.897 83.7105 265.923 90.88C273.948 98.0495 277.934 107.707 277.881 119.852C277.934 129.804 275.286 138.498 269.935 145.935C264.531 153.372 257.121 159.178 247.705 163.351C238.288 167.524 227.587 169.611 215.602 169.611C203.403 169.611 192.756 167.524 183.661 163.351C174.511 159.178 167.395 153.372 162.312 145.935C157.23 138.498 154.608 129.884 154.447 120.093H187.754ZM135.086 138.712V167.364H0.0957031V138.712H50.416V3H84.7654V138.712H135.086Z" fill="url(#paint0_linear_194_231)"></path> </g> <defs> <linearGradient id="paint0_linear_194_231" x1="76.8266" y1="291.306" x2="527.978" y2="77.5751" gradientUnits="userSpaceOnUse"> <stop stop-color="#FFE8CA"></stop> <stop offset="0.260417" stop-color="#FFE0E3"></stop> <stop offset="0.442708" stop-color="#FFC9ED"></stop> <stop offset="0.697917" stop-color="#C8BDFB"></stop> <stop offset="0.947917" stop-color="#A7C7FF"></stop> </linearGradient> </defs> </svg> 