<?xml version="1.0" encoding="UTF-8"?> <svg xmlns="http://www.w3.org/2000/svg" width="472" height="67" viewBox="0 0 472 67" fill="none"> <path d="M10.194 56.354C10.194 61.541 7.009 63.452 1.094 65.09V66H32.944V65.09C27.029 63.452 23.844 61.541 23.844 56.354V30.874C27.575 28.872 31.033 27.871 34.4 27.871C40.952 27.871 43.864 29.964 43.864 34.605V56.354C43.864 61.541 40.679 63.452 34.764 65.09V66H66.614V65.09C60.699 63.452 57.514 61.541 57.514 56.354V32.967C57.514 23.503 52.782 19.59 41.407 19.59C35.765 19.59 29.213 22.684 24.026 27.507C24.299 23.867 24.663 20.591 25.027 19.59L23.844 18.771L0.275 27.052V27.871C7.1 27.871 10.194 29.964 10.194 34.605V56.354ZM79.381 9.034C79.381 13.675 82.384 16.769 87.025 16.769C91.575 16.769 94.669 13.675 94.669 9.034C94.669 4.48399 91.575 1.39 87.025 1.39C82.384 1.39 79.381 4.48399 79.381 9.034ZM81.11 56.354C81.11 61.541 77.925 63.452 72.01 65.09V66H103.86V65.09C97.945 63.452 94.76 61.541 94.76 56.354V32.967C94.76 27.78 95.397 21.137 95.943 19.59L94.76 18.771L71.191 27.052V27.871C78.016 27.871 81.11 29.964 81.11 34.605V56.354ZM118.345 56.354C118.345 61.541 115.16 63.452 109.245 65.09V66H141.095V65.09C135.18 63.452 131.995 61.541 131.995 56.354V30.874C135.726 28.872 139.184 27.871 142.551 27.871C149.103 27.871 152.015 29.964 152.015 34.605V56.354C152.015 61.541 148.83 63.452 142.915 65.09V66H174.765V65.09C168.85 63.452 165.665 61.541 165.665 56.354V32.967C165.665 23.503 160.933 19.59 149.558 19.59C143.916 19.59 137.364 22.684 132.177 27.507C132.45 23.867 132.814 20.591 133.178 19.59L131.995 18.771L108.426 27.052V27.871C115.251 27.871 118.345 29.964 118.345 34.605V56.354ZM215.056 38.427L215.693 37.79C215.693 23.139 204.591 19.59 197.493 19.59C183.297 19.59 173.833 29.054 173.833 43.25C173.833 57.446 183.297 66.91 197.493 66.91C206.593 66.91 214.237 60.085 217.149 48.346H216.239C213.6 53.897 209.141 56.627 204.136 56.627C194.126 56.627 184.753 45.525 181.75 36.607L215.056 38.427ZM181.113 34.332C180.476 31.238 180.931 28.326 183.297 26.324C184.844 24.959 186.937 24.322 189.212 24.322C194.399 24.322 200.587 27.598 203.135 33.24L181.113 34.332ZM286.888 48.346C284.249 53.897 279.79 56.627 274.785 56.627C269.689 56.627 263.956 53.715 259.133 47.982C254.583 42.613 247.94 31.42 253.946 26.324C254.947 25.505 256.221 25.141 257.768 25.141C265.594 25.141 278.971 35.06 281.155 46.89H281.701L285.341 26.142C281.246 21.956 275.24 19.59 268.142 19.59C253.946 19.59 244.482 29.054 244.482 43.25C244.482 57.446 253.946 66.91 268.142 66.91C277.242 66.91 284.886 60.085 287.798 48.346H286.888ZM299.723 56.354C299.723 61.541 296.538 63.452 290.623 65.09V66H322.473V65.09C316.558 63.452 313.373 61.541 313.373 56.354V14.767C313.373 9.58 314.01 2.937 314.556 1.39L313.373 0.570996L289.804 8.852V9.671C296.629 9.671 299.723 11.764 299.723 16.405V56.354ZM328.124 33.149C333.402 29.6 337.952 27.871 342.411 27.871C349.964 27.871 356.334 34.15 356.334 41.612V43.523C352.421 42.067 348.326 41.339 344.413 41.339C333.311 41.339 323.574 46.799 323.574 56.081C323.574 62.997 329.034 66.91 337.315 66.91C347.143 66.91 353.331 61.45 356.425 56.445C357.153 64.089 360.702 67.001 365.161 67.001C369.893 67.001 375.626 63.725 379.903 59.448V58.629C373.078 58.629 369.984 58.902 369.984 51.895V39.974C369.984 27.962 361.521 19.59 349.418 19.59C342.229 19.59 333.493 24.595 328.124 31.875V33.149ZM356.334 53.988C354.423 56.809 351.056 59.539 345.414 59.539C340.591 59.539 337.315 57.446 337.315 52.896C337.315 47.163 342.684 44.342 349.145 44.342C351.42 44.342 353.877 44.706 356.334 45.434V53.988ZM402.557 49.347C411.111 53.169 415.206 57.719 415.206 61.268C415.206 62.633 414.114 63.452 411.839 63.452C401.738 63.452 393.73 53.624 390.636 44.888H389.999L384.448 60.358C388.634 64.544 396.824 66.91 406.197 66.91C419.21 66.91 425.762 62.36 425.762 53.26C425.762 46.162 421.758 44.16 408.29 36.789C401.647 33.149 395.004 29.691 395.004 26.142C395.004 23.958 396.278 22.229 398.735 22.229C405.742 22.229 414.933 36.243 417.663 41.703H418.3L423.214 26.688C418.937 22.411 412.385 19.59 403.012 19.59C391.455 19.59 384.448 23.867 384.448 31.784C384.448 38.609 389.544 43.523 402.557 49.347ZM448.412 49.347C456.966 53.169 461.061 57.719 461.061 61.268C461.061 62.633 459.969 63.452 457.694 63.452C447.593 63.452 439.585 53.624 436.491 44.888H435.854L430.303 60.358C434.489 64.544 442.679 66.91 452.052 66.91C465.065 66.91 471.617 62.36 471.617 53.26C471.617 46.162 467.613 44.16 454.145 36.789C447.502 33.149 440.859 29.691 440.859 26.142C440.859 23.958 442.133 22.229 444.59 22.229C451.597 22.229 460.788 36.243 463.518 41.703H464.155L469.069 26.688C464.792 22.411 458.24 19.59 448.867 19.59C437.31 19.59 430.303 23.867 430.303 31.784C430.303 38.609 435.399 43.523 448.412 49.347Z" fill="white"></path> </svg> 