<?xml version="1.0" encoding="UTF-8"?> <svg xmlns="http://www.w3.org/2000/svg" width="28" height="28" viewBox="0 0 28 28" fill="none"> <path d="M20.2083 3.79166H8.54167C5.48617 3.79166 3 6.27782 3 9.33332V18.6667C3 19.1018 3.06183 19.5195 3.15749 19.9255C3.17149 19.9803 3.18316 20.0328 3.20766 20.0853C3.83883 22.4513 5.97967 24.2083 8.54167 24.2083H20.2083C23.2638 24.2083 25.75 21.7222 25.75 18.6667V9.33332C25.75 6.27782 23.2638 3.79166 20.2083 3.79166ZM8.54167 5.54166H20.2083C22.299 5.54166 24 7.24266 24 9.33332V15.3871L19.3217 10.7088C18.5237 9.91077 17.2252 9.91077 16.4283 10.7088L10.875 16.2621L9.98834 15.3754C9.19034 14.5774 7.89183 14.5774 7.09499 15.3754L4.75 17.7204V9.33332C4.75 7.24266 6.451 5.54166 8.54167 5.54166ZM20.2083 22.4583H8.54167C6.90483 22.4583 5.52116 21.4107 4.99033 19.9547L8.33168 16.6133C8.47984 16.4651 8.60233 16.4651 8.7505 16.6133L9.84717 17.7101C10.413 18.2759 11.3347 18.2759 11.9017 17.7101L17.665 11.9466C17.7793 11.8323 17.9707 11.8323 18.0838 11.9466L23.9988 17.8617V18.6667C24 20.7573 22.299 22.4583 20.2083 22.4583ZM8.54167 10.5C8.54167 9.85599 9.06433 9.33332 9.70833 9.33332C10.3523 9.33332 10.875 9.85599 10.875 10.5C10.875 11.144 10.3523 11.6667 9.70833 11.6667C9.06433 11.6667 8.54167 11.144 8.54167 10.5Z" fill="#41416E"></path> </svg> 