<?xml version="1.0" encoding="UTF-8"?> <svg xmlns="http://www.w3.org/2000/svg" width="26" height="26" viewBox="0 0 26 26" fill="none"> <path d="M18.1463 19.1072V19.6566C18.1463 20.6034 17.7964 21.5102 17.1616 22.2111C17.0013 22.3877 16.7802 22.4776 16.5592 22.4776C16.3642 22.4776 16.1693 22.4083 16.0133 22.2675C15.6807 21.9663 15.6558 21.4527 15.9569 21.1191C16.3198 20.7182 16.5213 20.1983 16.5213 19.6555V19.1062C16.5213 17.6339 15.5301 16.3589 14.1098 16.0068C13.8661 15.9461 13.6061 15.9787 13.397 16.0967C11.4644 17.1573 9.11027 17.1519 7.19386 16.1011C6.97611 15.9776 6.71715 15.9451 6.4734 16.0058C5.05207 16.3589 4.06083 17.6329 4.06083 19.1051V19.6543C4.06083 20.196 4.26124 20.7161 4.62524 21.118C4.92641 21.4506 4.90149 21.964 4.5689 22.2652C4.23632 22.5675 3.72395 22.5425 3.4217 22.2089C2.78686 21.508 2.43695 20.6012 2.43695 19.6543V19.1051C2.43695 16.8843 3.93515 14.9614 6.08123 14.4284C6.72365 14.2691 7.41703 14.3613 7.98361 14.6798C9.40495 15.4598 11.1675 15.4641 12.6062 14.6754C13.1662 14.3601 13.8607 14.2691 14.502 14.4284C16.6481 14.9646 18.1463 16.8875 18.1463 19.1072ZM19.9187 14.4317C19.4832 14.3244 19.0422 14.5898 18.9339 15.0242C18.8256 15.4597 19.0921 15.9006 19.5265 16.0089C20.9467 16.361 21.938 17.6362 21.938 19.1084V19.6576C21.938 20.2004 21.7376 20.7193 21.3736 21.1212C21.0724 21.4538 21.0973 21.9673 21.4299 22.2696C21.5859 22.4104 21.7809 22.4797 21.9759 22.4797C22.1969 22.4797 22.4179 22.3898 22.5783 22.2132C23.2131 21.5123 23.563 20.6055 23.563 19.6587V19.1095C23.563 16.8876 22.0647 14.9647 19.9187 14.4317ZM5.14634 8.66614C5.14634 5.82889 7.45492 3.52031 10.2922 3.52031C13.1294 3.52031 15.438 5.82889 15.438 8.66614C15.438 11.5034 13.1294 13.812 10.2922 13.812C7.45492 13.812 5.14634 11.5034 5.14634 8.66614ZM6.77134 8.66614C6.77134 10.6075 8.35084 12.187 10.2922 12.187C12.2335 12.187 13.813 10.6075 13.813 8.66614C13.813 6.72481 12.2335 5.14531 10.2922 5.14531C8.35084 5.14531 6.77134 6.72481 6.77134 8.66614ZM20.8547 8.66614C20.8547 6.07481 18.9188 3.87996 16.3513 3.56038C15.9082 3.5073 15.4997 3.82038 15.4445 4.26563C15.3892 4.71088 15.7045 5.11717 16.1497 5.17242C17.9058 5.39125 19.2297 6.89381 19.2297 8.66614C19.2297 9.73973 18.7487 10.7418 17.9091 11.4156C17.5592 11.6962 17.5028 12.2076 17.7834 12.5575C17.9437 12.7579 18.1799 12.8619 18.4172 12.8619C18.5959 12.8619 18.7758 12.8034 18.9253 12.6832C20.1516 11.6995 20.8547 10.2348 20.8547 8.66614Z" fill="#41416E"></path> </svg> 