<?xml version="1.0" encoding="UTF-8"?> <svg xmlns="http://www.w3.org/2000/svg" width="28" height="28" viewBox="0 0 28 28" fill="none"> <path d="M24.1902 4.28812C23.244 3.70945 22.0867 3.66512 21.0985 4.17262L18.519 5.4968C18.1165 5.70447 17.6358 5.70447 17.2322 5.4968L12.3193 2.97434C11.8713 2.74451 11.3802 2.62901 10.889 2.62784C10.8843 2.62784 10.8797 2.62556 10.875 2.62556C10.8703 2.62556 10.8657 2.62784 10.861 2.62784C10.3698 2.63018 9.87983 2.74451 9.43066 2.97434L5.40917 5.03936C3.92284 5.80236 3 7.33303 3 9.03169V20.9049C3 22.0657 3.58334 23.1146 4.55984 23.7107C5.50717 24.2906 6.6645 24.3337 7.6515 23.8262L10.231 22.5021C10.6335 22.2944 11.1142 22.2944 11.5178 22.5021L16.4307 25.0244C16.8763 25.2542 17.3652 25.3674 17.854 25.3697C17.861 25.3697 17.8668 25.3744 17.8738 25.3744C17.8808 25.3744 17.8867 25.3709 17.8937 25.3697C18.3825 25.3662 18.8713 25.253 19.317 25.0244L23.3385 22.9593C24.8248 22.1963 25.7476 20.6657 25.7476 18.967V7.09385C25.75 5.93418 25.1667 4.88429 24.1902 4.28812ZM6.85234 22.2711C6.40317 22.5009 5.90149 22.4823 5.47215 22.2198C5.01949 21.9445 4.75 21.4533 4.75 20.9073V9.03411C4.75 7.99345 5.30884 7.0601 6.20951 6.5981L10 4.65214V20.7381C9.80633 20.7941 9.61383 20.8548 9.43183 20.9493L6.85234 22.2711ZM12.3193 20.9469C12.1373 20.8535 11.9437 20.7917 11.75 20.7357V4.64971L16.4307 7.05312C16.6127 7.14645 16.8063 7.20818 17 7.26418V23.3503L12.3193 20.9469ZM24 18.9683C24 20.009 23.4412 20.9422 22.5405 21.4042L18.75 23.3503V7.26418C18.9437 7.20818 19.1362 7.14762 19.3182 7.05312L21.8965 5.72894C22.3445 5.4991 22.8473 5.51771 23.2767 5.78021C23.7293 6.05554 23.9988 6.54671 23.9988 7.09271V18.9683H24Z" fill="#41416E"></path> </svg> 