<?xml version="1.0" encoding="UTF-8"?> <svg xmlns="http://www.w3.org/2000/svg" width="24" height="24" viewBox="0 0 24 24" fill="none"> <path d="M21.7051 9.97921C20.9221 6.09421 17.9061 3.07715 14.0191 2.29415C13.3561 2.16115 12.6711 2.33019 12.1461 2.76119C11.6211 3.19219 11.3191 3.82718 11.3191 4.50618V9.93026C11.3191 11.4463 12.5521 12.6803 14.0691 12.6803H19.4931C20.1721 12.6803 20.8071 12.3783 21.2381 11.8523C21.6691 11.3263 21.8391 10.6442 21.7051 9.97921ZM20.0771 10.9032C19.9321 11.0802 19.7201 11.1812 19.4931 11.1812H14.0691C13.3801 11.1812 12.8191 10.6202 12.8191 9.93123V4.50716C12.8191 4.28016 12.9211 4.06818 13.0961 3.92318C13.2341 3.81118 13.4031 3.75118 13.5751 3.75118C13.6251 3.75118 13.6751 3.75619 13.7231 3.76619C17.0151 4.43019 19.5711 6.9852 20.2341 10.2762C20.2791 10.4972 20.2221 10.7262 20.0771 10.9032ZM20.3381 15.2192C19.1481 19.1262 15.5961 21.7502 11.5001 21.7502C6.39912 21.7502 2.25012 17.6012 2.25012 12.5002C2.25012 8.4042 4.87513 4.85217 8.78113 3.66317C9.18013 3.54117 9.59614 3.76619 9.71814 4.16219C9.83814 4.55819 9.61512 4.97722 9.21912 5.09822C5.94812 6.09522 3.75012 9.06918 3.75012 12.5012C3.75012 16.7742 7.22712 20.2512 11.5001 20.2512C14.9311 20.2512 17.9061 18.0532 18.9021 14.7822C19.0231 14.3862 19.4391 14.1622 19.8391 14.2832C20.2351 14.4032 20.4581 14.8222 20.3381 15.2192Z" fill="#41416E"></path> </svg> 