<?xml version="1.0" encoding="UTF-8"?> <svg xmlns="http://www.w3.org/2000/svg" width="28" height="28" viewBox="0 0 28 28" fill="none"> <path d="M23.6827 8.53463L17.8493 3.84298C15.8357 2.22426 12.9143 2.22426 10.9007 3.84298L5.06734 8.53463C3.75367 9.59083 3 11.1629 3 12.8481V19.8412C3 22.8942 5.48617 25.3789 8.54167 25.3789H11.75V19.8412C11.75 18.3964 12.9272 17.22 14.375 17.22C15.8228 17.22 17 18.3964 17 19.8412V25.3789H20.2083C23.2638 25.3789 25.75 22.8954 25.75 19.8412V12.8481C25.75 11.1629 24.9963 9.59083 23.6827 8.53463ZM24 19.8412C24 21.9291 22.299 23.6283 20.2083 23.6283H18.75V19.8412C18.75 17.4312 16.7877 15.4693 14.375 15.4693C11.9623 15.4693 10 17.4312 10 19.8412V23.6283H8.54167C6.451 23.6283 4.75 21.9291 4.75 19.8412V12.8481C4.75 11.6962 5.2645 10.6214 6.16283 9.89894L11.9962 5.20729C13.3752 4.09974 15.3748 4.09974 16.7527 5.20729L22.586 9.89894C23.4843 10.6214 23.9988 11.6962 23.9988 12.8481V19.8412H24Z" fill="#55B2EB"></path> </svg> 