<?xml version="1.0" encoding="UTF-8"?> <svg xmlns="http://www.w3.org/2000/svg" width="122" height="16" viewBox="0 0 122 16" fill="none"> <path d="M9.08 12.78V15H0.61V0.539999H3.3V12.78H9.08ZM16.6933 8.69C16.6933 8.37 16.6466 8.07 16.5533 7.79C16.4666 7.50333 16.3333 7.25333 16.1533 7.04C15.9733 6.82667 15.7433 6.66 15.4633 6.54C15.1899 6.41333 14.8699 6.35 14.5033 6.35C13.7899 6.35 13.2266 6.55333 12.8133 6.96C12.4066 7.36667 12.1466 7.94333 12.0333 8.69H16.6933ZM11.9833 10.18C12.0233 10.7067 12.1166 11.1633 12.2633 11.55C12.4099 11.93 12.6033 12.2467 12.8433 12.5C13.0833 12.7467 13.3666 12.9333 13.6933 13.06C14.0266 13.18 14.3933 13.24 14.7933 13.24C15.1933 13.24 15.5366 13.1933 15.8233 13.1C16.1166 13.0067 16.3699 12.9033 16.5833 12.79C16.8033 12.6767 16.9933 12.5733 17.1533 12.48C17.3199 12.3867 17.4799 12.34 17.6333 12.34C17.8399 12.34 17.9933 12.4167 18.0933 12.57L18.8033 13.47C18.5299 13.79 18.2233 14.06 17.8833 14.28C17.5433 14.4933 17.1866 14.6667 16.8133 14.8C16.4466 14.9267 16.0699 15.0167 15.6833 15.07C15.3033 15.1233 14.9333 15.15 14.5733 15.15C13.8599 15.15 13.1966 15.0333 12.5833 14.8C11.9699 14.56 11.4366 14.21 10.9833 13.75C10.5299 13.2833 10.1733 12.71 9.91328 12.03C9.65328 11.3433 9.52328 10.55 9.52328 9.65C9.52328 8.95 9.63661 8.29333 9.86328 7.68C10.0899 7.06 10.4133 6.52333 10.8333 6.07C11.2599 5.61 11.7766 5.24667 12.3833 4.98C12.9966 4.71333 13.6866 4.58 14.4533 4.58C15.0999 4.58 15.6966 4.68333 16.2433 4.89C16.7899 5.09667 17.2599 5.4 17.6533 5.8C18.0466 6.19333 18.3533 6.68 18.5733 7.26C18.7999 7.83333 18.9133 8.49 18.9133 9.23C18.9133 9.60333 18.8733 9.85667 18.7933 9.99C18.7133 10.1167 18.5599 10.18 18.3333 10.18H11.9833ZM23.0769 6C23.2835 5.79333 23.5002 5.60333 23.7269 5.43C23.9602 5.25 24.2035 5.1 24.4569 4.98C24.7169 4.85333 24.9935 4.75667 25.2869 4.69C25.5802 4.61667 25.9002 4.58 26.2469 4.58C26.8069 4.58 27.3035 4.67667 27.7369 4.87C28.1702 5.05667 28.5302 5.32333 28.8169 5.67C29.1102 6.01 29.3302 6.42 29.4769 6.9C29.6302 7.37333 29.7069 7.89667 29.7069 8.47V15H27.2369V8.47C27.2369 7.84333 27.0935 7.36 26.8069 7.02C26.5202 6.67333 26.0835 6.5 25.4969 6.5C25.0702 6.5 24.6702 6.59667 24.2969 6.79C23.9235 6.98333 23.5702 7.24667 23.2369 7.58V15H20.7669V4.74H22.2769C22.5969 4.74 22.8069 4.89 22.9069 5.19L23.0769 6ZM37.4759 10.62C36.7626 10.6533 36.1626 10.7167 35.6759 10.81C35.1893 10.8967 34.7993 11.01 34.5059 11.15C34.2126 11.29 34.0026 11.4533 33.8759 11.64C33.7493 11.8267 33.6859 12.03 33.6859 12.25C33.6859 12.6833 33.8126 12.9933 34.0659 13.18C34.3259 13.3667 34.6626 13.46 35.0759 13.46C35.5826 13.46 36.0193 13.37 36.3859 13.19C36.7593 13.0033 37.1226 12.7233 37.4759 12.35V10.62ZM31.8159 6.17C32.9959 5.09 34.4159 4.55 36.0759 4.55C36.6759 4.55 37.2126 4.65 37.6859 4.85C38.1593 5.04333 38.5593 5.31667 38.8859 5.67C39.2126 6.01667 39.4593 6.43333 39.6259 6.92C39.7993 7.40667 39.8859 7.94 39.8859 8.52V15H38.7659C38.5326 15 38.3526 14.9667 38.2259 14.9C38.0993 14.8267 37.9993 14.6833 37.9259 14.47L37.7059 13.73C37.4459 13.9633 37.1926 14.17 36.9459 14.35C36.6993 14.5233 36.4426 14.67 36.1759 14.79C35.9093 14.91 35.6226 15 35.3159 15.06C35.0159 15.1267 34.6826 15.16 34.3159 15.16C33.8826 15.16 33.4826 15.1033 33.1159 14.99C32.7493 14.87 32.4326 14.6933 32.1659 14.46C31.8993 14.2267 31.6926 13.9367 31.5459 13.59C31.3993 13.2433 31.3259 12.84 31.3259 12.38C31.3259 12.12 31.3693 11.8633 31.4559 11.61C31.5426 11.35 31.6826 11.1033 31.8759 10.87C32.0759 10.6367 32.3326 10.4167 32.6459 10.21C32.9593 10.0033 33.3426 9.82333 33.7959 9.67C34.2559 9.51667 34.7893 9.39333 35.3959 9.3C36.0026 9.2 36.6959 9.14 37.4759 9.12V8.52C37.4759 7.83333 37.3293 7.32667 37.0359 7C36.7426 6.66667 36.3193 6.5 35.7659 6.5C35.3659 6.5 35.0326 6.54667 34.7659 6.64C34.5059 6.73333 34.2759 6.84 34.0759 6.96C33.8759 7.07333 33.6926 7.17667 33.5259 7.27C33.3659 7.36333 33.1859 7.41 32.9859 7.41C32.8126 7.41 32.6659 7.36667 32.5459 7.28C32.4259 7.18667 32.3293 7.08 32.2559 6.96L31.8159 6.17ZM50.1555 6.6H50.7855C51.0388 6.6 51.2488 6.56667 51.4155 6.5C51.5821 6.42667 51.7255 6.31333 51.8455 6.16L55.8355 1.11C56.0021 0.896666 56.1755 0.749999 56.3555 0.669999C56.5421 0.583332 56.7755 0.539999 57.0555 0.539999H59.3755L54.5055 6.55C54.2188 6.91667 53.9221 7.17667 53.6155 7.33C53.8355 7.41 54.0321 7.52333 54.2055 7.67C54.3855 7.81 54.5555 7.99667 54.7155 8.23L59.7355 15H57.3655C57.0455 15 56.8055 14.9567 56.6455 14.87C56.4921 14.7767 56.3621 14.6433 56.2555 14.47L52.1655 9.13C52.0388 8.95 51.8921 8.82333 51.7255 8.75C51.5588 8.67667 51.3188 8.64 51.0055 8.64H50.1555V15H47.4655V0.539999H50.1555V6.6ZM66.1673 10.62C65.454 10.6533 64.854 10.7167 64.3673 10.81C63.8807 10.8967 63.4907 11.01 63.1973 11.15C62.904 11.29 62.694 11.4533 62.5673 11.64C62.4407 11.8267 62.3773 12.03 62.3773 12.25C62.3773 12.6833 62.504 12.9933 62.7573 13.18C63.0173 13.3667 63.354 13.46 63.7673 13.46C64.274 13.46 64.7107 13.37 65.0773 13.19C65.4507 13.0033 65.814 12.7233 66.1673 12.35V10.62ZM60.5073 6.17C61.6873 5.09 63.1073 4.55 64.7673 4.55C65.3673 4.55 65.904 4.65 66.3773 4.85C66.8507 5.04333 67.2507 5.31667 67.5773 5.67C67.904 6.01667 68.1507 6.43333 68.3173 6.92C68.4907 7.40667 68.5773 7.94 68.5773 8.52V15H67.4573C67.224 15 67.044 14.9667 66.9173 14.9C66.7907 14.8267 66.6907 14.6833 66.6173 14.47L66.3973 13.73C66.1373 13.9633 65.884 14.17 65.6373 14.35C65.3907 14.5233 65.134 14.67 64.8673 14.79C64.6007 14.91 64.314 15 64.0073 15.06C63.7073 15.1267 63.374 15.16 63.0073 15.16C62.574 15.16 62.174 15.1033 61.8073 14.99C61.4407 14.87 61.124 14.6933 60.8573 14.46C60.5907 14.2267 60.384 13.9367 60.2373 13.59C60.0907 13.2433 60.0173 12.84 60.0173 12.38C60.0173 12.12 60.0607 11.8633 60.1473 11.61C60.234 11.35 60.374 11.1033 60.5673 10.87C60.7673 10.6367 61.024 10.4167 61.3373 10.21C61.6507 10.0033 62.034 9.82333 62.4873 9.67C62.9473 9.51667 63.4807 9.39333 64.0873 9.3C64.694 9.2 65.3873 9.14 66.1673 9.12V8.52C66.1673 7.83333 66.0207 7.32667 65.7273 7C65.434 6.66667 65.0107 6.5 64.4573 6.5C64.0573 6.5 63.724 6.54667 63.4573 6.64C63.1973 6.73333 62.9673 6.84 62.7673 6.96C62.5673 7.07333 62.384 7.17667 62.2173 7.27C62.0573 7.36333 61.8773 7.41 61.6773 7.41C61.504 7.41 61.3573 7.36667 61.2373 7.28C61.1173 7.18667 61.0207 7.08 60.9473 6.96L60.5073 6.17ZM77.3436 7.36C77.0636 7.02 76.7569 6.78 76.4236 6.64C76.0969 6.5 75.7436 6.43 75.3636 6.43C74.9903 6.43 74.6536 6.5 74.3536 6.64C74.0536 6.78 73.7969 6.99333 73.5836 7.28C73.3703 7.56 73.2069 7.92 73.0936 8.36C72.9803 8.79333 72.9236 9.30667 72.9236 9.9C72.9236 10.5 72.9703 11.01 73.0636 11.43C73.1636 11.8433 73.3036 12.1833 73.4836 12.45C73.6636 12.71 73.8836 12.9 74.1436 13.02C74.4036 13.1333 74.6936 13.19 75.0136 13.19C75.5269 13.19 75.9636 13.0833 76.3236 12.87C76.6836 12.6567 77.0236 12.3533 77.3436 11.96V7.36ZM79.8136 0.139999V15H78.3036C77.9769 15 77.7703 14.85 77.6836 14.55L77.4736 13.56C77.0603 14.0333 76.5836 14.4167 76.0436 14.71C75.5103 15.0033 74.8869 15.15 74.1736 15.15C73.6136 15.15 73.1003 15.0333 72.6336 14.8C72.1669 14.5667 71.7636 14.23 71.4236 13.79C71.0903 13.3433 70.8303 12.7933 70.6436 12.14C70.4636 11.4867 70.3736 10.74 70.3736 9.9C70.3736 9.14 70.4769 8.43333 70.6836 7.78C70.8903 7.12667 71.1869 6.56 71.5736 6.08C71.9603 5.6 72.4236 5.22667 72.9636 4.96C73.5036 4.68667 74.1103 4.55 74.7836 4.55C75.3569 4.55 75.8469 4.64 76.2536 4.82C76.6603 5 77.0236 5.24333 77.3436 5.55V0.139999H79.8136ZM84.8113 4.74V15H82.3313V4.74H84.8113ZM85.1513 1.75C85.1513 1.96333 85.1079 2.16333 85.0213 2.35C84.9346 2.53667 84.8179 2.7 84.6713 2.84C84.5313 2.98 84.3646 3.09333 84.1713 3.18C83.9779 3.26 83.7713 3.3 83.5513 3.3C83.3379 3.3 83.1346 3.26 82.9413 3.18C82.7546 3.09333 82.5913 2.98 82.4513 2.84C82.3113 2.7 82.1979 2.53667 82.1113 2.35C82.0313 2.16333 81.9913 1.96333 81.9913 1.75C81.9913 1.53 82.0313 1.32333 82.1113 1.13C82.1979 0.936666 82.3113 0.77 82.4513 0.63C82.5913 0.489999 82.7546 0.379999 82.9413 0.3C83.1346 0.213333 83.3379 0.17 83.5513 0.17C83.7713 0.17 83.9779 0.213333 84.1713 0.3C84.3646 0.379999 84.5313 0.489999 84.6713 0.63C84.8179 0.77 84.9346 0.936666 85.0213 1.13C85.1079 1.32333 85.1513 1.53 85.1513 1.75ZM89.8294 0.139999V15H87.3594V0.139999H89.8294ZM96.8303 4.58C97.5903 4.58 98.2803 4.70333 98.9003 4.95C99.527 5.19667 100.06 5.54667 100.5 6C100.947 6.45333 101.29 7.00667 101.53 7.66C101.77 8.31333 101.89 9.04333 101.89 9.85C101.89 10.6633 101.77 11.3967 101.53 12.05C101.29 12.7033 100.947 13.26 100.5 13.72C100.06 14.18 99.527 14.5333 98.9003 14.78C98.2803 15.0267 97.5903 15.15 96.8303 15.15C96.0636 15.15 95.367 15.0267 94.7403 14.78C94.1136 14.5333 93.577 14.18 93.1303 13.72C92.6903 13.26 92.347 12.7033 92.1003 12.05C91.8603 11.3967 91.7403 10.6633 91.7403 9.85C91.7403 9.04333 91.8603 8.31333 92.1003 7.66C92.347 7.00667 92.6903 6.45333 93.1303 6C93.577 5.54667 94.1136 5.19667 94.7403 4.95C95.367 4.70333 96.0636 4.58 96.8303 4.58ZM96.8303 13.25C97.6836 13.25 98.3136 12.9633 98.7203 12.39C99.1336 11.8167 99.3403 10.9767 99.3403 9.87C99.3403 8.76333 99.1336 7.92 98.7203 7.34C98.3136 6.76 97.6836 6.47 96.8303 6.47C95.9636 6.47 95.3203 6.76333 94.9003 7.35C94.487 7.93 94.2803 8.77 94.2803 9.87C94.2803 10.97 94.487 11.81 94.9003 12.39C95.3203 12.9633 95.9636 13.25 96.8303 13.25ZM112.712 4.74L108.642 15H106.402L102.332 4.74H104.372C104.559 4.74 104.712 4.78333 104.832 4.87C104.959 4.95667 105.042 5.06667 105.082 5.2L107.062 10.68C107.169 11 107.262 11.3133 107.342 11.62C107.422 11.9267 107.492 12.2333 107.552 12.54C107.619 12.2333 107.692 11.9267 107.772 11.62C107.852 11.3133 107.949 11 108.062 10.68L110.082 5.2C110.129 5.06667 110.212 4.95667 110.332 4.87C110.452 4.78333 110.596 4.74 110.762 4.74H112.712ZM119.195 10.62C118.481 10.6533 117.881 10.7167 117.395 10.81C116.908 10.8967 116.518 11.01 116.225 11.15C115.931 11.29 115.721 11.4533 115.595 11.64C115.468 11.8267 115.405 12.03 115.405 12.25C115.405 12.6833 115.531 12.9933 115.785 13.18C116.045 13.3667 116.381 13.46 116.795 13.46C117.301 13.46 117.738 13.37 118.105 13.19C118.478 13.0033 118.841 12.7233 119.195 12.35V10.62ZM113.535 6.17C114.715 5.09 116.135 4.55 117.795 4.55C118.395 4.55 118.931 4.65 119.405 4.85C119.878 5.04333 120.278 5.31667 120.605 5.67C120.931 6.01667 121.178 6.43333 121.345 6.92C121.518 7.40667 121.605 7.94 121.605 8.52V15H120.485C120.251 15 120.071 14.9667 119.945 14.9C119.818 14.8267 119.718 14.6833 119.645 14.47L119.425 13.73C119.165 13.9633 118.911 14.17 118.665 14.35C118.418 14.5233 118.161 14.67 117.895 14.79C117.628 14.91 117.341 15 117.035 15.06C116.735 15.1267 116.401 15.16 116.035 15.16C115.601 15.16 115.201 15.1033 114.835 14.99C114.468 14.87 114.151 14.6933 113.885 14.46C113.618 14.2267 113.411 13.9367 113.265 13.59C113.118 13.2433 113.045 12.84 113.045 12.38C113.045 12.12 113.088 11.8633 113.175 11.61C113.261 11.35 113.401 11.1033 113.595 10.87C113.795 10.6367 114.051 10.4167 114.365 10.21C114.678 10.0033 115.061 9.82333 115.515 9.67C115.975 9.51667 116.508 9.39333 117.115 9.3C117.721 9.2 118.415 9.14 119.195 9.12V8.52C119.195 7.83333 119.048 7.32667 118.755 7C118.461 6.66667 118.038 6.5 117.485 6.5C117.085 6.5 116.751 6.54667 116.485 6.64C116.225 6.73333 115.995 6.84 115.795 6.96C115.595 7.07333 115.411 7.17667 115.245 7.27C115.085 7.36333 114.905 7.41 114.705 7.41C114.531 7.41 114.385 7.36667 114.265 7.28C114.145 7.18667 114.048 7.08 113.975 6.96L113.535 6.17Z" fill="#FFDA92"></path> <path d="M9.08 12.78V15H0.61V0.539999H3.3V12.78H9.08ZM16.6933 8.69C16.6933 8.37 16.6466 8.07 16.5533 7.79C16.4666 7.50333 16.3333 7.25333 16.1533 7.04C15.9733 6.82667 15.7433 6.66 15.4633 6.54C15.1899 6.41333 14.8699 6.35 14.5033 6.35C13.7899 6.35 13.2266 6.55333 12.8133 6.96C12.4066 7.36667 12.1466 7.94333 12.0333 8.69H16.6933ZM11.9833 10.18C12.0233 10.7067 12.1166 11.1633 12.2633 11.55C12.4099 11.93 12.6033 12.2467 12.8433 12.5C13.0833 12.7467 13.3666 12.9333 13.6933 13.06C14.0266 13.18 14.3933 13.24 14.7933 13.24C15.1933 13.24 15.5366 13.1933 15.8233 13.1C16.1166 13.0067 16.3699 12.9033 16.5833 12.79C16.8033 12.6767 16.9933 12.5733 17.1533 12.48C17.3199 12.3867 17.4799 12.34 17.6333 12.34C17.8399 12.34 17.9933 12.4167 18.0933 12.57L18.8033 13.47C18.5299 13.79 18.2233 14.06 17.8833 14.28C17.5433 14.4933 17.1866 14.6667 16.8133 14.8C16.4466 14.9267 16.0699 15.0167 15.6833 15.07C15.3033 15.1233 14.9333 15.15 14.5733 15.15C13.8599 15.15 13.1966 15.0333 12.5833 14.8C11.9699 14.56 11.4366 14.21 10.9833 13.75C10.5299 13.2833 10.1733 12.71 9.91328 12.03C9.65328 11.3433 9.52328 10.55 9.52328 9.65C9.52328 8.95 9.63661 8.29333 9.86328 7.68C10.0899 7.06 10.4133 6.52333 10.8333 6.07C11.2599 5.61 11.7766 5.24667 12.3833 4.98C12.9966 4.71333 13.6866 4.58 14.4533 4.58C15.0999 4.58 15.6966 4.68333 16.2433 4.89C16.7899 5.09667 17.2599 5.4 17.6533 5.8C18.0466 6.19333 18.3533 6.68 18.5733 7.26C18.7999 7.83333 18.9133 8.49 18.9133 9.23C18.9133 9.60333 18.8733 9.85667 18.7933 9.99C18.7133 10.1167 18.5599 10.18 18.3333 10.18H11.9833ZM23.0769 6C23.2835 5.79333 23.5002 5.60333 23.7269 5.43C23.9602 5.25 24.2035 5.1 24.4569 4.98C24.7169 4.85333 24.9935 4.75667 25.2869 4.69C25.5802 4.61667 25.9002 4.58 26.2469 4.58C26.8069 4.58 27.3035 4.67667 27.7369 4.87C28.1702 5.05667 28.5302 5.32333 28.8169 5.67C29.1102 6.01 29.3302 6.42 29.4769 6.9C29.6302 7.37333 29.7069 7.89667 29.7069 8.47V15H27.2369V8.47C27.2369 7.84333 27.0935 7.36 26.8069 7.02C26.5202 6.67333 26.0835 6.5 25.4969 6.5C25.0702 6.5 24.6702 6.59667 24.2969 6.79C23.9235 6.98333 23.5702 7.24667 23.2369 7.58V15H20.7669V4.74H22.2769C22.5969 4.74 22.8069 4.89 22.9069 5.19L23.0769 6ZM37.4759 10.62C36.7626 10.6533 36.1626 10.7167 35.6759 10.81C35.1893 10.8967 34.7993 11.01 34.5059 11.15C34.2126 11.29 34.0026 11.4533 33.8759 11.64C33.7493 11.8267 33.6859 12.03 33.6859 12.25C33.6859 12.6833 33.8126 12.9933 34.0659 13.18C34.3259 13.3667 34.6626 13.46 35.0759 13.46C35.5826 13.46 36.0193 13.37 36.3859 13.19C36.7593 13.0033 37.1226 12.7233 37.4759 12.35V10.62ZM31.8159 6.17C32.9959 5.09 34.4159 4.55 36.0759 4.55C36.6759 4.55 37.2126 4.65 37.6859 4.85C38.1593 5.04333 38.5593 5.31667 38.8859 5.67C39.2126 6.01667 39.4593 6.43333 39.6259 6.92C39.7993 7.40667 39.8859 7.94 39.8859 8.52V15H38.7659C38.5326 15 38.3526 14.9667 38.2259 14.9C38.0993 14.8267 37.9993 14.6833 37.9259 14.47L37.7059 13.73C37.4459 13.9633 37.1926 14.17 36.9459 14.35C36.6993 14.5233 36.4426 14.67 36.1759 14.79C35.9093 14.91 35.6226 15 35.3159 15.06C35.0159 15.1267 34.6826 15.16 34.3159 15.16C33.8826 15.16 33.4826 15.1033 33.1159 14.99C32.7493 14.87 32.4326 14.6933 32.1659 14.46C31.8993 14.2267 31.6926 13.9367 31.5459 13.59C31.3993 13.2433 31.3259 12.84 31.3259 12.38C31.3259 12.12 31.3693 11.8633 31.4559 11.61C31.5426 11.35 31.6826 11.1033 31.8759 10.87C32.0759 10.6367 32.3326 10.4167 32.6459 10.21C32.9593 10.0033 33.3426 9.82333 33.7959 9.67C34.2559 9.51667 34.7893 9.39333 35.3959 9.3C36.0026 9.2 36.6959 9.14 37.4759 9.12V8.52C37.4759 7.83333 37.3293 7.32667 37.0359 7C36.7426 6.66667 36.3193 6.5 35.7659 6.5C35.3659 6.5 35.0326 6.54667 34.7659 6.64C34.5059 6.73333 34.2759 6.84 34.0759 6.96C33.8759 7.07333 33.6926 7.17667 33.5259 7.27C33.3659 7.36333 33.1859 7.41 32.9859 7.41C32.8126 7.41 32.6659 7.36667 32.5459 7.28C32.4259 7.18667 32.3293 7.08 32.2559 6.96L31.8159 6.17ZM50.1555 6.6H50.7855C51.0388 6.6 51.2488 6.56667 51.4155 6.5C51.5821 6.42667 51.7255 6.31333 51.8455 6.16L55.8355 1.11C56.0021 0.896666 56.1755 0.749999 56.3555 0.669999C56.5421 0.583332 56.7755 0.539999 57.0555 0.539999H59.3755L54.5055 6.55C54.2188 6.91667 53.9221 7.17667 53.6155 7.33C53.8355 7.41 54.0321 7.52333 54.2055 7.67C54.3855 7.81 54.5555 7.99667 54.7155 8.23L59.7355 15H57.3655C57.0455 15 56.8055 14.9567 56.6455 14.87C56.4921 14.7767 56.3621 14.6433 56.2555 14.47L52.1655 9.13C52.0388 8.95 51.8921 8.82333 51.7255 8.75C51.5588 8.67667 51.3188 8.64 51.0055 8.64H50.1555V15H47.4655V0.539999H50.1555V6.6ZM66.1673 10.62C65.454 10.6533 64.854 10.7167 64.3673 10.81C63.8807 10.8967 63.4907 11.01 63.1973 11.15C62.904 11.29 62.694 11.4533 62.5673 11.64C62.4407 11.8267 62.3773 12.03 62.3773 12.25C62.3773 12.6833 62.504 12.9933 62.7573 13.18C63.0173 13.3667 63.354 13.46 63.7673 13.46C64.274 13.46 64.7107 13.37 65.0773 13.19C65.4507 13.0033 65.814 12.7233 66.1673 12.35V10.62ZM60.5073 6.17C61.6873 5.09 63.1073 4.55 64.7673 4.55C65.3673 4.55 65.904 4.65 66.3773 4.85C66.8507 5.04333 67.2507 5.31667 67.5773 5.67C67.904 6.01667 68.1507 6.43333 68.3173 6.92C68.4907 7.40667 68.5773 7.94 68.5773 8.52V15H67.4573C67.224 15 67.044 14.9667 66.9173 14.9C66.7907 14.8267 66.6907 14.6833 66.6173 14.47L66.3973 13.73C66.1373 13.9633 65.884 14.17 65.6373 14.35C65.3907 14.5233 65.134 14.67 64.8673 14.79C64.6007 14.91 64.314 15 64.0073 15.06C63.7073 15.1267 63.374 15.16 63.0073 15.16C62.574 15.16 62.174 15.1033 61.8073 14.99C61.4407 14.87 61.124 14.6933 60.8573 14.46C60.5907 14.2267 60.384 13.9367 60.2373 13.59C60.0907 13.2433 60.0173 12.84 60.0173 12.38C60.0173 12.12 60.0607 11.8633 60.1473 11.61C60.234 11.35 60.374 11.1033 60.5673 10.87C60.7673 10.6367 61.024 10.4167 61.3373 10.21C61.6507 10.0033 62.034 9.82333 62.4873 9.67C62.9473 9.51667 63.4807 9.39333 64.0873 9.3C64.694 9.2 65.3873 9.14 66.1673 9.12V8.52C66.1673 7.83333 66.0207 7.32667 65.7273 7C65.434 6.66667 65.0107 6.5 64.4573 6.5C64.0573 6.5 63.724 6.54667 63.4573 6.64C63.1973 6.73333 62.9673 6.84 62.7673 6.96C62.5673 7.07333 62.384 7.17667 62.2173 7.27C62.0573 7.36333 61.8773 7.41 61.6773 7.41C61.504 7.41 61.3573 7.36667 61.2373 7.28C61.1173 7.18667 61.0207 7.08 60.9473 6.96L60.5073 6.17ZM77.3436 7.36C77.0636 7.02 76.7569 6.78 76.4236 6.64C76.0969 6.5 75.7436 6.43 75.3636 6.43C74.9903 6.43 74.6536 6.5 74.3536 6.64C74.0536 6.78 73.7969 6.99333 73.5836 7.28C73.3703 7.56 73.2069 7.92 73.0936 8.36C72.9803 8.79333 72.9236 9.30667 72.9236 9.9C72.9236 10.5 72.9703 11.01 73.0636 11.43C73.1636 11.8433 73.3036 12.1833 73.4836 12.45C73.6636 12.71 73.8836 12.9 74.1436 13.02C74.4036 13.1333 74.6936 13.19 75.0136 13.19C75.5269 13.19 75.9636 13.0833 76.3236 12.87C76.6836 12.6567 77.0236 12.3533 77.3436 11.96V7.36ZM79.8136 0.139999V15H78.3036C77.9769 15 77.7703 14.85 77.6836 14.55L77.4736 13.56C77.0603 14.0333 76.5836 14.4167 76.0436 14.71C75.5103 15.0033 74.8869 15.15 74.1736 15.15C73.6136 15.15 73.1003 15.0333 72.6336 14.8C72.1669 14.5667 71.7636 14.23 71.4236 13.79C71.0903 13.3433 70.8303 12.7933 70.6436 12.14C70.4636 11.4867 70.3736 10.74 70.3736 9.9C70.3736 9.14 70.4769 8.43333 70.6836 7.78C70.8903 7.12667 71.1869 6.56 71.5736 6.08C71.9603 5.6 72.4236 5.22667 72.9636 4.96C73.5036 4.68667 74.1103 4.55 74.7836 4.55C75.3569 4.55 75.8469 4.64 76.2536 4.82C76.6603 5 77.0236 5.24333 77.3436 5.55V0.139999H79.8136ZM84.8113 4.74V15H82.3313V4.74H84.8113ZM85.1513 1.75C85.1513 1.96333 85.1079 2.16333 85.0213 2.35C84.9346 2.53667 84.8179 2.7 84.6713 2.84C84.5313 2.98 84.3646 3.09333 84.1713 3.18C83.9779 3.26 83.7713 3.3 83.5513 3.3C83.3379 3.3 83.1346 3.26 82.9413 3.18C82.7546 3.09333 82.5913 2.98 82.4513 2.84C82.3113 2.7 82.1979 2.53667 82.1113 2.35C82.0313 2.16333 81.9913 1.96333 81.9913 1.75C81.9913 1.53 82.0313 1.32333 82.1113 1.13C82.1979 0.936666 82.3113 0.77 82.4513 0.63C82.5913 0.489999 82.7546 0.379999 82.9413 0.3C83.1346 0.213333 83.3379 0.17 83.5513 0.17C83.7713 0.17 83.9779 0.213333 84.1713 0.3C84.3646 0.379999 84.5313 0.489999 84.6713 0.63C84.8179 0.77 84.9346 0.936666 85.0213 1.13C85.1079 1.32333 85.1513 1.53 85.1513 1.75ZM89.8294 0.139999V15H87.3594V0.139999H89.8294ZM96.8303 4.58C97.5903 4.58 98.2803 4.70333 98.9003 4.95C99.527 5.19667 100.06 5.54667 100.5 6C100.947 6.45333 101.29 7.00667 101.53 7.66C101.77 8.31333 101.89 9.04333 101.89 9.85C101.89 10.6633 101.77 11.3967 101.53 12.05C101.29 12.7033 100.947 13.26 100.5 13.72C100.06 14.18 99.527 14.5333 98.9003 14.78C98.2803 15.0267 97.5903 15.15 96.8303 15.15C96.0636 15.15 95.367 15.0267 94.7403 14.78C94.1136 14.5333 93.577 14.18 93.1303 13.72C92.6903 13.26 92.347 12.7033 92.1003 12.05C91.8603 11.3967 91.7403 10.6633 91.7403 9.85C91.7403 9.04333 91.8603 8.31333 92.1003 7.66C92.347 7.00667 92.6903 6.45333 93.1303 6C93.577 5.54667 94.1136 5.19667 94.7403 4.95C95.367 4.70333 96.0636 4.58 96.8303 4.58ZM96.8303 13.25C97.6836 13.25 98.3136 12.9633 98.7203 12.39C99.1336 11.8167 99.3403 10.9767 99.3403 9.87C99.3403 8.76333 99.1336 7.92 98.7203 7.34C98.3136 6.76 97.6836 6.47 96.8303 6.47C95.9636 6.47 95.3203 6.76333 94.9003 7.35C94.487 7.93 94.2803 8.77 94.2803 9.87C94.2803 10.97 94.487 11.81 94.9003 12.39C95.3203 12.9633 95.9636 13.25 96.8303 13.25ZM112.712 4.74L108.642 15H106.402L102.332 4.74H104.372C104.559 4.74 104.712 4.78333 104.832 4.87C104.959 4.95667 105.042 5.06667 105.082 5.2L107.062 10.68C107.169 11 107.262 11.3133 107.342 11.62C107.422 11.9267 107.492 12.2333 107.552 12.54C107.619 12.2333 107.692 11.9267 107.772 11.62C107.852 11.3133 107.949 11 108.062 10.68L110.082 5.2C110.129 5.06667 110.212 4.95667 110.332 4.87C110.452 4.78333 110.596 4.74 110.762 4.74H112.712ZM119.195 10.62C118.481 10.6533 117.881 10.7167 117.395 10.81C116.908 10.8967 116.518 11.01 116.225 11.15C115.931 11.29 115.721 11.4533 115.595 11.64C115.468 11.8267 115.405 12.03 115.405 12.25C115.405 12.6833 115.531 12.9933 115.785 13.18C116.045 13.3667 116.381 13.46 116.795 13.46C117.301 13.46 117.738 13.37 118.105 13.19C118.478 13.0033 118.841 12.7233 119.195 12.35V10.62ZM113.535 6.17C114.715 5.09 116.135 4.55 117.795 4.55C118.395 4.55 118.931 4.65 119.405 4.85C119.878 5.04333 120.278 5.31667 120.605 5.67C120.931 6.01667 121.178 6.43333 121.345 6.92C121.518 7.40667 121.605 7.94 121.605 8.52V15H120.485C120.251 15 120.071 14.9667 119.945 14.9C119.818 14.8267 119.718 14.6833 119.645 14.47L119.425 13.73C119.165 13.9633 118.911 14.17 118.665 14.35C118.418 14.5233 118.161 14.67 117.895 14.79C117.628 14.91 117.341 15 117.035 15.06C116.735 15.1267 116.401 15.16 116.035 15.16C115.601 15.16 115.201 15.1033 114.835 14.99C114.468 14.87 114.151 14.6933 113.885 14.46C113.618 14.2267 113.411 13.9367 113.265 13.59C113.118 13.2433 113.045 12.84 113.045 12.38C113.045 12.12 113.088 11.8633 113.175 11.61C113.261 11.35 113.401 11.1033 113.595 10.87C113.795 10.6367 114.051 10.4167 114.365 10.21C114.678 10.0033 115.061 9.82333 115.515 9.67C115.975 9.51667 116.508 9.39333 117.115 9.3C117.721 9.2 118.415 9.14 119.195 9.12V8.52C119.195 7.83333 119.048 7.32667 118.755 7C118.461 6.66667 118.038 6.5 117.485 6.5C117.085 6.5 116.751 6.54667 116.485 6.64C116.225 6.73333 115.995 6.84 115.795 6.96C115.595 7.07333 115.411 7.17667 115.245 7.27C115.085 7.36333 114.905 7.41 114.705 7.41C114.531 7.41 114.385 7.36667 114.265 7.28C114.145 7.18667 114.048 7.08 113.975 6.96L113.535 6.17Z" fill="url(#paint0_linear_145_137)"></path> <defs> <linearGradient id="paint0_linear_145_137" x1="105.081" y1="-11.0706" x2="54.4635" y2="46.7613" gradientUnits="userSpaceOnUse"> <stop stop-color="#FFE8CA"></stop> <stop offset="0.260417" stop-color="#FFE0E3"></stop> <stop offset="0.442708" stop-color="#FFC9ED"></stop> <stop offset="0.697917" stop-color="#C8BDFB"></stop> <stop offset="0.947917" stop-color="#A7C7FF"></stop> </linearGradient> </defs> </svg> 