<?xml version="1.0" encoding="UTF-8"?> <svg xmlns="http://www.w3.org/2000/svg" width="111" height="15" viewBox="0 0 111 15" fill="none"> <path d="M11.336 12H9.672C9.48533 12 9.33067 11.9547 9.208 11.864C9.09067 11.768 9.00533 11.6507 8.952 11.512L8.088 9.152H3.296L2.432 11.512C2.38933 11.6347 2.304 11.7467 2.176 11.848C2.05333 11.9493 1.90133 12 1.72 12H0.048L4.592 0.431999H6.792L11.336 12ZM3.848 7.632H7.536L6.128 3.784C6.064 3.61333 5.992 3.41333 5.912 3.184C5.83733 2.94933 5.76267 2.696 5.688 2.424C5.61333 2.696 5.53867 2.94933 5.464 3.184C5.39467 3.41867 5.32533 3.624 5.256 3.8L3.848 7.632ZM17.2874 5.392C17.234 5.47733 17.178 5.53867 17.1194 5.576C17.0607 5.608 16.986 5.624 16.8954 5.624C16.7994 5.624 16.6954 5.59733 16.5834 5.544C16.4767 5.49067 16.3514 5.432 16.2074 5.368C16.0634 5.29867 15.898 5.23733 15.7114 5.184C15.53 5.13067 15.314 5.104 15.0634 5.104C14.674 5.104 14.3674 5.18667 14.1434 5.352C13.9194 5.51733 13.8074 5.73333 13.8074 6C13.8074 6.176 13.8634 6.32533 13.9754 6.448C14.0927 6.56533 14.2447 6.66933 14.4314 6.76C14.6234 6.85067 14.8394 6.93333 15.0794 7.008C15.3194 7.07733 15.5647 7.15467 15.8154 7.24C16.066 7.32533 16.3114 7.424 16.5514 7.536C16.7914 7.64267 17.0047 7.78133 17.1914 7.952C17.3834 8.11733 17.5354 8.31733 17.6474 8.552C17.7647 8.78667 17.8234 9.06933 17.8234 9.4C17.8234 9.79467 17.7514 10.16 17.6074 10.496C17.4634 10.8267 17.2527 11.1147 16.9754 11.36C16.698 11.6 16.354 11.7893 15.9434 11.928C15.538 12.0613 15.0714 12.128 14.5434 12.128C14.2607 12.128 13.9834 12.1013 13.7114 12.048C13.4447 12 13.186 11.9307 12.9354 11.84C12.69 11.7493 12.4607 11.6427 12.2474 11.52C12.0394 11.3973 11.8554 11.264 11.6954 11.12L12.1514 10.368C12.21 10.2773 12.2794 10.208 12.3594 10.16C12.4394 10.112 12.5407 10.088 12.6634 10.088C12.786 10.088 12.9007 10.1227 13.0074 10.192C13.1194 10.2613 13.2474 10.336 13.3914 10.416C13.5354 10.496 13.7034 10.5707 13.8954 10.64C14.0927 10.7093 14.3407 10.744 14.6394 10.744C14.874 10.744 15.074 10.7173 15.2394 10.664C15.41 10.6053 15.5487 10.5307 15.6554 10.44C15.7674 10.3493 15.8474 10.2453 15.8954 10.128C15.9487 10.0053 15.9754 9.88 15.9754 9.752C15.9754 9.56 15.9167 9.40267 15.7994 9.28C15.6874 9.15733 15.5354 9.05067 15.3434 8.96C15.1567 8.86933 14.9407 8.78933 14.6954 8.72C14.4554 8.64533 14.2074 8.56533 13.9514 8.48C13.7007 8.39467 13.4527 8.296 13.2074 8.184C12.9674 8.06667 12.7514 7.92 12.5594 7.744C12.3727 7.568 12.2207 7.352 12.1034 7.096C11.9914 6.84 11.9354 6.53067 11.9354 6.168C11.9354 5.832 12.002 5.512 12.1354 5.208C12.2687 4.904 12.4634 4.64 12.7194 4.416C12.9807 4.18667 13.3034 4.00533 13.6874 3.872C14.0767 3.73333 14.5247 3.664 15.0314 3.664C15.5967 3.664 16.1114 3.75733 16.5754 3.944C17.0394 4.13067 17.426 4.376 17.7354 4.68L17.2874 5.392ZM22.3118 14.256C22.2531 14.3947 22.1758 14.4987 22.0798 14.568C21.9891 14.6427 21.8478 14.68 21.6558 14.68H20.1838L21.7198 11.392L18.3998 3.792H20.1278C20.2878 3.792 20.4104 3.82933 20.4958 3.904C20.5811 3.97867 20.6451 4.064 20.6878 4.16L22.4398 8.416C22.4984 8.55467 22.5491 8.69867 22.5918 8.848C22.6344 8.99733 22.6718 9.14667 22.7038 9.296C22.7464 9.14133 22.7918 8.992 22.8398 8.848C22.8931 8.704 22.9491 8.55733 23.0078 8.408L24.6558 4.16C24.6984 4.05333 24.7678 3.96533 24.8638 3.896C24.9651 3.82667 25.0771 3.792 25.1998 3.792H26.7838L22.3118 14.256ZM34.363 12H33.475C33.2883 12 33.1417 11.9733 33.035 11.92C32.9283 11.8613 32.8483 11.7467 32.795 11.576L32.619 10.992C32.411 11.1787 32.2057 11.344 32.003 11.488C31.8057 11.6267 31.6003 11.744 31.387 11.84C31.1737 11.936 30.947 12.008 30.707 12.056C30.467 12.104 30.2003 12.128 29.907 12.128C29.5603 12.128 29.2403 12.0827 28.947 11.992C28.6537 11.896 28.4003 11.7547 28.187 11.568C27.979 11.3813 27.8163 11.1493 27.699 10.872C27.5817 10.5947 27.523 10.272 27.523 9.904C27.523 9.59467 27.603 9.29067 27.763 8.992C27.9283 8.688 28.2003 8.416 28.579 8.176C28.9577 7.93067 29.4617 7.728 30.091 7.568C30.7203 7.408 31.5017 7.31733 32.435 7.296V6.816C32.435 6.26667 32.3177 5.86133 32.083 5.6C31.8537 5.33333 31.5177 5.2 31.075 5.2C30.755 5.2 30.4883 5.23733 30.275 5.312C30.0617 5.38667 29.875 5.472 29.715 5.568C29.5603 5.65867 29.4163 5.74133 29.283 5.816C29.1497 5.89067 29.003 5.928 28.843 5.928C28.7097 5.928 28.595 5.89333 28.499 5.824C28.403 5.75467 28.3257 5.66933 28.267 5.568L27.907 4.936C28.851 4.072 29.9897 3.64 31.323 3.64C31.803 3.64 32.2297 3.72 32.603 3.88C32.9817 4.03467 33.3017 4.25333 33.563 4.536C33.8243 4.81333 34.0217 5.14667 34.155 5.536C34.2937 5.92533 34.363 6.352 34.363 6.816V12ZM30.523 10.768C30.7257 10.768 30.9123 10.7493 31.083 10.712C31.2537 10.6747 31.4137 10.6187 31.563 10.544C31.7177 10.4693 31.8643 10.3787 32.003 10.272C32.147 10.16 32.291 10.0293 32.435 9.88V8.496C31.859 8.52267 31.3763 8.57333 30.987 8.648C30.603 8.71733 30.2937 8.808 30.059 8.92C29.8243 9.032 29.6563 9.16267 29.555 9.312C29.459 9.46133 29.411 9.624 29.411 9.8C29.411 10.1467 29.5123 10.3947 29.715 10.544C29.923 10.6933 30.1923 10.768 30.523 10.768ZM41.7358 5.28H42.2398C42.4424 5.28 42.6104 5.25333 42.7438 5.2C42.8771 5.14133 42.9918 5.05067 43.0878 4.928L46.2798 0.888C46.4131 0.717333 46.5518 0.599999 46.6958 0.535999C46.8451 0.466666 47.0318 0.431999 47.2558 0.431999H49.1118L45.2158 5.24C45.0931 5.38933 44.9758 5.51467 44.8638 5.616C44.7518 5.71733 44.6318 5.8 44.5038 5.864C44.6798 5.928 44.8371 6.01867 44.9758 6.136C45.1198 6.25333 45.2584 6.40267 45.3918 6.584L49.4078 12H47.5038C47.2478 12 47.0558 11.9653 46.9278 11.896C46.8051 11.8213 46.7011 11.7147 46.6158 11.576L43.3438 7.304C43.2371 7.16533 43.1171 7.06667 42.9838 7.008C42.8504 6.944 42.6611 6.912 42.4158 6.912H41.7358V12H39.5838V0.424H41.7358V5.28ZM57.0036 12H56.1156C55.929 12 55.7823 11.9733 55.6756 11.92C55.569 11.8613 55.489 11.7467 55.4356 11.576L55.2596 10.992C55.0516 11.1787 54.8463 11.344 54.6436 11.488C54.4463 11.6267 54.241 11.744 54.0276 11.84C53.8143 11.936 53.5876 12.008 53.3476 12.056C53.1076 12.104 52.841 12.128 52.5476 12.128C52.201 12.128 51.881 12.0827 51.5876 11.992C51.2943 11.896 51.041 11.7547 50.8276 11.568C50.6196 11.3813 50.457 11.1493 50.3396 10.872C50.2223 10.5947 50.1636 10.272 50.1636 9.904C50.1636 9.59467 50.2436 9.29067 50.4036 8.992C50.569 8.688 50.841 8.416 51.2196 8.176C51.5983 7.93067 52.1023 7.728 52.7316 7.568C53.361 7.408 54.1423 7.31733 55.0756 7.296V6.816C55.0756 6.26667 54.9583 5.86133 54.7236 5.6C54.4943 5.33333 54.1583 5.2 53.7156 5.2C53.3956 5.2 53.129 5.23733 52.9156 5.312C52.7023 5.38667 52.5156 5.472 52.3556 5.568C52.201 5.65867 52.057 5.74133 51.9236 5.816C51.7903 5.89067 51.6436 5.928 51.4836 5.928C51.3503 5.928 51.2356 5.89333 51.1396 5.824C51.0436 5.75467 50.9663 5.66933 50.9076 5.568L50.5476 4.936C51.4916 4.072 52.6303 3.64 53.9636 3.64C54.4436 3.64 54.8703 3.72 55.2436 3.88C55.6223 4.03467 55.9423 4.25333 56.2036 4.536C56.465 4.81333 56.6623 5.14667 56.7956 5.536C56.9343 5.92533 57.0036 6.352 57.0036 6.816V12ZM53.1636 10.768C53.3663 10.768 53.553 10.7493 53.7236 10.712C53.8943 10.6747 54.0543 10.6187 54.2036 10.544C54.3583 10.4693 54.505 10.3787 54.6436 10.272C54.7876 10.16 54.9316 10.0293 55.0756 9.88V8.496C54.4996 8.52267 54.017 8.57333 53.6276 8.648C53.2436 8.71733 52.9343 8.808 52.6996 8.92C52.465 9.032 52.297 9.16267 52.1956 9.312C52.0996 9.46133 52.0516 9.624 52.0516 9.8C52.0516 10.1467 52.153 10.3947 52.3556 10.544C52.5636 10.6933 52.833 10.768 53.1636 10.768ZM58.9466 14.68V3.792H60.1546C60.2826 3.792 60.392 3.82133 60.4826 3.88C60.5733 3.93867 60.632 4.02933 60.6586 4.152L60.8186 4.912C61.1493 4.53333 61.528 4.22667 61.9546 3.992C62.3866 3.75733 62.8906 3.64 63.4666 3.64C63.9146 3.64 64.3226 3.73333 64.6906 3.92C65.064 4.10667 65.384 4.37867 65.6506 4.736C65.9226 5.088 66.1306 5.52533 66.2746 6.048C66.424 6.56533 66.4986 7.16 66.4986 7.832C66.4986 8.44533 66.416 9.01333 66.2506 9.536C66.0853 10.0587 65.848 10.512 65.5386 10.896C65.2346 11.28 64.864 11.5813 64.4266 11.8C63.9946 12.0133 63.5093 12.12 62.9706 12.12C62.5066 12.12 62.112 12.0507 61.7866 11.912C61.4666 11.768 61.1786 11.5707 60.9226 11.32V14.68H58.9466ZM62.7866 5.2C62.376 5.2 62.024 5.288 61.7306 5.464C61.4426 5.63467 61.1733 5.87733 60.9226 6.192V9.872C61.1466 10.1493 61.3893 10.344 61.6506 10.456C61.9173 10.5627 62.2026 10.616 62.5066 10.616C62.8053 10.616 63.0746 10.56 63.3146 10.448C63.56 10.336 63.7653 10.1653 63.9306 9.936C64.1013 9.70667 64.232 9.41867 64.3226 9.072C64.4133 8.72 64.4586 8.30667 64.4586 7.832C64.4586 7.352 64.4186 6.94667 64.3386 6.616C64.264 6.28 64.1546 6.008 64.0106 5.8C63.8666 5.592 63.6906 5.44 63.4826 5.344C63.28 5.248 63.048 5.2 62.7866 5.2ZM67.9935 12V3.792H69.1535C69.3562 3.792 69.4975 3.82933 69.5775 3.904C69.6575 3.97867 69.7108 4.10667 69.7375 4.288L69.8575 5.28C70.1508 4.77333 70.4948 4.37333 70.8895 4.08C71.2842 3.78667 71.7268 3.64 72.2175 3.64C72.6228 3.64 72.9588 3.73333 73.2255 3.92L72.9695 5.4C72.9535 5.496 72.9188 5.56533 72.8655 5.608C72.8122 5.64533 72.7402 5.664 72.6495 5.664C72.5695 5.664 72.4602 5.64533 72.3215 5.608C72.1828 5.57067 71.9988 5.552 71.7695 5.552C71.3588 5.552 71.0068 5.66667 70.7135 5.896C70.4202 6.12 70.1722 6.45067 69.9695 6.888V12H67.9935ZM80.7224 12H79.8344C79.6477 12 79.501 11.9733 79.3944 11.92C79.2877 11.8613 79.2077 11.7467 79.1544 11.576L78.9784 10.992C78.7704 11.1787 78.565 11.344 78.3624 11.488C78.165 11.6267 77.9597 11.744 77.7464 11.84C77.533 11.936 77.3064 12.008 77.0664 12.056C76.8264 12.104 76.5597 12.128 76.2664 12.128C75.9197 12.128 75.5997 12.0827 75.3064 11.992C75.013 11.896 74.7597 11.7547 74.5464 11.568C74.3384 11.3813 74.1757 11.1493 74.0584 10.872C73.941 10.5947 73.8824 10.272 73.8824 9.904C73.8824 9.59467 73.9624 9.29067 74.1224 8.992C74.2877 8.688 74.5597 8.416 74.9384 8.176C75.317 7.93067 75.821 7.728 76.4504 7.568C77.0797 7.408 77.861 7.31733 78.7944 7.296V6.816C78.7944 6.26667 78.677 5.86133 78.4424 5.6C78.213 5.33333 77.877 5.2 77.4344 5.2C77.1144 5.2 76.8477 5.23733 76.6344 5.312C76.421 5.38667 76.2344 5.472 76.0744 5.568C75.9197 5.65867 75.7757 5.74133 75.6424 5.816C75.509 5.89067 75.3624 5.928 75.2024 5.928C75.069 5.928 74.9544 5.89333 74.8584 5.824C74.7624 5.75467 74.685 5.66933 74.6264 5.568L74.2664 4.936C75.2104 4.072 76.349 3.64 77.6824 3.64C78.1624 3.64 78.589 3.72 78.9624 3.88C79.341 4.03467 79.661 4.25333 79.9224 4.536C80.1837 4.81333 80.381 5.14667 80.5144 5.536C80.653 5.92533 80.7224 6.352 80.7224 6.816V12ZM76.8824 10.768C77.085 10.768 77.2717 10.7493 77.4424 10.712C77.613 10.6747 77.773 10.6187 77.9224 10.544C78.077 10.4693 78.2237 10.3787 78.3624 10.272C78.5064 10.16 78.6504 10.0293 78.7944 9.88V8.496C78.2184 8.52267 77.7357 8.57333 77.3464 8.648C76.9624 8.71733 76.653 8.808 76.4184 8.92C76.1837 9.032 76.0157 9.16267 75.9144 9.312C75.8184 9.46133 75.7704 9.624 75.7704 9.8C75.7704 10.1467 75.8717 10.3947 76.0744 10.544C76.2824 10.6933 76.5517 10.768 76.8824 10.768ZM84.7694 0.112V12H82.7934V0.112H84.7694ZM90.5131 3.664C91.1265 3.664 91.6811 3.76267 92.1771 3.96C92.6785 4.15733 93.1051 4.43733 93.4571 4.8C93.8091 5.16267 94.0811 5.60533 94.2731 6.128C94.4651 6.65067 94.5611 7.23467 94.5611 7.88C94.5611 8.53067 94.4651 9.11733 94.2731 9.64C94.0811 10.1627 93.8091 10.608 93.4571 10.976C93.1051 11.344 92.6785 11.6267 92.1771 11.824C91.6811 12.0213 91.1265 12.12 90.5131 12.12C89.8998 12.12 89.3425 12.0213 88.8411 11.824C88.3398 11.6267 87.9105 11.344 87.5531 10.976C87.2011 10.608 86.9265 10.1627 86.7291 9.64C86.5371 9.11733 86.4411 8.53067 86.4411 7.88C86.4411 7.23467 86.5371 6.65067 86.7291 6.128C86.9265 5.60533 87.2011 5.16267 87.5531 4.8C87.9105 4.43733 88.3398 4.15733 88.8411 3.96C89.3425 3.76267 89.8998 3.664 90.5131 3.664ZM90.5131 10.6C91.1958 10.6 91.6998 10.3707 92.0251 9.912C92.3558 9.45333 92.5211 8.78133 92.5211 7.896C92.5211 7.01067 92.3558 6.336 92.0251 5.872C91.6998 5.408 91.1958 5.176 90.5131 5.176C89.8198 5.176 89.3078 5.41067 88.9771 5.88C88.6465 6.344 88.4811 7.016 88.4811 7.896C88.4811 8.776 88.6465 9.448 88.9771 9.912C89.3078 10.3707 89.8198 10.6 90.5131 10.6ZM99.9493 12H98.1573L94.8933 3.792H96.5333C96.6773 3.792 96.7973 3.82667 96.8932 3.896C96.9946 3.96533 97.0639 4.05333 97.1013 4.16L98.6853 8.544C98.7759 8.8 98.8506 9.05067 98.9093 9.296C98.9733 9.54133 99.0292 9.78667 99.0773 10.032C99.1253 9.78667 99.1786 9.54133 99.2373 9.296C99.3013 9.05067 99.3813 8.8 99.4773 8.544L101.101 4.16C101.139 4.05333 101.205 3.96533 101.301 3.896C101.397 3.82667 101.512 3.792 101.645 3.792H103.205L99.9493 12ZM110.801 12H109.913C109.726 12 109.579 11.9733 109.473 11.92C109.366 11.8613 109.286 11.7467 109.233 11.576L109.057 10.992C108.849 11.1787 108.643 11.344 108.441 11.488C108.243 11.6267 108.038 11.744 107.825 11.84C107.611 11.936 107.385 12.008 107.145 12.056C106.905 12.104 106.638 12.128 106.345 12.128C105.998 12.128 105.678 12.0827 105.385 11.992C105.091 11.896 104.838 11.7547 104.625 11.568C104.417 11.3813 104.254 11.1493 104.137 10.872C104.019 10.5947 103.961 10.272 103.961 9.904C103.961 9.59467 104.041 9.29067 104.201 8.992C104.366 8.688 104.638 8.416 105.017 8.176C105.395 7.93067 105.899 7.728 106.529 7.568C107.158 7.408 107.939 7.31733 108.873 7.296V6.816C108.873 6.26667 108.755 5.86133 108.521 5.6C108.291 5.33333 107.955 5.2 107.513 5.2C107.193 5.2 106.926 5.23733 106.713 5.312C106.499 5.38667 106.313 5.472 106.153 5.568C105.998 5.65867 105.854 5.74133 105.721 5.816C105.587 5.89067 105.441 5.928 105.281 5.928C105.147 5.928 105.033 5.89333 104.937 5.824C104.841 5.75467 104.763 5.66933 104.705 5.568L104.345 4.936C105.289 4.072 106.427 3.64 107.761 3.64C108.241 3.64 108.667 3.72 109.041 3.88C109.419 4.03467 109.739 4.25333 110.001 4.536C110.262 4.81333 110.459 5.14667 110.593 5.536C110.731 5.92533 110.801 6.352 110.801 6.816V12ZM106.961 10.768C107.163 10.768 107.35 10.7493 107.521 10.712C107.691 10.6747 107.851 10.6187 108.001 10.544C108.155 10.4693 108.302 10.3787 108.441 10.272C108.585 10.16 108.729 10.0293 108.873 9.88V8.496C108.297 8.52267 107.814 8.57333 107.424 8.648C107.041 8.71733 106.731 8.808 106.497 8.92C106.262 9.032 106.094 9.16267 105.993 9.312C105.897 9.46133 105.849 9.624 105.849 9.8C105.849 10.1467 105.95 10.3947 106.153 10.544C106.361 10.6933 106.63 10.768 106.961 10.768Z" fill="white"></path> <path d="M11.336 12H9.672C9.48533 12 9.33067 11.9547 9.208 11.864C9.09067 11.768 9.00533 11.6507 8.952 11.512L8.088 9.152H3.296L2.432 11.512C2.38933 11.6347 2.304 11.7467 2.176 11.848C2.05333 11.9493 1.90133 12 1.72 12H0.048L4.592 0.431999H6.792L11.336 12ZM3.848 7.632H7.536L6.128 3.784C6.064 3.61333 5.992 3.41333 5.912 3.184C5.83733 2.94933 5.76267 2.696 5.688 2.424C5.61333 2.696 5.53867 2.94933 5.464 3.184C5.39467 3.41867 5.32533 3.624 5.256 3.8L3.848 7.632ZM17.2874 5.392C17.234 5.47733 17.178 5.53867 17.1194 5.576C17.0607 5.608 16.986 5.624 16.8954 5.624C16.7994 5.624 16.6954 5.59733 16.5834 5.544C16.4767 5.49067 16.3514 5.432 16.2074 5.368C16.0634 5.29867 15.898 5.23733 15.7114 5.184C15.53 5.13067 15.314 5.104 15.0634 5.104C14.674 5.104 14.3674 5.18667 14.1434 5.352C13.9194 5.51733 13.8074 5.73333 13.8074 6C13.8074 6.176 13.8634 6.32533 13.9754 6.448C14.0927 6.56533 14.2447 6.66933 14.4314 6.76C14.6234 6.85067 14.8394 6.93333 15.0794 7.008C15.3194 7.07733 15.5647 7.15467 15.8154 7.24C16.066 7.32533 16.3114 7.424 16.5514 7.536C16.7914 7.64267 17.0047 7.78133 17.1914 7.952C17.3834 8.11733 17.5354 8.31733 17.6474 8.552C17.7647 8.78667 17.8234 9.06933 17.8234 9.4C17.8234 9.79467 17.7514 10.16 17.6074 10.496C17.4634 10.8267 17.2527 11.1147 16.9754 11.36C16.698 11.6 16.354 11.7893 15.9434 11.928C15.538 12.0613 15.0714 12.128 14.5434 12.128C14.2607 12.128 13.9834 12.1013 13.7114 12.048C13.4447 12 13.186 11.9307 12.9354 11.84C12.69 11.7493 12.4607 11.6427 12.2474 11.52C12.0394 11.3973 11.8554 11.264 11.6954 11.12L12.1514 10.368C12.21 10.2773 12.2794 10.208 12.3594 10.16C12.4394 10.112 12.5407 10.088 12.6634 10.088C12.786 10.088 12.9007 10.1227 13.0074 10.192C13.1194 10.2613 13.2474 10.336 13.3914 10.416C13.5354 10.496 13.7034 10.5707 13.8954 10.64C14.0927 10.7093 14.3407 10.744 14.6394 10.744C14.874 10.744 15.074 10.7173 15.2394 10.664C15.41 10.6053 15.5487 10.5307 15.6554 10.44C15.7674 10.3493 15.8474 10.2453 15.8954 10.128C15.9487 10.0053 15.9754 9.88 15.9754 9.752C15.9754 9.56 15.9167 9.40267 15.7994 9.28C15.6874 9.15733 15.5354 9.05067 15.3434 8.96C15.1567 8.86933 14.9407 8.78933 14.6954 8.72C14.4554 8.64533 14.2074 8.56533 13.9514 8.48C13.7007 8.39467 13.4527 8.296 13.2074 8.184C12.9674 8.06667 12.7514 7.92 12.5594 7.744C12.3727 7.568 12.2207 7.352 12.1034 7.096C11.9914 6.84 11.9354 6.53067 11.9354 6.168C11.9354 5.832 12.002 5.512 12.1354 5.208C12.2687 4.904 12.4634 4.64 12.7194 4.416C12.9807 4.18667 13.3034 4.00533 13.6874 3.872C14.0767 3.73333 14.5247 3.664 15.0314 3.664C15.5967 3.664 16.1114 3.75733 16.5754 3.944C17.0394 4.13067 17.426 4.376 17.7354 4.68L17.2874 5.392ZM22.3118 14.256C22.2531 14.3947 22.1758 14.4987 22.0798 14.568C21.9891 14.6427 21.8478 14.68 21.6558 14.68H20.1838L21.7198 11.392L18.3998 3.792H20.1278C20.2878 3.792 20.4104 3.82933 20.4958 3.904C20.5811 3.97867 20.6451 4.064 20.6878 4.16L22.4398 8.416C22.4984 8.55467 22.5491 8.69867 22.5918 8.848C22.6344 8.99733 22.6718 9.14667 22.7038 9.296C22.7464 9.14133 22.7918 8.992 22.8398 8.848C22.8931 8.704 22.9491 8.55733 23.0078 8.408L24.6558 4.16C24.6984 4.05333 24.7678 3.96533 24.8638 3.896C24.9651 3.82667 25.0771 3.792 25.1998 3.792H26.7838L22.3118 14.256ZM34.363 12H33.475C33.2883 12 33.1417 11.9733 33.035 11.92C32.9283 11.8613 32.8483 11.7467 32.795 11.576L32.619 10.992C32.411 11.1787 32.2057 11.344 32.003 11.488C31.8057 11.6267 31.6003 11.744 31.387 11.84C31.1737 11.936 30.947 12.008 30.707 12.056C30.467 12.104 30.2003 12.128 29.907 12.128C29.5603 12.128 29.2403 12.0827 28.947 11.992C28.6537 11.896 28.4003 11.7547 28.187 11.568C27.979 11.3813 27.8163 11.1493 27.699 10.872C27.5817 10.5947 27.523 10.272 27.523 9.904C27.523 9.59467 27.603 9.29067 27.763 8.992C27.9283 8.688 28.2003 8.416 28.579 8.176C28.9577 7.93067 29.4617 7.728 30.091 7.568C30.7203 7.408 31.5017 7.31733 32.435 7.296V6.816C32.435 6.26667 32.3177 5.86133 32.083 5.6C31.8537 5.33333 31.5177 5.2 31.075 5.2C30.755 5.2 30.4883 5.23733 30.275 5.312C30.0617 5.38667 29.875 5.472 29.715 5.568C29.5603 5.65867 29.4163 5.74133 29.283 5.816C29.1497 5.89067 29.003 5.928 28.843 5.928C28.7097 5.928 28.595 5.89333 28.499 5.824C28.403 5.75467 28.3257 5.66933 28.267 5.568L27.907 4.936C28.851 4.072 29.9897 3.64 31.323 3.64C31.803 3.64 32.2297 3.72 32.603 3.88C32.9817 4.03467 33.3017 4.25333 33.563 4.536C33.8243 4.81333 34.0217 5.14667 34.155 5.536C34.2937 5.92533 34.363 6.352 34.363 6.816V12ZM30.523 10.768C30.7257 10.768 30.9123 10.7493 31.083 10.712C31.2537 10.6747 31.4137 10.6187 31.563 10.544C31.7177 10.4693 31.8643 10.3787 32.003 10.272C32.147 10.16 32.291 10.0293 32.435 9.88V8.496C31.859 8.52267 31.3763 8.57333 30.987 8.648C30.603 8.71733 30.2937 8.808 30.059 8.92C29.8243 9.032 29.6563 9.16267 29.555 9.312C29.459 9.46133 29.411 9.624 29.411 9.8C29.411 10.1467 29.5123 10.3947 29.715 10.544C29.923 10.6933 30.1923 10.768 30.523 10.768ZM41.7358 5.28H42.2398C42.4424 5.28 42.6104 5.25333 42.7438 5.2C42.8771 5.14133 42.9918 5.05067 43.0878 4.928L46.2798 0.888C46.4131 0.717333 46.5518 0.599999 46.6958 0.535999C46.8451 0.466666 47.0318 0.431999 47.2558 0.431999H49.1118L45.2158 5.24C45.0931 5.38933 44.9758 5.51467 44.8638 5.616C44.7518 5.71733 44.6318 5.8 44.5038 5.864C44.6798 5.928 44.8371 6.01867 44.9758 6.136C45.1198 6.25333 45.2584 6.40267 45.3918 6.584L49.4078 12H47.5038C47.2478 12 47.0558 11.9653 46.9278 11.896C46.8051 11.8213 46.7011 11.7147 46.6158 11.576L43.3438 7.304C43.2371 7.16533 43.1171 7.06667 42.9838 7.008C42.8504 6.944 42.6611 6.912 42.4158 6.912H41.7358V12H39.5838V0.424H41.7358V5.28ZM57.0036 12H56.1156C55.929 12 55.7823 11.9733 55.6756 11.92C55.569 11.8613 55.489 11.7467 55.4356 11.576L55.2596 10.992C55.0516 11.1787 54.8463 11.344 54.6436 11.488C54.4463 11.6267 54.241 11.744 54.0276 11.84C53.8143 11.936 53.5876 12.008 53.3476 12.056C53.1076 12.104 52.841 12.128 52.5476 12.128C52.201 12.128 51.881 12.0827 51.5876 11.992C51.2943 11.896 51.041 11.7547 50.8276 11.568C50.6196 11.3813 50.457 11.1493 50.3396 10.872C50.2223 10.5947 50.1636 10.272 50.1636 9.904C50.1636 9.59467 50.2436 9.29067 50.4036 8.992C50.569 8.688 50.841 8.416 51.2196 8.176C51.5983 7.93067 52.1023 7.728 52.7316 7.568C53.361 7.408 54.1423 7.31733 55.0756 7.296V6.816C55.0756 6.26667 54.9583 5.86133 54.7236 5.6C54.4943 5.33333 54.1583 5.2 53.7156 5.2C53.3956 5.2 53.129 5.23733 52.9156 5.312C52.7023 5.38667 52.5156 5.472 52.3556 5.568C52.201 5.65867 52.057 5.74133 51.9236 5.816C51.7903 5.89067 51.6436 5.928 51.4836 5.928C51.3503 5.928 51.2356 5.89333 51.1396 5.824C51.0436 5.75467 50.9663 5.66933 50.9076 5.568L50.5476 4.936C51.4916 4.072 52.6303 3.64 53.9636 3.64C54.4436 3.64 54.8703 3.72 55.2436 3.88C55.6223 4.03467 55.9423 4.25333 56.2036 4.536C56.465 4.81333 56.6623 5.14667 56.7956 5.536C56.9343 5.92533 57.0036 6.352 57.0036 6.816V12ZM53.1636 10.768C53.3663 10.768 53.553 10.7493 53.7236 10.712C53.8943 10.6747 54.0543 10.6187 54.2036 10.544C54.3583 10.4693 54.505 10.3787 54.6436 10.272C54.7876 10.16 54.9316 10.0293 55.0756 9.88V8.496C54.4996 8.52267 54.017 8.57333 53.6276 8.648C53.2436 8.71733 52.9343 8.808 52.6996 8.92C52.465 9.032 52.297 9.16267 52.1956 9.312C52.0996 9.46133 52.0516 9.624 52.0516 9.8C52.0516 10.1467 52.153 10.3947 52.3556 10.544C52.5636 10.6933 52.833 10.768 53.1636 10.768ZM58.9466 14.68V3.792H60.1546C60.2826 3.792 60.392 3.82133 60.4826 3.88C60.5733 3.93867 60.632 4.02933 60.6586 4.152L60.8186 4.912C61.1493 4.53333 61.528 4.22667 61.9546 3.992C62.3866 3.75733 62.8906 3.64 63.4666 3.64C63.9146 3.64 64.3226 3.73333 64.6906 3.92C65.064 4.10667 65.384 4.37867 65.6506 4.736C65.9226 5.088 66.1306 5.52533 66.2746 6.048C66.424 6.56533 66.4986 7.16 66.4986 7.832C66.4986 8.44533 66.416 9.01333 66.2506 9.536C66.0853 10.0587 65.848 10.512 65.5386 10.896C65.2346 11.28 64.864 11.5813 64.4266 11.8C63.9946 12.0133 63.5093 12.12 62.9706 12.12C62.5066 12.12 62.112 12.0507 61.7866 11.912C61.4666 11.768 61.1786 11.5707 60.9226 11.32V14.68H58.9466ZM62.7866 5.2C62.376 5.2 62.024 5.288 61.7306 5.464C61.4426 5.63467 61.1733 5.87733 60.9226 6.192V9.872C61.1466 10.1493 61.3893 10.344 61.6506 10.456C61.9173 10.5627 62.2026 10.616 62.5066 10.616C62.8053 10.616 63.0746 10.56 63.3146 10.448C63.56 10.336 63.7653 10.1653 63.9306 9.936C64.1013 9.70667 64.232 9.41867 64.3226 9.072C64.4133 8.72 64.4586 8.30667 64.4586 7.832C64.4586 7.352 64.4186 6.94667 64.3386 6.616C64.264 6.28 64.1546 6.008 64.0106 5.8C63.8666 5.592 63.6906 5.44 63.4826 5.344C63.28 5.248 63.048 5.2 62.7866 5.2ZM67.9935 12V3.792H69.1535C69.3562 3.792 69.4975 3.82933 69.5775 3.904C69.6575 3.97867 69.7108 4.10667 69.7375 4.288L69.8575 5.28C70.1508 4.77333 70.4948 4.37333 70.8895 4.08C71.2842 3.78667 71.7268 3.64 72.2175 3.64C72.6228 3.64 72.9588 3.73333 73.2255 3.92L72.9695 5.4C72.9535 5.496 72.9188 5.56533 72.8655 5.608C72.8122 5.64533 72.7402 5.664 72.6495 5.664C72.5695 5.664 72.4602 5.64533 72.3215 5.608C72.1828 5.57067 71.9988 5.552 71.7695 5.552C71.3588 5.552 71.0068 5.66667 70.7135 5.896C70.4202 6.12 70.1722 6.45067 69.9695 6.888V12H67.9935ZM80.7224 12H79.8344C79.6477 12 79.501 11.9733 79.3944 11.92C79.2877 11.8613 79.2077 11.7467 79.1544 11.576L78.9784 10.992C78.7704 11.1787 78.565 11.344 78.3624 11.488C78.165 11.6267 77.9597 11.744 77.7464 11.84C77.533 11.936 77.3064 12.008 77.0664 12.056C76.8264 12.104 76.5597 12.128 76.2664 12.128C75.9197 12.128 75.5997 12.0827 75.3064 11.992C75.013 11.896 74.7597 11.7547 74.5464 11.568C74.3384 11.3813 74.1757 11.1493 74.0584 10.872C73.941 10.5947 73.8824 10.272 73.8824 9.904C73.8824 9.59467 73.9624 9.29067 74.1224 8.992C74.2877 8.688 74.5597 8.416 74.9384 8.176C75.317 7.93067 75.821 7.728 76.4504 7.568C77.0797 7.408 77.861 7.31733 78.7944 7.296V6.816C78.7944 6.26667 78.677 5.86133 78.4424 5.6C78.213 5.33333 77.877 5.2 77.4344 5.2C77.1144 5.2 76.8477 5.23733 76.6344 5.312C76.421 5.38667 76.2344 5.472 76.0744 5.568C75.9197 5.65867 75.7757 5.74133 75.6424 5.816C75.509 5.89067 75.3624 5.928 75.2024 5.928C75.069 5.928 74.9544 5.89333 74.8584 5.824C74.7624 5.75467 74.685 5.66933 74.6264 5.568L74.2664 4.936C75.2104 4.072 76.349 3.64 77.6824 3.64C78.1624 3.64 78.589 3.72 78.9624 3.88C79.341 4.03467 79.661 4.25333 79.9224 4.536C80.1837 4.81333 80.381 5.14667 80.5144 5.536C80.653 5.92533 80.7224 6.352 80.7224 6.816V12ZM76.8824 10.768C77.085 10.768 77.2717 10.7493 77.4424 10.712C77.613 10.6747 77.773 10.6187 77.9224 10.544C78.077 10.4693 78.2237 10.3787 78.3624 10.272C78.5064 10.16 78.6504 10.0293 78.7944 9.88V8.496C78.2184 8.52267 77.7357 8.57333 77.3464 8.648C76.9624 8.71733 76.653 8.808 76.4184 8.92C76.1837 9.032 76.0157 9.16267 75.9144 9.312C75.8184 9.46133 75.7704 9.624 75.7704 9.8C75.7704 10.1467 75.8717 10.3947 76.0744 10.544C76.2824 10.6933 76.5517 10.768 76.8824 10.768ZM84.7694 0.112V12H82.7934V0.112H84.7694ZM90.5131 3.664C91.1265 3.664 91.6811 3.76267 92.1771 3.96C92.6785 4.15733 93.1051 4.43733 93.4571 4.8C93.8091 5.16267 94.0811 5.60533 94.2731 6.128C94.4651 6.65067 94.5611 7.23467 94.5611 7.88C94.5611 8.53067 94.4651 9.11733 94.2731 9.64C94.0811 10.1627 93.8091 10.608 93.4571 10.976C93.1051 11.344 92.6785 11.6267 92.1771 11.824C91.6811 12.0213 91.1265 12.12 90.5131 12.12C89.8998 12.12 89.3425 12.0213 88.8411 11.824C88.3398 11.6267 87.9105 11.344 87.5531 10.976C87.2011 10.608 86.9265 10.1627 86.7291 9.64C86.5371 9.11733 86.4411 8.53067 86.4411 7.88C86.4411 7.23467 86.5371 6.65067 86.7291 6.128C86.9265 5.60533 87.2011 5.16267 87.5531 4.8C87.9105 4.43733 88.3398 4.15733 88.8411 3.96C89.3425 3.76267 89.8998 3.664 90.5131 3.664ZM90.5131 10.6C91.1958 10.6 91.6998 10.3707 92.0251 9.912C92.3558 9.45333 92.5211 8.78133 92.5211 7.896C92.5211 7.01067 92.3558 6.336 92.0251 5.872C91.6998 5.408 91.1958 5.176 90.5131 5.176C89.8198 5.176 89.3078 5.41067 88.9771 5.88C88.6465 6.344 88.4811 7.016 88.4811 7.896C88.4811 8.776 88.6465 9.448 88.9771 9.912C89.3078 10.3707 89.8198 10.6 90.5131 10.6ZM99.9493 12H98.1573L94.8933 3.792H96.5333C96.6773 3.792 96.7973 3.82667 96.8932 3.896C96.9946 3.96533 97.0639 4.05333 97.1013 4.16L98.6853 8.544C98.7759 8.8 98.8506 9.05067 98.9093 9.296C98.9733 9.54133 99.0292 9.78667 99.0773 10.032C99.1253 9.78667 99.1786 9.54133 99.2373 9.296C99.3013 9.05067 99.3813 8.8 99.4773 8.544L101.101 4.16C101.139 4.05333 101.205 3.96533 101.301 3.896C101.397 3.82667 101.512 3.792 101.645 3.792H103.205L99.9493 12ZM110.801 12H109.913C109.726 12 109.579 11.9733 109.473 11.92C109.366 11.8613 109.286 11.7467 109.233 11.576L109.057 10.992C108.849 11.1787 108.643 11.344 108.441 11.488C108.243 11.6267 108.038 11.744 107.825 11.84C107.611 11.936 107.385 12.008 107.145 12.056C106.905 12.104 106.638 12.128 106.345 12.128C105.998 12.128 105.678 12.0827 105.385 11.992C105.091 11.896 104.838 11.7547 104.625 11.568C104.417 11.3813 104.254 11.1493 104.137 10.872C104.019 10.5947 103.961 10.272 103.961 9.904C103.961 9.59467 104.041 9.29067 104.201 8.992C104.366 8.688 104.638 8.416 105.017 8.176C105.395 7.93067 105.899 7.728 106.529 7.568C107.158 7.408 107.939 7.31733 108.873 7.296V6.816C108.873 6.26667 108.755 5.86133 108.521 5.6C108.291 5.33333 107.955 5.2 107.513 5.2C107.193 5.2 106.926 5.23733 106.713 5.312C106.499 5.38667 106.313 5.472 106.153 5.568C105.998 5.65867 105.854 5.74133 105.721 5.816C105.587 5.89067 105.441 5.928 105.281 5.928C105.147 5.928 105.033 5.89333 104.937 5.824C104.841 5.75467 104.763 5.66933 104.705 5.568L104.345 4.936C105.289 4.072 106.427 3.64 107.761 3.64C108.241 3.64 108.667 3.72 109.041 3.88C109.419 4.03467 109.739 4.25333 110.001 4.536C110.262 4.81333 110.459 5.14667 110.593 5.536C110.731 5.92533 110.801 6.352 110.801 6.816V12ZM106.961 10.768C107.163 10.768 107.35 10.7493 107.521 10.712C107.691 10.6747 107.851 10.6187 108.001 10.544C108.155 10.4693 108.302 10.3787 108.441 10.272C108.585 10.16 108.729 10.0293 108.873 9.88V8.496C108.297 8.52267 107.814 8.57333 107.424 8.648C107.041 8.71733 106.731 8.808 106.497 8.92C106.262 9.032 106.094 9.16267 105.993 9.312C105.897 9.46133 105.849 9.624 105.849 9.8C105.849 10.1467 105.95 10.3947 106.153 10.544C106.361 10.6933 106.63 10.768 106.961 10.768Z" fill="url(#paint0_linear_196_510)"></path> <defs> <linearGradient id="paint0_linear_196_510" x1="56" y1="-4" x2="50.9161" y2="17.8153" gradientUnits="userSpaceOnUse"> <stop stop-color="#FFE8CA"></stop> <stop offset="0.260417" stop-color="#FFE0E3"></stop> <stop offset="0.442708" stop-color="#FFC9ED"></stop> <stop offset="0.697917" stop-color="#C8BDFB"></stop> <stop offset="0.947917" stop-color="#A7C7FF"></stop> </linearGradient> </defs> </svg> 