<?xml version="1.0" encoding="UTF-8"?> <svg xmlns="http://www.w3.org/2000/svg" width="99" height="13" viewBox="0 0 99 13" fill="none"> <path d="M2.32 10.224H6.952V12H0.168V0.431999H2.32V10.224ZM11.4168 3.664C11.9341 3.664 12.4088 3.74667 12.8408 3.912C13.2781 4.07733 13.6541 4.32 13.9688 4.64C14.2834 4.95467 14.5288 5.344 14.7048 5.808C14.8808 6.26667 14.9688 6.792 14.9688 7.384C14.9688 7.53333 14.9608 7.65867 14.9448 7.76C14.9341 7.856 14.9101 7.93333 14.8728 7.992C14.8408 8.04533 14.7954 8.08533 14.7368 8.112C14.6781 8.13333 14.6034 8.144 14.5128 8.144H9.44075C9.49942 8.98667 9.72608 9.60533 10.1208 10C10.5154 10.3947 11.0381 10.592 11.6888 10.592C12.0088 10.592 12.2834 10.5547 12.5128 10.48C12.7474 10.4053 12.9501 10.3227 13.1208 10.232C13.2968 10.1413 13.4488 10.0587 13.5768 9.984C13.7101 9.90933 13.8381 9.872 13.9608 9.872C14.0408 9.872 14.1101 9.888 14.1688 9.92C14.2274 9.952 14.2781 9.99733 14.3208 10.056L14.8968 10.776C14.6781 11.032 14.4328 11.248 14.1608 11.424C13.8888 11.5947 13.6034 11.7333 13.3048 11.84C13.0114 11.9413 12.7101 12.0133 12.4008 12.056C12.0968 12.0987 11.8008 12.12 11.5128 12.12C10.9421 12.12 10.4114 12.0267 9.92075 11.84C9.43008 11.648 9.00342 11.368 8.64075 11C8.27808 10.6267 7.99275 10.168 7.78475 9.624C7.57675 9.07467 7.47275 8.44 7.47275 7.72C7.47275 7.16 7.56342 6.63467 7.74475 6.144C7.92608 5.648 8.18475 5.21867 8.52075 4.856C8.86208 4.488 9.27542 4.19733 9.76075 3.984C10.2514 3.77067 10.8034 3.664 11.4168 3.664ZM11.4568 5.08C10.8808 5.08 10.4301 5.24267 10.1048 5.568C9.77942 5.89333 9.57142 6.35467 9.48075 6.952H13.1928C13.1928 6.696 13.1581 6.456 13.0888 6.232C13.0194 6.00267 12.9128 5.80267 12.7688 5.632C12.6248 5.46133 12.4434 5.328 12.2248 5.232C12.0061 5.13067 11.7501 5.08 11.4568 5.08ZM16.5716 12V3.792H17.7796C18.0356 3.792 18.2036 3.912 18.2836 4.152L18.4196 4.8C18.585 4.62933 18.7583 4.47467 18.9396 4.336C19.1263 4.19733 19.321 4.07733 19.5236 3.976C19.7316 3.87467 19.953 3.79733 20.1876 3.744C20.4223 3.69067 20.6783 3.664 20.9556 3.664C21.4036 3.664 21.801 3.74133 22.1476 3.896C22.4943 4.04533 22.7823 4.25867 23.0116 4.536C23.2463 4.808 23.4223 5.136 23.5396 5.52C23.6623 5.89867 23.7236 6.31733 23.7236 6.776V12H21.7476V6.776C21.7476 6.27467 21.6303 5.888 21.3956 5.616C21.1663 5.33867 20.8196 5.2 20.3556 5.2C20.0143 5.2 19.6943 5.27733 19.3956 5.432C19.097 5.58667 18.8143 5.79733 18.5476 6.064V12H16.5716ZM32.0974 12H31.2094C31.0227 12 30.876 11.9733 30.7694 11.92C30.6627 11.8613 30.5827 11.7467 30.5294 11.576L30.3534 10.992C30.1454 11.1787 29.94 11.344 29.7374 11.488C29.54 11.6267 29.3347 11.744 29.1214 11.84C28.908 11.936 28.6814 12.008 28.4414 12.056C28.2014 12.104 27.9347 12.128 27.6414 12.128C27.2947 12.128 26.9747 12.0827 26.6814 11.992C26.388 11.896 26.1347 11.7547 25.9214 11.568C25.7134 11.3813 25.5507 11.1493 25.4334 10.872C25.316 10.5947 25.2574 10.272 25.2574 9.904C25.2574 9.59467 25.3374 9.29067 25.4974 8.992C25.6627 8.688 25.9347 8.416 26.3134 8.176C26.692 7.93067 27.196 7.728 27.8254 7.568C28.4547 7.408 29.236 7.31733 30.1694 7.296V6.816C30.1694 6.26667 30.052 5.86133 29.8174 5.6C29.588 5.33333 29.252 5.2 28.8094 5.2C28.4894 5.2 28.2227 5.23733 28.0094 5.312C27.796 5.38667 27.6094 5.472 27.4494 5.568C27.2947 5.65867 27.1507 5.74133 27.0174 5.816C26.884 5.89067 26.7374 5.928 26.5774 5.928C26.444 5.928 26.3294 5.89333 26.2334 5.824C26.1374 5.75467 26.06 5.66933 26.0014 5.568L25.6414 4.936C26.5854 4.072 27.724 3.64 29.0574 3.64C29.5374 3.64 29.964 3.72 30.3374 3.88C30.716 4.03467 31.036 4.25333 31.2974 4.536C31.5587 4.81333 31.756 5.14667 31.8894 5.536C32.028 5.92533 32.0974 6.352 32.0974 6.816V12ZM28.2574 10.768C28.46 10.768 28.6467 10.7493 28.8174 10.712C28.988 10.6747 29.148 10.6187 29.2974 10.544C29.452 10.4693 29.5987 10.3787 29.7374 10.272C29.8814 10.16 30.0254 10.0293 30.1694 9.88V8.496C29.5934 8.52267 29.1107 8.57333 28.7214 8.648C28.3374 8.71733 28.028 8.808 27.7934 8.92C27.5587 9.032 27.3907 9.16267 27.2894 9.312C27.1934 9.46133 27.1454 9.624 27.1454 9.8C27.1454 10.1467 27.2467 10.3947 27.4494 10.544C27.6574 10.6933 27.9267 10.768 28.2574 10.768ZM39.4701 5.28H39.9741C40.1768 5.28 40.3448 5.25333 40.4781 5.2C40.6115 5.14133 40.7261 5.05067 40.8221 4.928L44.0141 0.888C44.1475 0.717333 44.2861 0.599999 44.4301 0.535999C44.5795 0.466666 44.7661 0.431999 44.9901 0.431999H46.8461L42.9501 5.24C42.8275 5.38933 42.7101 5.51467 42.5981 5.616C42.4861 5.71733 42.3661 5.8 42.2381 5.864C42.4141 5.928 42.5715 6.01867 42.7101 6.136C42.8541 6.25333 42.9928 6.40267 43.1261 6.584L47.1421 12H45.2381C44.9821 12 44.7901 11.9653 44.6621 11.896C44.5395 11.8213 44.4355 11.7147 44.3501 11.576L41.0781 7.304C40.9715 7.16533 40.8515 7.06667 40.7181 7.008C40.5848 6.944 40.3955 6.912 40.1501 6.912H39.4701V12H37.3181V0.424H39.4701V5.28ZM54.738 12H53.85C53.6633 12 53.5167 11.9733 53.41 11.92C53.3033 11.8613 53.2233 11.7467 53.17 11.576L52.994 10.992C52.786 11.1787 52.5807 11.344 52.378 11.488C52.1807 11.6267 51.9753 11.744 51.762 11.84C51.5487 11.936 51.322 12.008 51.082 12.056C50.842 12.104 50.5753 12.128 50.282 12.128C49.9353 12.128 49.6153 12.0827 49.322 11.992C49.0287 11.896 48.7753 11.7547 48.562 11.568C48.354 11.3813 48.1913 11.1493 48.074 10.872C47.9567 10.5947 47.898 10.272 47.898 9.904C47.898 9.59467 47.978 9.29067 48.138 8.992C48.3033 8.688 48.5753 8.416 48.954 8.176C49.3327 7.93067 49.8367 7.728 50.466 7.568C51.0953 7.408 51.8767 7.31733 52.81 7.296V6.816C52.81 6.26667 52.6927 5.86133 52.458 5.6C52.2287 5.33333 51.8927 5.2 51.45 5.2C51.13 5.2 50.8633 5.23733 50.65 5.312C50.4367 5.38667 50.25 5.472 50.09 5.568C49.9353 5.65867 49.7913 5.74133 49.658 5.816C49.5247 5.89067 49.378 5.928 49.218 5.928C49.0847 5.928 48.97 5.89333 48.874 5.824C48.778 5.75467 48.7007 5.66933 48.642 5.568L48.282 4.936C49.226 4.072 50.3647 3.64 51.698 3.64C52.178 3.64 52.6047 3.72 52.978 3.88C53.3567 4.03467 53.6767 4.25333 53.938 4.536C54.1993 4.81333 54.3967 5.14667 54.53 5.536C54.6687 5.92533 54.738 6.352 54.738 6.816V12ZM50.898 10.768C51.1007 10.768 51.2873 10.7493 51.458 10.712C51.6287 10.6747 51.7887 10.6187 51.938 10.544C52.0927 10.4693 52.2393 10.3787 52.378 10.272C52.522 10.16 52.666 10.0293 52.81 9.88V8.496C52.234 8.52267 51.7513 8.57333 51.362 8.648C50.978 8.71733 50.6687 8.808 50.434 8.92C50.1993 9.032 50.0313 9.16267 49.93 9.312C49.834 9.46133 49.786 9.624 49.786 9.8C49.786 10.1467 49.8873 10.3947 50.09 10.544C50.298 10.6933 50.5673 10.768 50.898 10.768ZM62.457 12C62.201 12 62.033 11.88 61.953 11.64L61.793 10.848C61.6223 11.04 61.4437 11.2133 61.257 11.368C61.0703 11.5227 60.8677 11.656 60.649 11.768C60.4357 11.88 60.2037 11.9653 59.953 12.024C59.7077 12.088 59.441 12.12 59.153 12.12C58.705 12.12 58.2943 12.0267 57.921 11.84C57.5477 11.6533 57.225 11.384 56.953 11.032C56.6863 10.6747 56.4783 10.2347 56.329 9.712C56.185 9.18933 56.113 8.592 56.113 7.92C56.113 7.312 56.1957 6.74667 56.361 6.224C56.5263 5.70133 56.7637 5.248 57.073 4.864C57.3823 4.48 57.753 4.18133 58.185 3.968C58.617 3.74933 59.1023 3.64 59.641 3.64C60.0997 3.64 60.4917 3.71467 60.817 3.864C61.1423 4.008 61.433 4.20267 61.689 4.448V0.112H63.665V12H62.457ZM59.825 10.552C60.2357 10.552 60.585 10.4667 60.873 10.296C61.161 10.1253 61.433 9.88267 61.689 9.568V5.888C61.465 5.616 61.2197 5.424 60.953 5.312C60.6917 5.2 60.409 5.144 60.105 5.144C59.8063 5.144 59.5343 5.2 59.289 5.312C59.049 5.424 58.8437 5.59467 58.673 5.824C58.5077 6.048 58.3797 6.336 58.289 6.688C58.1983 7.03467 58.153 7.44533 58.153 7.92C58.153 8.4 58.1903 8.808 58.265 9.144C58.345 9.47467 58.457 9.74667 58.601 9.96C58.745 10.168 58.921 10.32 59.129 10.416C59.337 10.5067 59.569 10.552 59.825 10.552ZM67.91 3.792V12H65.934V3.792H67.91ZM68.206 1.4C68.206 1.57067 68.1713 1.73067 68.102 1.88C68.0327 2.02933 67.9393 2.16 67.822 2.272C67.71 2.384 67.5767 2.47467 67.422 2.544C67.2673 2.608 67.102 2.64 66.926 2.64C66.7553 2.64 66.5927 2.608 66.438 2.544C66.2887 2.47467 66.158 2.384 66.046 2.272C65.934 2.16 65.8433 2.02933 65.774 1.88C65.71 1.73067 65.678 1.57067 65.678 1.4C65.678 1.224 65.71 1.05867 65.774 0.903999C65.8433 0.749333 65.934 0.616 66.046 0.504C66.158 0.392 66.2887 0.304 66.438 0.24C66.5927 0.170666 66.7553 0.136 66.926 0.136C67.102 0.136 67.2673 0.170666 67.422 0.24C67.5767 0.304 67.71 0.392 67.822 0.504C67.9393 0.616 68.0327 0.749333 68.102 0.903999C68.1713 1.05867 68.206 1.224 68.206 1.4ZM72.2538 0.112V12H70.2778V0.112H72.2538ZM77.9975 3.664C78.6108 3.664 79.1655 3.76267 79.6615 3.96C80.1628 4.15733 80.5895 4.43733 80.9415 4.8C81.2935 5.16267 81.5655 5.60533 81.7575 6.128C81.9495 6.65067 82.0455 7.23467 82.0455 7.88C82.0455 8.53067 81.9495 9.11733 81.7575 9.64C81.5655 10.1627 81.2935 10.608 80.9415 10.976C80.5895 11.344 80.1628 11.6267 79.6615 11.824C79.1655 12.0213 78.6108 12.12 77.9975 12.12C77.3842 12.12 76.8268 12.0213 76.3255 11.824C75.8242 11.6267 75.3948 11.344 75.0375 10.976C74.6855 10.608 74.4108 10.1627 74.2135 9.64C74.0215 9.11733 73.9255 8.53067 73.9255 7.88C73.9255 7.23467 74.0215 6.65067 74.2135 6.128C74.4108 5.60533 74.6855 5.16267 75.0375 4.8C75.3948 4.43733 75.8242 4.15733 76.3255 3.96C76.8268 3.76267 77.3842 3.664 77.9975 3.664ZM77.9975 10.6C78.6802 10.6 79.1842 10.3707 79.5095 9.912C79.8402 9.45333 80.0055 8.78133 80.0055 7.896C80.0055 7.01067 79.8402 6.336 79.5095 5.872C79.1842 5.408 78.6802 5.176 77.9975 5.176C77.3042 5.176 76.7922 5.41067 76.4615 5.88C76.1308 6.344 75.9655 7.016 75.9655 7.896C75.9655 8.776 76.1308 9.448 76.4615 9.912C76.7922 10.3707 77.3042 10.6 77.9975 10.6ZM87.4336 12H85.6416L82.3776 3.792H84.0176C84.1616 3.792 84.2816 3.82667 84.3776 3.896C84.479 3.96533 84.5483 4.05333 84.5856 4.16L86.1696 8.544C86.2603 8.8 86.335 9.05067 86.3936 9.296C86.4576 9.54133 86.5136 9.78667 86.5616 10.032C86.6096 9.78667 86.663 9.54133 86.7216 9.296C86.7856 9.05067 86.8656 8.8 86.9616 8.544L88.5856 4.16C88.623 4.05333 88.6896 3.96533 88.7856 3.896C88.8816 3.82667 88.9963 3.792 89.1296 3.792H90.6896L87.4336 12ZM98.2849 12H97.3969C97.2102 12 97.0635 11.9733 96.9569 11.92C96.8502 11.8613 96.7702 11.7467 96.7169 11.576L96.5409 10.992C96.3329 11.1787 96.1275 11.344 95.9249 11.488C95.7275 11.6267 95.5222 11.744 95.3089 11.84C95.0955 11.936 94.8689 12.008 94.6289 12.056C94.3889 12.104 94.1222 12.128 93.8289 12.128C93.4822 12.128 93.1622 12.0827 92.8689 11.992C92.5755 11.896 92.3222 11.7547 92.1089 11.568C91.9009 11.3813 91.7382 11.1493 91.6209 10.872C91.5035 10.5947 91.4449 10.272 91.4449 9.904C91.4449 9.59467 91.5249 9.29067 91.6849 8.992C91.8502 8.688 92.1222 8.416 92.5009 8.176C92.8795 7.93067 93.3835 7.728 94.0129 7.568C94.6422 7.408 95.4235 7.31733 96.3569 7.296V6.816C96.3569 6.26667 96.2395 5.86133 96.0049 5.6C95.7755 5.33333 95.4395 5.2 94.9969 5.2C94.6769 5.2 94.4102 5.23733 94.1969 5.312C93.9835 5.38667 93.7969 5.472 93.6369 5.568C93.4822 5.65867 93.3382 5.74133 93.2049 5.816C93.0715 5.89067 92.9249 5.928 92.7649 5.928C92.6315 5.928 92.5169 5.89333 92.4209 5.824C92.3249 5.75467 92.2475 5.66933 92.1889 5.568L91.8289 4.936C92.7729 4.072 93.9115 3.64 95.2449 3.64C95.7249 3.64 96.1515 3.72 96.5249 3.88C96.9035 4.03467 97.2235 4.25333 97.4849 4.536C97.7462 4.81333 97.9435 5.14667 98.0769 5.536C98.2155 5.92533 98.2849 6.352 98.2849 6.816V12ZM94.4449 10.768C94.6475 10.768 94.8342 10.7493 95.0049 10.712C95.1755 10.6747 95.3355 10.6187 95.4849 10.544C95.6395 10.4693 95.7862 10.3787 95.9249 10.272C96.0689 10.16 96.2129 10.0293 96.3569 9.88V8.496C95.7809 8.52267 95.2982 8.57333 94.9089 8.648C94.5249 8.71733 94.2155 8.808 93.9809 8.92C93.7462 9.032 93.5782 9.16267 93.4769 9.312C93.3809 9.46133 93.3329 9.624 93.3329 9.8C93.3329 10.1467 93.4342 10.3947 93.6369 10.544C93.8449 10.6933 94.1142 10.768 94.4449 10.768Z" fill="white"></path> <path d="M2.32 10.224H6.952V12H0.168V0.431999H2.32V10.224ZM11.4168 3.664C11.9341 3.664 12.4088 3.74667 12.8408 3.912C13.2781 4.07733 13.6541 4.32 13.9688 4.64C14.2834 4.95467 14.5288 5.344 14.7048 5.808C14.8808 6.26667 14.9688 6.792 14.9688 7.384C14.9688 7.53333 14.9608 7.65867 14.9448 7.76C14.9341 7.856 14.9101 7.93333 14.8728 7.992C14.8408 8.04533 14.7954 8.08533 14.7368 8.112C14.6781 8.13333 14.6034 8.144 14.5128 8.144H9.44075C9.49942 8.98667 9.72608 9.60533 10.1208 10C10.5154 10.3947 11.0381 10.592 11.6888 10.592C12.0088 10.592 12.2834 10.5547 12.5128 10.48C12.7474 10.4053 12.9501 10.3227 13.1208 10.232C13.2968 10.1413 13.4488 10.0587 13.5768 9.984C13.7101 9.90933 13.8381 9.872 13.9608 9.872C14.0408 9.872 14.1101 9.888 14.1688 9.92C14.2274 9.952 14.2781 9.99733 14.3208 10.056L14.8968 10.776C14.6781 11.032 14.4328 11.248 14.1608 11.424C13.8888 11.5947 13.6034 11.7333 13.3048 11.84C13.0114 11.9413 12.7101 12.0133 12.4008 12.056C12.0968 12.0987 11.8008 12.12 11.5128 12.12C10.9421 12.12 10.4114 12.0267 9.92075 11.84C9.43008 11.648 9.00342 11.368 8.64075 11C8.27808 10.6267 7.99275 10.168 7.78475 9.624C7.57675 9.07467 7.47275 8.44 7.47275 7.72C7.47275 7.16 7.56342 6.63467 7.74475 6.144C7.92608 5.648 8.18475 5.21867 8.52075 4.856C8.86208 4.488 9.27542 4.19733 9.76075 3.984C10.2514 3.77067 10.8034 3.664 11.4168 3.664ZM11.4568 5.08C10.8808 5.08 10.4301 5.24267 10.1048 5.568C9.77942 5.89333 9.57142 6.35467 9.48075 6.952H13.1928C13.1928 6.696 13.1581 6.456 13.0888 6.232C13.0194 6.00267 12.9128 5.80267 12.7688 5.632C12.6248 5.46133 12.4434 5.328 12.2248 5.232C12.0061 5.13067 11.7501 5.08 11.4568 5.08ZM16.5716 12V3.792H17.7796C18.0356 3.792 18.2036 3.912 18.2836 4.152L18.4196 4.8C18.585 4.62933 18.7583 4.47467 18.9396 4.336C19.1263 4.19733 19.321 4.07733 19.5236 3.976C19.7316 3.87467 19.953 3.79733 20.1876 3.744C20.4223 3.69067 20.6783 3.664 20.9556 3.664C21.4036 3.664 21.801 3.74133 22.1476 3.896C22.4943 4.04533 22.7823 4.25867 23.0116 4.536C23.2463 4.808 23.4223 5.136 23.5396 5.52C23.6623 5.89867 23.7236 6.31733 23.7236 6.776V12H21.7476V6.776C21.7476 6.27467 21.6303 5.888 21.3956 5.616C21.1663 5.33867 20.8196 5.2 20.3556 5.2C20.0143 5.2 19.6943 5.27733 19.3956 5.432C19.097 5.58667 18.8143 5.79733 18.5476 6.064V12H16.5716ZM32.0974 12H31.2094C31.0227 12 30.876 11.9733 30.7694 11.92C30.6627 11.8613 30.5827 11.7467 30.5294 11.576L30.3534 10.992C30.1454 11.1787 29.94 11.344 29.7374 11.488C29.54 11.6267 29.3347 11.744 29.1214 11.84C28.908 11.936 28.6814 12.008 28.4414 12.056C28.2014 12.104 27.9347 12.128 27.6414 12.128C27.2947 12.128 26.9747 12.0827 26.6814 11.992C26.388 11.896 26.1347 11.7547 25.9214 11.568C25.7134 11.3813 25.5507 11.1493 25.4334 10.872C25.316 10.5947 25.2574 10.272 25.2574 9.904C25.2574 9.59467 25.3374 9.29067 25.4974 8.992C25.6627 8.688 25.9347 8.416 26.3134 8.176C26.692 7.93067 27.196 7.728 27.8254 7.568C28.4547 7.408 29.236 7.31733 30.1694 7.296V6.816C30.1694 6.26667 30.052 5.86133 29.8174 5.6C29.588 5.33333 29.252 5.2 28.8094 5.2C28.4894 5.2 28.2227 5.23733 28.0094 5.312C27.796 5.38667 27.6094 5.472 27.4494 5.568C27.2947 5.65867 27.1507 5.74133 27.0174 5.816C26.884 5.89067 26.7374 5.928 26.5774 5.928C26.444 5.928 26.3294 5.89333 26.2334 5.824C26.1374 5.75467 26.06 5.66933 26.0014 5.568L25.6414 4.936C26.5854 4.072 27.724 3.64 29.0574 3.64C29.5374 3.64 29.964 3.72 30.3374 3.88C30.716 4.03467 31.036 4.25333 31.2974 4.536C31.5587 4.81333 31.756 5.14667 31.8894 5.536C32.028 5.92533 32.0974 6.352 32.0974 6.816V12ZM28.2574 10.768C28.46 10.768 28.6467 10.7493 28.8174 10.712C28.988 10.6747 29.148 10.6187 29.2974 10.544C29.452 10.4693 29.5987 10.3787 29.7374 10.272C29.8814 10.16 30.0254 10.0293 30.1694 9.88V8.496C29.5934 8.52267 29.1107 8.57333 28.7214 8.648C28.3374 8.71733 28.028 8.808 27.7934 8.92C27.5587 9.032 27.3907 9.16267 27.2894 9.312C27.1934 9.46133 27.1454 9.624 27.1454 9.8C27.1454 10.1467 27.2467 10.3947 27.4494 10.544C27.6574 10.6933 27.9267 10.768 28.2574 10.768ZM39.4701 5.28H39.9741C40.1768 5.28 40.3448 5.25333 40.4781 5.2C40.6115 5.14133 40.7261 5.05067 40.8221 4.928L44.0141 0.888C44.1475 0.717333 44.2861 0.599999 44.4301 0.535999C44.5795 0.466666 44.7661 0.431999 44.9901 0.431999H46.8461L42.9501 5.24C42.8275 5.38933 42.7101 5.51467 42.5981 5.616C42.4861 5.71733 42.3661 5.8 42.2381 5.864C42.4141 5.928 42.5715 6.01867 42.7101 6.136C42.8541 6.25333 42.9928 6.40267 43.1261 6.584L47.1421 12H45.2381C44.9821 12 44.7901 11.9653 44.6621 11.896C44.5395 11.8213 44.4355 11.7147 44.3501 11.576L41.0781 7.304C40.9715 7.16533 40.8515 7.06667 40.7181 7.008C40.5848 6.944 40.3955 6.912 40.1501 6.912H39.4701V12H37.3181V0.424H39.4701V5.28ZM54.738 12H53.85C53.6633 12 53.5167 11.9733 53.41 11.92C53.3033 11.8613 53.2233 11.7467 53.17 11.576L52.994 10.992C52.786 11.1787 52.5807 11.344 52.378 11.488C52.1807 11.6267 51.9753 11.744 51.762 11.84C51.5487 11.936 51.322 12.008 51.082 12.056C50.842 12.104 50.5753 12.128 50.282 12.128C49.9353 12.128 49.6153 12.0827 49.322 11.992C49.0287 11.896 48.7753 11.7547 48.562 11.568C48.354 11.3813 48.1913 11.1493 48.074 10.872C47.9567 10.5947 47.898 10.272 47.898 9.904C47.898 9.59467 47.978 9.29067 48.138 8.992C48.3033 8.688 48.5753 8.416 48.954 8.176C49.3327 7.93067 49.8367 7.728 50.466 7.568C51.0953 7.408 51.8767 7.31733 52.81 7.296V6.816C52.81 6.26667 52.6927 5.86133 52.458 5.6C52.2287 5.33333 51.8927 5.2 51.45 5.2C51.13 5.2 50.8633 5.23733 50.65 5.312C50.4367 5.38667 50.25 5.472 50.09 5.568C49.9353 5.65867 49.7913 5.74133 49.658 5.816C49.5247 5.89067 49.378 5.928 49.218 5.928C49.0847 5.928 48.97 5.89333 48.874 5.824C48.778 5.75467 48.7007 5.66933 48.642 5.568L48.282 4.936C49.226 4.072 50.3647 3.64 51.698 3.64C52.178 3.64 52.6047 3.72 52.978 3.88C53.3567 4.03467 53.6767 4.25333 53.938 4.536C54.1993 4.81333 54.3967 5.14667 54.53 5.536C54.6687 5.92533 54.738 6.352 54.738 6.816V12ZM50.898 10.768C51.1007 10.768 51.2873 10.7493 51.458 10.712C51.6287 10.6747 51.7887 10.6187 51.938 10.544C52.0927 10.4693 52.2393 10.3787 52.378 10.272C52.522 10.16 52.666 10.0293 52.81 9.88V8.496C52.234 8.52267 51.7513 8.57333 51.362 8.648C50.978 8.71733 50.6687 8.808 50.434 8.92C50.1993 9.032 50.0313 9.16267 49.93 9.312C49.834 9.46133 49.786 9.624 49.786 9.8C49.786 10.1467 49.8873 10.3947 50.09 10.544C50.298 10.6933 50.5673 10.768 50.898 10.768ZM62.457 12C62.201 12 62.033 11.88 61.953 11.64L61.793 10.848C61.6223 11.04 61.4437 11.2133 61.257 11.368C61.0703 11.5227 60.8677 11.656 60.649 11.768C60.4357 11.88 60.2037 11.9653 59.953 12.024C59.7077 12.088 59.441 12.12 59.153 12.12C58.705 12.12 58.2943 12.0267 57.921 11.84C57.5477 11.6533 57.225 11.384 56.953 11.032C56.6863 10.6747 56.4783 10.2347 56.329 9.712C56.185 9.18933 56.113 8.592 56.113 7.92C56.113 7.312 56.1957 6.74667 56.361 6.224C56.5263 5.70133 56.7637 5.248 57.073 4.864C57.3823 4.48 57.753 4.18133 58.185 3.968C58.617 3.74933 59.1023 3.64 59.641 3.64C60.0997 3.64 60.4917 3.71467 60.817 3.864C61.1423 4.008 61.433 4.20267 61.689 4.448V0.112H63.665V12H62.457ZM59.825 10.552C60.2357 10.552 60.585 10.4667 60.873 10.296C61.161 10.1253 61.433 9.88267 61.689 9.568V5.888C61.465 5.616 61.2197 5.424 60.953 5.312C60.6917 5.2 60.409 5.144 60.105 5.144C59.8063 5.144 59.5343 5.2 59.289 5.312C59.049 5.424 58.8437 5.59467 58.673 5.824C58.5077 6.048 58.3797 6.336 58.289 6.688C58.1983 7.03467 58.153 7.44533 58.153 7.92C58.153 8.4 58.1903 8.808 58.265 9.144C58.345 9.47467 58.457 9.74667 58.601 9.96C58.745 10.168 58.921 10.32 59.129 10.416C59.337 10.5067 59.569 10.552 59.825 10.552ZM67.91 3.792V12H65.934V3.792H67.91ZM68.206 1.4C68.206 1.57067 68.1713 1.73067 68.102 1.88C68.0327 2.02933 67.9393 2.16 67.822 2.272C67.71 2.384 67.5767 2.47467 67.422 2.544C67.2673 2.608 67.102 2.64 66.926 2.64C66.7553 2.64 66.5927 2.608 66.438 2.544C66.2887 2.47467 66.158 2.384 66.046 2.272C65.934 2.16 65.8433 2.02933 65.774 1.88C65.71 1.73067 65.678 1.57067 65.678 1.4C65.678 1.224 65.71 1.05867 65.774 0.903999C65.8433 0.749333 65.934 0.616 66.046 0.504C66.158 0.392 66.2887 0.304 66.438 0.24C66.5927 0.170666 66.7553 0.136 66.926 0.136C67.102 0.136 67.2673 0.170666 67.422 0.24C67.5767 0.304 67.71 0.392 67.822 0.504C67.9393 0.616 68.0327 0.749333 68.102 0.903999C68.1713 1.05867 68.206 1.224 68.206 1.4ZM72.2538 0.112V12H70.2778V0.112H72.2538ZM77.9975 3.664C78.6108 3.664 79.1655 3.76267 79.6615 3.96C80.1628 4.15733 80.5895 4.43733 80.9415 4.8C81.2935 5.16267 81.5655 5.60533 81.7575 6.128C81.9495 6.65067 82.0455 7.23467 82.0455 7.88C82.0455 8.53067 81.9495 9.11733 81.7575 9.64C81.5655 10.1627 81.2935 10.608 80.9415 10.976C80.5895 11.344 80.1628 11.6267 79.6615 11.824C79.1655 12.0213 78.6108 12.12 77.9975 12.12C77.3842 12.12 76.8268 12.0213 76.3255 11.824C75.8242 11.6267 75.3948 11.344 75.0375 10.976C74.6855 10.608 74.4108 10.1627 74.2135 9.64C74.0215 9.11733 73.9255 8.53067 73.9255 7.88C73.9255 7.23467 74.0215 6.65067 74.2135 6.128C74.4108 5.60533 74.6855 5.16267 75.0375 4.8C75.3948 4.43733 75.8242 4.15733 76.3255 3.96C76.8268 3.76267 77.3842 3.664 77.9975 3.664ZM77.9975 10.6C78.6802 10.6 79.1842 10.3707 79.5095 9.912C79.8402 9.45333 80.0055 8.78133 80.0055 7.896C80.0055 7.01067 79.8402 6.336 79.5095 5.872C79.1842 5.408 78.6802 5.176 77.9975 5.176C77.3042 5.176 76.7922 5.41067 76.4615 5.88C76.1308 6.344 75.9655 7.016 75.9655 7.896C75.9655 8.776 76.1308 9.448 76.4615 9.912C76.7922 10.3707 77.3042 10.6 77.9975 10.6ZM87.4336 12H85.6416L82.3776 3.792H84.0176C84.1616 3.792 84.2816 3.82667 84.3776 3.896C84.479 3.96533 84.5483 4.05333 84.5856 4.16L86.1696 8.544C86.2603 8.8 86.335 9.05067 86.3936 9.296C86.4576 9.54133 86.5136 9.78667 86.5616 10.032C86.6096 9.78667 86.663 9.54133 86.7216 9.296C86.7856 9.05067 86.8656 8.8 86.9616 8.544L88.5856 4.16C88.623 4.05333 88.6896 3.96533 88.7856 3.896C88.8816 3.82667 88.9963 3.792 89.1296 3.792H90.6896L87.4336 12ZM98.2849 12H97.3969C97.2102 12 97.0635 11.9733 96.9569 11.92C96.8502 11.8613 96.7702 11.7467 96.7169 11.576L96.5409 10.992C96.3329 11.1787 96.1275 11.344 95.9249 11.488C95.7275 11.6267 95.5222 11.744 95.3089 11.84C95.0955 11.936 94.8689 12.008 94.6289 12.056C94.3889 12.104 94.1222 12.128 93.8289 12.128C93.4822 12.128 93.1622 12.0827 92.8689 11.992C92.5755 11.896 92.3222 11.7547 92.1089 11.568C91.9009 11.3813 91.7382 11.1493 91.6209 10.872C91.5035 10.5947 91.4449 10.272 91.4449 9.904C91.4449 9.59467 91.5249 9.29067 91.6849 8.992C91.8502 8.688 92.1222 8.416 92.5009 8.176C92.8795 7.93067 93.3835 7.728 94.0129 7.568C94.6422 7.408 95.4235 7.31733 96.3569 7.296V6.816C96.3569 6.26667 96.2395 5.86133 96.0049 5.6C95.7755 5.33333 95.4395 5.2 94.9969 5.2C94.6769 5.2 94.4102 5.23733 94.1969 5.312C93.9835 5.38667 93.7969 5.472 93.6369 5.568C93.4822 5.65867 93.3382 5.74133 93.2049 5.816C93.0715 5.89067 92.9249 5.928 92.7649 5.928C92.6315 5.928 92.5169 5.89333 92.4209 5.824C92.3249 5.75467 92.2475 5.66933 92.1889 5.568L91.8289 4.936C92.7729 4.072 93.9115 3.64 95.2449 3.64C95.7249 3.64 96.1515 3.72 96.5249 3.88C96.9035 4.03467 97.2235 4.25333 97.4849 4.536C97.7462 4.81333 97.9435 5.14667 98.0769 5.536C98.2155 5.92533 98.2849 6.352 98.2849 6.816V12ZM94.4449 10.768C94.6475 10.768 94.8342 10.7493 95.0049 10.712C95.1755 10.6747 95.3355 10.6187 95.4849 10.544C95.6395 10.4693 95.7862 10.3787 95.9249 10.272C96.0689 10.16 96.2129 10.0293 96.3569 9.88V8.496C95.7809 8.52267 95.2982 8.57333 94.9089 8.648C94.5249 8.71733 94.2155 8.808 93.9809 8.92C93.7462 9.032 93.5782 9.16267 93.4769 9.312C93.3809 9.46133 93.3329 9.624 93.3329 9.8C93.3329 10.1467 93.4342 10.3947 93.6369 10.544C93.8449 10.6933 94.1142 10.768 94.4449 10.768Z" fill="url(#paint0_linear_196_492)"></path> <defs> <linearGradient id="paint0_linear_196_492" x1="49.5" y1="-4" x2="43.9284" y2="17.5602" gradientUnits="userSpaceOnUse"> <stop stop-color="#FFE8CA"></stop> <stop offset="0.260417" stop-color="#FFE0E3"></stop> <stop offset="0.442708" stop-color="#FFC9ED"></stop> <stop offset="0.697917" stop-color="#C8BDFB"></stop> <stop offset="0.947917" stop-color="#A7C7FF"></stop> </linearGradient> </defs> </svg> 