<?xml version="1.0" encoding="UTF-8"?> <svg xmlns="http://www.w3.org/2000/svg" width="138" height="15" viewBox="0 0 138 15" fill="none"> <path d="M1.296 0.431999C1.392 0.431999 1.472 0.437332 1.536 0.447999C1.6 0.453333 1.656 0.469333 1.704 0.495999C1.75733 0.517333 1.808 0.552 1.856 0.599999C1.904 0.642666 1.95733 0.701333 2.016 0.775999L8.088 8.512C8.06667 8.32533 8.05067 8.144 8.04 7.968C8.03467 7.78667 8.032 7.61867 8.032 7.464V0.431999H9.928V12H8.816C8.64533 12 8.504 11.9733 8.392 11.92C8.28 11.8667 8.17067 11.7707 8.064 11.632L2.016 3.928C2.032 4.09867 2.04267 4.26933 2.048 4.44C2.05867 4.60533 2.064 4.75733 2.064 4.896V12H0.168V0.431999H1.296ZM18.5818 12H17.6938C17.5071 12 17.3604 11.9733 17.2538 11.92C17.1471 11.8613 17.0671 11.7467 17.0138 11.576L16.8378 10.992C16.6298 11.1787 16.4244 11.344 16.2218 11.488C16.0244 11.6267 15.8191 11.744 15.6058 11.84C15.3924 11.936 15.1658 12.008 14.9258 12.056C14.6858 12.104 14.4191 12.128 14.1258 12.128C13.7791 12.128 13.4591 12.0827 13.1658 11.992C12.8724 11.896 12.6191 11.7547 12.4058 11.568C12.1978 11.3813 12.0351 11.1493 11.9178 10.872C11.8004 10.5947 11.7418 10.272 11.7418 9.904C11.7418 9.59467 11.8218 9.29067 11.9818 8.992C12.1471 8.688 12.4191 8.416 12.7978 8.176C13.1764 7.93067 13.6804 7.728 14.3098 7.568C14.9391 7.408 15.7204 7.31733 16.6538 7.296V6.816C16.6538 6.26667 16.5364 5.86133 16.3018 5.6C16.0724 5.33333 15.7364 5.2 15.2938 5.2C14.9738 5.2 14.7071 5.23733 14.4938 5.312C14.2804 5.38667 14.0938 5.472 13.9338 5.568C13.7791 5.65867 13.6351 5.74133 13.5018 5.816C13.3684 5.89067 13.2218 5.928 13.0618 5.928C12.9284 5.928 12.8138 5.89333 12.7178 5.824C12.6218 5.75467 12.5444 5.66933 12.4858 5.568L12.1258 4.936C13.0698 4.072 14.2084 3.64 15.5418 3.64C16.0218 3.64 16.4484 3.72 16.8218 3.88C17.2004 4.03467 17.5204 4.25333 17.7818 4.536C18.0431 4.81333 18.2404 5.14667 18.3738 5.536C18.5124 5.92533 18.5818 6.352 18.5818 6.816V12ZM14.7418 10.768C14.9444 10.768 15.1311 10.7493 15.3018 10.712C15.4724 10.6747 15.6324 10.6187 15.7818 10.544C15.9364 10.4693 16.0831 10.3787 16.2218 10.272C16.3658 10.16 16.5098 10.0293 16.6538 9.88V8.496C16.0778 8.52267 15.5951 8.57333 15.2057 8.648C14.8218 8.71733 14.5124 8.808 14.2778 8.92C14.0431 9.032 13.8751 9.16267 13.7738 9.312C13.6778 9.46133 13.6298 9.624 13.6298 9.8C13.6298 10.1467 13.7311 10.3947 13.9338 10.544C14.1418 10.6933 14.4111 10.768 14.7418 10.768ZM25.3968 5.392C25.3434 5.47733 25.2874 5.53867 25.2288 5.576C25.1701 5.608 25.0954 5.624 25.0048 5.624C24.9088 5.624 24.8048 5.59733 24.6928 5.544C24.5861 5.49067 24.4608 5.432 24.3168 5.368C24.1728 5.29867 24.0074 5.23733 23.8208 5.184C23.6394 5.13067 23.4234 5.104 23.1728 5.104C22.7834 5.104 22.4768 5.18667 22.2528 5.352C22.0288 5.51733 21.9168 5.73333 21.9168 6C21.9168 6.176 21.9728 6.32533 22.0848 6.448C22.2021 6.56533 22.3541 6.66933 22.5408 6.76C22.7328 6.85067 22.9488 6.93333 23.1888 7.008C23.4288 7.07733 23.6741 7.15467 23.9248 7.24C24.1754 7.32533 24.4208 7.424 24.6608 7.536C24.9008 7.64267 25.1141 7.78133 25.3008 7.952C25.4928 8.11733 25.6448 8.31733 25.7568 8.552C25.8741 8.78667 25.9328 9.06933 25.9328 9.4C25.9328 9.79467 25.8608 10.16 25.7168 10.496C25.5728 10.8267 25.3621 11.1147 25.0848 11.36C24.8074 11.6 24.4634 11.7893 24.0528 11.928C23.6474 12.0613 23.1808 12.128 22.6528 12.128C22.3701 12.128 22.0928 12.1013 21.8207 12.048C21.5541 12 21.2954 11.9307 21.0448 11.84C20.7994 11.7493 20.5701 11.6427 20.3568 11.52C20.1488 11.3973 19.9648 11.264 19.8048 11.12L20.2608 10.368C20.3194 10.2773 20.3888 10.208 20.4688 10.16C20.5488 10.112 20.6501 10.088 20.7728 10.088C20.8954 10.088 21.0101 10.1227 21.1168 10.192C21.2288 10.2613 21.3568 10.336 21.5008 10.416C21.6448 10.496 21.8128 10.5707 22.0048 10.64C22.2021 10.7093 22.4501 10.744 22.7488 10.744C22.9834 10.744 23.1834 10.7173 23.3488 10.664C23.5194 10.6053 23.6581 10.5307 23.7648 10.44C23.8768 10.3493 23.9568 10.2453 24.0048 10.128C24.0581 10.0053 24.0848 9.88 24.0848 9.752C24.0848 9.56 24.0261 9.40267 23.9088 9.28C23.7968 9.15733 23.6448 9.05067 23.4528 8.96C23.2661 8.86933 23.0501 8.78933 22.8048 8.72C22.5648 8.64533 22.3168 8.56533 22.0608 8.48C21.8101 8.39467 21.5621 8.296 21.3168 8.184C21.0768 8.06667 20.8608 7.92 20.6688 7.744C20.4821 7.568 20.3301 7.352 20.2128 7.096C20.1008 6.84 20.0448 6.53067 20.0448 6.168C20.0448 5.832 20.1114 5.512 20.2448 5.208C20.3781 4.904 20.5728 4.64 20.8288 4.416C21.0901 4.18667 21.4128 4.00533 21.7968 3.872C22.1861 3.73333 22.6341 3.664 23.1408 3.664C23.7061 3.664 24.2208 3.75733 24.6848 3.944C25.1488 4.13067 25.5354 4.376 25.8448 4.68L25.3968 5.392ZM30.2051 12.128C29.4958 12.128 28.9491 11.928 28.5651 11.528C28.1811 11.1227 27.9891 10.5653 27.9891 9.856V5.272H27.1571C27.0505 5.272 26.9571 5.23733 26.8771 5.168C26.8025 5.09867 26.7651 4.99467 26.7651 4.856V4.072L28.0851 3.856L28.5011 1.616C28.5225 1.50933 28.5705 1.42667 28.6451 1.368C28.7251 1.30933 28.8238 1.28 28.9411 1.28H29.9651V3.864H32.1251V5.272H29.9651V9.72C29.9651 9.976 30.0291 10.176 30.1571 10.32C30.2851 10.464 30.4558 10.536 30.6691 10.536C30.7918 10.536 30.8931 10.5227 30.9731 10.496C31.0585 10.464 31.1305 10.432 31.1891 10.4C31.2531 10.368 31.3091 10.3387 31.3571 10.312C31.4051 10.28 31.4531 10.264 31.5011 10.264C31.5598 10.264 31.6078 10.28 31.6451 10.312C31.6825 10.3387 31.7225 10.3813 31.7651 10.44L32.3571 11.4C32.0691 11.64 31.7385 11.8213 31.3651 11.944C30.9918 12.0667 30.6051 12.128 30.2051 12.128ZM36.6086 14.256C36.55 14.3947 36.4726 14.4987 36.3766 14.568C36.286 14.6427 36.1446 14.68 35.9526 14.68H34.4806L36.0166 11.392L32.6966 3.792H34.4246C34.5846 3.792 34.7073 3.82933 34.7926 3.904C34.878 3.97867 34.942 4.064 34.9846 4.16L36.7366 8.416C36.7953 8.55467 36.846 8.69867 36.8886 8.848C36.9313 8.99733 36.9686 9.14667 37.0006 9.296C37.0433 9.14133 37.0886 8.992 37.1366 8.848C37.19 8.704 37.246 8.55733 37.3046 8.408L38.9526 4.16C38.9953 4.05333 39.0646 3.96533 39.1606 3.896C39.262 3.82667 39.374 3.792 39.4966 3.792H41.0806L36.6086 14.256ZM48.6599 12H47.7719C47.5852 12 47.4385 11.9733 47.3319 11.92C47.2252 11.8613 47.1452 11.7467 47.0919 11.576L46.9159 10.992C46.7079 11.1787 46.5025 11.344 46.2999 11.488C46.1025 11.6267 45.8972 11.744 45.6839 11.84C45.4705 11.936 45.2439 12.008 45.0039 12.056C44.7639 12.104 44.4972 12.128 44.2039 12.128C43.8572 12.128 43.5372 12.0827 43.2439 11.992C42.9505 11.896 42.6972 11.7547 42.4839 11.568C42.2759 11.3813 42.1132 11.1493 41.9959 10.872C41.8785 10.5947 41.8199 10.272 41.8199 9.904C41.8199 9.59467 41.8999 9.29067 42.0599 8.992C42.2252 8.688 42.4972 8.416 42.8759 8.176C43.2545 7.93067 43.7585 7.728 44.3879 7.568C45.0172 7.408 45.7985 7.31733 46.7319 7.296V6.816C46.7319 6.26667 46.6145 5.86133 46.3799 5.6C46.1505 5.33333 45.8145 5.2 45.3719 5.2C45.0519 5.2 44.7852 5.23733 44.5719 5.312C44.3585 5.38667 44.1719 5.472 44.0119 5.568C43.8572 5.65867 43.7132 5.74133 43.5799 5.816C43.4465 5.89067 43.2999 5.928 43.1399 5.928C43.0065 5.928 42.8919 5.89333 42.7959 5.824C42.6999 5.75467 42.6225 5.66933 42.5639 5.568L42.2039 4.936C43.1479 4.072 44.2865 3.64 45.6199 3.64C46.0999 3.64 46.5265 3.72 46.8999 3.88C47.2785 4.03467 47.5985 4.25333 47.8599 4.536C48.1212 4.81333 48.3185 5.14667 48.4519 5.536C48.5905 5.92533 48.6599 6.352 48.6599 6.816V12ZM44.8199 10.768C45.0225 10.768 45.2092 10.7493 45.3799 10.712C45.5505 10.6747 45.7105 10.6187 45.8599 10.544C46.0145 10.4693 46.1612 10.3787 46.2999 10.272C46.4439 10.16 46.5879 10.0293 46.7319 9.88V8.496C46.1559 8.52267 45.6732 8.57333 45.2839 8.648C44.8999 8.71733 44.5905 8.808 44.3559 8.92C44.1212 9.032 43.9532 9.16267 43.8519 9.312C43.7559 9.46133 43.7079 9.624 43.7079 9.8C43.7079 10.1467 43.8092 10.3947 44.0119 10.544C44.2199 10.6933 44.4892 10.768 44.8199 10.768ZM56.0326 7.928V12H53.8806V0.431999H57.6486C58.422 0.431999 59.0913 0.522666 59.6566 0.704C60.222 0.885333 60.6886 1.13867 61.0566 1.464C61.4246 1.78933 61.6966 2.17867 61.8726 2.632C62.0486 3.08533 62.1366 3.58133 62.1366 4.12C62.1366 4.68 62.0433 5.19467 61.8566 5.664C61.67 6.128 61.39 6.528 61.0166 6.864C60.6433 7.2 60.1766 7.46133 59.6166 7.648C59.0566 7.83467 58.4006 7.928 57.6486 7.928H56.0326ZM56.0326 6.248H57.6486C58.0433 6.248 58.3873 6.2 58.6806 6.104C58.974 6.00267 59.2166 5.86133 59.4086 5.68C59.6006 5.49333 59.7446 5.26933 59.8406 5.008C59.9366 4.74133 59.9846 4.44533 59.9846 4.12C59.9846 3.81067 59.9366 3.53067 59.8406 3.28C59.7446 3.02933 59.6006 2.816 59.4086 2.64C59.2166 2.464 58.974 2.33067 58.6806 2.24C58.3873 2.144 58.0433 2.096 57.6486 2.096H56.0326V6.248ZM66.8543 3.664C67.3716 3.664 67.8463 3.74667 68.2783 3.912C68.7156 4.07733 69.0916 4.32 69.4063 4.64C69.7209 4.95467 69.9663 5.344 70.1423 5.808C70.3183 6.26667 70.4062 6.792 70.4062 7.384C70.4062 7.53333 70.3983 7.65867 70.3823 7.76C70.3716 7.856 70.3476 7.93333 70.3103 7.992C70.2783 8.04533 70.2329 8.08533 70.1743 8.112C70.1156 8.13333 70.0409 8.144 69.9503 8.144H64.8783C64.9369 8.98667 65.1636 9.60533 65.5583 10C65.9529 10.3947 66.4756 10.592 67.1263 10.592C67.4463 10.592 67.7209 10.5547 67.9503 10.48C68.1849 10.4053 68.3876 10.3227 68.5583 10.232C68.7343 10.1413 68.8863 10.0587 69.0143 9.984C69.1476 9.90933 69.2756 9.872 69.3983 9.872C69.4783 9.872 69.5476 9.888 69.6063 9.92C69.6649 9.952 69.7156 9.99733 69.7583 10.056L70.3343 10.776C70.1156 11.032 69.8703 11.248 69.5983 11.424C69.3263 11.5947 69.0409 11.7333 68.7423 11.84C68.4489 11.9413 68.1476 12.0133 67.8383 12.056C67.5343 12.0987 67.2383 12.12 66.9503 12.12C66.3796 12.12 65.8489 12.0267 65.3583 11.84C64.8676 11.648 64.4409 11.368 64.0783 11C63.7156 10.6267 63.4303 10.168 63.2223 9.624C63.0143 9.07467 62.9103 8.44 62.9103 7.72C62.9103 7.16 63.0009 6.63467 63.1823 6.144C63.3636 5.648 63.6223 5.21867 63.9583 4.856C64.2996 4.488 64.7129 4.19733 65.1983 3.984C65.6889 3.77067 66.2409 3.664 66.8543 3.664ZM66.8943 5.08C66.3183 5.08 65.8676 5.24267 65.5423 5.568C65.2169 5.89333 65.0089 6.35467 64.9183 6.952H68.6303C68.6303 6.696 68.5956 6.456 68.5263 6.232C68.4569 6.00267 68.3503 5.80267 68.2063 5.632C68.0623 5.46133 67.8809 5.328 67.6623 5.232C67.4436 5.13067 67.1876 5.08 66.8943 5.08ZM72.0091 12V3.792H73.1691C73.3718 3.792 73.5131 3.82933 73.5931 3.904C73.6731 3.97867 73.7265 4.10667 73.7531 4.288L73.8731 5.28C74.1665 4.77333 74.5105 4.37333 74.9051 4.08C75.2998 3.78667 75.7425 3.64 76.2331 3.64C76.6385 3.64 76.9745 3.73333 77.2411 3.92L76.9851 5.4C76.9691 5.496 76.9345 5.56533 76.8811 5.608C76.8278 5.64533 76.7558 5.664 76.6651 5.664C76.5851 5.664 76.4758 5.64533 76.3371 5.608C76.1985 5.57067 76.0145 5.552 75.7851 5.552C75.3745 5.552 75.0225 5.66667 74.7291 5.896C74.4358 6.12 74.1878 6.45067 73.9851 6.888V12H72.0091ZM81.9324 3.664C82.4497 3.664 82.9244 3.74667 83.3564 3.912C83.7937 4.07733 84.1697 4.32 84.4844 4.64C84.799 4.95467 85.0444 5.344 85.2204 5.808C85.3964 6.26667 85.4844 6.792 85.4844 7.384C85.4844 7.53333 85.4764 7.65867 85.4604 7.76C85.4497 7.856 85.4257 7.93333 85.3884 7.992C85.3564 8.04533 85.311 8.08533 85.2524 8.112C85.1937 8.13333 85.119 8.144 85.0284 8.144H79.9564C80.015 8.98667 80.2417 9.60533 80.6364 10C81.031 10.3947 81.5537 10.592 82.2044 10.592C82.5244 10.592 82.799 10.5547 83.0284 10.48C83.263 10.4053 83.4657 10.3227 83.6364 10.232C83.8124 10.1413 83.9644 10.0587 84.0924 9.984C84.2257 9.90933 84.3537 9.872 84.4764 9.872C84.5564 9.872 84.6257 9.888 84.6844 9.92C84.743 9.952 84.7937 9.99733 84.8364 10.056L85.4124 10.776C85.1937 11.032 84.9484 11.248 84.6764 11.424C84.4044 11.5947 84.119 11.7333 83.8204 11.84C83.527 11.9413 83.2257 12.0133 82.9164 12.056C82.6124 12.0987 82.3164 12.12 82.0284 12.12C81.4577 12.12 80.927 12.0267 80.4364 11.84C79.9457 11.648 79.519 11.368 79.1564 11C78.7937 10.6267 78.5084 10.168 78.3004 9.624C78.0924 9.07467 77.9884 8.44 77.9884 7.72C77.9884 7.16 78.079 6.63467 78.2604 6.144C78.4417 5.648 78.7004 5.21867 79.0364 4.856C79.3777 4.488 79.791 4.19733 80.2764 3.984C80.767 3.77067 81.319 3.664 81.9324 3.664ZM81.9724 5.08C81.3964 5.08 80.9457 5.24267 80.6204 5.568C80.295 5.89333 80.087 6.35467 79.9964 6.952H83.7084C83.7084 6.696 83.6737 6.456 83.6044 6.232C83.535 6.00267 83.4284 5.80267 83.2844 5.632C83.1404 5.46133 82.959 5.328 82.7404 5.232C82.5217 5.13067 82.2657 5.08 81.9724 5.08ZM87.0872 14.68V3.792H88.2953C88.4233 3.792 88.5326 3.82133 88.6233 3.88C88.7139 3.93867 88.7726 4.02933 88.7993 4.152L88.9593 4.912C89.2899 4.53333 89.6686 4.22667 90.0953 3.992C90.5273 3.75733 91.0313 3.64 91.6073 3.64C92.0553 3.64 92.4633 3.73333 92.8313 3.92C93.2046 4.10667 93.5246 4.37867 93.7913 4.736C94.0633 5.088 94.2713 5.52533 94.4153 6.048C94.5646 6.56533 94.6393 7.16 94.6393 7.832C94.6393 8.44533 94.5566 9.01333 94.3913 9.536C94.2259 10.0587 93.9886 10.512 93.6793 10.896C93.3753 11.28 93.0046 11.5813 92.5673 11.8C92.1353 12.0133 91.6499 12.12 91.1113 12.12C90.6473 12.12 90.2526 12.0507 89.9273 11.912C89.6073 11.768 89.3193 11.5707 89.0633 11.32V14.68H87.0872ZM90.9273 5.2C90.5166 5.2 90.1646 5.288 89.8713 5.464C89.5833 5.63467 89.3139 5.87733 89.0633 6.192V9.872C89.2873 10.1493 89.5299 10.344 89.7913 10.456C90.0579 10.5627 90.3433 10.616 90.6473 10.616C90.9459 10.616 91.2153 10.56 91.4553 10.448C91.7006 10.336 91.9059 10.1653 92.0713 9.936C92.2419 9.70667 92.3726 9.41867 92.4633 9.072C92.5539 8.72 92.5993 8.30667 92.5993 7.832C92.5993 7.352 92.5593 6.94667 92.4793 6.616C92.4046 6.28 92.2953 6.008 92.1513 5.8C92.0073 5.592 91.8313 5.44 91.6233 5.344C91.4206 5.248 91.1886 5.2 90.9273 5.2ZM99.5261 3.664C100.043 3.664 100.518 3.74667 100.95 3.912C101.387 4.07733 101.763 4.32 102.078 4.64C102.393 4.95467 102.638 5.344 102.814 5.808C102.99 6.26667 103.078 6.792 103.078 7.384C103.078 7.53333 103.07 7.65867 103.054 7.76C103.043 7.856 103.019 7.93333 102.982 7.992C102.95 8.04533 102.905 8.08533 102.846 8.112C102.787 8.13333 102.713 8.144 102.622 8.144H97.5501C97.6088 8.98667 97.8355 9.60533 98.2301 10C98.6248 10.3947 99.1475 10.592 99.7981 10.592C100.118 10.592 100.393 10.5547 100.622 10.48C100.857 10.4053 101.059 10.3227 101.23 10.232C101.406 10.1413 101.558 10.0587 101.686 9.984C101.819 9.90933 101.947 9.872 102.07 9.872C102.15 9.872 102.219 9.888 102.278 9.92C102.337 9.952 102.387 9.99733 102.43 10.056L103.006 10.776C102.787 11.032 102.542 11.248 102.27 11.424C101.998 11.5947 101.713 11.7333 101.414 11.84C101.121 11.9413 100.819 12.0133 100.51 12.056C100.206 12.0987 99.9101 12.12 99.6221 12.12C99.0515 12.12 98.5208 12.0267 98.0301 11.84C97.5395 11.648 97.1128 11.368 96.7501 11C96.3875 10.6267 96.1021 10.168 95.8941 9.624C95.6861 9.07467 95.5821 8.44 95.5821 7.72C95.5821 7.16 95.6728 6.63467 95.8541 6.144C96.0355 5.648 96.2941 5.21867 96.6301 4.856C96.9715 4.488 97.3848 4.19733 97.8701 3.984C98.3608 3.77067 98.9128 3.664 99.5261 3.664ZM99.5661 5.08C98.9901 5.08 98.5395 5.24267 98.2141 5.568C97.8888 5.89333 97.6808 6.35467 97.5901 6.952H101.302C101.302 6.696 101.267 6.456 101.198 6.232C101.129 6.00267 101.022 5.80267 100.878 5.632C100.734 5.46133 100.553 5.328 100.334 5.232C100.115 5.13067 99.8595 5.08 99.5661 5.08ZM106.785 0.112V12H104.809V0.112H106.785ZM111.025 0.112V6.92H111.393C111.526 6.92 111.63 6.90133 111.705 6.864C111.779 6.82667 111.859 6.75733 111.945 6.656L113.985 4.136C114.075 4.02933 114.171 3.94667 114.273 3.888C114.374 3.824 114.507 3.792 114.673 3.792H116.481L113.929 6.84C113.838 6.952 113.745 7.056 113.649 7.152C113.553 7.24267 113.449 7.32267 113.337 7.392C113.449 7.472 113.547 7.56533 113.633 7.672C113.718 7.77867 113.803 7.89333 113.889 8.016L116.625 12H114.841C114.686 12 114.555 11.9733 114.449 11.92C114.342 11.8667 114.246 11.776 114.161 11.648L112.073 8.536C111.993 8.41333 111.913 8.33333 111.833 8.296C111.753 8.25867 111.633 8.24 111.473 8.24H111.025V12H109.049V0.112H111.025ZM119.957 3.792V12H117.981V3.792H119.957ZM120.253 1.4C120.253 1.57067 120.218 1.73067 120.149 1.88C120.08 2.02933 119.986 2.16 119.869 2.272C119.757 2.384 119.624 2.47467 119.469 2.544C119.314 2.608 119.149 2.64 118.973 2.64C118.802 2.64 118.64 2.608 118.485 2.544C118.336 2.47467 118.205 2.384 118.093 2.272C117.981 2.16 117.89 2.02933 117.821 1.88C117.757 1.73067 117.725 1.57067 117.725 1.4C117.725 1.224 117.757 1.05867 117.821 0.903999C117.89 0.749333 117.981 0.616 118.093 0.504C118.205 0.392 118.336 0.304 118.485 0.24C118.64 0.170666 118.802 0.136 118.973 0.136C119.149 0.136 119.314 0.170666 119.469 0.24C119.624 0.304 119.757 0.392 119.869 0.504C119.986 0.616 120.08 0.749333 120.149 0.903999C120.218 1.05867 120.253 1.224 120.253 1.4ZM122.197 12V3.792H123.405C123.661 3.792 123.829 3.912 123.909 4.152L124.045 4.8C124.21 4.62933 124.383 4.47467 124.565 4.336C124.751 4.19733 124.946 4.07733 125.149 3.976C125.357 3.87467 125.578 3.79733 125.813 3.744C126.047 3.69067 126.303 3.664 126.581 3.664C127.029 3.664 127.426 3.74133 127.773 3.896C128.119 4.04533 128.407 4.25867 128.637 4.536C128.871 4.808 129.047 5.136 129.165 5.52C129.287 5.89867 129.349 6.31733 129.349 6.776V12H127.373V6.776C127.373 6.27467 127.255 5.888 127.021 5.616C126.791 5.33867 126.445 5.2 125.981 5.2C125.639 5.2 125.319 5.27733 125.021 5.432C124.722 5.58667 124.439 5.79733 124.173 6.064V12H122.197ZM137.722 12H136.834C136.648 12 136.501 11.9733 136.394 11.92C136.288 11.8613 136.208 11.7467 136.154 11.576L135.978 10.992C135.77 11.1787 135.565 11.344 135.362 11.488C135.165 11.6267 134.96 11.744 134.746 11.84C134.533 11.936 134.306 12.008 134.066 12.056C133.826 12.104 133.56 12.128 133.266 12.128C132.92 12.128 132.6 12.0827 132.306 11.992C132.013 11.896 131.76 11.7547 131.546 11.568C131.338 11.3813 131.176 11.1493 131.058 10.872C130.941 10.5947 130.882 10.272 130.882 9.904C130.882 9.59467 130.962 9.29067 131.122 8.992C131.288 8.688 131.56 8.416 131.938 8.176C132.317 7.93067 132.821 7.728 133.45 7.568C134.08 7.408 134.861 7.31733 135.794 7.296V6.816C135.794 6.26667 135.677 5.86133 135.442 5.6C135.213 5.33333 134.877 5.2 134.434 5.2C134.114 5.2 133.848 5.23733 133.634 5.312C133.421 5.38667 133.234 5.472 133.074 5.568C132.92 5.65867 132.776 5.74133 132.642 5.816C132.509 5.89067 132.362 5.928 132.202 5.928C132.069 5.928 131.954 5.89333 131.858 5.824C131.762 5.75467 131.685 5.66933 131.626 5.568L131.266 4.936C132.21 4.072 133.349 3.64 134.682 3.64C135.162 3.64 135.589 3.72 135.962 3.88C136.341 4.03467 136.661 4.25333 136.922 4.536C137.184 4.81333 137.381 5.14667 137.514 5.536C137.653 5.92533 137.722 6.352 137.722 6.816V12ZM133.882 10.768C134.085 10.768 134.272 10.7493 134.442 10.712C134.613 10.6747 134.773 10.6187 134.922 10.544C135.077 10.4693 135.224 10.3787 135.362 10.272C135.506 10.16 135.65 10.0293 135.794 9.88V8.496C135.218 8.52267 134.736 8.57333 134.346 8.648C133.962 8.71733 133.653 8.808 133.418 8.92C133.184 9.032 133.016 9.16267 132.914 9.312C132.818 9.46133 132.77 9.624 132.77 9.8C132.77 10.1467 132.872 10.3947 133.074 10.544C133.282 10.6933 133.552 10.768 133.882 10.768Z" fill="white"></path> <path d="M1.296 0.431999C1.392 0.431999 1.472 0.437332 1.536 0.447999C1.6 0.453333 1.656 0.469333 1.704 0.495999C1.75733 0.517333 1.808 0.552 1.856 0.599999C1.904 0.642666 1.95733 0.701333 2.016 0.775999L8.088 8.512C8.06667 8.32533 8.05067 8.144 8.04 7.968C8.03467 7.78667 8.032 7.61867 8.032 7.464V0.431999H9.928V12H8.816C8.64533 12 8.504 11.9733 8.392 11.92C8.28 11.8667 8.17067 11.7707 8.064 11.632L2.016 3.928C2.032 4.09867 2.04267 4.26933 2.048 4.44C2.05867 4.60533 2.064 4.75733 2.064 4.896V12H0.168V0.431999H1.296ZM18.5818 12H17.6938C17.5071 12 17.3604 11.9733 17.2538 11.92C17.1471 11.8613 17.0671 11.7467 17.0138 11.576L16.8378 10.992C16.6298 11.1787 16.4244 11.344 16.2218 11.488C16.0244 11.6267 15.8191 11.744 15.6058 11.84C15.3924 11.936 15.1658 12.008 14.9258 12.056C14.6858 12.104 14.4191 12.128 14.1258 12.128C13.7791 12.128 13.4591 12.0827 13.1658 11.992C12.8724 11.896 12.6191 11.7547 12.4058 11.568C12.1978 11.3813 12.0351 11.1493 11.9178 10.872C11.8004 10.5947 11.7418 10.272 11.7418 9.904C11.7418 9.59467 11.8218 9.29067 11.9818 8.992C12.1471 8.688 12.4191 8.416 12.7978 8.176C13.1764 7.93067 13.6804 7.728 14.3098 7.568C14.9391 7.408 15.7204 7.31733 16.6538 7.296V6.816C16.6538 6.26667 16.5364 5.86133 16.3018 5.6C16.0724 5.33333 15.7364 5.2 15.2938 5.2C14.9738 5.2 14.7071 5.23733 14.4938 5.312C14.2804 5.38667 14.0938 5.472 13.9338 5.568C13.7791 5.65867 13.6351 5.74133 13.5018 5.816C13.3684 5.89067 13.2218 5.928 13.0618 5.928C12.9284 5.928 12.8138 5.89333 12.7178 5.824C12.6218 5.75467 12.5444 5.66933 12.4858 5.568L12.1258 4.936C13.0698 4.072 14.2084 3.64 15.5418 3.64C16.0218 3.64 16.4484 3.72 16.8218 3.88C17.2004 4.03467 17.5204 4.25333 17.7818 4.536C18.0431 4.81333 18.2404 5.14667 18.3738 5.536C18.5124 5.92533 18.5818 6.352 18.5818 6.816V12ZM14.7418 10.768C14.9444 10.768 15.1311 10.7493 15.3018 10.712C15.4724 10.6747 15.6324 10.6187 15.7818 10.544C15.9364 10.4693 16.0831 10.3787 16.2218 10.272C16.3658 10.16 16.5098 10.0293 16.6538 9.88V8.496C16.0778 8.52267 15.5951 8.57333 15.2057 8.648C14.8218 8.71733 14.5124 8.808 14.2778 8.92C14.0431 9.032 13.8751 9.16267 13.7738 9.312C13.6778 9.46133 13.6298 9.624 13.6298 9.8C13.6298 10.1467 13.7311 10.3947 13.9338 10.544C14.1418 10.6933 14.4111 10.768 14.7418 10.768ZM25.3968 5.392C25.3434 5.47733 25.2874 5.53867 25.2288 5.576C25.1701 5.608 25.0954 5.624 25.0048 5.624C24.9088 5.624 24.8048 5.59733 24.6928 5.544C24.5861 5.49067 24.4608 5.432 24.3168 5.368C24.1728 5.29867 24.0074 5.23733 23.8208 5.184C23.6394 5.13067 23.4234 5.104 23.1728 5.104C22.7834 5.104 22.4768 5.18667 22.2528 5.352C22.0288 5.51733 21.9168 5.73333 21.9168 6C21.9168 6.176 21.9728 6.32533 22.0848 6.448C22.2021 6.56533 22.3541 6.66933 22.5408 6.76C22.7328 6.85067 22.9488 6.93333 23.1888 7.008C23.4288 7.07733 23.6741 7.15467 23.9248 7.24C24.1754 7.32533 24.4208 7.424 24.6608 7.536C24.9008 7.64267 25.1141 7.78133 25.3008 7.952C25.4928 8.11733 25.6448 8.31733 25.7568 8.552C25.8741 8.78667 25.9328 9.06933 25.9328 9.4C25.9328 9.79467 25.8608 10.16 25.7168 10.496C25.5728 10.8267 25.3621 11.1147 25.0848 11.36C24.8074 11.6 24.4634 11.7893 24.0528 11.928C23.6474 12.0613 23.1808 12.128 22.6528 12.128C22.3701 12.128 22.0928 12.1013 21.8207 12.048C21.5541 12 21.2954 11.9307 21.0448 11.84C20.7994 11.7493 20.5701 11.6427 20.3568 11.52C20.1488 11.3973 19.9648 11.264 19.8048 11.12L20.2608 10.368C20.3194 10.2773 20.3888 10.208 20.4688 10.16C20.5488 10.112 20.6501 10.088 20.7728 10.088C20.8954 10.088 21.0101 10.1227 21.1168 10.192C21.2288 10.2613 21.3568 10.336 21.5008 10.416C21.6448 10.496 21.8128 10.5707 22.0048 10.64C22.2021 10.7093 22.4501 10.744 22.7488 10.744C22.9834 10.744 23.1834 10.7173 23.3488 10.664C23.5194 10.6053 23.6581 10.5307 23.7648 10.44C23.8768 10.3493 23.9568 10.2453 24.0048 10.128C24.0581 10.0053 24.0848 9.88 24.0848 9.752C24.0848 9.56 24.0261 9.40267 23.9088 9.28C23.7968 9.15733 23.6448 9.05067 23.4528 8.96C23.2661 8.86933 23.0501 8.78933 22.8048 8.72C22.5648 8.64533 22.3168 8.56533 22.0608 8.48C21.8101 8.39467 21.5621 8.296 21.3168 8.184C21.0768 8.06667 20.8608 7.92 20.6688 7.744C20.4821 7.568 20.3301 7.352 20.2128 7.096C20.1008 6.84 20.0448 6.53067 20.0448 6.168C20.0448 5.832 20.1114 5.512 20.2448 5.208C20.3781 4.904 20.5728 4.64 20.8288 4.416C21.0901 4.18667 21.4128 4.00533 21.7968 3.872C22.1861 3.73333 22.6341 3.664 23.1408 3.664C23.7061 3.664 24.2208 3.75733 24.6848 3.944C25.1488 4.13067 25.5354 4.376 25.8448 4.68L25.3968 5.392ZM30.2051 12.128C29.4958 12.128 28.9491 11.928 28.5651 11.528C28.1811 11.1227 27.9891 10.5653 27.9891 9.856V5.272H27.1571C27.0505 5.272 26.9571 5.23733 26.8771 5.168C26.8025 5.09867 26.7651 4.99467 26.7651 4.856V4.072L28.0851 3.856L28.5011 1.616C28.5225 1.50933 28.5705 1.42667 28.6451 1.368C28.7251 1.30933 28.8238 1.28 28.9411 1.28H29.9651V3.864H32.1251V5.272H29.9651V9.72C29.9651 9.976 30.0291 10.176 30.1571 10.32C30.2851 10.464 30.4558 10.536 30.6691 10.536C30.7918 10.536 30.8931 10.5227 30.9731 10.496C31.0585 10.464 31.1305 10.432 31.1891 10.4C31.2531 10.368 31.3091 10.3387 31.3571 10.312C31.4051 10.28 31.4531 10.264 31.5011 10.264C31.5598 10.264 31.6078 10.28 31.6451 10.312C31.6825 10.3387 31.7225 10.3813 31.7651 10.44L32.3571 11.4C32.0691 11.64 31.7385 11.8213 31.3651 11.944C30.9918 12.0667 30.6051 12.128 30.2051 12.128ZM36.6086 14.256C36.55 14.3947 36.4726 14.4987 36.3766 14.568C36.286 14.6427 36.1446 14.68 35.9526 14.68H34.4806L36.0166 11.392L32.6966 3.792H34.4246C34.5846 3.792 34.7073 3.82933 34.7926 3.904C34.878 3.97867 34.942 4.064 34.9846 4.16L36.7366 8.416C36.7953 8.55467 36.846 8.69867 36.8886 8.848C36.9313 8.99733 36.9686 9.14667 37.0006 9.296C37.0433 9.14133 37.0886 8.992 37.1366 8.848C37.19 8.704 37.246 8.55733 37.3046 8.408L38.9526 4.16C38.9953 4.05333 39.0646 3.96533 39.1606 3.896C39.262 3.82667 39.374 3.792 39.4966 3.792H41.0806L36.6086 14.256ZM48.6599 12H47.7719C47.5852 12 47.4385 11.9733 47.3319 11.92C47.2252 11.8613 47.1452 11.7467 47.0919 11.576L46.9159 10.992C46.7079 11.1787 46.5025 11.344 46.2999 11.488C46.1025 11.6267 45.8972 11.744 45.6839 11.84C45.4705 11.936 45.2439 12.008 45.0039 12.056C44.7639 12.104 44.4972 12.128 44.2039 12.128C43.8572 12.128 43.5372 12.0827 43.2439 11.992C42.9505 11.896 42.6972 11.7547 42.4839 11.568C42.2759 11.3813 42.1132 11.1493 41.9959 10.872C41.8785 10.5947 41.8199 10.272 41.8199 9.904C41.8199 9.59467 41.8999 9.29067 42.0599 8.992C42.2252 8.688 42.4972 8.416 42.8759 8.176C43.2545 7.93067 43.7585 7.728 44.3879 7.568C45.0172 7.408 45.7985 7.31733 46.7319 7.296V6.816C46.7319 6.26667 46.6145 5.86133 46.3799 5.6C46.1505 5.33333 45.8145 5.2 45.3719 5.2C45.0519 5.2 44.7852 5.23733 44.5719 5.312C44.3585 5.38667 44.1719 5.472 44.0119 5.568C43.8572 5.65867 43.7132 5.74133 43.5799 5.816C43.4465 5.89067 43.2999 5.928 43.1399 5.928C43.0065 5.928 42.8919 5.89333 42.7959 5.824C42.6999 5.75467 42.6225 5.66933 42.5639 5.568L42.2039 4.936C43.1479 4.072 44.2865 3.64 45.6199 3.64C46.0999 3.64 46.5265 3.72 46.8999 3.88C47.2785 4.03467 47.5985 4.25333 47.8599 4.536C48.1212 4.81333 48.3185 5.14667 48.4519 5.536C48.5905 5.92533 48.6599 6.352 48.6599 6.816V12ZM44.8199 10.768C45.0225 10.768 45.2092 10.7493 45.3799 10.712C45.5505 10.6747 45.7105 10.6187 45.8599 10.544C46.0145 10.4693 46.1612 10.3787 46.2999 10.272C46.4439 10.16 46.5879 10.0293 46.7319 9.88V8.496C46.1559 8.52267 45.6732 8.57333 45.2839 8.648C44.8999 8.71733 44.5905 8.808 44.3559 8.92C44.1212 9.032 43.9532 9.16267 43.8519 9.312C43.7559 9.46133 43.7079 9.624 43.7079 9.8C43.7079 10.1467 43.8092 10.3947 44.0119 10.544C44.2199 10.6933 44.4892 10.768 44.8199 10.768ZM56.0326 7.928V12H53.8806V0.431999H57.6486C58.422 0.431999 59.0913 0.522666 59.6566 0.704C60.222 0.885333 60.6886 1.13867 61.0566 1.464C61.4246 1.78933 61.6966 2.17867 61.8726 2.632C62.0486 3.08533 62.1366 3.58133 62.1366 4.12C62.1366 4.68 62.0433 5.19467 61.8566 5.664C61.67 6.128 61.39 6.528 61.0166 6.864C60.6433 7.2 60.1766 7.46133 59.6166 7.648C59.0566 7.83467 58.4006 7.928 57.6486 7.928H56.0326ZM56.0326 6.248H57.6486C58.0433 6.248 58.3873 6.2 58.6806 6.104C58.974 6.00267 59.2166 5.86133 59.4086 5.68C59.6006 5.49333 59.7446 5.26933 59.8406 5.008C59.9366 4.74133 59.9846 4.44533 59.9846 4.12C59.9846 3.81067 59.9366 3.53067 59.8406 3.28C59.7446 3.02933 59.6006 2.816 59.4086 2.64C59.2166 2.464 58.974 2.33067 58.6806 2.24C58.3873 2.144 58.0433 2.096 57.6486 2.096H56.0326V6.248ZM66.8543 3.664C67.3716 3.664 67.8463 3.74667 68.2783 3.912C68.7156 4.07733 69.0916 4.32 69.4063 4.64C69.7209 4.95467 69.9663 5.344 70.1423 5.808C70.3183 6.26667 70.4062 6.792 70.4062 7.384C70.4062 7.53333 70.3983 7.65867 70.3823 7.76C70.3716 7.856 70.3476 7.93333 70.3103 7.992C70.2783 8.04533 70.2329 8.08533 70.1743 8.112C70.1156 8.13333 70.0409 8.144 69.9503 8.144H64.8783C64.9369 8.98667 65.1636 9.60533 65.5583 10C65.9529 10.3947 66.4756 10.592 67.1263 10.592C67.4463 10.592 67.7209 10.5547 67.9503 10.48C68.1849 10.4053 68.3876 10.3227 68.5583 10.232C68.7343 10.1413 68.8863 10.0587 69.0143 9.984C69.1476 9.90933 69.2756 9.872 69.3983 9.872C69.4783 9.872 69.5476 9.888 69.6063 9.92C69.6649 9.952 69.7156 9.99733 69.7583 10.056L70.3343 10.776C70.1156 11.032 69.8703 11.248 69.5983 11.424C69.3263 11.5947 69.0409 11.7333 68.7423 11.84C68.4489 11.9413 68.1476 12.0133 67.8383 12.056C67.5343 12.0987 67.2383 12.12 66.9503 12.12C66.3796 12.12 65.8489 12.0267 65.3583 11.84C64.8676 11.648 64.4409 11.368 64.0783 11C63.7156 10.6267 63.4303 10.168 63.2223 9.624C63.0143 9.07467 62.9103 8.44 62.9103 7.72C62.9103 7.16 63.0009 6.63467 63.1823 6.144C63.3636 5.648 63.6223 5.21867 63.9583 4.856C64.2996 4.488 64.7129 4.19733 65.1983 3.984C65.6889 3.77067 66.2409 3.664 66.8543 3.664ZM66.8943 5.08C66.3183 5.08 65.8676 5.24267 65.5423 5.568C65.2169 5.89333 65.0089 6.35467 64.9183 6.952H68.6303C68.6303 6.696 68.5956 6.456 68.5263 6.232C68.4569 6.00267 68.3503 5.80267 68.2063 5.632C68.0623 5.46133 67.8809 5.328 67.6623 5.232C67.4436 5.13067 67.1876 5.08 66.8943 5.08ZM72.0091 12V3.792H73.1691C73.3718 3.792 73.5131 3.82933 73.5931 3.904C73.6731 3.97867 73.7265 4.10667 73.7531 4.288L73.8731 5.28C74.1665 4.77333 74.5105 4.37333 74.9051 4.08C75.2998 3.78667 75.7425 3.64 76.2331 3.64C76.6385 3.64 76.9745 3.73333 77.2411 3.92L76.9851 5.4C76.9691 5.496 76.9345 5.56533 76.8811 5.608C76.8278 5.64533 76.7558 5.664 76.6651 5.664C76.5851 5.664 76.4758 5.64533 76.3371 5.608C76.1985 5.57067 76.0145 5.552 75.7851 5.552C75.3745 5.552 75.0225 5.66667 74.7291 5.896C74.4358 6.12 74.1878 6.45067 73.9851 6.888V12H72.0091ZM81.9324 3.664C82.4497 3.664 82.9244 3.74667 83.3564 3.912C83.7937 4.07733 84.1697 4.32 84.4844 4.64C84.799 4.95467 85.0444 5.344 85.2204 5.808C85.3964 6.26667 85.4844 6.792 85.4844 7.384C85.4844 7.53333 85.4764 7.65867 85.4604 7.76C85.4497 7.856 85.4257 7.93333 85.3884 7.992C85.3564 8.04533 85.311 8.08533 85.2524 8.112C85.1937 8.13333 85.119 8.144 85.0284 8.144H79.9564C80.015 8.98667 80.2417 9.60533 80.6364 10C81.031 10.3947 81.5537 10.592 82.2044 10.592C82.5244 10.592 82.799 10.5547 83.0284 10.48C83.263 10.4053 83.4657 10.3227 83.6364 10.232C83.8124 10.1413 83.9644 10.0587 84.0924 9.984C84.2257 9.90933 84.3537 9.872 84.4764 9.872C84.5564 9.872 84.6257 9.888 84.6844 9.92C84.743 9.952 84.7937 9.99733 84.8364 10.056L85.4124 10.776C85.1937 11.032 84.9484 11.248 84.6764 11.424C84.4044 11.5947 84.119 11.7333 83.8204 11.84C83.527 11.9413 83.2257 12.0133 82.9164 12.056C82.6124 12.0987 82.3164 12.12 82.0284 12.12C81.4577 12.12 80.927 12.0267 80.4364 11.84C79.9457 11.648 79.519 11.368 79.1564 11C78.7937 10.6267 78.5084 10.168 78.3004 9.624C78.0924 9.07467 77.9884 8.44 77.9884 7.72C77.9884 7.16 78.079 6.63467 78.2604 6.144C78.4417 5.648 78.7004 5.21867 79.0364 4.856C79.3777 4.488 79.791 4.19733 80.2764 3.984C80.767 3.77067 81.319 3.664 81.9324 3.664ZM81.9724 5.08C81.3964 5.08 80.9457 5.24267 80.6204 5.568C80.295 5.89333 80.087 6.35467 79.9964 6.952H83.7084C83.7084 6.696 83.6737 6.456 83.6044 6.232C83.535 6.00267 83.4284 5.80267 83.2844 5.632C83.1404 5.46133 82.959 5.328 82.7404 5.232C82.5217 5.13067 82.2657 5.08 81.9724 5.08ZM87.0872 14.68V3.792H88.2953C88.4233 3.792 88.5326 3.82133 88.6233 3.88C88.7139 3.93867 88.7726 4.02933 88.7993 4.152L88.9593 4.912C89.2899 4.53333 89.6686 4.22667 90.0953 3.992C90.5273 3.75733 91.0313 3.64 91.6073 3.64C92.0553 3.64 92.4633 3.73333 92.8313 3.92C93.2046 4.10667 93.5246 4.37867 93.7913 4.736C94.0633 5.088 94.2713 5.52533 94.4153 6.048C94.5646 6.56533 94.6393 7.16 94.6393 7.832C94.6393 8.44533 94.5566 9.01333 94.3913 9.536C94.2259 10.0587 93.9886 10.512 93.6793 10.896C93.3753 11.28 93.0046 11.5813 92.5673 11.8C92.1353 12.0133 91.6499 12.12 91.1113 12.12C90.6473 12.12 90.2526 12.0507 89.9273 11.912C89.6073 11.768 89.3193 11.5707 89.0633 11.32V14.68H87.0872ZM90.9273 5.2C90.5166 5.2 90.1646 5.288 89.8713 5.464C89.5833 5.63467 89.3139 5.87733 89.0633 6.192V9.872C89.2873 10.1493 89.5299 10.344 89.7913 10.456C90.0579 10.5627 90.3433 10.616 90.6473 10.616C90.9459 10.616 91.2153 10.56 91.4553 10.448C91.7006 10.336 91.9059 10.1653 92.0713 9.936C92.2419 9.70667 92.3726 9.41867 92.4633 9.072C92.5539 8.72 92.5993 8.30667 92.5993 7.832C92.5993 7.352 92.5593 6.94667 92.4793 6.616C92.4046 6.28 92.2953 6.008 92.1513 5.8C92.0073 5.592 91.8313 5.44 91.6233 5.344C91.4206 5.248 91.1886 5.2 90.9273 5.2ZM99.5261 3.664C100.043 3.664 100.518 3.74667 100.95 3.912C101.387 4.07733 101.763 4.32 102.078 4.64C102.393 4.95467 102.638 5.344 102.814 5.808C102.99 6.26667 103.078 6.792 103.078 7.384C103.078 7.53333 103.07 7.65867 103.054 7.76C103.043 7.856 103.019 7.93333 102.982 7.992C102.95 8.04533 102.905 8.08533 102.846 8.112C102.787 8.13333 102.713 8.144 102.622 8.144H97.5501C97.6088 8.98667 97.8355 9.60533 98.2301 10C98.6248 10.3947 99.1475 10.592 99.7981 10.592C100.118 10.592 100.393 10.5547 100.622 10.48C100.857 10.4053 101.059 10.3227 101.23 10.232C101.406 10.1413 101.558 10.0587 101.686 9.984C101.819 9.90933 101.947 9.872 102.07 9.872C102.15 9.872 102.219 9.888 102.278 9.92C102.337 9.952 102.387 9.99733 102.43 10.056L103.006 10.776C102.787 11.032 102.542 11.248 102.27 11.424C101.998 11.5947 101.713 11.7333 101.414 11.84C101.121 11.9413 100.819 12.0133 100.51 12.056C100.206 12.0987 99.9101 12.12 99.6221 12.12C99.0515 12.12 98.5208 12.0267 98.0301 11.84C97.5395 11.648 97.1128 11.368 96.7501 11C96.3875 10.6267 96.1021 10.168 95.8941 9.624C95.6861 9.07467 95.5821 8.44 95.5821 7.72C95.5821 7.16 95.6728 6.63467 95.8541 6.144C96.0355 5.648 96.2941 5.21867 96.6301 4.856C96.9715 4.488 97.3848 4.19733 97.8701 3.984C98.3608 3.77067 98.9128 3.664 99.5261 3.664ZM99.5661 5.08C98.9901 5.08 98.5395 5.24267 98.2141 5.568C97.8888 5.89333 97.6808 6.35467 97.5901 6.952H101.302C101.302 6.696 101.267 6.456 101.198 6.232C101.129 6.00267 101.022 5.80267 100.878 5.632C100.734 5.46133 100.553 5.328 100.334 5.232C100.115 5.13067 99.8595 5.08 99.5661 5.08ZM106.785 0.112V12H104.809V0.112H106.785ZM111.025 0.112V6.92H111.393C111.526 6.92 111.63 6.90133 111.705 6.864C111.779 6.82667 111.859 6.75733 111.945 6.656L113.985 4.136C114.075 4.02933 114.171 3.94667 114.273 3.888C114.374 3.824 114.507 3.792 114.673 3.792H116.481L113.929 6.84C113.838 6.952 113.745 7.056 113.649 7.152C113.553 7.24267 113.449 7.32267 113.337 7.392C113.449 7.472 113.547 7.56533 113.633 7.672C113.718 7.77867 113.803 7.89333 113.889 8.016L116.625 12H114.841C114.686 12 114.555 11.9733 114.449 11.92C114.342 11.8667 114.246 11.776 114.161 11.648L112.073 8.536C111.993 8.41333 111.913 8.33333 111.833 8.296C111.753 8.25867 111.633 8.24 111.473 8.24H111.025V12H109.049V0.112H111.025ZM119.957 3.792V12H117.981V3.792H119.957ZM120.253 1.4C120.253 1.57067 120.218 1.73067 120.149 1.88C120.08 2.02933 119.986 2.16 119.869 2.272C119.757 2.384 119.624 2.47467 119.469 2.544C119.314 2.608 119.149 2.64 118.973 2.64C118.802 2.64 118.64 2.608 118.485 2.544C118.336 2.47467 118.205 2.384 118.093 2.272C117.981 2.16 117.89 2.02933 117.821 1.88C117.757 1.73067 117.725 1.57067 117.725 1.4C117.725 1.224 117.757 1.05867 117.821 0.903999C117.89 0.749333 117.981 0.616 118.093 0.504C118.205 0.392 118.336 0.304 118.485 0.24C118.64 0.170666 118.802 0.136 118.973 0.136C119.149 0.136 119.314 0.170666 119.469 0.24C119.624 0.304 119.757 0.392 119.869 0.504C119.986 0.616 120.08 0.749333 120.149 0.903999C120.218 1.05867 120.253 1.224 120.253 1.4ZM122.197 12V3.792H123.405C123.661 3.792 123.829 3.912 123.909 4.152L124.045 4.8C124.21 4.62933 124.383 4.47467 124.565 4.336C124.751 4.19733 124.946 4.07733 125.149 3.976C125.357 3.87467 125.578 3.79733 125.813 3.744C126.047 3.69067 126.303 3.664 126.581 3.664C127.029 3.664 127.426 3.74133 127.773 3.896C128.119 4.04533 128.407 4.25867 128.637 4.536C128.871 4.808 129.047 5.136 129.165 5.52C129.287 5.89867 129.349 6.31733 129.349 6.776V12H127.373V6.776C127.373 6.27467 127.255 5.888 127.021 5.616C126.791 5.33867 126.445 5.2 125.981 5.2C125.639 5.2 125.319 5.27733 125.021 5.432C124.722 5.58667 124.439 5.79733 124.173 6.064V12H122.197ZM137.722 12H136.834C136.648 12 136.501 11.9733 136.394 11.92C136.288 11.8613 136.208 11.7467 136.154 11.576L135.978 10.992C135.77 11.1787 135.565 11.344 135.362 11.488C135.165 11.6267 134.96 11.744 134.746 11.84C134.533 11.936 134.306 12.008 134.066 12.056C133.826 12.104 133.56 12.128 133.266 12.128C132.92 12.128 132.6 12.0827 132.306 11.992C132.013 11.896 131.76 11.7547 131.546 11.568C131.338 11.3813 131.176 11.1493 131.058 10.872C130.941 10.5947 130.882 10.272 130.882 9.904C130.882 9.59467 130.962 9.29067 131.122 8.992C131.288 8.688 131.56 8.416 131.938 8.176C132.317 7.93067 132.821 7.728 133.45 7.568C134.08 7.408 134.861 7.31733 135.794 7.296V6.816C135.794 6.26667 135.677 5.86133 135.442 5.6C135.213 5.33333 134.877 5.2 134.434 5.2C134.114 5.2 133.848 5.23733 133.634 5.312C133.421 5.38667 133.234 5.472 133.074 5.568C132.92 5.65867 132.776 5.74133 132.642 5.816C132.509 5.89067 132.362 5.928 132.202 5.928C132.069 5.928 131.954 5.89333 131.858 5.824C131.762 5.75467 131.685 5.66933 131.626 5.568L131.266 4.936C132.21 4.072 133.349 3.64 134.682 3.64C135.162 3.64 135.589 3.72 135.962 3.88C136.341 4.03467 136.661 4.25333 136.922 4.536C137.184 4.81333 137.381 5.14667 137.514 5.536C137.653 5.92533 137.722 6.352 137.722 6.816V12ZM133.882 10.768C134.085 10.768 134.272 10.7493 134.442 10.712C134.613 10.6747 134.773 10.6187 134.922 10.544C135.077 10.4693 135.224 10.3787 135.362 10.272C135.506 10.16 135.65 10.0293 135.794 9.88V8.496C135.218 8.52267 134.736 8.57333 134.346 8.648C133.962 8.71733 133.653 8.808 133.418 8.92C133.184 9.032 133.016 9.16267 132.914 9.312C132.818 9.46133 132.77 9.624 132.77 9.8C132.77 10.1467 132.872 10.3947 133.074 10.544C133.282 10.6933 133.552 10.768 133.882 10.768Z" fill="url(#paint0_linear_197_573)"></path> <defs> <linearGradient id="paint0_linear_197_573" x1="69" y1="-4" x2="64.8561" y2="18.2274" gradientUnits="userSpaceOnUse"> <stop stop-color="#FFE8CA"></stop> <stop offset="0.260417" stop-color="#FFE0E3"></stop> <stop offset="0.442708" stop-color="#FFC9ED"></stop> <stop offset="0.697917" stop-color="#C8BDFB"></stop> <stop offset="0.947917" stop-color="#A7C7FF"></stop> </linearGradient> </defs> </svg> 