<?xml version="1.0" encoding="UTF-8"?> <svg xmlns="http://www.w3.org/2000/svg" width="129" height="13" viewBox="0 0 129 13" fill="none"> <path d="M5.60938 2.35156L2.36719 12H0.09375L4.34375 0.625H5.79688L5.60938 2.35156ZM8.32031 12L5.0625 2.35156L4.86719 0.625H6.32812L10.6016 12H8.32031ZM8.17188 7.77344V9.46875H2.07031V7.77344H8.17188ZM11.6094 0H13.6797V10.1328L13.4766 12H11.6094V0ZM19.1172 7.6875V7.85156C19.1172 8.48177 19.0469 9.0599 18.9062 9.58594C18.7708 10.112 18.5651 10.5677 18.2891 10.9531C18.013 11.3333 17.6693 11.6302 17.2578 11.8438C16.8516 12.0521 16.375 12.1562 15.8281 12.1562C15.3073 12.1562 14.8542 12.0547 14.4688 11.8516C14.0885 11.6484 13.7682 11.362 13.5078 10.9922C13.2474 10.6172 13.0391 10.1771 12.8828 9.67188C12.7266 9.16146 12.6094 8.60417 12.5312 8V7.55469C12.6094 6.94531 12.7266 6.38802 12.8828 5.88281C13.0391 5.3776 13.2474 4.9375 13.5078 4.5625C13.7682 4.1875 14.0885 3.89844 14.4688 3.69531C14.849 3.49219 15.2969 3.39062 15.8125 3.39062C16.3646 3.39062 16.8464 3.4974 17.2578 3.71094C17.6745 3.91927 18.0182 4.21615 18.2891 4.60156C18.5651 4.98177 18.7708 5.4349 18.9062 5.96094C19.0469 6.48177 19.1172 7.05729 19.1172 7.6875ZM17.0469 7.85156V7.6875C17.0469 7.32812 17.0182 6.98958 16.9609 6.67188C16.9036 6.34896 16.8099 6.0651 16.6797 5.82031C16.5495 5.57552 16.3724 5.38281 16.1484 5.24219C15.9245 5.10156 15.6432 5.03125 15.3047 5.03125C14.9818 5.03125 14.7057 5.08594 14.4766 5.19531C14.2526 5.30469 14.0651 5.45573 13.9141 5.64844C13.7682 5.84115 13.6536 6.06771 13.5703 6.32812C13.4922 6.58854 13.4401 6.86979 13.4141 7.17188V8.39062C13.4505 8.79167 13.5365 9.15365 13.6719 9.47656C13.8073 9.79427 14.0078 10.0469 14.2734 10.2344C14.5443 10.4219 14.8932 10.5156 15.3203 10.5156C15.6536 10.5156 15.9323 10.4505 16.1562 10.3203C16.3802 10.1849 16.5573 9.9974 16.6875 9.75781C16.8177 9.51302 16.9089 9.22917 16.9609 8.90625C17.0182 8.58333 17.0469 8.23177 17.0469 7.85156ZM20.25 7.85938V7.69531C20.25 7.07552 20.3385 6.50521 20.5156 5.98438C20.6927 5.45833 20.9505 5.0026 21.2891 4.61719C21.6276 4.23177 22.0417 3.93229 22.5312 3.71875C23.0208 3.5 23.5781 3.39062 24.2031 3.39062C24.8385 3.39062 25.401 3.5 25.8906 3.71875C26.3854 3.93229 26.8021 4.23177 27.1406 4.61719C27.4792 5.0026 27.737 5.45833 27.9141 5.98438C28.0911 6.50521 28.1797 7.07552 28.1797 7.69531V7.85938C28.1797 8.47396 28.0911 9.04427 27.9141 9.57031C27.737 10.0911 27.4792 10.5469 27.1406 10.9375C26.8021 11.3229 26.388 11.6224 25.8984 11.8359C25.4089 12.0495 24.849 12.1562 24.2188 12.1562C23.5938 12.1562 23.0339 12.0495 22.5391 11.8359C22.0443 11.6224 21.6276 11.3229 21.2891 10.9375C20.9505 10.5469 20.6927 10.0911 20.5156 9.57031C20.3385 9.04427 20.25 8.47396 20.25 7.85938ZM22.3125 7.69531V7.85938C22.3125 8.22917 22.349 8.57552 22.4219 8.89844C22.4948 9.22135 22.6068 9.50521 22.7578 9.75C22.9089 9.99479 23.1042 10.1875 23.3438 10.3281C23.5885 10.4635 23.8802 10.5312 24.2188 10.5312C24.5521 10.5312 24.8385 10.4635 25.0781 10.3281C25.3177 10.1875 25.513 9.99479 25.6641 9.75C25.8203 9.50521 25.9349 9.22135 26.0078 8.89844C26.0807 8.57552 26.1172 8.22917 26.1172 7.85938V7.69531C26.1172 7.33073 26.0807 6.98958 26.0078 6.67188C25.9349 6.34896 25.8203 6.0651 25.6641 5.82031C25.513 5.57031 25.3151 5.375 25.0703 5.23438C24.8307 5.08854 24.5417 5.01562 24.2031 5.01562C23.8698 5.01562 23.5833 5.08854 23.3438 5.23438C23.1042 5.375 22.9089 5.57031 22.7578 5.82031C22.6068 6.0651 22.4948 6.34896 22.4219 6.67188C22.349 6.98958 22.3125 7.33073 22.3125 7.69531ZM34.7109 9.99219V3.54688H36.7891V12H34.8359L34.7109 9.99219ZM34.9766 8.24219L35.6172 8.22656C35.6172 8.79427 35.5547 9.31771 35.4297 9.79688C35.3047 10.276 35.1094 10.6927 34.8438 11.0469C34.5833 11.3958 34.2526 11.6693 33.8516 11.8672C33.4505 12.0599 32.9766 12.1562 32.4297 12.1562C32.013 12.1562 31.6328 12.099 31.2891 11.9844C30.9453 11.8646 30.6484 11.6797 30.3984 11.4297C30.1536 11.1745 29.9635 10.849 29.8281 10.4531C29.6927 10.0521 29.625 9.57031 29.625 9.00781V3.54688H31.6875V9.02344C31.6875 9.30469 31.7188 9.53906 31.7812 9.72656C31.849 9.91406 31.9401 10.0677 32.0547 10.1875C32.1745 10.3021 32.3125 10.3854 32.4688 10.4375C32.6302 10.4844 32.8021 10.5078 32.9844 10.5078C33.4844 10.5078 33.8776 10.4089 34.1641 10.2109C34.4557 10.0078 34.6641 9.73698 34.7891 9.39844C34.9141 9.05469 34.9766 8.66927 34.9766 8.24219ZM42.6172 3.54688V5.03125H37.7734V3.54688H42.6172ZM39.0703 1.46875H41.1406V9.5625C41.1406 9.8125 41.1745 10.0052 41.2422 10.1406C41.3099 10.276 41.4115 10.3672 41.5469 10.4141C41.6823 10.4609 41.8438 10.4844 42.0312 10.4844C42.1667 10.4844 42.2917 10.4766 42.4062 10.4609C42.5208 10.4453 42.6172 10.4297 42.6953 10.4141L42.7031 11.9609C42.5312 12.0182 42.3359 12.0651 42.1172 12.1016C41.9036 12.138 41.6615 12.1562 41.3906 12.1562C40.9271 12.1562 40.5208 12.0781 40.1719 11.9219C39.8229 11.7604 39.5521 11.5026 39.3594 11.1484C39.1667 10.7891 39.0703 10.3151 39.0703 9.72656V1.46875ZM51.9766 3.54688V5.03125H47.1328V3.54688H51.9766ZM48.4297 1.46875H50.5V9.5625C50.5 9.8125 50.5339 10.0052 50.6016 10.1406C50.6693 10.276 50.7708 10.3672 50.9062 10.4141C51.0417 10.4609 51.2031 10.4844 51.3906 10.4844C51.526 10.4844 51.651 10.4766 51.7656 10.4609C51.8802 10.4453 51.9766 10.4297 52.0547 10.4141L52.0625 11.9609C51.8906 12.0182 51.6953 12.0651 51.4766 12.1016C51.263 12.138 51.0208 12.1562 50.75 12.1562C50.2865 12.1562 49.8802 12.0781 49.5312 11.9219C49.1823 11.7604 48.9115 11.5026 48.7188 11.1484C48.526 10.7891 48.4297 10.3151 48.4297 9.72656V1.46875ZM55.375 0V12H53.3047V0H55.375ZM55.0469 7.46875H54.4375C54.4375 6.88021 54.5156 6.33854 54.6719 5.84375C54.8281 5.34896 55.0495 4.91927 55.3359 4.55469C55.6224 4.1849 55.9635 3.89844 56.3594 3.69531C56.7604 3.49219 57.2031 3.39062 57.6875 3.39062C58.1042 3.39062 58.4818 3.45052 58.8203 3.57031C59.1641 3.6849 59.4583 3.86979 59.7031 4.125C59.9479 4.38021 60.1354 4.71354 60.2656 5.125C60.401 5.53125 60.4688 6.02604 60.4688 6.60938V12H58.3906V6.59375C58.3906 6.20312 58.3333 5.89583 58.2188 5.67188C58.1042 5.44271 57.9401 5.27865 57.7266 5.17969C57.5182 5.08073 57.2604 5.03125 56.9531 5.03125C56.6198 5.03125 56.3333 5.09635 56.0938 5.22656C55.8542 5.35156 55.6562 5.52604 55.5 5.75C55.349 5.97396 55.2344 6.23177 55.1562 6.52344C55.0833 6.8151 55.0469 7.13021 55.0469 7.46875ZM66.0859 12.1562C65.4453 12.1562 64.8698 12.0521 64.3594 11.8438C63.849 11.6354 63.4141 11.3464 63.0547 10.9766C62.7005 10.6016 62.4271 10.1667 62.2344 9.67188C62.0469 9.17188 61.9531 8.63542 61.9531 8.0625V7.75C61.9531 7.09896 62.0469 6.50781 62.2344 5.97656C62.4219 5.4401 62.6875 4.97917 63.0312 4.59375C63.375 4.20833 63.7865 3.91146 64.2656 3.70312C64.7448 3.49479 65.2734 3.39062 65.8516 3.39062C66.4505 3.39062 66.9792 3.49219 67.4375 3.69531C67.8958 3.89323 68.2786 4.17448 68.5859 4.53906C68.8932 4.90365 69.125 5.34115 69.2812 5.85156C69.4375 6.35677 69.5156 6.91667 69.5156 7.53125V8.39844H62.8906V6.97656H67.4844V6.82031C67.474 6.49219 67.4115 6.19271 67.2969 5.92188C67.1823 5.64583 67.0052 5.42708 66.7656 5.26562C66.526 5.09896 66.2161 5.01562 65.8359 5.01562C65.5286 5.01562 65.2604 5.08333 65.0312 5.21875C64.8073 5.34896 64.6198 5.53646 64.4688 5.78125C64.3229 6.02083 64.2135 6.30729 64.1406 6.64062C64.0677 6.97396 64.0312 7.34375 64.0312 7.75V8.0625C64.0312 8.41667 64.0781 8.74479 64.1719 9.04688C64.2708 9.34896 64.4141 9.61198 64.6016 9.83594C64.7943 10.0547 65.0234 10.2266 65.2891 10.3516C65.5599 10.4714 65.8672 10.5312 66.2109 10.5312C66.6432 10.5312 67.0339 10.4479 67.3828 10.2812C67.737 10.1094 68.0443 9.85677 68.3047 9.52344L69.3438 10.6016C69.1667 10.862 68.9271 11.112 68.625 11.3516C68.3281 11.5911 67.9688 11.7865 67.5469 11.9375C67.125 12.0833 66.638 12.1562 66.0859 12.1562ZM79.5312 9.6875C79.5312 9.51042 79.4844 9.35156 79.3906 9.21094C79.2969 9.07031 79.1198 8.94271 78.8594 8.82812C78.6042 8.70833 78.2292 8.59635 77.7344 8.49219C77.2969 8.39844 76.8932 8.28125 76.5234 8.14062C76.1536 8 75.8359 7.83073 75.5703 7.63281C75.3047 7.42969 75.0964 7.19271 74.9453 6.92188C74.7995 6.64583 74.7266 6.32812 74.7266 5.96875C74.7266 5.61979 74.8021 5.29167 74.9531 4.98438C75.1042 4.67188 75.3229 4.39844 75.6094 4.16406C75.8958 3.92448 76.2448 3.73698 76.6562 3.60156C77.0677 3.46094 77.5312 3.39062 78.0469 3.39062C78.7656 3.39062 79.3828 3.50781 79.8984 3.74219C80.4193 3.97656 80.8177 4.29948 81.0938 4.71094C81.3698 5.11719 81.5078 5.57552 81.5078 6.08594H79.4453C79.4453 5.86198 79.3932 5.65885 79.2891 5.47656C79.1901 5.29427 79.0365 5.14844 78.8281 5.03906C78.6198 4.92448 78.3568 4.86719 78.0391 4.86719C77.7526 4.86719 77.5104 4.91406 77.3125 5.00781C77.1198 5.10156 76.974 5.22396 76.875 5.375C76.776 5.52604 76.7266 5.69271 76.7266 5.875C76.7266 6.01042 76.7526 6.13281 76.8047 6.24219C76.862 6.34635 76.9531 6.44271 77.0781 6.53125C77.2031 6.61979 77.3724 6.70052 77.5859 6.77344C77.8047 6.84635 78.0729 6.91667 78.3906 6.98438C79.0208 7.10938 79.5703 7.27604 80.0391 7.48438C80.513 7.6875 80.8828 7.95833 81.1484 8.29688C81.4141 8.63542 81.5469 9.06771 81.5469 9.59375C81.5469 9.96875 81.4661 10.3125 81.3047 10.625C81.1432 10.9323 80.9089 11.2005 80.6016 11.4297C80.2943 11.6589 79.9271 11.8385 79.5 11.9688C79.0729 12.0938 78.5911 12.1562 78.0547 12.1562C77.2786 12.1562 76.6224 12.0182 76.0859 11.7422C75.5495 11.4609 75.1432 11.1068 74.8672 10.6797C74.5911 10.2474 74.4531 9.79948 74.4531 9.33594H76.4297C76.4453 9.66406 76.5339 9.92708 76.6953 10.125C76.8568 10.3229 77.0599 10.4661 77.3047 10.5547C77.5547 10.638 77.8177 10.6797 78.0938 10.6797C78.4062 10.6797 78.6693 10.638 78.8828 10.5547C79.0964 10.4661 79.2578 10.349 79.3672 10.2031C79.4766 10.0521 79.5312 9.88021 79.5312 9.6875ZM87.1172 3.54688V5.03125H82.2734V3.54688H87.1172ZM83.5703 1.46875H85.6406V9.5625C85.6406 9.8125 85.6745 10.0052 85.7422 10.1406C85.8099 10.276 85.9115 10.3672 86.0469 10.4141C86.1823 10.4609 86.3438 10.4844 86.5312 10.4844C86.6667 10.4844 86.7917 10.4766 86.9062 10.4609C87.0208 10.4453 87.1172 10.4297 87.1953 10.4141L87.2031 11.9609C87.0312 12.0182 86.8359 12.0651 86.6172 12.1016C86.4036 12.138 86.1615 12.1562 85.8906 12.1562C85.4271 12.1562 85.0208 12.0781 84.6719 11.9219C84.3229 11.7604 84.0521 11.5026 83.8594 11.1484C83.6667 10.7891 83.5703 10.3151 83.5703 9.72656V1.46875ZM93.5234 9.99219V3.54688H95.6016V12H93.6484L93.5234 9.99219ZM93.7891 8.24219L94.4297 8.22656C94.4297 8.79427 94.3672 9.31771 94.2422 9.79688C94.1172 10.276 93.9219 10.6927 93.6562 11.0469C93.3958 11.3958 93.0651 11.6693 92.6641 11.8672C92.263 12.0599 91.7891 12.1562 91.2422 12.1562C90.8255 12.1562 90.4453 12.099 90.1016 11.9844C89.7578 11.8646 89.4609 11.6797 89.2109 11.4297C88.9661 11.1745 88.776 10.849 88.6406 10.4531C88.5052 10.0521 88.4375 9.57031 88.4375 9.00781V3.54688H90.5V9.02344C90.5 9.30469 90.5312 9.53906 90.5938 9.72656C90.6615 9.91406 90.7526 10.0677 90.8672 10.1875C90.987 10.3021 91.125 10.3854 91.2812 10.4375C91.4427 10.4844 91.6146 10.5078 91.7969 10.5078C92.2969 10.5078 92.6901 10.4089 92.9766 10.2109C93.2682 10.0078 93.4766 9.73698 93.6016 9.39844C93.7266 9.05469 93.7891 8.66927 93.7891 8.24219ZM102.5 10.2031V0H104.578V12H102.703L102.5 10.2031ZM97.0703 7.875V7.71094C97.0703 7.0651 97.1432 6.47917 97.2891 5.95312C97.4401 5.42188 97.6589 4.96615 97.9453 4.58594C98.2318 4.20573 98.5781 3.91146 98.9844 3.70312C99.3958 3.49479 99.862 3.39062 100.383 3.39062C100.888 3.39062 101.328 3.49219 101.703 3.69531C102.083 3.89844 102.406 4.1875 102.672 4.5625C102.943 4.9375 103.159 5.38281 103.32 5.89844C103.482 6.40885 103.599 6.97135 103.672 7.58594V8.03125C103.599 8.63021 103.482 9.17969 103.32 9.67969C103.159 10.1797 102.943 10.6172 102.672 10.9922C102.406 11.362 102.083 11.6484 101.703 11.8516C101.323 12.0547 100.878 12.1562 100.367 12.1562C99.8516 12.1562 99.388 12.0495 98.9766 11.8359C98.5703 11.6224 98.224 11.3229 97.9375 10.9375C97.6562 10.5521 97.4401 10.099 97.2891 9.57812C97.1432 9.05729 97.0703 8.48958 97.0703 7.875ZM99.1406 7.71094V7.875C99.1406 8.23958 99.1719 8.58073 99.2344 8.89844C99.2969 9.21615 99.3984 9.4974 99.5391 9.74219C99.6797 9.98177 99.8594 10.1693 100.078 10.3047C100.302 10.4401 100.573 10.5078 100.891 10.5078C101.297 10.5078 101.63 10.4193 101.891 10.2422C102.156 10.0599 102.362 9.8125 102.508 9.5C102.654 9.18229 102.747 8.82552 102.789 8.42969V7.20312C102.768 6.89062 102.714 6.60156 102.625 6.33594C102.542 6.07031 102.422 5.84115 102.266 5.64844C102.115 5.45573 101.927 5.30469 101.703 5.19531C101.479 5.08594 101.214 5.03125 100.906 5.03125C100.589 5.03125 100.318 5.10156 100.094 5.24219C99.8698 5.3776 99.6875 5.56771 99.5469 5.8125C99.4062 6.05729 99.3021 6.34115 99.2344 6.66406C99.1719 6.98698 99.1406 7.33594 99.1406 7.71094ZM110.242 12.1562C109.602 12.1562 109.026 12.0521 108.516 11.8438C108.005 11.6354 107.57 11.3464 107.211 10.9766C106.857 10.6016 106.583 10.1667 106.391 9.67188C106.203 9.17188 106.109 8.63542 106.109 8.0625V7.75C106.109 7.09896 106.203 6.50781 106.391 5.97656C106.578 5.4401 106.844 4.97917 107.188 4.59375C107.531 4.20833 107.943 3.91146 108.422 3.70312C108.901 3.49479 109.43 3.39062 110.008 3.39062C110.607 3.39062 111.135 3.49219 111.594 3.69531C112.052 3.89323 112.435 4.17448 112.742 4.53906C113.049 4.90365 113.281 5.34115 113.438 5.85156C113.594 6.35677 113.672 6.91667 113.672 7.53125V8.39844H107.047V6.97656H111.641V6.82031C111.63 6.49219 111.568 6.19271 111.453 5.92188C111.339 5.64583 111.161 5.42708 110.922 5.26562C110.682 5.09896 110.372 5.01562 109.992 5.01562C109.685 5.01562 109.417 5.08333 109.188 5.21875C108.964 5.34896 108.776 5.53646 108.625 5.78125C108.479 6.02083 108.37 6.30729 108.297 6.64062C108.224 6.97396 108.188 7.34375 108.188 7.75V8.0625C108.188 8.41667 108.234 8.74479 108.328 9.04688C108.427 9.34896 108.57 9.61198 108.758 9.83594C108.951 10.0547 109.18 10.2266 109.445 10.3516C109.716 10.4714 110.023 10.5312 110.367 10.5312C110.799 10.5312 111.19 10.4479 111.539 10.2812C111.893 10.1094 112.201 9.85677 112.461 9.52344L113.5 10.6016C113.323 10.862 113.083 11.112 112.781 11.3516C112.484 11.5911 112.125 11.7865 111.703 11.9375C111.281 12.0833 110.794 12.1562 110.242 12.1562ZM117.078 5.35156V12H115.016V3.54688H116.953L117.078 5.35156ZM116.75 7.46875H116.141C116.146 6.85417 116.229 6.29688 116.391 5.79688C116.552 5.29688 116.779 4.86719 117.07 4.50781C117.367 4.14844 117.719 3.8724 118.125 3.67969C118.531 3.48698 118.984 3.39062 119.484 3.39062C119.891 3.39062 120.258 3.44792 120.586 3.5625C120.914 3.67708 121.195 3.85938 121.43 4.10938C121.669 4.35938 121.852 4.6875 121.977 5.09375C122.107 5.49479 122.172 5.98958 122.172 6.57812V12H120.094V6.5625C120.094 6.17708 120.036 5.8724 119.922 5.64844C119.812 5.42448 119.651 5.26562 119.438 5.17188C119.229 5.07812 118.971 5.03125 118.664 5.03125C118.346 5.03125 118.068 5.09635 117.828 5.22656C117.594 5.35156 117.396 5.52604 117.234 5.75C117.078 5.97396 116.958 6.23177 116.875 6.52344C116.792 6.8151 116.75 7.13021 116.75 7.46875ZM127.992 3.54688V5.03125H123.148V3.54688H127.992ZM124.445 1.46875H126.516V9.5625C126.516 9.8125 126.549 10.0052 126.617 10.1406C126.685 10.276 126.786 10.3672 126.922 10.4141C127.057 10.4609 127.219 10.4844 127.406 10.4844C127.542 10.4844 127.667 10.4766 127.781 10.4609C127.896 10.4453 127.992 10.4297 128.07 10.4141L128.078 11.9609C127.906 12.0182 127.711 12.0651 127.492 12.1016C127.279 12.138 127.036 12.1562 126.766 12.1562C126.302 12.1562 125.896 12.0781 125.547 11.9219C125.198 11.7604 124.927 11.5026 124.734 11.1484C124.542 10.7891 124.445 10.3151 124.445 9.72656V1.46875Z" fill="#FFDA92"></path> <path d="M5.60938 2.35156L2.36719 12H0.09375L4.34375 0.625H5.79688L5.60938 2.35156ZM8.32031 12L5.0625 2.35156L4.86719 0.625H6.32812L10.6016 12H8.32031ZM8.17188 7.77344V9.46875H2.07031V7.77344H8.17188ZM11.6094 0H13.6797V10.1328L13.4766 12H11.6094V0ZM19.1172 7.6875V7.85156C19.1172 8.48177 19.0469 9.0599 18.9062 9.58594C18.7708 10.112 18.5651 10.5677 18.2891 10.9531C18.013 11.3333 17.6693 11.6302 17.2578 11.8438C16.8516 12.0521 16.375 12.1562 15.8281 12.1562C15.3073 12.1562 14.8542 12.0547 14.4688 11.8516C14.0885 11.6484 13.7682 11.362 13.5078 10.9922C13.2474 10.6172 13.0391 10.1771 12.8828 9.67188C12.7266 9.16146 12.6094 8.60417 12.5312 8V7.55469C12.6094 6.94531 12.7266 6.38802 12.8828 5.88281C13.0391 5.3776 13.2474 4.9375 13.5078 4.5625C13.7682 4.1875 14.0885 3.89844 14.4688 3.69531C14.849 3.49219 15.2969 3.39062 15.8125 3.39062C16.3646 3.39062 16.8464 3.4974 17.2578 3.71094C17.6745 3.91927 18.0182 4.21615 18.2891 4.60156C18.5651 4.98177 18.7708 5.4349 18.9062 5.96094C19.0469 6.48177 19.1172 7.05729 19.1172 7.6875ZM17.0469 7.85156V7.6875C17.0469 7.32812 17.0182 6.98958 16.9609 6.67188C16.9036 6.34896 16.8099 6.0651 16.6797 5.82031C16.5495 5.57552 16.3724 5.38281 16.1484 5.24219C15.9245 5.10156 15.6432 5.03125 15.3047 5.03125C14.9818 5.03125 14.7057 5.08594 14.4766 5.19531C14.2526 5.30469 14.0651 5.45573 13.9141 5.64844C13.7682 5.84115 13.6536 6.06771 13.5703 6.32812C13.4922 6.58854 13.4401 6.86979 13.4141 7.17188V8.39062C13.4505 8.79167 13.5365 9.15365 13.6719 9.47656C13.8073 9.79427 14.0078 10.0469 14.2734 10.2344C14.5443 10.4219 14.8932 10.5156 15.3203 10.5156C15.6536 10.5156 15.9323 10.4505 16.1562 10.3203C16.3802 10.1849 16.5573 9.9974 16.6875 9.75781C16.8177 9.51302 16.9089 9.22917 16.9609 8.90625C17.0182 8.58333 17.0469 8.23177 17.0469 7.85156ZM20.25 7.85938V7.69531C20.25 7.07552 20.3385 6.50521 20.5156 5.98438C20.6927 5.45833 20.9505 5.0026 21.2891 4.61719C21.6276 4.23177 22.0417 3.93229 22.5312 3.71875C23.0208 3.5 23.5781 3.39062 24.2031 3.39062C24.8385 3.39062 25.401 3.5 25.8906 3.71875C26.3854 3.93229 26.8021 4.23177 27.1406 4.61719C27.4792 5.0026 27.737 5.45833 27.9141 5.98438C28.0911 6.50521 28.1797 7.07552 28.1797 7.69531V7.85938C28.1797 8.47396 28.0911 9.04427 27.9141 9.57031C27.737 10.0911 27.4792 10.5469 27.1406 10.9375C26.8021 11.3229 26.388 11.6224 25.8984 11.8359C25.4089 12.0495 24.849 12.1562 24.2188 12.1562C23.5938 12.1562 23.0339 12.0495 22.5391 11.8359C22.0443 11.6224 21.6276 11.3229 21.2891 10.9375C20.9505 10.5469 20.6927 10.0911 20.5156 9.57031C20.3385 9.04427 20.25 8.47396 20.25 7.85938ZM22.3125 7.69531V7.85938C22.3125 8.22917 22.349 8.57552 22.4219 8.89844C22.4948 9.22135 22.6068 9.50521 22.7578 9.75C22.9089 9.99479 23.1042 10.1875 23.3438 10.3281C23.5885 10.4635 23.8802 10.5312 24.2188 10.5312C24.5521 10.5312 24.8385 10.4635 25.0781 10.3281C25.3177 10.1875 25.513 9.99479 25.6641 9.75C25.8203 9.50521 25.9349 9.22135 26.0078 8.89844C26.0807 8.57552 26.1172 8.22917 26.1172 7.85938V7.69531C26.1172 7.33073 26.0807 6.98958 26.0078 6.67188C25.9349 6.34896 25.8203 6.0651 25.6641 5.82031C25.513 5.57031 25.3151 5.375 25.0703 5.23438C24.8307 5.08854 24.5417 5.01562 24.2031 5.01562C23.8698 5.01562 23.5833 5.08854 23.3438 5.23438C23.1042 5.375 22.9089 5.57031 22.7578 5.82031C22.6068 6.0651 22.4948 6.34896 22.4219 6.67188C22.349 6.98958 22.3125 7.33073 22.3125 7.69531ZM34.7109 9.99219V3.54688H36.7891V12H34.8359L34.7109 9.99219ZM34.9766 8.24219L35.6172 8.22656C35.6172 8.79427 35.5547 9.31771 35.4297 9.79688C35.3047 10.276 35.1094 10.6927 34.8438 11.0469C34.5833 11.3958 34.2526 11.6693 33.8516 11.8672C33.4505 12.0599 32.9766 12.1562 32.4297 12.1562C32.013 12.1562 31.6328 12.099 31.2891 11.9844C30.9453 11.8646 30.6484 11.6797 30.3984 11.4297C30.1536 11.1745 29.9635 10.849 29.8281 10.4531C29.6927 10.0521 29.625 9.57031 29.625 9.00781V3.54688H31.6875V9.02344C31.6875 9.30469 31.7188 9.53906 31.7812 9.72656C31.849 9.91406 31.9401 10.0677 32.0547 10.1875C32.1745 10.3021 32.3125 10.3854 32.4688 10.4375C32.6302 10.4844 32.8021 10.5078 32.9844 10.5078C33.4844 10.5078 33.8776 10.4089 34.1641 10.2109C34.4557 10.0078 34.6641 9.73698 34.7891 9.39844C34.9141 9.05469 34.9766 8.66927 34.9766 8.24219ZM42.6172 3.54688V5.03125H37.7734V3.54688H42.6172ZM39.0703 1.46875H41.1406V9.5625C41.1406 9.8125 41.1745 10.0052 41.2422 10.1406C41.3099 10.276 41.4115 10.3672 41.5469 10.4141C41.6823 10.4609 41.8438 10.4844 42.0312 10.4844C42.1667 10.4844 42.2917 10.4766 42.4062 10.4609C42.5208 10.4453 42.6172 10.4297 42.6953 10.4141L42.7031 11.9609C42.5312 12.0182 42.3359 12.0651 42.1172 12.1016C41.9036 12.138 41.6615 12.1562 41.3906 12.1562C40.9271 12.1562 40.5208 12.0781 40.1719 11.9219C39.8229 11.7604 39.5521 11.5026 39.3594 11.1484C39.1667 10.7891 39.0703 10.3151 39.0703 9.72656V1.46875ZM51.9766 3.54688V5.03125H47.1328V3.54688H51.9766ZM48.4297 1.46875H50.5V9.5625C50.5 9.8125 50.5339 10.0052 50.6016 10.1406C50.6693 10.276 50.7708 10.3672 50.9062 10.4141C51.0417 10.4609 51.2031 10.4844 51.3906 10.4844C51.526 10.4844 51.651 10.4766 51.7656 10.4609C51.8802 10.4453 51.9766 10.4297 52.0547 10.4141L52.0625 11.9609C51.8906 12.0182 51.6953 12.0651 51.4766 12.1016C51.263 12.138 51.0208 12.1562 50.75 12.1562C50.2865 12.1562 49.8802 12.0781 49.5312 11.9219C49.1823 11.7604 48.9115 11.5026 48.7188 11.1484C48.526 10.7891 48.4297 10.3151 48.4297 9.72656V1.46875ZM55.375 0V12H53.3047V0H55.375ZM55.0469 7.46875H54.4375C54.4375 6.88021 54.5156 6.33854 54.6719 5.84375C54.8281 5.34896 55.0495 4.91927 55.3359 4.55469C55.6224 4.1849 55.9635 3.89844 56.3594 3.69531C56.7604 3.49219 57.2031 3.39062 57.6875 3.39062C58.1042 3.39062 58.4818 3.45052 58.8203 3.57031C59.1641 3.6849 59.4583 3.86979 59.7031 4.125C59.9479 4.38021 60.1354 4.71354 60.2656 5.125C60.401 5.53125 60.4688 6.02604 60.4688 6.60938V12H58.3906V6.59375C58.3906 6.20312 58.3333 5.89583 58.2188 5.67188C58.1042 5.44271 57.9401 5.27865 57.7266 5.17969C57.5182 5.08073 57.2604 5.03125 56.9531 5.03125C56.6198 5.03125 56.3333 5.09635 56.0938 5.22656C55.8542 5.35156 55.6562 5.52604 55.5 5.75C55.349 5.97396 55.2344 6.23177 55.1562 6.52344C55.0833 6.8151 55.0469 7.13021 55.0469 7.46875ZM66.0859 12.1562C65.4453 12.1562 64.8698 12.0521 64.3594 11.8438C63.849 11.6354 63.4141 11.3464 63.0547 10.9766C62.7005 10.6016 62.4271 10.1667 62.2344 9.67188C62.0469 9.17188 61.9531 8.63542 61.9531 8.0625V7.75C61.9531 7.09896 62.0469 6.50781 62.2344 5.97656C62.4219 5.4401 62.6875 4.97917 63.0312 4.59375C63.375 4.20833 63.7865 3.91146 64.2656 3.70312C64.7448 3.49479 65.2734 3.39062 65.8516 3.39062C66.4505 3.39062 66.9792 3.49219 67.4375 3.69531C67.8958 3.89323 68.2786 4.17448 68.5859 4.53906C68.8932 4.90365 69.125 5.34115 69.2812 5.85156C69.4375 6.35677 69.5156 6.91667 69.5156 7.53125V8.39844H62.8906V6.97656H67.4844V6.82031C67.474 6.49219 67.4115 6.19271 67.2969 5.92188C67.1823 5.64583 67.0052 5.42708 66.7656 5.26562C66.526 5.09896 66.2161 5.01562 65.8359 5.01562C65.5286 5.01562 65.2604 5.08333 65.0312 5.21875C64.8073 5.34896 64.6198 5.53646 64.4688 5.78125C64.3229 6.02083 64.2135 6.30729 64.1406 6.64062C64.0677 6.97396 64.0312 7.34375 64.0312 7.75V8.0625C64.0312 8.41667 64.0781 8.74479 64.1719 9.04688C64.2708 9.34896 64.4141 9.61198 64.6016 9.83594C64.7943 10.0547 65.0234 10.2266 65.2891 10.3516C65.5599 10.4714 65.8672 10.5312 66.2109 10.5312C66.6432 10.5312 67.0339 10.4479 67.3828 10.2812C67.737 10.1094 68.0443 9.85677 68.3047 9.52344L69.3438 10.6016C69.1667 10.862 68.9271 11.112 68.625 11.3516C68.3281 11.5911 67.9688 11.7865 67.5469 11.9375C67.125 12.0833 66.638 12.1562 66.0859 12.1562ZM79.5312 9.6875C79.5312 9.51042 79.4844 9.35156 79.3906 9.21094C79.2969 9.07031 79.1198 8.94271 78.8594 8.82812C78.6042 8.70833 78.2292 8.59635 77.7344 8.49219C77.2969 8.39844 76.8932 8.28125 76.5234 8.14062C76.1536 8 75.8359 7.83073 75.5703 7.63281C75.3047 7.42969 75.0964 7.19271 74.9453 6.92188C74.7995 6.64583 74.7266 6.32812 74.7266 5.96875C74.7266 5.61979 74.8021 5.29167 74.9531 4.98438C75.1042 4.67188 75.3229 4.39844 75.6094 4.16406C75.8958 3.92448 76.2448 3.73698 76.6562 3.60156C77.0677 3.46094 77.5312 3.39062 78.0469 3.39062C78.7656 3.39062 79.3828 3.50781 79.8984 3.74219C80.4193 3.97656 80.8177 4.29948 81.0938 4.71094C81.3698 5.11719 81.5078 5.57552 81.5078 6.08594H79.4453C79.4453 5.86198 79.3932 5.65885 79.2891 5.47656C79.1901 5.29427 79.0365 5.14844 78.8281 5.03906C78.6198 4.92448 78.3568 4.86719 78.0391 4.86719C77.7526 4.86719 77.5104 4.91406 77.3125 5.00781C77.1198 5.10156 76.974 5.22396 76.875 5.375C76.776 5.52604 76.7266 5.69271 76.7266 5.875C76.7266 6.01042 76.7526 6.13281 76.8047 6.24219C76.862 6.34635 76.9531 6.44271 77.0781 6.53125C77.2031 6.61979 77.3724 6.70052 77.5859 6.77344C77.8047 6.84635 78.0729 6.91667 78.3906 6.98438C79.0208 7.10938 79.5703 7.27604 80.0391 7.48438C80.513 7.6875 80.8828 7.95833 81.1484 8.29688C81.4141 8.63542 81.5469 9.06771 81.5469 9.59375C81.5469 9.96875 81.4661 10.3125 81.3047 10.625C81.1432 10.9323 80.9089 11.2005 80.6016 11.4297C80.2943 11.6589 79.9271 11.8385 79.5 11.9688C79.0729 12.0938 78.5911 12.1562 78.0547 12.1562C77.2786 12.1562 76.6224 12.0182 76.0859 11.7422C75.5495 11.4609 75.1432 11.1068 74.8672 10.6797C74.5911 10.2474 74.4531 9.79948 74.4531 9.33594H76.4297C76.4453 9.66406 76.5339 9.92708 76.6953 10.125C76.8568 10.3229 77.0599 10.4661 77.3047 10.5547C77.5547 10.638 77.8177 10.6797 78.0938 10.6797C78.4062 10.6797 78.6693 10.638 78.8828 10.5547C79.0964 10.4661 79.2578 10.349 79.3672 10.2031C79.4766 10.0521 79.5312 9.88021 79.5312 9.6875ZM87.1172 3.54688V5.03125H82.2734V3.54688H87.1172ZM83.5703 1.46875H85.6406V9.5625C85.6406 9.8125 85.6745 10.0052 85.7422 10.1406C85.8099 10.276 85.9115 10.3672 86.0469 10.4141C86.1823 10.4609 86.3438 10.4844 86.5312 10.4844C86.6667 10.4844 86.7917 10.4766 86.9062 10.4609C87.0208 10.4453 87.1172 10.4297 87.1953 10.4141L87.2031 11.9609C87.0312 12.0182 86.8359 12.0651 86.6172 12.1016C86.4036 12.138 86.1615 12.1562 85.8906 12.1562C85.4271 12.1562 85.0208 12.0781 84.6719 11.9219C84.3229 11.7604 84.0521 11.5026 83.8594 11.1484C83.6667 10.7891 83.5703 10.3151 83.5703 9.72656V1.46875ZM93.5234 9.99219V3.54688H95.6016V12H93.6484L93.5234 9.99219ZM93.7891 8.24219L94.4297 8.22656C94.4297 8.79427 94.3672 9.31771 94.2422 9.79688C94.1172 10.276 93.9219 10.6927 93.6562 11.0469C93.3958 11.3958 93.0651 11.6693 92.6641 11.8672C92.263 12.0599 91.7891 12.1562 91.2422 12.1562C90.8255 12.1562 90.4453 12.099 90.1016 11.9844C89.7578 11.8646 89.4609 11.6797 89.2109 11.4297C88.9661 11.1745 88.776 10.849 88.6406 10.4531C88.5052 10.0521 88.4375 9.57031 88.4375 9.00781V3.54688H90.5V9.02344C90.5 9.30469 90.5312 9.53906 90.5938 9.72656C90.6615 9.91406 90.7526 10.0677 90.8672 10.1875C90.987 10.3021 91.125 10.3854 91.2812 10.4375C91.4427 10.4844 91.6146 10.5078 91.7969 10.5078C92.2969 10.5078 92.6901 10.4089 92.9766 10.2109C93.2682 10.0078 93.4766 9.73698 93.6016 9.39844C93.7266 9.05469 93.7891 8.66927 93.7891 8.24219ZM102.5 10.2031V0H104.578V12H102.703L102.5 10.2031ZM97.0703 7.875V7.71094C97.0703 7.0651 97.1432 6.47917 97.2891 5.95312C97.4401 5.42188 97.6589 4.96615 97.9453 4.58594C98.2318 4.20573 98.5781 3.91146 98.9844 3.70312C99.3958 3.49479 99.862 3.39062 100.383 3.39062C100.888 3.39062 101.328 3.49219 101.703 3.69531C102.083 3.89844 102.406 4.1875 102.672 4.5625C102.943 4.9375 103.159 5.38281 103.32 5.89844C103.482 6.40885 103.599 6.97135 103.672 7.58594V8.03125C103.599 8.63021 103.482 9.17969 103.32 9.67969C103.159 10.1797 102.943 10.6172 102.672 10.9922C102.406 11.362 102.083 11.6484 101.703 11.8516C101.323 12.0547 100.878 12.1562 100.367 12.1562C99.8516 12.1562 99.388 12.0495 98.9766 11.8359C98.5703 11.6224 98.224 11.3229 97.9375 10.9375C97.6562 10.5521 97.4401 10.099 97.2891 9.57812C97.1432 9.05729 97.0703 8.48958 97.0703 7.875ZM99.1406 7.71094V7.875C99.1406 8.23958 99.1719 8.58073 99.2344 8.89844C99.2969 9.21615 99.3984 9.4974 99.5391 9.74219C99.6797 9.98177 99.8594 10.1693 100.078 10.3047C100.302 10.4401 100.573 10.5078 100.891 10.5078C101.297 10.5078 101.63 10.4193 101.891 10.2422C102.156 10.0599 102.362 9.8125 102.508 9.5C102.654 9.18229 102.747 8.82552 102.789 8.42969V7.20312C102.768 6.89062 102.714 6.60156 102.625 6.33594C102.542 6.07031 102.422 5.84115 102.266 5.64844C102.115 5.45573 101.927 5.30469 101.703 5.19531C101.479 5.08594 101.214 5.03125 100.906 5.03125C100.589 5.03125 100.318 5.10156 100.094 5.24219C99.8698 5.3776 99.6875 5.56771 99.5469 5.8125C99.4062 6.05729 99.3021 6.34115 99.2344 6.66406C99.1719 6.98698 99.1406 7.33594 99.1406 7.71094ZM110.242 12.1562C109.602 12.1562 109.026 12.0521 108.516 11.8438C108.005 11.6354 107.57 11.3464 107.211 10.9766C106.857 10.6016 106.583 10.1667 106.391 9.67188C106.203 9.17188 106.109 8.63542 106.109 8.0625V7.75C106.109 7.09896 106.203 6.50781 106.391 5.97656C106.578 5.4401 106.844 4.97917 107.188 4.59375C107.531 4.20833 107.943 3.91146 108.422 3.70312C108.901 3.49479 109.43 3.39062 110.008 3.39062C110.607 3.39062 111.135 3.49219 111.594 3.69531C112.052 3.89323 112.435 4.17448 112.742 4.53906C113.049 4.90365 113.281 5.34115 113.438 5.85156C113.594 6.35677 113.672 6.91667 113.672 7.53125V8.39844H107.047V6.97656H111.641V6.82031C111.63 6.49219 111.568 6.19271 111.453 5.92188C111.339 5.64583 111.161 5.42708 110.922 5.26562C110.682 5.09896 110.372 5.01562 109.992 5.01562C109.685 5.01562 109.417 5.08333 109.188 5.21875C108.964 5.34896 108.776 5.53646 108.625 5.78125C108.479 6.02083 108.37 6.30729 108.297 6.64062C108.224 6.97396 108.188 7.34375 108.188 7.75V8.0625C108.188 8.41667 108.234 8.74479 108.328 9.04688C108.427 9.34896 108.57 9.61198 108.758 9.83594C108.951 10.0547 109.18 10.2266 109.445 10.3516C109.716 10.4714 110.023 10.5312 110.367 10.5312C110.799 10.5312 111.19 10.4479 111.539 10.2812C111.893 10.1094 112.201 9.85677 112.461 9.52344L113.5 10.6016C113.323 10.862 113.083 11.112 112.781 11.3516C112.484 11.5911 112.125 11.7865 111.703 11.9375C111.281 12.0833 110.794 12.1562 110.242 12.1562ZM117.078 5.35156V12H115.016V3.54688H116.953L117.078 5.35156ZM116.75 7.46875H116.141C116.146 6.85417 116.229 6.29688 116.391 5.79688C116.552 5.29688 116.779 4.86719 117.07 4.50781C117.367 4.14844 117.719 3.8724 118.125 3.67969C118.531 3.48698 118.984 3.39062 119.484 3.39062C119.891 3.39062 120.258 3.44792 120.586 3.5625C120.914 3.67708 121.195 3.85938 121.43 4.10938C121.669 4.35938 121.852 4.6875 121.977 5.09375C122.107 5.49479 122.172 5.98958 122.172 6.57812V12H120.094V6.5625C120.094 6.17708 120.036 5.8724 119.922 5.64844C119.812 5.42448 119.651 5.26562 119.438 5.17188C119.229 5.07812 118.971 5.03125 118.664 5.03125C118.346 5.03125 118.068 5.09635 117.828 5.22656C117.594 5.35156 117.396 5.52604 117.234 5.75C117.078 5.97396 116.958 6.23177 116.875 6.52344C116.792 6.8151 116.75 7.13021 116.75 7.46875ZM127.992 3.54688V5.03125H123.148V3.54688H127.992ZM124.445 1.46875H126.516V9.5625C126.516 9.8125 126.549 10.0052 126.617 10.1406C126.685 10.276 126.786 10.3672 126.922 10.4141C127.057 10.4609 127.219 10.4844 127.406 10.4844C127.542 10.4844 127.667 10.4766 127.781 10.4609C127.896 10.4453 127.992 10.4297 128.07 10.4141L128.078 11.9609C127.906 12.0182 127.711 12.0651 127.492 12.1016C127.279 12.138 127.036 12.1562 126.766 12.1562C126.302 12.1562 125.896 12.0781 125.547 11.9219C125.198 11.7604 124.927 11.5026 124.734 11.1484C124.542 10.7891 124.445 10.3151 124.445 9.72656V1.46875Z" fill="url(#paint0_linear_145_166)"></path> <defs> <linearGradient id="paint0_linear_145_166" x1="110.358" y1="-7.80588" x2="73.0532" y2="48.2037" gradientUnits="userSpaceOnUse"> <stop stop-color="#FFE8CA"></stop> <stop offset="0.260417" stop-color="#FFE0E3"></stop> <stop offset="0.442708" stop-color="#FFC9ED"></stop> <stop offset="0.697917" stop-color="#C8BDFB"></stop> <stop offset="0.947917" stop-color="#A7C7FF"></stop> </linearGradient> </defs> </svg> 