<?xml version="1.0" encoding="UTF-8"?> <svg xmlns="http://www.w3.org/2000/svg" width="139" height="19" viewBox="0 0 139 19" fill="none"> <path d="M14.17 15H12.09C11.8567 15 11.6633 14.9433 11.51 14.83C11.3633 14.71 11.2567 14.5633 11.19 14.39L10.11 11.44H4.12L3.04 14.39C2.98667 14.5433 2.88 14.6833 2.72 14.81C2.56667 14.9367 2.37667 15 2.15 15H0.06L5.74 0.539999H8.49L14.17 15ZM4.81 9.54H9.42L7.66 4.73C7.58 4.51667 7.49 4.26667 7.39 3.98C7.29667 3.68667 7.20333 3.37 7.11 3.03C7.01667 3.37 6.92333 3.68667 6.83 3.98C6.74333 4.27333 6.65667 4.53 6.57 4.75L4.81 9.54ZM21.6092 6.74C21.5426 6.84667 21.4726 6.92333 21.3992 6.97C21.3259 7.01 21.2326 7.03 21.1192 7.03C20.9992 7.03 20.8692 6.99667 20.7292 6.93C20.5959 6.86333 20.4392 6.79 20.2592 6.71C20.0792 6.62333 19.8726 6.54667 19.6392 6.48C19.4126 6.41333 19.1426 6.38 18.8292 6.38C18.3426 6.38 17.9592 6.48333 17.6792 6.69C17.3992 6.89667 17.2592 7.16667 17.2592 7.5C17.2592 7.72 17.3292 7.90667 17.4692 8.06C17.6159 8.20667 17.8059 8.33667 18.0392 8.45C18.2792 8.56333 18.5492 8.66667 18.8492 8.76C19.1492 8.84667 19.4559 8.94333 19.7692 9.05C20.0826 9.15667 20.3892 9.28 20.6892 9.42C20.9892 9.55333 21.2559 9.72667 21.4892 9.94C21.7292 10.1467 21.9192 10.3967 22.0592 10.69C22.2059 10.9833 22.2792 11.3367 22.2792 11.75C22.2792 12.2433 22.1892 12.7 22.0092 13.12C21.8292 13.5333 21.5659 13.8933 21.2192 14.2C20.8726 14.5 20.4426 14.7367 19.9292 14.91C19.4226 15.0767 18.8392 15.16 18.1792 15.16C17.8259 15.16 17.4792 15.1267 17.1392 15.06C16.8059 15 16.4826 14.9133 16.1692 14.8C15.8626 14.6867 15.5759 14.5533 15.3092 14.4C15.0492 14.2467 14.8192 14.08 14.6192 13.9L15.1892 12.96C15.2626 12.8467 15.3492 12.76 15.4492 12.7C15.5492 12.64 15.6759 12.61 15.8292 12.61C15.9826 12.61 16.1259 12.6533 16.2592 12.74C16.3992 12.8267 16.5592 12.92 16.7392 13.02C16.9192 13.12 17.1292 13.2133 17.3692 13.3C17.6159 13.3867 17.9259 13.43 18.2992 13.43C18.5926 13.43 18.8426 13.3967 19.0492 13.33C19.2626 13.2567 19.4359 13.1633 19.5692 13.05C19.7092 12.9367 19.8092 12.8067 19.8692 12.66C19.9359 12.5067 19.9692 12.35 19.9692 12.19C19.9692 11.95 19.8959 11.7533 19.7492 11.6C19.6092 11.4467 19.4192 11.3133 19.1792 11.2C18.9459 11.0867 18.6759 10.9867 18.3692 10.9C18.0692 10.8067 17.7592 10.7067 17.4392 10.6C17.1259 10.4933 16.8159 10.37 16.5092 10.23C16.2092 10.0833 15.9392 9.9 15.6992 9.68C15.4659 9.46 15.2759 9.19 15.1292 8.87C14.9892 8.55 14.9192 8.16333 14.9192 7.71C14.9192 7.29 15.0026 6.89 15.1692 6.51C15.3359 6.13 15.5792 5.8 15.8992 5.52C16.2259 5.23333 16.6292 5.00667 17.1092 4.84C17.5959 4.66667 18.1559 4.58 18.7892 4.58C19.4959 4.58 20.1392 4.69667 20.7192 4.93C21.2992 5.16333 21.7826 5.47 22.1692 5.85L21.6092 6.74ZM27.8897 17.82C27.8164 17.9933 27.7197 18.1233 27.5997 18.21C27.4864 18.3033 27.3097 18.35 27.0697 18.35H25.2297L27.1497 14.24L22.9997 4.74H25.1597C25.3597 4.74 25.513 4.78667 25.6197 4.88C25.7264 4.97333 25.8064 5.08 25.8597 5.2L28.0497 10.52C28.123 10.6933 28.1864 10.8733 28.2397 11.06C28.293 11.2467 28.3397 11.4333 28.3797 11.62C28.433 11.4267 28.4897 11.24 28.5497 11.06C28.6164 10.88 28.6864 10.6967 28.7597 10.51L30.8197 5.2C30.873 5.06667 30.9597 4.95667 31.0797 4.87C31.2064 4.78333 31.3464 4.74 31.4997 4.74H33.4797L27.8897 17.82ZM42.9538 15H41.8438C41.6104 15 41.4271 14.9667 41.2938 14.9C41.1604 14.8267 41.0604 14.6833 40.9938 14.47L40.7738 13.74C40.5138 13.9733 40.2571 14.18 40.0038 14.36C39.7571 14.5333 39.5004 14.68 39.2338 14.8C38.9671 14.92 38.6838 15.01 38.3838 15.07C38.0838 15.13 37.7504 15.16 37.3838 15.16C36.9504 15.16 36.5504 15.1033 36.1838 14.99C35.8171 14.87 35.5004 14.6933 35.2338 14.46C34.9738 14.2267 34.7704 13.9367 34.6238 13.59C34.4771 13.2433 34.4038 12.84 34.4038 12.38C34.4038 11.9933 34.5038 11.6133 34.7038 11.24C34.9104 10.86 35.2504 10.52 35.7238 10.22C36.1971 9.91333 36.8271 9.66 37.6138 9.46C38.4004 9.26 39.3771 9.14667 40.5438 9.12V8.52C40.5438 7.83333 40.3971 7.32667 40.1038 7C39.8171 6.66667 39.3971 6.5 38.8438 6.5C38.4438 6.5 38.1104 6.54667 37.8438 6.64C37.5771 6.73333 37.3438 6.84 37.1438 6.96C36.9504 7.07333 36.7704 7.17667 36.6038 7.27C36.4371 7.36333 36.2538 7.41 36.0538 7.41C35.8871 7.41 35.7438 7.36667 35.6238 7.28C35.5038 7.19333 35.4071 7.08667 35.3338 6.96L34.8838 6.17C36.0638 5.09 37.4871 4.55 39.1538 4.55C39.7538 4.55 40.2871 4.65 40.7538 4.85C41.2271 5.04333 41.6271 5.31667 41.9538 5.67C42.2804 6.01667 42.5271 6.43333 42.6938 6.92C42.8671 7.40667 42.9538 7.94 42.9538 8.52V15ZM38.1538 13.46C38.4071 13.46 38.6404 13.4367 38.8538 13.39C39.0671 13.3433 39.2671 13.2733 39.4538 13.18C39.6471 13.0867 39.8304 12.9733 40.0038 12.84C40.1838 12.7 40.3638 12.5367 40.5438 12.35V10.62C39.8238 10.6533 39.2204 10.7167 38.7337 10.81C38.2538 10.8967 37.8671 11.01 37.5738 11.15C37.2804 11.29 37.0704 11.4533 36.9438 11.64C36.8238 11.8267 36.7638 12.03 36.7638 12.25C36.7638 12.6833 36.8904 12.9933 37.1438 13.18C37.4038 13.3667 37.7404 13.46 38.1538 13.46ZM52.1697 6.6H52.7997C53.053 6.6 53.263 6.56667 53.4297 6.5C53.5964 6.42667 53.7397 6.31333 53.8597 6.16L57.8497 1.11C58.0164 0.896666 58.1897 0.749999 58.3697 0.669999C58.5564 0.583332 58.7897 0.539999 59.0697 0.539999H61.3897L56.5197 6.55C56.3664 6.73667 56.2197 6.89333 56.0797 7.02C55.9397 7.14667 55.7897 7.25 55.6297 7.33C55.8497 7.41 56.0464 7.52333 56.2197 7.67C56.3997 7.81667 56.573 8.00333 56.7397 8.23L61.7597 15H59.3797C59.0597 15 58.8197 14.9567 58.6597 14.87C58.5064 14.7767 58.3764 14.6433 58.2697 14.47L54.1797 9.13C54.0464 8.95667 53.8964 8.83333 53.7297 8.76C53.563 8.68 53.3264 8.64 53.0197 8.64H52.1697V15H49.4797V0.53H52.1697V6.6ZM71.2545 15H70.1445C69.9112 15 69.7279 14.9667 69.5945 14.9C69.4612 14.8267 69.3612 14.6833 69.2945 14.47L69.0745 13.74C68.8145 13.9733 68.5579 14.18 68.3045 14.36C68.0579 14.5333 67.8012 14.68 67.5345 14.8C67.2679 14.92 66.9845 15.01 66.6845 15.07C66.3845 15.13 66.0512 15.16 65.6845 15.16C65.2512 15.16 64.8512 15.1033 64.4845 14.99C64.1179 14.87 63.8012 14.6933 63.5345 14.46C63.2745 14.2267 63.0712 13.9367 62.9245 13.59C62.7779 13.2433 62.7045 12.84 62.7045 12.38C62.7045 11.9933 62.8045 11.6133 63.0045 11.24C63.2112 10.86 63.5512 10.52 64.0245 10.22C64.4979 9.91333 65.1279 9.66 65.9145 9.46C66.7012 9.26 67.6779 9.14667 68.8445 9.12V8.52C68.8445 7.83333 68.6979 7.32667 68.4045 7C68.1179 6.66667 67.6979 6.5 67.1445 6.5C66.7445 6.5 66.4112 6.54667 66.1445 6.64C65.8779 6.73333 65.6445 6.84 65.4445 6.96C65.2512 7.07333 65.0712 7.17667 64.9045 7.27C64.7379 7.36333 64.5545 7.41 64.3545 7.41C64.1879 7.41 64.0445 7.36667 63.9245 7.28C63.8045 7.19333 63.7079 7.08667 63.6345 6.96L63.1845 6.17C64.3645 5.09 65.7879 4.55 67.4545 4.55C68.0545 4.55 68.5879 4.65 69.0545 4.85C69.5279 5.04333 69.9279 5.31667 70.2545 5.67C70.5812 6.01667 70.8279 6.43333 70.9945 6.92C71.1679 7.40667 71.2545 7.94 71.2545 8.52V15ZM66.4545 13.46C66.7079 13.46 66.9412 13.4367 67.1545 13.39C67.3679 13.3433 67.5679 13.2733 67.7545 13.18C67.9479 13.0867 68.1312 12.9733 68.3045 12.84C68.4845 12.7 68.6645 12.5367 68.8445 12.35V10.62C68.1245 10.6533 67.5212 10.7167 67.0345 10.81C66.5545 10.8967 66.1679 11.01 65.8745 11.15C65.5812 11.29 65.3712 11.4533 65.2445 11.64C65.1245 11.8267 65.0645 12.03 65.0645 12.25C65.0645 12.6833 65.1912 12.9933 65.4445 13.18C65.7045 13.3667 66.0412 13.46 66.4545 13.46ZM73.6833 18.35V4.74H75.1933C75.3533 4.74 75.4899 4.77667 75.6033 4.85C75.7166 4.92333 75.7899 5.03667 75.8233 5.19L76.0233 6.14C76.4366 5.66667 76.9099 5.28333 77.4433 4.99C77.9833 4.69667 78.6133 4.55 79.3333 4.55C79.8933 4.55 80.4033 4.66667 80.8633 4.9C81.3299 5.13333 81.7299 5.47333 82.0633 5.92C82.4033 6.36 82.6633 6.90667 82.8433 7.56C83.0299 8.20667 83.1233 8.95 83.1233 9.79C83.1233 10.5567 83.0199 11.2667 82.8133 11.92C82.6066 12.5733 82.3099 13.14 81.9233 13.62C81.5433 14.1 81.0799 14.4767 80.5333 14.75C79.9933 15.0167 79.3866 15.15 78.7133 15.15C78.1333 15.15 77.6399 15.0633 77.2333 14.89C76.8333 14.71 76.4733 14.4633 76.1533 14.15V18.35H73.6833ZM78.4833 6.5C77.9699 6.5 77.5299 6.61 77.1633 6.83C76.8033 7.04333 76.4666 7.34667 76.1533 7.74V12.34C76.4333 12.6867 76.7366 12.93 77.0633 13.07C77.3966 13.2033 77.7533 13.27 78.1333 13.27C78.5066 13.27 78.8433 13.2 79.1433 13.06C79.4499 12.92 79.7066 12.7067 79.9133 12.42C80.1266 12.1333 80.2899 11.7733 80.4033 11.34C80.5166 10.9 80.5733 10.3833 80.5733 9.79C80.5733 9.19 80.5233 8.68333 80.4233 8.27C80.3299 7.85 80.1933 7.51 80.0133 7.25C79.8333 6.99 79.6133 6.8 79.3533 6.68C79.0999 6.56 78.8099 6.5 78.4833 6.5ZM84.9919 15V4.74H86.4419C86.6952 4.74 86.8719 4.78667 86.9719 4.88C87.0719 4.97333 87.1385 5.13333 87.1719 5.36L87.3219 6.6C87.6885 5.96667 88.1185 5.46667 88.6119 5.1C89.1052 4.73333 89.6585 4.55 90.2719 4.55C90.7785 4.55 91.1985 4.66667 91.5319 4.9L91.2119 6.75C91.1919 6.87 91.1485 6.95667 91.0819 7.01C91.0152 7.05667 90.9252 7.08 90.8119 7.08C90.7119 7.08 90.5752 7.05667 90.4019 7.01C90.2285 6.96333 89.9985 6.94 89.7119 6.94C89.1985 6.94 88.7585 7.08333 88.3919 7.37C88.0252 7.65 87.7152 8.06333 87.4619 8.61V15H84.9919ZM100.903 15H99.793C99.5596 15 99.3763 14.9667 99.243 14.9C99.1096 14.8267 99.0096 14.6833 98.943 14.47L98.723 13.74C98.463 13.9733 98.2063 14.18 97.953 14.36C97.7063 14.5333 97.4496 14.68 97.183 14.8C96.9163 14.92 96.633 15.01 96.333 15.07C96.033 15.13 95.6996 15.16 95.333 15.16C94.8996 15.16 94.4996 15.1033 94.133 14.99C93.7663 14.87 93.4496 14.6933 93.183 14.46C92.923 14.2267 92.7196 13.9367 92.573 13.59C92.4263 13.2433 92.353 12.84 92.353 12.38C92.353 11.9933 92.453 11.6133 92.653 11.24C92.8596 10.86 93.1996 10.52 93.673 10.22C94.1463 9.91333 94.7763 9.66 95.563 9.46C96.3496 9.26 97.3263 9.14667 98.493 9.12V8.52C98.493 7.83333 98.3463 7.32667 98.053 7C97.7663 6.66667 97.3463 6.5 96.793 6.5C96.393 6.5 96.0596 6.54667 95.793 6.64C95.5263 6.73333 95.293 6.84 95.093 6.96C94.8996 7.07333 94.7196 7.17667 94.553 7.27C94.3863 7.36333 94.203 7.41 94.003 7.41C93.8363 7.41 93.693 7.36667 93.573 7.28C93.453 7.19333 93.3563 7.08667 93.283 6.96L92.833 6.17C94.013 5.09 95.4363 4.55 97.103 4.55C97.703 4.55 98.2363 4.65 98.703 4.85C99.1763 5.04333 99.5763 5.31667 99.903 5.67C100.23 6.01667 100.476 6.43333 100.643 6.92C100.816 7.40667 100.903 7.94 100.903 8.52V15ZM96.103 13.46C96.3563 13.46 96.5896 13.4367 96.803 13.39C97.0163 13.3433 97.2163 13.2733 97.403 13.18C97.5963 13.0867 97.7796 12.9733 97.953 12.84C98.133 12.7 98.313 12.5367 98.493 12.35V10.62C97.773 10.6533 97.1696 10.7167 96.683 10.81C96.203 10.8967 95.8163 11.01 95.523 11.15C95.2296 11.29 95.0196 11.4533 94.893 11.64C94.773 11.8267 94.713 12.03 94.713 12.25C94.713 12.6833 94.8396 12.9933 95.093 13.18C95.353 13.3667 95.6896 13.46 96.103 13.46ZM105.962 0.139999V15H103.492V0.139999H105.962ZM113.141 4.58C113.908 4.58 114.601 4.70333 115.221 4.95C115.848 5.19667 116.381 5.54667 116.821 6C117.261 6.45333 117.601 7.00667 117.841 7.66C118.081 8.31333 118.201 9.04333 118.201 9.85C118.201 10.6633 118.081 11.3967 117.841 12.05C117.601 12.7033 117.261 13.26 116.821 13.72C116.381 14.18 115.848 14.5333 115.221 14.78C114.601 15.0267 113.908 15.15 113.141 15.15C112.375 15.15 111.678 15.0267 111.051 14.78C110.425 14.5333 109.888 14.18 109.441 13.72C109.001 13.26 108.658 12.7033 108.411 12.05C108.171 11.3967 108.051 10.6633 108.051 9.85C108.051 9.04333 108.171 8.31333 108.411 7.66C108.658 7.00667 109.001 6.45333 109.441 6C109.888 5.54667 110.425 5.19667 111.051 4.95C111.678 4.70333 112.375 4.58 113.141 4.58ZM113.141 13.25C113.995 13.25 114.625 12.9633 115.031 12.39C115.445 11.8167 115.651 10.9767 115.651 9.87C115.651 8.76333 115.445 7.92 115.031 7.34C114.625 6.76 113.995 6.47 113.141 6.47C112.275 6.47 111.635 6.76333 111.221 7.35C110.808 7.93 110.601 8.77 110.601 9.87C110.601 10.97 110.808 11.81 111.221 12.39C111.635 12.9633 112.275 13.25 113.141 13.25ZM124.937 15H122.697L118.617 4.74H120.667C120.847 4.74 120.997 4.78333 121.117 4.87C121.243 4.95667 121.33 5.06667 121.377 5.2L123.357 10.68C123.47 11 123.563 11.3133 123.637 11.62C123.717 11.9267 123.787 12.2333 123.847 12.54C123.907 12.2333 123.973 11.9267 124.047 11.62C124.127 11.3133 124.227 11 124.347 10.68L126.377 5.2C126.423 5.06667 126.507 4.95667 126.627 4.87C126.747 4.78333 126.89 4.74 127.057 4.74H129.007L124.937 15ZM138.501 15H137.391C137.157 15 136.974 14.9667 136.841 14.9C136.707 14.8267 136.607 14.6833 136.541 14.47L136.321 13.74C136.061 13.9733 135.804 14.18 135.551 14.36C135.304 14.5333 135.047 14.68 134.781 14.8C134.514 14.92 134.231 15.01 133.931 15.07C133.631 15.13 133.297 15.16 132.931 15.16C132.497 15.16 132.097 15.1033 131.731 14.99C131.364 14.87 131.047 14.6933 130.781 14.46C130.521 14.2267 130.317 13.9367 130.171 13.59C130.024 13.2433 129.951 12.84 129.951 12.38C129.951 11.9933 130.051 11.6133 130.251 11.24C130.457 10.86 130.797 10.52 131.271 10.22C131.744 9.91333 132.374 9.66 133.161 9.46C133.947 9.26 134.924 9.14667 136.091 9.12V8.52C136.091 7.83333 135.944 7.32667 135.651 7C135.364 6.66667 134.944 6.5 134.391 6.5C133.991 6.5 133.657 6.54667 133.391 6.64C133.124 6.73333 132.891 6.84 132.691 6.96C132.497 7.07333 132.317 7.17667 132.151 7.27C131.984 7.36333 131.801 7.41 131.601 7.41C131.434 7.41 131.291 7.36667 131.171 7.28C131.051 7.19333 130.954 7.08667 130.881 6.96L130.431 6.17C131.611 5.09 133.034 4.55 134.701 4.55C135.301 4.55 135.834 4.65 136.301 4.85C136.774 5.04333 137.174 5.31667 137.501 5.67C137.827 6.01667 138.074 6.43333 138.241 6.92C138.414 7.40667 138.501 7.94 138.501 8.52V15ZM133.701 13.46C133.954 13.46 134.187 13.4367 134.401 13.39C134.614 13.3433 134.814 13.2733 135.001 13.18C135.194 13.0867 135.377 12.9733 135.551 12.84C135.731 12.7 135.911 12.5367 136.091 12.35V10.62C135.371 10.6533 134.767 10.7167 134.281 10.81C133.801 10.8967 133.414 11.01 133.121 11.15C132.827 11.29 132.617 11.4533 132.491 11.64C132.371 11.8267 132.311 12.03 132.311 12.25C132.311 12.6833 132.437 12.9933 132.691 13.18C132.951 13.3667 133.287 13.46 133.701 13.46Z" fill="#FFDA92"></path> <path d="M14.17 15H12.09C11.8567 15 11.6633 14.9433 11.51 14.83C11.3633 14.71 11.2567 14.5633 11.19 14.39L10.11 11.44H4.12L3.04 14.39C2.98667 14.5433 2.88 14.6833 2.72 14.81C2.56667 14.9367 2.37667 15 2.15 15H0.06L5.74 0.539999H8.49L14.17 15ZM4.81 9.54H9.42L7.66 4.73C7.58 4.51667 7.49 4.26667 7.39 3.98C7.29667 3.68667 7.20333 3.37 7.11 3.03C7.01667 3.37 6.92333 3.68667 6.83 3.98C6.74333 4.27333 6.65667 4.53 6.57 4.75L4.81 9.54ZM21.6092 6.74C21.5426 6.84667 21.4726 6.92333 21.3992 6.97C21.3259 7.01 21.2326 7.03 21.1192 7.03C20.9992 7.03 20.8692 6.99667 20.7292 6.93C20.5959 6.86333 20.4392 6.79 20.2592 6.71C20.0792 6.62333 19.8726 6.54667 19.6392 6.48C19.4126 6.41333 19.1426 6.38 18.8292 6.38C18.3426 6.38 17.9592 6.48333 17.6792 6.69C17.3992 6.89667 17.2592 7.16667 17.2592 7.5C17.2592 7.72 17.3292 7.90667 17.4692 8.06C17.6159 8.20667 17.8059 8.33667 18.0392 8.45C18.2792 8.56333 18.5492 8.66667 18.8492 8.76C19.1492 8.84667 19.4559 8.94333 19.7692 9.05C20.0826 9.15667 20.3892 9.28 20.6892 9.42C20.9892 9.55333 21.2559 9.72667 21.4892 9.94C21.7292 10.1467 21.9192 10.3967 22.0592 10.69C22.2059 10.9833 22.2792 11.3367 22.2792 11.75C22.2792 12.2433 22.1892 12.7 22.0092 13.12C21.8292 13.5333 21.5659 13.8933 21.2192 14.2C20.8726 14.5 20.4426 14.7367 19.9292 14.91C19.4226 15.0767 18.8392 15.16 18.1792 15.16C17.8259 15.16 17.4792 15.1267 17.1392 15.06C16.8059 15 16.4826 14.9133 16.1692 14.8C15.8626 14.6867 15.5759 14.5533 15.3092 14.4C15.0492 14.2467 14.8192 14.08 14.6192 13.9L15.1892 12.96C15.2626 12.8467 15.3492 12.76 15.4492 12.7C15.5492 12.64 15.6759 12.61 15.8292 12.61C15.9826 12.61 16.1259 12.6533 16.2592 12.74C16.3992 12.8267 16.5592 12.92 16.7392 13.02C16.9192 13.12 17.1292 13.2133 17.3692 13.3C17.6159 13.3867 17.9259 13.43 18.2992 13.43C18.5926 13.43 18.8426 13.3967 19.0492 13.33C19.2626 13.2567 19.4359 13.1633 19.5692 13.05C19.7092 12.9367 19.8092 12.8067 19.8692 12.66C19.9359 12.5067 19.9692 12.35 19.9692 12.19C19.9692 11.95 19.8959 11.7533 19.7492 11.6C19.6092 11.4467 19.4192 11.3133 19.1792 11.2C18.9459 11.0867 18.6759 10.9867 18.3692 10.9C18.0692 10.8067 17.7592 10.7067 17.4392 10.6C17.1259 10.4933 16.8159 10.37 16.5092 10.23C16.2092 10.0833 15.9392 9.9 15.6992 9.68C15.4659 9.46 15.2759 9.19 15.1292 8.87C14.9892 8.55 14.9192 8.16333 14.9192 7.71C14.9192 7.29 15.0026 6.89 15.1692 6.51C15.3359 6.13 15.5792 5.8 15.8992 5.52C16.2259 5.23333 16.6292 5.00667 17.1092 4.84C17.5959 4.66667 18.1559 4.58 18.7892 4.58C19.4959 4.58 20.1392 4.69667 20.7192 4.93C21.2992 5.16333 21.7826 5.47 22.1692 5.85L21.6092 6.74ZM27.8897 17.82C27.8164 17.9933 27.7197 18.1233 27.5997 18.21C27.4864 18.3033 27.3097 18.35 27.0697 18.35H25.2297L27.1497 14.24L22.9997 4.74H25.1597C25.3597 4.74 25.513 4.78667 25.6197 4.88C25.7264 4.97333 25.8064 5.08 25.8597 5.2L28.0497 10.52C28.123 10.6933 28.1864 10.8733 28.2397 11.06C28.293 11.2467 28.3397 11.4333 28.3797 11.62C28.433 11.4267 28.4897 11.24 28.5497 11.06C28.6164 10.88 28.6864 10.6967 28.7597 10.51L30.8197 5.2C30.873 5.06667 30.9597 4.95667 31.0797 4.87C31.2064 4.78333 31.3464 4.74 31.4997 4.74H33.4797L27.8897 17.82ZM42.9538 15H41.8438C41.6104 15 41.4271 14.9667 41.2938 14.9C41.1604 14.8267 41.0604 14.6833 40.9938 14.47L40.7738 13.74C40.5138 13.9733 40.2571 14.18 40.0038 14.36C39.7571 14.5333 39.5004 14.68 39.2338 14.8C38.9671 14.92 38.6838 15.01 38.3838 15.07C38.0838 15.13 37.7504 15.16 37.3838 15.16C36.9504 15.16 36.5504 15.1033 36.1838 14.99C35.8171 14.87 35.5004 14.6933 35.2338 14.46C34.9738 14.2267 34.7704 13.9367 34.6238 13.59C34.4771 13.2433 34.4038 12.84 34.4038 12.38C34.4038 11.9933 34.5038 11.6133 34.7038 11.24C34.9104 10.86 35.2504 10.52 35.7238 10.22C36.1971 9.91333 36.8271 9.66 37.6138 9.46C38.4004 9.26 39.3771 9.14667 40.5438 9.12V8.52C40.5438 7.83333 40.3971 7.32667 40.1038 7C39.8171 6.66667 39.3971 6.5 38.8438 6.5C38.4438 6.5 38.1104 6.54667 37.8438 6.64C37.5771 6.73333 37.3438 6.84 37.1438 6.96C36.9504 7.07333 36.7704 7.17667 36.6038 7.27C36.4371 7.36333 36.2538 7.41 36.0538 7.41C35.8871 7.41 35.7438 7.36667 35.6238 7.28C35.5038 7.19333 35.4071 7.08667 35.3338 6.96L34.8838 6.17C36.0638 5.09 37.4871 4.55 39.1538 4.55C39.7538 4.55 40.2871 4.65 40.7538 4.85C41.2271 5.04333 41.6271 5.31667 41.9538 5.67C42.2804 6.01667 42.5271 6.43333 42.6938 6.92C42.8671 7.40667 42.9538 7.94 42.9538 8.52V15ZM38.1538 13.46C38.4071 13.46 38.6404 13.4367 38.8538 13.39C39.0671 13.3433 39.2671 13.2733 39.4538 13.18C39.6471 13.0867 39.8304 12.9733 40.0038 12.84C40.1838 12.7 40.3638 12.5367 40.5438 12.35V10.62C39.8238 10.6533 39.2204 10.7167 38.7337 10.81C38.2538 10.8967 37.8671 11.01 37.5738 11.15C37.2804 11.29 37.0704 11.4533 36.9438 11.64C36.8238 11.8267 36.7638 12.03 36.7638 12.25C36.7638 12.6833 36.8904 12.9933 37.1438 13.18C37.4038 13.3667 37.7404 13.46 38.1538 13.46ZM52.1697 6.6H52.7997C53.053 6.6 53.263 6.56667 53.4297 6.5C53.5964 6.42667 53.7397 6.31333 53.8597 6.16L57.8497 1.11C58.0164 0.896666 58.1897 0.749999 58.3697 0.669999C58.5564 0.583332 58.7897 0.539999 59.0697 0.539999H61.3897L56.5197 6.55C56.3664 6.73667 56.2197 6.89333 56.0797 7.02C55.9397 7.14667 55.7897 7.25 55.6297 7.33C55.8497 7.41 56.0464 7.52333 56.2197 7.67C56.3997 7.81667 56.573 8.00333 56.7397 8.23L61.7597 15H59.3797C59.0597 15 58.8197 14.9567 58.6597 14.87C58.5064 14.7767 58.3764 14.6433 58.2697 14.47L54.1797 9.13C54.0464 8.95667 53.8964 8.83333 53.7297 8.76C53.563 8.68 53.3264 8.64 53.0197 8.64H52.1697V15H49.4797V0.53H52.1697V6.6ZM71.2545 15H70.1445C69.9112 15 69.7279 14.9667 69.5945 14.9C69.4612 14.8267 69.3612 14.6833 69.2945 14.47L69.0745 13.74C68.8145 13.9733 68.5579 14.18 68.3045 14.36C68.0579 14.5333 67.8012 14.68 67.5345 14.8C67.2679 14.92 66.9845 15.01 66.6845 15.07C66.3845 15.13 66.0512 15.16 65.6845 15.16C65.2512 15.16 64.8512 15.1033 64.4845 14.99C64.1179 14.87 63.8012 14.6933 63.5345 14.46C63.2745 14.2267 63.0712 13.9367 62.9245 13.59C62.7779 13.2433 62.7045 12.84 62.7045 12.38C62.7045 11.9933 62.8045 11.6133 63.0045 11.24C63.2112 10.86 63.5512 10.52 64.0245 10.22C64.4979 9.91333 65.1279 9.66 65.9145 9.46C66.7012 9.26 67.6779 9.14667 68.8445 9.12V8.52C68.8445 7.83333 68.6979 7.32667 68.4045 7C68.1179 6.66667 67.6979 6.5 67.1445 6.5C66.7445 6.5 66.4112 6.54667 66.1445 6.64C65.8779 6.73333 65.6445 6.84 65.4445 6.96C65.2512 7.07333 65.0712 7.17667 64.9045 7.27C64.7379 7.36333 64.5545 7.41 64.3545 7.41C64.1879 7.41 64.0445 7.36667 63.9245 7.28C63.8045 7.19333 63.7079 7.08667 63.6345 6.96L63.1845 6.17C64.3645 5.09 65.7879 4.55 67.4545 4.55C68.0545 4.55 68.5879 4.65 69.0545 4.85C69.5279 5.04333 69.9279 5.31667 70.2545 5.67C70.5812 6.01667 70.8279 6.43333 70.9945 6.92C71.1679 7.40667 71.2545 7.94 71.2545 8.52V15ZM66.4545 13.46C66.7079 13.46 66.9412 13.4367 67.1545 13.39C67.3679 13.3433 67.5679 13.2733 67.7545 13.18C67.9479 13.0867 68.1312 12.9733 68.3045 12.84C68.4845 12.7 68.6645 12.5367 68.8445 12.35V10.62C68.1245 10.6533 67.5212 10.7167 67.0345 10.81C66.5545 10.8967 66.1679 11.01 65.8745 11.15C65.5812 11.29 65.3712 11.4533 65.2445 11.64C65.1245 11.8267 65.0645 12.03 65.0645 12.25C65.0645 12.6833 65.1912 12.9933 65.4445 13.18C65.7045 13.3667 66.0412 13.46 66.4545 13.46ZM73.6833 18.35V4.74H75.1933C75.3533 4.74 75.4899 4.77667 75.6033 4.85C75.7166 4.92333 75.7899 5.03667 75.8233 5.19L76.0233 6.14C76.4366 5.66667 76.9099 5.28333 77.4433 4.99C77.9833 4.69667 78.6133 4.55 79.3333 4.55C79.8933 4.55 80.4033 4.66667 80.8633 4.9C81.3299 5.13333 81.7299 5.47333 82.0633 5.92C82.4033 6.36 82.6633 6.90667 82.8433 7.56C83.0299 8.20667 83.1233 8.95 83.1233 9.79C83.1233 10.5567 83.0199 11.2667 82.8133 11.92C82.6066 12.5733 82.3099 13.14 81.9233 13.62C81.5433 14.1 81.0799 14.4767 80.5333 14.75C79.9933 15.0167 79.3866 15.15 78.7133 15.15C78.1333 15.15 77.6399 15.0633 77.2333 14.89C76.8333 14.71 76.4733 14.4633 76.1533 14.15V18.35H73.6833ZM78.4833 6.5C77.9699 6.5 77.5299 6.61 77.1633 6.83C76.8033 7.04333 76.4666 7.34667 76.1533 7.74V12.34C76.4333 12.6867 76.7366 12.93 77.0633 13.07C77.3966 13.2033 77.7533 13.27 78.1333 13.27C78.5066 13.27 78.8433 13.2 79.1433 13.06C79.4499 12.92 79.7066 12.7067 79.9133 12.42C80.1266 12.1333 80.2899 11.7733 80.4033 11.34C80.5166 10.9 80.5733 10.3833 80.5733 9.79C80.5733 9.19 80.5233 8.68333 80.4233 8.27C80.3299 7.85 80.1933 7.51 80.0133 7.25C79.8333 6.99 79.6133 6.8 79.3533 6.68C79.0999 6.56 78.8099 6.5 78.4833 6.5ZM84.9919 15V4.74H86.4419C86.6952 4.74 86.8719 4.78667 86.9719 4.88C87.0719 4.97333 87.1385 5.13333 87.1719 5.36L87.3219 6.6C87.6885 5.96667 88.1185 5.46667 88.6119 5.1C89.1052 4.73333 89.6585 4.55 90.2719 4.55C90.7785 4.55 91.1985 4.66667 91.5319 4.9L91.2119 6.75C91.1919 6.87 91.1485 6.95667 91.0819 7.01C91.0152 7.05667 90.9252 7.08 90.8119 7.08C90.7119 7.08 90.5752 7.05667 90.4019 7.01C90.2285 6.96333 89.9985 6.94 89.7119 6.94C89.1985 6.94 88.7585 7.08333 88.3919 7.37C88.0252 7.65 87.7152 8.06333 87.4619 8.61V15H84.9919ZM100.903 15H99.793C99.5596 15 99.3763 14.9667 99.243 14.9C99.1096 14.8267 99.0096 14.6833 98.943 14.47L98.723 13.74C98.463 13.9733 98.2063 14.18 97.953 14.36C97.7063 14.5333 97.4496 14.68 97.183 14.8C96.9163 14.92 96.633 15.01 96.333 15.07C96.033 15.13 95.6996 15.16 95.333 15.16C94.8996 15.16 94.4996 15.1033 94.133 14.99C93.7663 14.87 93.4496 14.6933 93.183 14.46C92.923 14.2267 92.7196 13.9367 92.573 13.59C92.4263 13.2433 92.353 12.84 92.353 12.38C92.353 11.9933 92.453 11.6133 92.653 11.24C92.8596 10.86 93.1996 10.52 93.673 10.22C94.1463 9.91333 94.7763 9.66 95.563 9.46C96.3496 9.26 97.3263 9.14667 98.493 9.12V8.52C98.493 7.83333 98.3463 7.32667 98.053 7C97.7663 6.66667 97.3463 6.5 96.793 6.5C96.393 6.5 96.0596 6.54667 95.793 6.64C95.5263 6.73333 95.293 6.84 95.093 6.96C94.8996 7.07333 94.7196 7.17667 94.553 7.27C94.3863 7.36333 94.203 7.41 94.003 7.41C93.8363 7.41 93.693 7.36667 93.573 7.28C93.453 7.19333 93.3563 7.08667 93.283 6.96L92.833 6.17C94.013 5.09 95.4363 4.55 97.103 4.55C97.703 4.55 98.2363 4.65 98.703 4.85C99.1763 5.04333 99.5763 5.31667 99.903 5.67C100.23 6.01667 100.476 6.43333 100.643 6.92C100.816 7.40667 100.903 7.94 100.903 8.52V15ZM96.103 13.46C96.3563 13.46 96.5896 13.4367 96.803 13.39C97.0163 13.3433 97.2163 13.2733 97.403 13.18C97.5963 13.0867 97.7796 12.9733 97.953 12.84C98.133 12.7 98.313 12.5367 98.493 12.35V10.62C97.773 10.6533 97.1696 10.7167 96.683 10.81C96.203 10.8967 95.8163 11.01 95.523 11.15C95.2296 11.29 95.0196 11.4533 94.893 11.64C94.773 11.8267 94.713 12.03 94.713 12.25C94.713 12.6833 94.8396 12.9933 95.093 13.18C95.353 13.3667 95.6896 13.46 96.103 13.46ZM105.962 0.139999V15H103.492V0.139999H105.962ZM113.141 4.58C113.908 4.58 114.601 4.70333 115.221 4.95C115.848 5.19667 116.381 5.54667 116.821 6C117.261 6.45333 117.601 7.00667 117.841 7.66C118.081 8.31333 118.201 9.04333 118.201 9.85C118.201 10.6633 118.081 11.3967 117.841 12.05C117.601 12.7033 117.261 13.26 116.821 13.72C116.381 14.18 115.848 14.5333 115.221 14.78C114.601 15.0267 113.908 15.15 113.141 15.15C112.375 15.15 111.678 15.0267 111.051 14.78C110.425 14.5333 109.888 14.18 109.441 13.72C109.001 13.26 108.658 12.7033 108.411 12.05C108.171 11.3967 108.051 10.6633 108.051 9.85C108.051 9.04333 108.171 8.31333 108.411 7.66C108.658 7.00667 109.001 6.45333 109.441 6C109.888 5.54667 110.425 5.19667 111.051 4.95C111.678 4.70333 112.375 4.58 113.141 4.58ZM113.141 13.25C113.995 13.25 114.625 12.9633 115.031 12.39C115.445 11.8167 115.651 10.9767 115.651 9.87C115.651 8.76333 115.445 7.92 115.031 7.34C114.625 6.76 113.995 6.47 113.141 6.47C112.275 6.47 111.635 6.76333 111.221 7.35C110.808 7.93 110.601 8.77 110.601 9.87C110.601 10.97 110.808 11.81 111.221 12.39C111.635 12.9633 112.275 13.25 113.141 13.25ZM124.937 15H122.697L118.617 4.74H120.667C120.847 4.74 120.997 4.78333 121.117 4.87C121.243 4.95667 121.33 5.06667 121.377 5.2L123.357 10.68C123.47 11 123.563 11.3133 123.637 11.62C123.717 11.9267 123.787 12.2333 123.847 12.54C123.907 12.2333 123.973 11.9267 124.047 11.62C124.127 11.3133 124.227 11 124.347 10.68L126.377 5.2C126.423 5.06667 126.507 4.95667 126.627 4.87C126.747 4.78333 126.89 4.74 127.057 4.74H129.007L124.937 15ZM138.501 15H137.391C137.157 15 136.974 14.9667 136.841 14.9C136.707 14.8267 136.607 14.6833 136.541 14.47L136.321 13.74C136.061 13.9733 135.804 14.18 135.551 14.36C135.304 14.5333 135.047 14.68 134.781 14.8C134.514 14.92 134.231 15.01 133.931 15.07C133.631 15.13 133.297 15.16 132.931 15.16C132.497 15.16 132.097 15.1033 131.731 14.99C131.364 14.87 131.047 14.6933 130.781 14.46C130.521 14.2267 130.317 13.9367 130.171 13.59C130.024 13.2433 129.951 12.84 129.951 12.38C129.951 11.9933 130.051 11.6133 130.251 11.24C130.457 10.86 130.797 10.52 131.271 10.22C131.744 9.91333 132.374 9.66 133.161 9.46C133.947 9.26 134.924 9.14667 136.091 9.12V8.52C136.091 7.83333 135.944 7.32667 135.651 7C135.364 6.66667 134.944 6.5 134.391 6.5C133.991 6.5 133.657 6.54667 133.391 6.64C133.124 6.73333 132.891 6.84 132.691 6.96C132.497 7.07333 132.317 7.17667 132.151 7.27C131.984 7.36333 131.801 7.41 131.601 7.41C131.434 7.41 131.291 7.36667 131.171 7.28C131.051 7.19333 130.954 7.08667 130.881 6.96L130.431 6.17C131.611 5.09 133.034 4.55 134.701 4.55C135.301 4.55 135.834 4.65 136.301 4.85C136.774 5.04333 137.174 5.31667 137.501 5.67C137.827 6.01667 138.074 6.43333 138.241 6.92C138.414 7.40667 138.501 7.94 138.501 8.52V15ZM133.701 13.46C133.954 13.46 134.187 13.4367 134.401 13.39C134.614 13.3433 134.814 13.2733 135.001 13.18C135.194 13.0867 135.377 12.9733 135.551 12.84C135.731 12.7 135.911 12.5367 136.091 12.35V10.62C135.371 10.6533 134.767 10.7167 134.281 10.81C133.801 10.8967 133.414 11.01 133.121 11.15C132.827 11.29 132.617 11.4533 132.491 11.64C132.371 11.8267 132.311 12.03 132.311 12.25C132.311 12.6833 132.437 12.9933 132.691 13.18C132.951 13.3667 133.287 13.46 133.701 13.46Z" fill="url(#paint0_linear_169_252)"></path> <defs> <linearGradient id="paint0_linear_169_252" x1="119.769" y1="-11.0706" x2="70.313" y2="52.725" gradientUnits="userSpaceOnUse"> <stop stop-color="#FFE8CA"></stop> <stop offset="0.260417" stop-color="#FFE0E3"></stop> <stop offset="0.442708" stop-color="#FFC9ED"></stop> <stop offset="0.697917" stop-color="#C8BDFB"></stop> <stop offset="0.947917" stop-color="#A7C7FF"></stop> </linearGradient> </defs> </svg> 