<?xml version="1.0" encoding="UTF-8"?> <svg xmlns="http://www.w3.org/2000/svg" width="279" height="64" viewBox="0 0 279 64" fill="none"> <path d="M46.736 41.704C46.736 36.52 48.176 34.792 53.792 32.992V32.272H32.192V32.992C37.808 34.144 40.4 35.44 42.056 38.824C39.032 40.912 35.36 41.92 31.544 41.92C25.064 41.92 18.08 38.968 12.896 32.776C6.272 24.784 4.4 13.624 10.952 8.08C12.32 6.928 14.264 6.352 16.496 6.352C25.064 6.352 38.096 14.704 40.976 30.76H41.552L45.584 8.08C41.048 3.472 34.496 0.879997 26.72 0.879997C11.168 0.879997 0.8 11.248 0.8 26.8C0.8 42.352 11.168 52.72 26.72 52.72C33.344 52.72 39.32 49.336 43.496 43.288C43.64 43.792 43.784 44.296 43.856 44.8L45.296 52H46.736V41.704ZM58.5406 26.008C62.7166 23.2 66.3166 21.832 69.8446 21.832C75.8206 21.832 80.8606 26.8 80.8606 32.704V34.216C77.7646 33.064 74.5246 32.488 71.4286 32.488C62.6446 32.488 54.9406 36.808 54.9406 44.152C54.9406 49.624 59.2606 52.72 65.8126 52.72C73.5886 52.72 78.4846 48.4 80.9326 44.44C81.5086 50.488 84.3166 52.792 87.8446 52.792C91.5886 52.792 96.1246 50.2 99.5086 46.816V46.168C94.1086 46.168 91.6606 46.384 91.6606 40.84V31.408C91.6606 21.904 84.9646 15.28 75.3886 15.28C69.7006 15.28 62.7886 19.24 58.5406 25V26.008ZM80.8606 42.496C79.3486 44.728 76.6846 46.888 72.2206 46.888C68.4046 46.888 65.8126 45.232 65.8126 41.632C65.8126 37.096 70.0606 34.864 75.1726 34.864C76.9726 34.864 78.9166 35.152 80.8606 35.728V42.496ZM108.703 44.368C108.703 48.472 106.183 49.984 101.503 51.28V52H126.703V51.28C122.023 49.984 119.503 48.472 119.503 44.368V11.464C119.503 7.36 120.007 2.104 120.439 0.879997L119.503 0.231997L100.855 6.784V7.432C106.255 7.432 108.703 9.088 108.703 12.76V44.368ZM138.164 44.368C138.164 48.472 135.644 49.984 130.964 51.28V52H156.164V51.28C151.484 49.984 148.964 48.472 148.964 44.368V11.464C148.964 7.36 149.468 2.104 149.9 0.879997L148.964 0.231997L130.316 6.784V7.432C135.716 7.432 138.164 9.088 138.164 12.76V44.368ZM189.65 30.184L190.154 29.68C190.154 18.088 181.37 15.28 175.754 15.28C164.522 15.28 157.034 22.768 157.034 34C157.034 45.232 164.522 52.72 175.754 52.72C182.954 52.72 189.002 47.32 191.306 38.032H190.586C188.498 42.424 184.97 44.584 181.01 44.584C173.09 44.584 165.674 35.8 163.298 28.744L189.65 30.184ZM162.794 26.944C162.29 24.496 162.65 22.192 164.522 20.608C165.746 19.528 167.402 19.024 169.202 19.024C173.306 19.024 178.202 21.616 180.218 26.08L162.794 26.944ZM201.093 44.368C201.093 48.472 198.573 49.984 193.893 51.28V52H219.093V51.28C214.413 49.984 211.893 48.472 211.893 44.368V25.432C214.773 23.92 217.437 23.2 220.029 23.2C225.213 23.2 227.805 26.512 227.805 30.184H228.525L231.621 18.592C229.893 16 226.437 15.28 224.565 15.28C220.173 15.28 215.709 18.376 211.965 22.408C212.109 19.24 212.541 16.144 212.829 15.28L211.893 14.632L193.245 21.184V21.832C198.645 21.832 201.093 23.488 201.093 27.16V44.368ZM267.694 29.68C272.014 20.968 274.894 17.656 278.35 16.504V16H261.574V16.504C266.47 17.512 267.262 22.984 264.022 30.616L260.782 38.176L253.222 21.112C252.502 19.456 251.998 17.44 255.382 16.504V16H235.222V16.504C238.534 17.44 240.19 18.952 241.918 22.84L254.95 51.928L254.662 52.576C253.654 54.952 250.99 55.816 248.11 55.816C244.15 55.816 239.83 54.232 238.606 52.72H237.886L236.734 61.432C238.174 62.944 240.55 63.808 243.142 63.808C247.174 63.808 251.782 61.648 254.446 56.32L267.694 29.68Z" fill="#1C1C1C"></path> </svg> 