<?xml version="1.0" encoding="UTF-8"?> <svg xmlns="http://www.w3.org/2000/svg" width="130" height="48" viewBox="0 0 130 48" fill="none"> <rect x="1" y="1" width="128" height="46" rx="23" stroke="url(#paint0_linear_222_128)" stroke-width="2"></rect> <path d="M42.8805 25.293C43.3745 25.293 43.8083 25.2297 44.182 25.103C44.562 24.9763 44.8755 24.799 45.1225 24.571C45.3758 24.3367 45.5658 24.0548 45.6925 23.7255C45.8192 23.3962 45.8825 23.0288 45.8825 22.6235C45.8825 22.2245 45.8192 21.8667 45.6925 21.55C45.5722 21.2333 45.3885 20.9642 45.1415 20.7425C44.8945 20.5208 44.581 20.353 44.201 20.239C43.8273 20.1187 43.3872 20.0585 42.8805 20.0585H40.8475V25.293H42.8805ZM42.8805 18.32C43.7735 18.32 44.5462 18.4245 45.1985 18.6335C45.8572 18.8425 46.3987 19.137 46.823 19.517C47.2537 19.8907 47.5735 20.3435 47.7825 20.8755C47.9915 21.4012 48.096 21.9838 48.096 22.6235C48.096 23.2758 47.9852 23.8743 47.7635 24.419C47.5418 24.9573 47.2125 25.4228 46.7755 25.8155C46.3385 26.2018 45.7938 26.5058 45.1415 26.7275C44.4955 26.9428 43.7418 27.0505 42.8805 27.0505H40.8475V32H38.6245V18.32H42.8805ZM51.6027 24.1055C51.9067 23.4912 52.274 23.0098 52.7047 22.6615C53.1354 22.3068 53.6515 22.1295 54.2532 22.1295C54.4622 22.1295 54.6585 22.1548 54.8422 22.2055C55.0259 22.2498 55.1905 22.3195 55.3362 22.4145L55.1937 23.9535C55.1684 24.0612 55.1272 24.1372 55.0702 24.1815C55.0195 24.2195 54.9499 24.2385 54.8612 24.2385C54.7662 24.2385 54.63 24.2227 54.4527 24.191C54.2754 24.153 54.0885 24.134 53.8922 24.134C53.6072 24.134 53.3539 24.1752 53.1322 24.2575C52.9169 24.3398 52.7205 24.4602 52.5432 24.6185C52.3722 24.7768 52.2202 24.97 52.0872 25.198C51.9542 25.426 51.8307 25.6857 51.7167 25.977V32H49.6742V22.31H50.8617C51.077 22.31 51.2259 22.3512 51.3082 22.4335C51.3905 22.5095 51.4475 22.6457 51.4792 22.842L51.6027 24.1055ZM60.5434 22.158C61.259 22.158 61.905 22.2752 62.4814 22.5095C63.064 22.7438 63.558 23.0763 63.9634 23.507C64.375 23.9377 64.6917 24.4602 64.9134 25.0745C65.135 25.6888 65.2459 26.3792 65.2459 27.1455C65.2459 27.9118 65.135 28.6022 64.9134 29.2165C64.6917 29.8308 64.375 30.3565 63.9634 30.7935C63.558 31.2242 63.064 31.5567 62.4814 31.791C61.905 32.0253 61.259 32.1425 60.5434 32.1425C59.8214 32.1425 59.169 32.0253 58.5864 31.791C58.01 31.5567 57.516 31.2242 57.1044 30.7935C56.6927 30.3565 56.376 29.8308 56.1544 29.2165C55.9327 28.6022 55.8219 27.9118 55.8219 27.1455C55.8219 26.3792 55.9327 25.6888 56.1544 25.0745C56.376 24.4602 56.6927 23.9377 57.1044 23.507C57.516 23.0763 58.01 22.7438 58.5864 22.5095C59.169 22.2752 59.8214 22.158 60.5434 22.158ZM60.5434 30.5465C61.4174 30.5465 62.0665 30.2552 62.4909 29.6725C62.9215 29.0835 63.1369 28.2443 63.1369 27.155C63.1369 26.0657 62.9215 25.2265 62.4909 24.6375C62.0665 24.0422 61.4174 23.7445 60.5434 23.7445C59.6567 23.7445 58.998 24.0422 58.5674 24.6375C58.1367 25.2265 57.9214 26.0657 57.9214 27.155C57.9214 28.2443 58.1367 29.0835 58.5674 29.6725C58.998 30.2552 59.6567 30.5465 60.5434 30.5465ZM67.6507 32V23.9345L66.7007 23.8015C66.5424 23.7698 66.4125 23.7128 66.3112 23.6305C66.2162 23.5482 66.1687 23.431 66.1687 23.279V22.443H67.6507V22.0345C67.6507 21.4392 67.7457 20.8913 67.9357 20.391C68.1257 19.8907 68.4139 19.4568 68.8002 19.0895C69.1865 18.7222 69.6679 18.4372 70.2442 18.2345C70.8269 18.0255 71.5077 17.921 72.2867 17.921C72.54 17.921 72.7997 17.9368 73.0657 17.9685C73.338 18.0002 73.5692 18.0477 73.7592 18.111L73.6927 19.175C73.68 19.308 73.6009 19.384 73.4552 19.403C73.3095 19.4157 73.1164 19.422 72.8757 19.422C72.2867 19.422 71.7864 19.479 71.3747 19.593C70.963 19.7007 70.6274 19.8685 70.3677 20.0965C70.108 20.3182 69.918 20.5968 69.7977 20.9325C69.6837 21.2618 69.6267 21.6482 69.6267 22.0915V22.443H75.5642V32H73.5217V23.9155H69.6932V32H67.6507ZM80.2361 17.94V32H78.1936V17.94H80.2361ZM89.1127 26.0625C89.1127 25.7205 89.062 25.4038 88.9607 25.1125C88.8657 24.8148 88.7232 24.5583 88.5332 24.343C88.3432 24.1213 88.1057 23.9503 87.8207 23.83C87.542 23.7033 87.219 23.64 86.8517 23.64C86.1107 23.64 85.528 23.8522 85.1037 24.2765C84.6794 24.7008 84.4102 25.2962 84.2962 26.0625H89.1127ZM84.2392 27.3165C84.2645 27.8675 84.35 28.3457 84.4957 28.751C84.6414 29.15 84.8345 29.4825 85.0752 29.7485C85.3222 30.0145 85.6135 30.214 85.9492 30.347C86.2912 30.4737 86.6712 30.537 87.0892 30.537C87.4882 30.537 87.8334 30.4927 88.1247 30.404C88.416 30.309 88.6694 30.2077 88.8847 30.1C89.1 29.986 89.2837 29.8847 89.4357 29.796C89.5877 29.701 89.727 29.6535 89.8537 29.6535C90.0184 29.6535 90.145 29.7168 90.2337 29.8435L90.8132 30.594C90.5725 30.879 90.3002 31.1197 89.9962 31.316C89.6922 31.5123 89.3692 31.6738 89.0272 31.8005C88.6852 31.9208 88.3337 32.0063 87.9727 32.057C87.6117 32.114 87.2602 32.1425 86.9182 32.1425C86.2469 32.1425 85.623 32.0317 85.0467 31.81C84.4767 31.582 83.9795 31.2495 83.5552 30.8125C83.1372 30.3755 82.8079 29.834 82.5672 29.188C82.3329 28.542 82.2157 27.7978 82.2157 26.9555C82.2157 26.2842 82.3202 25.6572 82.5292 25.0745C82.7445 24.4918 83.0485 23.9852 83.4412 23.5545C83.8402 23.1238 84.3215 22.785 84.8852 22.538C85.4552 22.2847 86.098 22.158 86.8137 22.158C87.409 22.158 87.96 22.2562 88.4667 22.4525C88.9734 22.6425 89.4104 22.9243 89.7777 23.298C90.145 23.6717 90.43 24.1308 90.6327 24.6755C90.8417 25.2138 90.9462 25.8282 90.9462 26.5185C90.9462 26.8352 90.9114 27.0473 90.8417 27.155C90.772 27.2627 90.6454 27.3165 90.4617 27.3165H84.2392Z" fill="white"></path> <path d="M42.8805 25.293C43.3745 25.293 43.8083 25.2297 44.182 25.103C44.562 24.9763 44.8755 24.799 45.1225 24.571C45.3758 24.3367 45.5658 24.0548 45.6925 23.7255C45.8192 23.3962 45.8825 23.0288 45.8825 22.6235C45.8825 22.2245 45.8192 21.8667 45.6925 21.55C45.5722 21.2333 45.3885 20.9642 45.1415 20.7425C44.8945 20.5208 44.581 20.353 44.201 20.239C43.8273 20.1187 43.3872 20.0585 42.8805 20.0585H40.8475V25.293H42.8805ZM42.8805 18.32C43.7735 18.32 44.5462 18.4245 45.1985 18.6335C45.8572 18.8425 46.3987 19.137 46.823 19.517C47.2537 19.8907 47.5735 20.3435 47.7825 20.8755C47.9915 21.4012 48.096 21.9838 48.096 22.6235C48.096 23.2758 47.9852 23.8743 47.7635 24.419C47.5418 24.9573 47.2125 25.4228 46.7755 25.8155C46.3385 26.2018 45.7938 26.5058 45.1415 26.7275C44.4955 26.9428 43.7418 27.0505 42.8805 27.0505H40.8475V32H38.6245V18.32H42.8805ZM51.6027 24.1055C51.9067 23.4912 52.274 23.0098 52.7047 22.6615C53.1354 22.3068 53.6515 22.1295 54.2532 22.1295C54.4622 22.1295 54.6585 22.1548 54.8422 22.2055C55.0259 22.2498 55.1905 22.3195 55.3362 22.4145L55.1937 23.9535C55.1684 24.0612 55.1272 24.1372 55.0702 24.1815C55.0195 24.2195 54.9499 24.2385 54.8612 24.2385C54.7662 24.2385 54.63 24.2227 54.4527 24.191C54.2754 24.153 54.0885 24.134 53.8922 24.134C53.6072 24.134 53.3539 24.1752 53.1322 24.2575C52.9169 24.3398 52.7205 24.4602 52.5432 24.6185C52.3722 24.7768 52.2202 24.97 52.0872 25.198C51.9542 25.426 51.8307 25.6857 51.7167 25.977V32H49.6742V22.31H50.8617C51.077 22.31 51.2259 22.3512 51.3082 22.4335C51.3905 22.5095 51.4475 22.6457 51.4792 22.842L51.6027 24.1055ZM60.5434 22.158C61.259 22.158 61.905 22.2752 62.4814 22.5095C63.064 22.7438 63.558 23.0763 63.9634 23.507C64.375 23.9377 64.6917 24.4602 64.9134 25.0745C65.135 25.6888 65.2459 26.3792 65.2459 27.1455C65.2459 27.9118 65.135 28.6022 64.9134 29.2165C64.6917 29.8308 64.375 30.3565 63.9634 30.7935C63.558 31.2242 63.064 31.5567 62.4814 31.791C61.905 32.0253 61.259 32.1425 60.5434 32.1425C59.8214 32.1425 59.169 32.0253 58.5864 31.791C58.01 31.5567 57.516 31.2242 57.1044 30.7935C56.6927 30.3565 56.376 29.8308 56.1544 29.2165C55.9327 28.6022 55.8219 27.9118 55.8219 27.1455C55.8219 26.3792 55.9327 25.6888 56.1544 25.0745C56.376 24.4602 56.6927 23.9377 57.1044 23.507C57.516 23.0763 58.01 22.7438 58.5864 22.5095C59.169 22.2752 59.8214 22.158 60.5434 22.158ZM60.5434 30.5465C61.4174 30.5465 62.0665 30.2552 62.4909 29.6725C62.9215 29.0835 63.1369 28.2443 63.1369 27.155C63.1369 26.0657 62.9215 25.2265 62.4909 24.6375C62.0665 24.0422 61.4174 23.7445 60.5434 23.7445C59.6567 23.7445 58.998 24.0422 58.5674 24.6375C58.1367 25.2265 57.9214 26.0657 57.9214 27.155C57.9214 28.2443 58.1367 29.0835 58.5674 29.6725C58.998 30.2552 59.6567 30.5465 60.5434 30.5465ZM67.6507 32V23.9345L66.7007 23.8015C66.5424 23.7698 66.4125 23.7128 66.3112 23.6305C66.2162 23.5482 66.1687 23.431 66.1687 23.279V22.443H67.6507V22.0345C67.6507 21.4392 67.7457 20.8913 67.9357 20.391C68.1257 19.8907 68.4139 19.4568 68.8002 19.0895C69.1865 18.7222 69.6679 18.4372 70.2442 18.2345C70.8269 18.0255 71.5077 17.921 72.2867 17.921C72.54 17.921 72.7997 17.9368 73.0657 17.9685C73.338 18.0002 73.5692 18.0477 73.7592 18.111L73.6927 19.175C73.68 19.308 73.6009 19.384 73.4552 19.403C73.3095 19.4157 73.1164 19.422 72.8757 19.422C72.2867 19.422 71.7864 19.479 71.3747 19.593C70.963 19.7007 70.6274 19.8685 70.3677 20.0965C70.108 20.3182 69.918 20.5968 69.7977 20.9325C69.6837 21.2618 69.6267 21.6482 69.6267 22.0915V22.443H75.5642V32H73.5217V23.9155H69.6932V32H67.6507ZM80.2361 17.94V32H78.1936V17.94H80.2361ZM89.1127 26.0625C89.1127 25.7205 89.062 25.4038 88.9607 25.1125C88.8657 24.8148 88.7232 24.5583 88.5332 24.343C88.3432 24.1213 88.1057 23.9503 87.8207 23.83C87.542 23.7033 87.219 23.64 86.8517 23.64C86.1107 23.64 85.528 23.8522 85.1037 24.2765C84.6794 24.7008 84.4102 25.2962 84.2962 26.0625H89.1127ZM84.2392 27.3165C84.2645 27.8675 84.35 28.3457 84.4957 28.751C84.6414 29.15 84.8345 29.4825 85.0752 29.7485C85.3222 30.0145 85.6135 30.214 85.9492 30.347C86.2912 30.4737 86.6712 30.537 87.0892 30.537C87.4882 30.537 87.8334 30.4927 88.1247 30.404C88.416 30.309 88.6694 30.2077 88.8847 30.1C89.1 29.986 89.2837 29.8847 89.4357 29.796C89.5877 29.701 89.727 29.6535 89.8537 29.6535C90.0184 29.6535 90.145 29.7168 90.2337 29.8435L90.8132 30.594C90.5725 30.879 90.3002 31.1197 89.9962 31.316C89.6922 31.5123 89.3692 31.6738 89.0272 31.8005C88.6852 31.9208 88.3337 32.0063 87.9727 32.057C87.6117 32.114 87.2602 32.1425 86.9182 32.1425C86.2469 32.1425 85.623 32.0317 85.0467 31.81C84.4767 31.582 83.9795 31.2495 83.5552 30.8125C83.1372 30.3755 82.8079 29.834 82.5672 29.188C82.3329 28.542 82.2157 27.7978 82.2157 26.9555C82.2157 26.2842 82.3202 25.6572 82.5292 25.0745C82.7445 24.4918 83.0485 23.9852 83.4412 23.5545C83.8402 23.1238 84.3215 22.785 84.8852 22.538C85.4552 22.2847 86.098 22.158 86.8137 22.158C87.409 22.158 87.96 22.2562 88.4667 22.4525C88.9734 22.6425 89.4104 22.9243 89.7777 23.298C90.145 23.6717 90.43 24.1308 90.6327 24.6755C90.8417 25.2138 90.9462 25.8282 90.9462 26.5185C90.9462 26.8352 90.9114 27.0473 90.8417 27.155C90.772 27.2627 90.6454 27.3165 90.4617 27.3165H84.2392Z" fill="url(#paint1_linear_222_128)"></path> <defs> <linearGradient id="paint0_linear_222_128" x1="65" y1="-3.56649e-06" x2="41.5587" y2="46.2154" gradientUnits="userSpaceOnUse"> <stop stop-color="#FFE8CA"></stop> <stop offset="0.260417" stop-color="#FFE0E3"></stop> <stop offset="0.442708" stop-color="#FFC9ED"></stop> <stop offset="0.697917" stop-color="#C8BDFB"></stop> <stop offset="0.947917" stop-color="#A7C7FF"></stop> </linearGradient> <linearGradient id="paint1_linear_222_128" x1="64.5" y1="13" x2="52.4743" y2="33.9338" gradientUnits="userSpaceOnUse"> <stop stop-color="#FFE8CA"></stop> <stop offset="0.260417" stop-color="#FFE0E3"></stop> <stop offset="0.442708" stop-color="#FFC9ED"></stop> <stop offset="0.697917" stop-color="#C8BDFB"></stop> <stop offset="0.947917" stop-color="#A7C7FF"></stop> </linearGradient> </defs> </svg> 