<?xml version="1.0" encoding="UTF-8"?> <svg xmlns="http://www.w3.org/2000/svg" width="23" height="22" viewBox="0 0 23 22" fill="none"> <path d="M15.7127 2.97917H15.4836V2.75C15.4836 2.3705 15.1756 2.0625 14.7961 2.0625C14.4166 2.0625 14.1086 2.3705 14.1086 2.75V2.97917H8.15023V2.75C8.15023 2.3705 7.84223 2.0625 7.46273 2.0625C7.08323 2.0625 6.77523 2.3705 6.77523 2.75V2.97917H6.54606C4.14531 2.97917 2.19189 4.93258 2.19189 7.33333V15.5833C2.19189 17.9841 4.14531 19.9375 6.54606 19.9375H15.7127C18.1135 19.9375 20.0669 17.9841 20.0669 15.5833V7.33333C20.0669 4.93258 18.1135 2.97917 15.7127 2.97917ZM6.54606 4.35417H6.77523V5.5C6.77523 5.8795 7.08323 6.1875 7.46273 6.1875C7.84223 6.1875 8.15023 5.8795 8.15023 5.5V4.35417H14.1086V5.5C14.1086 5.8795 14.4166 6.1875 14.7961 6.1875C15.1756 6.1875 15.4836 5.8795 15.4836 5.5V4.35417H15.7127C17.3554 4.35417 18.6919 5.69067 18.6919 7.33333V7.5625H3.56689V7.33333C3.56689 5.69067 4.90339 4.35417 6.54606 4.35417ZM15.7127 18.5625H6.54606C4.90339 18.5625 3.56689 17.226 3.56689 15.5833V8.9375H18.6919V15.5833C18.6919 17.226 17.3554 18.5625 15.7127 18.5625ZM15.7127 11.9167C15.7127 12.4227 15.3021 12.8333 14.7961 12.8333C14.2901 12.8333 13.8794 12.4227 13.8794 11.9167C13.8794 11.4107 14.2901 11 14.7961 11C15.3021 11 15.7127 11.4107 15.7127 11.9167ZM12.0461 11.9167C12.0461 12.4227 11.6354 12.8333 11.1294 12.8333C10.6234 12.8333 10.2127 12.4227 10.2127 11.9167C10.2127 11.4107 10.6234 11 11.1294 11C11.6354 11 12.0461 11.4107 12.0461 11.9167ZM8.37939 11.9167C8.37939 12.4227 7.96873 12.8333 7.46273 12.8333C6.95673 12.8333 6.54606 12.4227 6.54606 11.9167C6.54606 11.4107 6.95673 11 7.46273 11C7.96873 11 8.37939 11.4107 8.37939 11.9167ZM15.7127 15.5833C15.7127 16.0893 15.3021 16.5 14.7961 16.5C14.2901 16.5 13.8794 16.0893 13.8794 15.5833C13.8794 15.0773 14.2901 14.6667 14.7961 14.6667C15.3021 14.6667 15.7127 15.0773 15.7127 15.5833ZM12.0461 15.5833C12.0461 16.0893 11.6354 16.5 11.1294 16.5C10.6234 16.5 10.2127 16.0893 10.2127 15.5833C10.2127 15.0773 10.6234 14.6667 11.1294 14.6667C11.6354 14.6667 12.0461 15.0773 12.0461 15.5833ZM8.37939 15.5833C8.37939 16.0893 7.96873 16.5 7.46273 16.5C6.95673 16.5 6.54606 16.0893 6.54606 15.5833C6.54606 15.0773 6.95673 14.6667 7.46273 14.6667C7.96873 14.6667 8.37939 15.0773 8.37939 15.5833Z" fill="#F5F5F5"></path> </svg> 