<?xml version="1.0" encoding="UTF-8"?> <svg xmlns="http://www.w3.org/2000/svg" width="36" height="36" viewBox="0 0 36 36" fill="none"> <rect width="36.0001" height="36.0001" rx="18" fill="#363636"></rect> <path d="M18.0001 13.5629C17.1226 13.5629 16.2648 13.8232 15.5351 14.3107C14.8055 14.7982 14.2368 15.4912 13.9009 16.3019C13.5651 17.1127 13.4772 18.0048 13.6484 18.8655C13.8196 19.7262 14.2422 20.5168 14.8627 21.1373C15.4833 21.7578 16.2738 22.1804 17.1345 22.3516C17.9952 22.5228 18.8873 22.4349 19.6981 22.0991C20.5088 21.7633 21.2018 21.1946 21.6893 20.4649C22.1768 19.7353 22.4371 18.8774 22.4371 17.9999C22.4368 16.8232 21.9692 15.6948 21.1372 14.8628C20.3052 14.0308 19.1768 13.5632 18.0001 13.5629ZM18.0001 20.8802C17.4305 20.8798 16.8739 20.7105 16.4005 20.3938C15.9271 20.077 15.5582 19.627 15.3405 19.1007C15.1228 18.5743 15.0661 17.9953 15.1775 17.4367C15.2889 16.8781 15.5634 16.365 15.9663 15.9624C16.3692 15.5598 16.8824 15.2857 17.4411 15.1747C17.9998 15.0637 18.5788 15.1209 19.105 15.339C19.6312 15.5571 20.0809 15.9262 20.3973 16.3999C20.7137 16.8735 20.8826 17.4303 20.8826 17.9999C20.8827 18.3784 20.8083 18.7531 20.6634 19.1028C20.5186 19.4525 20.3062 19.7701 20.0385 20.0377C19.7708 20.3052 19.453 20.5173 19.1032 20.6619C18.7534 20.8065 18.3786 20.8807 18.0001 20.8802ZM23.6497 13.3883C23.6497 13.5934 23.5889 13.7939 23.475 13.9645C23.361 14.135 23.1991 14.2679 23.0096 14.3464C22.8201 14.4249 22.6116 14.4454 22.4104 14.4054C22.2093 14.3654 22.0245 14.2667 21.8795 14.1216C21.7344 13.9766 21.6356 13.7918 21.5956 13.5907C21.5556 13.3895 21.5762 13.181 21.6547 12.9915C21.7331 12.802 21.8661 12.64 22.0366 12.5261C22.2071 12.4122 22.4076 12.3513 22.6127 12.3513C22.8878 12.3513 23.1515 12.4606 23.346 12.6551C23.5405 12.8495 23.6497 13.1133 23.6497 13.3883ZM26.5883 14.4381C26.547 13.5185 26.3999 12.8899 26.1873 12.3407C25.9651 11.7669 25.6256 11.2457 25.1905 10.8106C24.7554 10.3755 24.2342 10.036 23.6603 9.81382C23.1101 9.60218 22.4826 9.45404 21.563 9.41277C20.6435 9.3715 20.3472 9.35986 18.0001 9.35986C15.6531 9.35986 15.3547 9.37045 14.4383 9.41277C13.5219 9.4551 12.8902 9.60007 12.341 9.81382C11.7671 10.036 11.246 10.3755 10.8108 10.8106C10.3757 11.2457 10.0362 11.7669 9.81407 12.3407C9.60243 12.8899 9.45429 13.5185 9.41302 14.4381C9.37175 15.3576 9.36011 15.6539 9.36011 17.9999C9.36011 20.3459 9.37069 20.6453 9.41302 21.5628C9.45534 22.4802 9.60032 23.1098 9.81407 23.6601C10.0362 24.2339 10.3757 24.7551 10.8108 25.1902C11.246 25.6254 11.7671 25.9649 12.341 26.187C12.8902 26.3986 13.5187 26.5468 14.4383 26.5881C15.3579 26.6293 15.6542 26.6399 18.0001 26.6399C20.3461 26.6399 20.6456 26.6304 21.563 26.5881C22.4805 26.5457 23.1101 26.4008 23.6603 26.187C24.2342 25.9649 24.7554 25.6254 25.1905 25.1902C25.6256 24.7551 25.9651 24.2339 26.1873 23.6601C26.3989 23.1098 26.547 22.4823 26.5883 21.5628C26.6296 20.6432 26.6402 20.3469 26.6402 17.9999C26.6402 15.6528 26.6306 15.3597 26.5883 14.4381ZM25.0338 21.4919C24.9947 22.3384 24.8539 22.7913 24.7354 23.0961C24.592 23.4688 24.3721 23.8074 24.0897 24.0899C23.8074 24.3724 23.469 24.5926 23.0963 24.7362C22.7916 24.8537 22.3344 24.9944 21.4921 25.0325C20.581 25.0749 20.308 25.0833 18.0001 25.0833C15.6922 25.0833 15.4203 25.0749 14.5081 25.0325C13.6616 24.9944 13.2087 24.8537 12.9039 24.7362C12.5313 24.5924 12.1928 24.3721 11.9103 24.0897C11.6279 23.8072 11.4076 23.4687 11.2638 23.0961C11.1453 22.7913 11.0056 22.3342 10.9664 21.4919C10.9252 20.5808 10.9156 20.3067 10.9156 17.9999C10.9156 15.6931 10.9252 15.42 10.9664 14.5079C11.0056 13.6614 11.1453 13.2085 11.2638 12.9037C11.4076 12.531 11.6279 12.1926 11.9103 11.9101C12.1928 11.6276 12.5313 11.4074 12.9039 11.2635C13.2087 11.1461 13.6658 11.0053 14.5081 10.9662C15.4192 10.9249 15.6922 10.9164 18.0001 10.9164C20.308 10.9164 20.581 10.9249 21.4921 10.9662C22.3387 11.0053 22.7916 11.1461 23.0963 11.2635C23.469 11.4072 23.8074 11.6273 24.0897 11.9098C24.3721 12.1924 24.592 12.5309 24.7354 12.9037C24.8539 13.2085 24.9947 13.6656 25.0338 14.5079C25.0751 15.419 25.0836 15.692 25.0836 17.9999C25.0836 20.3078 25.0751 20.5808 25.0338 21.4919Z" fill="url(#paint0_linear_141_185)"></path> <defs> <linearGradient id="paint0_linear_141_185" x1="18.0001" y1="9.35986" x2="18.0001" y2="26.6399" gradientUnits="userSpaceOnUse"> <stop stop-color="#FFB287"></stop> <stop offset="0.0001" stop-color="#FF9D87"></stop> <stop offset="1" stop-color="#FFC887"></stop> </linearGradient> </defs> </svg> 