<?xml version="1.0" encoding="UTF-8"?> <svg xmlns="http://www.w3.org/2000/svg" width="14" height="14" viewBox="0 0 14 14" fill="none"> <path d="M3.88889 0.777778H14V2.33333H3.88889V0.777778ZM1.55556 0V2.33333H2.33333V3.11111H0V2.33333H0.777778V0.777778H0V0H1.55556ZM0 8.55556V6.61111H1.55556V6.22222H0V5.44444H2.33333V7.38889H0.777778V7.77778H2.33333V8.55556H0ZM1.55556 12.8333H0V12.0556H1.55556V11.6667H0V10.8889H2.33333V14H0V13.2222H1.55556V12.8333ZM3.88889 6.22222H14V7.77778H3.88889V6.22222ZM3.88889 11.6667H14V13.2222H3.88889V11.6667Z" fill="#F3DC9F"></path> <path d="M3.88889 0.777778H14V2.33333H3.88889V0.777778ZM1.55556 0V2.33333H2.33333V3.11111H0V2.33333H0.777778V0.777778H0V0H1.55556ZM0 8.55556V6.61111H1.55556V6.22222H0V5.44444H2.33333V7.38889H0.777778V7.77778H2.33333V8.55556H0ZM1.55556 12.8333H0V12.0556H1.55556V11.6667H0V10.8889H2.33333V14H0V13.2222H1.55556V12.8333ZM3.88889 6.22222H14V7.77778H3.88889V6.22222ZM3.88889 11.6667H14V13.2222H3.88889V11.6667Z" fill="url(#paint0_linear_145_170)"></path> <defs> <linearGradient id="paint0_linear_145_170" x1="11.9769" y1="-3.54118" x2="-0.583808" y2="-0.76357" gradientUnits="userSpaceOnUse"> <stop stop-color="#FFE8CA"></stop> <stop offset="0.260417" stop-color="#FFE0E3"></stop> <stop offset="0.442708" stop-color="#FFC9ED"></stop> <stop offset="0.697917" stop-color="#C8BDFB"></stop> <stop offset="0.947917" stop-color="#A7C7FF"></stop> </linearGradient> </defs> </svg> 