<?xml version="1.0" encoding="UTF-8"?> <svg xmlns="http://www.w3.org/2000/svg" width="28" height="28" viewBox="0 0 28 28" fill="none"> <path d="M14.375 14.8756C17.4305 14.8756 19.9167 12.3894 19.9167 9.3339C19.9167 6.2784 17.4305 3.79224 14.375 3.79224C11.3195 3.79224 8.83333 6.2784 8.83333 9.3339C8.83333 12.3894 11.3195 14.8756 14.375 14.8756ZM14.375 5.54224C16.4657 5.54224 18.1667 7.24324 18.1667 9.3339C18.1667 11.4246 16.4657 13.1256 14.375 13.1256C12.2843 13.1256 10.5833 11.4246 10.5833 9.3339C10.5833 7.24324 12.2843 5.54224 14.375 5.54224ZM22.25 20.3006V21.3109C22.25 22.2757 21.8965 23.2009 21.256 23.9161C21.0845 24.1098 20.8442 24.2078 20.6038 24.2078C20.395 24.2078 20.1873 24.1342 20.0205 23.9849C19.66 23.6629 19.6297 23.1099 19.9517 22.7494C20.304 22.3551 20.4989 21.8441 20.4989 21.3109V20.3006C20.4989 18.8434 19.5329 17.5835 18.1504 17.237C17.924 17.1798 17.6883 17.2112 17.4958 17.3197C15.5568 18.4 13.1815 18.3954 11.2577 17.3244C11.0558 17.2101 10.8202 17.1808 10.5974 17.2357C9.21369 17.5833 8.24765 18.8434 8.24765 20.3006V21.3109C8.24765 21.8441 8.44248 22.3551 8.79481 22.7494C9.11681 23.1099 9.08652 23.6629 8.72602 23.9849C8.36669 24.3057 7.8125 24.2766 7.4905 23.9161C6.85 23.2009 6.49651 22.2746 6.49651 21.3109V20.3006C6.49651 18.0408 8.00615 16.0831 10.168 15.5382C10.8213 15.3726 11.5342 15.4671 12.114 15.7996C13.5035 16.5719 15.2302 16.5765 16.636 15.7949C17.2077 15.467 17.9181 15.3714 18.575 15.5394C20.7403 16.083 22.25 18.0408 22.25 20.3006ZM20.5502 4.57509C20.7112 4.12009 21.2105 3.88089 21.6667 4.04189C23.4108 4.65789 24.5833 6.31574 24.5833 8.16724C24.5833 9.4109 24.0513 10.5986 23.125 11.4281C22.957 11.5775 22.7493 11.6509 22.5417 11.6509C22.3013 11.6509 22.0621 11.5529 21.8895 11.3592C21.5675 10.9987 21.5978 10.4457 21.9583 10.1237C22.5148 9.62674 22.8333 8.9139 22.8333 8.16724C22.8333 7.05657 22.1298 6.06146 21.0833 5.69163C20.6272 5.53063 20.3892 5.03009 20.5502 4.57509ZM25.75 17.3057V18.1481C25.75 18.6311 25.358 19.0231 24.875 19.0231C24.392 19.0231 24 18.6311 24 18.1481V17.3057C24 16.1589 23.2405 15.1672 22.1532 14.8942C21.6853 14.7764 21.3995 14.3015 21.5173 13.8325C21.6363 13.3635 22.1135 13.0801 22.579 13.1968C24.4468 13.6658 25.75 15.3551 25.75 17.3057ZM5.625 11.9461C4.69867 11.1166 4.16667 9.92887 4.16667 8.6852C4.16667 6.8337 5.33917 5.17586 7.08333 4.55986C7.543 4.39886 8.0388 4.63806 8.1998 5.09306C8.3608 5.54922 8.12283 6.04859 7.66667 6.20959C6.62017 6.57943 5.91667 7.57453 5.91667 8.6852C5.91667 9.4307 6.23517 10.1435 6.79167 10.6417C7.15217 10.9637 7.18252 11.5168 6.86052 11.8773C6.68902 12.071 6.44867 12.169 6.20833 12.169C6.00067 12.169 5.79183 12.0954 5.625 11.9461ZM6.59684 15.4122C5.50951 15.6852 4.75 16.6769 4.75 17.8237V18.6672C4.75 19.1502 4.358 19.5422 3.875 19.5422C3.392 19.5422 3 19.1502 3 18.6672V17.8248C3 15.8742 4.30435 14.1849 6.17102 13.7159C6.63885 13.6015 7.11482 13.8828 7.23266 14.3518C7.35049 14.8184 7.06584 15.2944 6.59684 15.4122Z" fill="#41416E"></path> </svg> 