<svg width="53" height="53" viewBox="0 0 53 53" fill="none" xmlns="http://www.w3.org/2000/svg">
<rect width="53" height="53" rx="26.5" fill="#5271FF"/>
<path d="M26.9987 26.9372C30.6175 26.9372 33.5612 23.9934 33.5612 20.3747C33.5612 16.7559 30.6175 13.8122 26.9987 13.8122C23.38 13.8122 20.4362 16.7559 20.4362 20.3747C20.4362 23.9934 23.38 26.9372 26.9987 26.9372ZM26.9987 15.6872C29.5837 15.6872 31.6862 17.7897 31.6862 20.3747C31.6862 22.9597 29.5837 25.0622 26.9987 25.0622C24.4137 25.0622 22.3112 22.9597 22.3112 20.3747C22.3112 17.7897 24.4137 15.6872 26.9987 15.6872ZM36.6862 33.4585V34.7222C36.6862 35.891 36.26 37.0109 35.485 37.8747C35.3 38.0822 35.0437 38.1872 34.7862 38.1872C34.5637 38.1872 34.34 38.1084 34.1612 37.9484C33.775 37.6034 33.7437 37.0109 34.0887 36.6247C34.555 36.1034 34.8125 35.4284 34.8125 34.7234V33.4597C34.8125 31.5672 33.5575 29.9296 31.7587 29.4784C31.4425 29.3984 31.1025 29.4422 30.8262 29.5985C28.45 30.921 25.5425 30.9159 23.1812 29.6021C22.8987 29.4409 22.5587 29.3947 22.2425 29.4772C20.4437 29.9297 19.1875 31.5672 19.1875 33.4597V34.7234C19.1875 35.4297 19.445 36.1047 19.9113 36.6247C20.2563 37.0109 20.2237 37.6034 19.8387 37.9484C19.4512 38.2946 18.8587 38.2609 18.515 37.8759C17.74 37.0109 17.3138 35.8909 17.3138 34.7234V33.4597C17.3138 30.7072 19.1525 28.3222 21.785 27.6597C22.5637 27.4622 23.41 27.5747 24.1025 27.9697C25.89 28.9647 28.105 28.9684 29.9075 27.9659C30.5913 27.5759 31.4375 27.4647 32.2188 27.6609C34.8475 28.3197 36.6862 30.7047 36.6862 33.4585Z" fill="white"/>
</svg>
