<?xml version="1.0" encoding="UTF-8"?> <svg xmlns="http://www.w3.org/2000/svg" width="565" height="170" viewBox="0 0 565 170" fill="none"> <g opacity="0.32"> <path d="M564.714 167V2.63636H498.905C486.813 2.63636 476.728 4.42874 468.648 8.01349C460.569 11.5982 454.497 16.5741 450.43 22.941C446.364 29.2545 444.331 36.531 444.331 44.7706C444.331 51.1911 445.615 56.8357 448.183 61.7045C450.751 66.5199 454.283 70.4792 458.777 73.5824C463.218 76.6321 468.301 78.799 474.026 80.0831V81.6882C467.766 81.9557 461.907 83.7213 456.45 86.9851C450.939 90.2488 446.471 94.8234 443.047 100.709C439.623 106.541 437.911 113.496 437.911 121.575C437.911 130.296 440.077 138.081 444.411 144.93C448.692 151.725 455.032 157.102 463.432 161.061C471.832 165.02 482.185 167 494.491 167H564.714ZM529.964 138.589H501.634C491.949 138.589 484.887 136.744 480.446 133.052C476.005 129.307 473.785 124.331 473.785 118.124C473.785 113.576 474.882 109.564 477.075 106.086C479.269 102.608 482.399 99.8795 486.465 97.8999C490.478 95.9202 495.267 94.9304 500.831 94.9304H529.964V138.589ZM529.964 71.4155H504.202C499.44 71.4155 495.213 70.5862 491.521 68.9276C487.776 67.2154 484.833 64.8078 482.693 61.7045C480.5 58.6013 479.403 54.8828 479.403 50.549C479.403 44.6101 481.516 39.8215 485.743 36.1832C489.916 32.545 495.855 30.7258 503.56 30.7258H529.964V71.4155ZM415.298 167V2.63636H304.546V31.2876H380.548V70.4524H310.244V99.1037H380.548V138.349H304.225V167H415.298ZM187.754 49.907C188.396 43.433 191.151 38.4036 196.02 34.8189C200.889 31.2341 207.496 29.4418 215.843 29.4418C221.514 29.4418 226.303 30.2443 230.209 31.8494C234.115 33.401 237.111 35.5679 239.197 38.3501C241.231 41.1323 242.247 44.2891 242.247 47.8203C242.354 50.763 241.739 53.3312 240.401 55.5249C239.01 57.7185 237.111 59.6179 234.703 61.223C232.295 62.7746 229.513 64.139 226.357 65.316C223.2 66.4396 219.829 67.4027 216.244 68.2053L201.477 71.7365C194.308 73.3416 187.727 75.4818 181.734 78.157C175.742 80.8321 170.552 84.1226 166.165 88.0284C161.777 91.9342 158.38 96.5355 155.972 101.832C153.511 107.129 152.254 113.202 152.2 120.05C152.254 130.109 154.822 138.83 159.905 146.214C164.934 153.544 172.211 159.242 181.734 163.308C191.205 167.321 202.628 169.327 216.004 169.327C229.272 169.327 240.829 167.294 250.674 163.228C260.465 159.162 268.116 153.143 273.627 145.17C279.085 137.145 281.947 127.22 282.214 115.396H248.587C248.213 120.906 246.634 125.508 243.852 129.2C241.017 132.838 237.245 135.593 232.536 137.466C227.774 139.285 222.397 140.195 216.405 140.195C210.519 140.195 205.41 139.339 201.076 137.626C196.689 135.914 193.291 133.533 190.884 130.484C188.476 127.434 187.272 123.929 187.272 119.97C187.272 116.278 188.369 113.175 190.562 110.661C192.703 108.146 195.859 106.006 200.033 104.24C204.152 102.474 209.209 100.869 215.201 99.4247L233.098 94.9304C246.955 91.5597 257.897 86.2895 265.923 79.12C273.948 71.9505 277.934 62.2931 277.881 50.1477C277.934 40.196 275.286 31.5017 269.935 24.0646C264.531 16.6276 257.121 10.8224 247.705 6.64914C238.288 2.47585 227.587 0.389198 215.602 0.389198C203.403 0.389198 192.756 2.47585 183.661 6.64914C174.511 10.8224 167.395 16.6276 162.312 24.0646C157.23 31.5017 154.608 40.1158 154.447 49.907H187.754ZM135.086 31.2876V2.63636H0.0957031V31.2876H50.416V167H84.7654V31.2876H135.086Z" fill="white"></path> <path d="M564.714 167V2.63636H498.905C486.813 2.63636 476.728 4.42874 468.648 8.01349C460.569 11.5982 454.497 16.5741 450.43 22.941C446.364 29.2545 444.331 36.531 444.331 44.7706C444.331 51.1911 445.615 56.8357 448.183 61.7045C450.751 66.5199 454.283 70.4792 458.777 73.5824C463.218 76.6321 468.301 78.799 474.026 80.0831V81.6882C467.766 81.9557 461.907 83.7213 456.45 86.9851C450.939 90.2488 446.471 94.8234 443.047 100.709C439.623 106.541 437.911 113.496 437.911 121.575C437.911 130.296 440.077 138.081 444.411 144.93C448.692 151.725 455.032 157.102 463.432 161.061C471.832 165.02 482.185 167 494.491 167H564.714ZM529.964 138.589H501.634C491.949 138.589 484.887 136.744 480.446 133.052C476.005 129.307 473.785 124.331 473.785 118.124C473.785 113.576 474.882 109.564 477.075 106.086C479.269 102.608 482.399 99.8795 486.465 97.8999C490.478 95.9202 495.267 94.9304 500.831 94.9304H529.964V138.589ZM529.964 71.4155H504.202C499.44 71.4155 495.213 70.5862 491.521 68.9276C487.776 67.2154 484.833 64.8078 482.693 61.7045C480.5 58.6013 479.403 54.8828 479.403 50.549C479.403 44.6101 481.516 39.8215 485.743 36.1832C489.916 32.545 495.855 30.7258 503.56 30.7258H529.964V71.4155ZM415.298 167V2.63636H304.546V31.2876H380.548V70.4524H310.244V99.1037H380.548V138.349H304.225V167H415.298ZM187.754 49.907C188.396 43.433 191.151 38.4036 196.02 34.8189C200.889 31.2341 207.496 29.4418 215.843 29.4418C221.514 29.4418 226.303 30.2443 230.209 31.8494C234.115 33.401 237.111 35.5679 239.197 38.3501C241.231 41.1323 242.247 44.2891 242.247 47.8203C242.354 50.763 241.739 53.3312 240.401 55.5249C239.01 57.7185 237.111 59.6179 234.703 61.223C232.295 62.7746 229.513 64.139 226.357 65.316C223.2 66.4396 219.829 67.4027 216.244 68.2053L201.477 71.7365C194.308 73.3416 187.727 75.4818 181.734 78.157C175.742 80.8321 170.552 84.1226 166.165 88.0284C161.777 91.9342 158.38 96.5355 155.972 101.832C153.511 107.129 152.254 113.202 152.2 120.05C152.254 130.109 154.822 138.83 159.905 146.214C164.934 153.544 172.211 159.242 181.734 163.308C191.205 167.321 202.628 169.327 216.004 169.327C229.272 169.327 240.829 167.294 250.674 163.228C260.465 159.162 268.116 153.143 273.627 145.17C279.085 137.145 281.947 127.22 282.214 115.396H248.587C248.213 120.906 246.634 125.508 243.852 129.2C241.017 132.838 237.245 135.593 232.536 137.466C227.774 139.285 222.397 140.195 216.405 140.195C210.519 140.195 205.41 139.339 201.076 137.626C196.689 135.914 193.291 133.533 190.884 130.484C188.476 127.434 187.272 123.929 187.272 119.97C187.272 116.278 188.369 113.175 190.562 110.661C192.703 108.146 195.859 106.006 200.033 104.24C204.152 102.474 209.209 100.869 215.201 99.4247L233.098 94.9304C246.955 91.5597 257.897 86.2895 265.923 79.12C273.948 71.9505 277.934 62.2931 277.881 50.1477C277.934 40.196 275.286 31.5017 269.935 24.0646C264.531 16.6276 257.121 10.8224 247.705 6.64914C238.288 2.47585 227.587 0.389198 215.602 0.389198C203.403 0.389198 192.756 2.47585 183.661 6.64914C174.511 10.8224 167.395 16.6276 162.312 24.0646C157.23 31.5017 154.608 40.1158 154.447 49.907H187.754ZM135.086 31.2876V2.63636H0.0957031V31.2876H50.416V167H84.7654V31.2876H135.086Z" fill="url(#paint0_linear_194_229)"></path> </g> <defs> <linearGradient id="paint0_linear_194_229" x1="76.8266" y1="-121.306" x2="527.978" y2="92.4249" gradientUnits="userSpaceOnUse"> <stop stop-color="#FFE8CA"></stop> <stop offset="0.260417" stop-color="#FFE0E3"></stop> <stop offset="0.442708" stop-color="#FFC9ED"></stop> <stop offset="0.697917" stop-color="#C8BDFB"></stop> <stop offset="0.947917" stop-color="#A7C7FF"></stop> </linearGradient> </defs> </svg> 