<?xml version="1.0" encoding="UTF-8"?> <svg xmlns="http://www.w3.org/2000/svg" width="28" height="28" viewBox="0 0 28 28" fill="none"> <path d="M24.6324 11.2868C24.3431 10.3885 23.5789 9.74694 22.6374 9.61161L17.7608 8.91392L15.5826 4.56455C15.1638 3.72805 14.3191 3.2089 13.3753 3.2089C12.4314 3.2089 11.5868 3.72805 11.1679 4.56455L8.98975 8.91392L4.11309 9.61275C3.17159 9.74692 2.40744 10.3897 2.1181 11.2868C1.83227 12.1747 2.07376 13.1314 2.75043 13.7801L6.27143 17.161L5.44076 21.9327C5.28093 22.8473 5.6496 23.7575 6.4021 24.3093C6.83843 24.629 7.34943 24.7911 7.8651 24.7911C8.25476 24.7911 8.64675 24.6978 9.00958 24.51L13.3741 22.2488L17.7386 24.51C18.5832 24.9463 19.5819 24.8693 20.3473 24.3093C21.0998 23.7575 21.4684 22.8473 21.3086 21.9327L20.4779 17.161L23.9989 13.7801C24.6767 13.1303 24.9182 12.1747 24.6324 11.2868ZM22.7879 12.5177L18.9309 16.222C18.7209 16.4238 18.6253 16.7166 18.6754 17.0024L19.5854 22.2337C19.6508 22.6059 19.4163 22.8217 19.3136 22.8975C19.2272 22.9594 18.9181 23.1496 18.5448 22.9559L13.7778 20.486C13.5246 20.3554 13.2248 20.3554 12.9728 20.486L8.20575 22.9559C7.83359 23.1508 7.52326 22.9605 7.43693 22.8975C7.33426 22.8217 7.09976 22.6059 7.16509 22.2326L8.07509 17.0024C8.12526 16.7154 8.02843 16.4226 7.8196 16.222L3.9626 12.5177C3.68493 12.2506 3.74441 11.9426 3.78408 11.8225C3.82491 11.6976 3.96141 11.4013 4.36157 11.3441L9.69093 10.581C9.97443 10.5402 10.2206 10.3629 10.3489 10.1062L12.7324 5.34741C12.9086 4.99508 13.2411 4.95776 13.3753 4.95776C13.5094 4.95776 13.8407 4.99508 14.0181 5.34741L16.4016 10.1062C16.5299 10.3629 16.7761 10.5402 17.0596 10.581L22.3889 11.343C22.7891 11.4001 22.9256 11.6964 22.9664 11.8212C23.0049 11.9425 23.0656 12.2506 22.7879 12.5177Z" fill="#41416E"></path> </svg> 